<svg viewBox="0 0 49 48" fill="none" xmlns="http://www.w3.org/2000/svg">
<path d="M4.78316 29.3603C4.92098 29.8653 5.25128 30.2961 5.70316 30.5603L9.52316 32.7803V37.1803C9.52316 37.7107 9.73388 38.2194 10.109 38.5945C10.484 38.9696 10.9927 39.1803 11.5232 39.1803H15.9232L18.1432 43.0003C18.3177 43.3026 18.5683 43.5539 18.87 43.7293C19.1717 43.9048 19.5141 43.9982 19.8632 44.0003C20.2221 44.0002 20.5745 43.9035 20.8832 43.7203L24.6832 41.5203L28.5032 43.7203C28.7302 43.8533 28.9813 43.9403 29.2421 43.9761C29.5028 44.0119 29.7681 43.9959 30.0226 43.9291C30.2772 43.8622 30.516 43.7457 30.7255 43.5863C30.9349 43.4269 31.1108 43.2278 31.2432 43.0003L33.4432 39.1803H37.8432C38.3736 39.1803 38.8823 38.9696 39.2574 38.5945C39.6325 38.2194 39.8432 37.7107 39.8432 37.1803V32.7803L43.6632 30.5603C44.1206 30.2964 44.4552 29.8624 44.5938 29.3528C44.7324 28.8432 44.6639 28.2995 44.4032 27.8403L42.1832 24.0003L44.4032 20.1803C44.6639 19.721 44.7324 19.1773 44.5938 18.6677C44.4552 18.1582 44.1206 17.7241 43.6632 17.4603L39.8432 15.2603V10.8603C39.8432 10.3298 39.6325 9.82114 39.2574 9.44606C38.8823 9.07099 38.3736 8.86028 37.8432 8.86028H33.4432L31.2432 5.04028C30.9743 4.58423 30.5356 4.25339 30.0232 4.12028C29.7691 4.05201 29.5041 4.03453 29.2432 4.06885C28.9824 4.10317 28.7309 4.18861 28.5032 4.32028L24.6632 6.52028L20.8632 4.32028C20.4063 4.05785 19.8644 3.98627 19.3551 4.12108C18.8459 4.2559 18.4103 4.58621 18.1432 5.04028L15.9232 8.86028H11.5232C10.9927 8.86028 10.484 9.07099 10.109 9.44606C9.73388 9.82114 9.52316 10.3298 9.52316 10.8603V15.2603L5.72316 17.4603C5.49399 17.5909 5.29293 17.7656 5.13156 17.9743C4.97019 18.183 4.8517 18.4216 4.78292 18.6763C4.71414 18.9309 4.69642 19.1967 4.73079 19.4583C4.76515 19.7198 4.85093 19.972 4.98316 20.2003L7.18316 24.0003L4.98316 27.8203C4.84884 28.0507 4.76194 28.3056 4.72759 28.5701C4.69325 28.8345 4.71214 29.1032 4.78316 29.3603ZM11.2232 23.0203L9.44316 20.0003L12.5432 18.2003C12.8417 18.0233 13.0891 17.7716 13.2609 17.47C13.4327 17.1685 13.5231 16.8274 13.5232 16.4803V12.8603H17.0832C17.4356 12.8617 17.7821 12.7699 18.0877 12.5943C18.3932 12.4187 18.647 12.1655 18.8232 11.8603L20.6632 8.78028L23.7432 10.5603C24.0472 10.7358 24.3921 10.8282 24.7432 10.8282C25.0942 10.8282 25.4391 10.7358 25.7432 10.5603L28.8432 8.78028L30.6632 11.8603C30.8394 12.1655 31.0931 12.4187 31.3987 12.5943C31.7042 12.7699 32.0507 12.8617 32.4032 12.8603H35.9432V16.4203C35.9453 16.7693 36.0387 17.1117 36.2141 17.4134C36.3895 17.7152 36.6409 17.9658 36.9432 18.1403L40.0232 19.9403L38.2432 23.0203C38.0676 23.3243 37.9752 23.6692 37.9752 24.0203C37.9752 24.3714 38.0676 24.7162 38.2432 25.0203L40.0232 28.1003L36.9432 29.9003C36.6409 30.0748 36.3895 30.3254 36.2141 30.6271C36.0387 30.9288 35.9453 31.2712 35.9432 31.6203V35.1803H32.2832C31.9341 35.1824 31.5917 35.2758 31.29 35.4512C30.9883 35.6267 30.7377 35.878 30.5632 36.1803L28.7832 39.2603L25.6832 37.4803C25.3791 37.3047 25.0342 37.2123 24.6832 37.2123C24.3321 37.2123 23.9872 37.3047 23.6832 37.4803L20.6632 39.2603L18.8832 36.1803C18.707 35.8751 18.4532 35.6218 18.1477 35.4462C17.8421 35.2706 17.4956 35.1789 17.1432 35.1803H13.5232V31.6203C13.5063 31.2903 13.408 30.9697 13.237 30.687C13.066 30.4043 12.8276 30.1683 12.5432 30.0003L9.44316 28.2003L11.2232 25.1203C11.4179 24.8047 11.521 24.4411 11.521 24.0703C11.521 23.6994 11.4179 23.3359 11.2232 23.0203Z" fill="#E1BC93"/>
</svg>
