<svg viewBox="0 0 49 48" fill="none" xmlns="http://www.w3.org/2000/svg">
<path d="M24.3281 44C32.2801 44 40.3281 41.252 40.3281 36V12C40.3281 6.748 32.2801 4 24.3281 4C16.3761 4 8.32812 6.748 8.32812 12V36C8.32812 41.252 16.3761 44 24.3281 44ZM24.3281 40C16.8841 40 12.3281 37.41 12.3281 36V33.464C15.4101 35.14 19.8821 36 24.3281 36C28.7741 36 33.2461 35.14 36.3281 33.464V36C36.3281 37.41 31.7721 40 24.3281 40ZM24.3281 8C31.7721 8 36.3281 10.59 36.3281 12C36.3281 13.41 31.7721 16 24.3281 16C16.8841 16 12.3281 13.41 12.3281 12C12.3281 10.59 16.8841 8 24.3281 8ZM12.3281 17.464C15.4101 19.14 19.8821 20 24.3281 20C28.7741 20 33.2461 19.14 36.3281 17.464V20C36.3281 21.41 31.7721 24 24.3281 24C16.8841 24 12.3281 21.41 12.3281 20V17.464ZM12.3281 25.464C15.4101 27.14 19.8821 28 24.3281 28C28.7741 28 33.2461 27.14 36.3281 25.464V28C36.3281 29.41 31.7721 32 24.3281 32C16.8841 32 12.3281 29.41 12.3281 28V25.464Z" fill="#E1BC93"/>
</svg>
