<svg viewBox="0 0 25 25" fill="none" xmlns="http://www.w3.org/2000/svg">
<path d="M21.4954 7.39998C21.4788 7.23193 21.4198 7.07084 21.324 6.9318C21.2281 6.79276 21.0986 6.68031 20.9474 6.60498L12.9474 2.60498C12.8085 2.53546 12.6553 2.49927 12.4999 2.49927C12.3446 2.49927 12.1914 2.53546 12.0524 2.60498L4.05243 6.60498C3.9017 6.68074 3.77254 6.79332 3.67692 6.9323C3.5813 7.07127 3.52231 7.23214 3.50543 7.39998C3.49443 7.50698 2.54443 18.167 12.0944 22.414C12.222 22.4716 12.3604 22.5014 12.5004 22.5014C12.6404 22.5014 12.7788 22.4716 12.9064 22.414C22.4564 18.167 21.5064 7.50798 21.4954 7.39998ZM12.5004 20.397C5.73143 17.125 5.41143 10.142 5.46643 8.13498L12.5004 4.61798L19.5294 8.13298C19.5664 10.122 19.2014 17.151 12.5004 20.397Z" fill="#D2BB69"/>
<path d="M11.5005 13.086L9.20746 10.793L7.79346 12.207L11.5005 15.914L17.2075 10.207L15.7935 8.79303L11.5005 13.086Z" fill="#D2BB69"/>
</svg>
