<svg viewBox="0 0 20 20" fill="none" xmlns="http://www.w3.org/2000/svg">
<path d="M20 17.2924L17.8779 15.1943C18.7723 13.7573 19.2195 12.1013 19.2195 10.2243C19.2174 4.92052 14.971 0.722168 9.60869 0.722168C4.24639 0.722168 0 5.03106 0 10.2222C0 15.4133 4.24639 19.7222 9.60869 19.7222C11.7308 19.7222 13.6315 19.0589 15.1946 17.8451L17.2049 19.7222L19.9979 17.2924H20ZM9.72049 15.966C6.48033 15.966 3.79918 13.4257 3.79918 10.1116C3.79918 6.79758 6.36853 4.25729 9.72049 4.25729C13.0725 4.25729 15.6418 6.79758 15.6418 10.1116C15.6418 10.8854 15.53 11.5486 15.1946 12.3203L15.241 12.2098H9.60869L12.6252 15.1922C11.619 15.6344 10.8385 15.966 9.72049 15.966Z" fill="currentColor"/>
</svg>
