<svg width="48" height="48" viewBox="0 0 48 48" fill="none" xmlns="http://www.w3.org/2000/svg">
<g clip-path="url(#clip0_8418_44499)">
<g clip-path="url(#clip1_8418_44499)">
<path d="M27.005 26.9183L30.9779 26.7431C37.5093 26.4576 42.4833 20.9181 42.0663 14.3941C41.8641 11.2279 40.4394 8.30285 38.055 6.15781C35.6706 4.01277 32.6117 2.90433 29.4419 3.03696C22.9097 3.31 17.9254 8.84123 18.3304 15.3652L19.4177 32.8892C19.6093 35.9748 17.2522 38.5903 14.1627 38.7196C11.0683 38.8491 8.38998 36.4396 8.19258 33.3488C8.09393 31.8042 8.63405 30.3764 9.58583 29.3184C10.5376 28.2604 11.8939 27.5761 13.4366 27.5085L17.3836 27.3285L17.0029 21.0783L13.0262 21.2612C6.49536 21.5462 1.52086 27.0862 1.93754 33.6105C2.35495 40.1462 8.01817 45.2409 14.5617 44.9674C17.8317 44.8308 20.7136 43.3762 22.7259 41.1394C24.7382 38.9025 25.8756 35.8975 25.6732 32.6391L24.5859 15.1151C24.3945 12.0298 26.7519 9.41399 29.8409 9.28474C31.34 9.22201 32.7866 9.74614 33.9143 10.7606C35.042 11.7751 35.7157 13.1584 35.8113 14.6558C36.0083 17.7412 33.6556 20.3611 30.5672 20.4961L26.6184 20.6719L27.0051 26.9188L27.005 26.9183Z" fill="#E1BC93"/>
</g>
</g>
<defs>
<clipPath id="clip0_8418_44499">
<rect width="48" height="48" fill="white"/>
</clipPath>
<clipPath id="clip1_8418_44499">
<rect width="48" height="24" fill="white" transform="translate(-2.96875 33.8169) rotate(-48.0251)"/>
</clipPath>
</defs>
</svg>
