<svg viewBox="0 0 49 48" fill="none" xmlns="http://www.w3.org/2000/svg">
<path d="M4.45504 29.3603C4.59286 29.8653 4.92315 30.2961 5.37504 30.5603L9.19504 32.7803V37.1803C9.19504 37.7107 9.40575 38.2194 9.78083 38.5945C10.1559 38.9696 10.6646 39.1803 11.195 39.1803H15.595L17.815 43.0003C17.9896 43.3026 18.2401 43.5539 18.5419 43.7293C18.8436 43.9048 19.186 43.9982 19.535 44.0003C19.894 44.0002 20.2463 43.9035 20.555 43.7203L24.355 41.5203L28.175 43.7203C28.4021 43.8533 28.6532 43.9403 28.914 43.9761C29.1747 44.0119 29.4399 43.9959 29.6945 43.9291C29.949 43.8622 30.1879 43.7457 30.3973 43.5863C30.6068 43.4269 30.7827 43.2278 30.915 43.0003L33.115 39.1803H37.515C38.0455 39.1803 38.5542 38.9696 38.9293 38.5945C39.3043 38.2194 39.515 37.7107 39.515 37.1803V32.7803L43.335 30.5603C43.7925 30.2964 44.1271 29.8624 44.2657 29.3528C44.4043 28.8432 44.3358 28.2995 44.075 27.8403L41.855 24.0003L44.075 20.1803C44.3358 19.721 44.4043 19.1773 44.2657 18.6677C44.1271 18.1582 43.7925 17.7241 43.335 17.4603L39.515 15.2603V10.8603C39.515 10.3298 39.3043 9.82114 38.9293 9.44606C38.5542 9.07099 38.0455 8.86028 37.515 8.86028H33.115L30.915 5.04028C30.6462 4.58423 30.2074 4.25339 29.695 4.12028C29.441 4.05201 29.1759 4.03453 28.9151 4.06885C28.6543 4.10317 28.4028 4.18861 28.175 4.32028L24.335 6.52028L20.535 4.32028C20.0782 4.05785 19.5363 3.98627 19.027 4.12108C18.5177 4.2559 18.0822 4.58621 17.815 5.04028L15.595 8.86028H11.195C10.6646 8.86028 10.1559 9.07099 9.78083 9.44606C9.40575 9.82114 9.19504 10.3298 9.19504 10.8603V15.2603L5.39504 17.4603C5.16586 17.5909 4.9648 17.7656 4.80343 17.9743C4.64207 18.183 4.52358 18.4216 4.4548 18.6763C4.38601 18.9309 4.3683 19.1967 4.40266 19.4583C4.43703 19.7198 4.5228 19.972 4.65504 20.2003L6.85504 24.0003L4.65504 27.8203C4.52071 28.0507 4.43382 28.3056 4.39947 28.5701C4.36512 28.8345 4.38402 29.1032 4.45504 29.3603ZM10.895 23.0203L9.11504 20.0003L12.215 18.2003C12.5136 18.0233 12.7609 17.7716 12.9328 17.47C13.1046 17.1685 13.195 16.8274 13.195 16.4803V12.8603H16.755C17.1075 12.8617 17.454 12.7699 17.7595 12.5943C18.0651 12.4187 18.3188 12.1655 18.495 11.8603L20.335 8.78028L23.415 10.5603C23.7191 10.7358 24.064 10.8282 24.415 10.8282C24.7661 10.8282 25.111 10.7358 25.415 10.5603L28.515 8.78028L30.335 11.8603C30.5112 12.1655 30.765 12.4187 31.0705 12.5943C31.3761 12.7699 31.7226 12.8617 32.075 12.8603H35.615V16.4203C35.6171 16.7693 35.7106 17.1117 35.886 17.4134C36.0614 17.7152 36.3128 17.9658 36.615 18.1403L39.695 19.9403L37.915 23.0203C37.7395 23.3243 37.6471 23.6692 37.6471 24.0203C37.6471 24.3714 37.7395 24.7162 37.915 25.0203L39.695 28.1003L36.615 29.9003C36.3128 30.0748 36.0614 30.3254 35.886 30.6271C35.7106 30.9288 35.6171 31.2712 35.615 31.6203V35.1803H31.955C31.606 35.1824 31.2636 35.2758 30.9619 35.4512C30.6601 35.6267 30.4095 35.878 30.235 36.1803L28.455 39.2603L25.355 37.4803C25.051 37.3047 24.7061 37.2123 24.355 37.2123C24.004 37.2123 23.6591 37.3047 23.355 37.4803L20.335 39.2603L18.555 36.1803C18.3788 35.8751 18.1251 35.6218 17.8195 35.4462C17.514 35.2706 17.1675 35.1789 16.815 35.1803H13.195V31.6203C13.1782 31.2903 13.0799 30.9697 12.9089 30.687C12.7379 30.4043 12.4995 30.1683 12.215 30.0003L9.11504 28.2003L10.895 25.1203C11.0897 24.8047 11.1928 24.4411 11.1928 24.0703C11.1928 23.6994 11.0897 23.3359 10.895 23.0203Z" fill="#E1BC93"/>
</svg>
