<svg  viewBox="0 0 48 48" fill="none" xmlns="http://www.w3.org/2000/svg">
<path d="M44 16.0003C44.0194 15.8609 44.0194 15.7196 44 15.5803V15.4203C43.9656 15.3086 43.9187 15.2013 43.86 15.1003C43.834 15.0427 43.8004 14.9888 43.76 14.9403L43.56 14.6803L43.16 14.3803L25.16 4.38025C24.856 4.20472 24.5111 4.1123 24.16 4.1123C23.8089 4.1123 23.464 4.20472 23.16 4.38025L5.16 14.3803L4.98 14.5203L4.76 14.6803C4.7019 14.7457 4.65463 14.8199 4.62 14.9003C4.55601 14.9576 4.50195 15.0252 4.46 15.1003C4.40807 15.188 4.36773 15.2821 4.34 15.3803C4.32881 15.4465 4.32881 15.5141 4.34 15.5803C4.20249 15.6988 4.08734 15.8411 4 16.0003V32.0003C4.0026 32.3566 4.10038 32.7059 4.28322 33.0118C4.46607 33.3177 4.72734 33.5692 5.04 33.7403L23.04 43.7403C23.1226 43.7885 23.2097 43.8286 23.3 43.8603H23.5C23.8286 43.94 24.1714 43.94 24.5 43.8603H24.7L24.98 43.7403L42.98 33.7403C43.2889 33.5666 43.5462 33.314 43.7254 33.0082C43.9046 32.7025 43.9994 32.3546 44 32.0003V16.0003ZM24 23.7403L10.12 16.0003L15.64 12.9603L29.3 20.7603L24 23.7403ZM24 8.30025L37.88 16.0003L33.4 18.5003L19.74 10.6803L24 8.30025ZM8 19.4003L22 27.2403V38.6003L8 30.8203V19.4003ZM26 38.6003V27.2403L32 23.8803V30.0003L36 28.0003V21.6403L40 19.4203V30.8203L26 38.6003Z" fill="#E1BC93"/>
</svg>
