<?xml version="1.0" encoding="UTF-8"?>
<svg id="IEWP" xmlns="http://www.w3.org/2000/svg" viewBox="0 0 225 229">
  <defs>
    <style>
      .cls-1 {
        fill: none;
      }

      .cls-1, .cls-2 {
        stroke-width: 0px;
      }

      .cls-2 {
        fill: #faf0b6;
      }
    </style>
  </defs>
  <g>
    <path class="cls-2" d="M134.14,30.94v.31c3.38.95,6.7,2.12,9.96,3.51,9.74,4.16,18.48,10.1,25.98,17.65,7.5,7.55,13.37,16.33,17.46,26.11,4.23,10.12,6.36,20.85,6.32,31.91-.04,11.03-2.24,21.73-6.53,31.8-4.14,9.72-10.06,18.45-17.58,25.94-7.52,7.49-16.27,13.37-26.01,17.48-10.08,4.25-20.78,6.41-31.8,6.41h-.31c-11.06-.04-21.78-2.25-31.87-6.56-9.74-4.16-18.48-10.1-25.98-17.65-7.5-7.55-13.37-16.33-17.46-26.11-4.23-10.12-6.36-20.85-6.32-31.91.04-11.03,2.24-21.73,6.53-31.8,4.14-9.72,10.06-18.45,17.58-25.94,7.52-7.49,16.27-13.37,26.01-17.48,3.14-1.33,6.35-2.45,9.6-3.36v-.3c-34.51,9.66-59.88,41.28-60.02,78.89-.17,45.41,36.51,82.36,81.92,82.53.11,0,.2,0,.31,0,45.27,0,82.05-36.62,82.22-81.92.14-37.82-25.28-69.77-60.02-79.49Z"/>
    <path class="cls-2" d="M28.45,109.39c1.34,1.25,1.8,2.53,1.35,2.78s-1.54-.4-2.66-1.94c-1.12-1.54-1.33-2.73-1.33-2.73,0,0,1.27.6,2.64,1.89Z"/>
    <path class="cls-2" d="M31.08,109.55c-1.28,1.16-1.7,2.37-1.25,2.62.44.25,1.5-.34,2.56-1.78,1.06-1.44,1.24-2.57,1.24-2.57,0,0-1.23.54-2.55,1.73Z"/>
    <path class="cls-2" d="M28.52,113.76c1.4,1.18,1.93,2.43,1.5,2.71s-1.56-.32-2.76-1.8c-1.2-1.48-1.48-2.65-1.48-2.65,0,0,1.3.54,2.74,1.75Z"/>
    <path class="cls-2" d="M31.16,113.78c-1.22,1.23-1.57,2.45-1.11,2.68.46.23,1.48-.42,2.47-1.92s1.1-2.63,1.1-2.63c0,0-1.2.61-2.45,1.87Z"/>
    <path class="cls-2" d="M28.83,118.13c1.46,1.11,2.05,2.32,1.63,2.62s-1.57-.24-2.85-1.65c-1.28-1.41-1.61-2.57-1.61-2.57,0,0,1.33.47,2.83,1.6Z"/>
    <path class="cls-2" d="M31.46,118.01c-1.15,1.29-1.44,2.53-.97,2.74.47.21,1.46-.5,2.36-2.04.91-1.54.96-2.69.96-2.69,0,0-1.17.67-2.35,1.99Z"/>
    <path class="cls-2" d="M29.36,122.46c1.52,1.03,2.17,2.21,1.77,2.53-.4.32-1.58-.16-2.93-1.5-1.35-1.34-1.74-2.49-1.74-2.49,0,0,1.35.4,2.91,1.45Z"/>
    <path class="cls-2" d="M31.99,122.21c-1.08,1.35-1.31,2.6-.83,2.79.48.18,1.43-.57,2.25-2.16.82-1.59.82-2.73.82-2.73,0,0-1.13.73-2.24,2.11Z"/>
    <path class="cls-2" d="M30.12,126.77c1.57.95,2.28,2.1,1.9,2.44-.38.34-1.59-.07-3.01-1.35-1.42-1.27-1.87-2.39-1.87-2.39,0,0,1.37.33,2.98,1.3Z"/>
    <path class="cls-2" d="M32.73,126.37c-1.01,1.4-1.17,2.67-.68,2.83.49.16,1.4-.65,2.14-2.28.74-1.63.67-2.77.67-2.77,0,0-1.09.79-2.13,2.23Z"/>
    <path class="cls-2" d="M31.1,131.03c1.62.87,2.39,1.97,2.02,2.34-.36.36-1.59,0-3.07-1.19-1.48-1.2-1.99-2.29-1.99-2.29,0,0,1.38.25,3.04,1.14Z"/>
    <path class="cls-2" d="M33.69,130.5c-.94,1.46-1.03,2.73-.53,2.86.5.13,1.36-.72,2.01-2.39.65-1.67.53-2.81.53-2.81,0,0-1.05.84-2.01,2.33Z"/>
    <path class="cls-2" d="M32.31,135.23c1.66.78,2.49,1.85,2.14,2.23-.35.38-1.59.09-3.13-1.02-1.54-1.12-2.11-2.18-2.11-2.18,0,0,1.4.18,3.1.98Z"/>
    <path class="cls-2" d="M34.86,134.56c-.86,1.5-.88,2.78-.38,2.88.5.11,1.32-.79,1.89-2.49.57-1.7.38-2.83.38-2.83,0,0-1.01.9-1.89,2.44Z"/>
    <path class="cls-2" d="M33.73,139.36c1.7.69,2.58,1.71,2.26,2.11-.32.4-1.58.18-3.18-.86-1.6-1.03-2.22-2.07-2.22-2.07,0,0,1.4.11,3.15.82Z"/>
    <path class="cls-2" d="M36.25,138.56c-.78,1.55-.74,2.82-.23,2.9s1.28-.86,1.75-2.58c.48-1.73.23-2.85.23-2.85,0,0-.96.95-1.76,2.53Z"/>
    <path class="cls-2" d="M35.37,143.41c1.73.6,2.67,1.58,2.37,1.99-.3.41-1.57.26-3.22-.69-1.65-.95-2.33-1.95-2.33-1.95,0,0,1.41.03,3.18.65Z"/>
    <path class="cls-2" d="M37.84,142.49c-.7,1.58-.59,2.85-.08,2.9.51.05,1.23-.92,1.61-2.67.38-1.75.08-2.85.08-2.85,0,0-.91,1-1.62,2.62Z"/>
    <path class="cls-2" d="M37.21,147.38c1.76.51,2.75,1.43,2.47,1.86-.28.43-1.55.34-3.25-.52-1.7-.86-2.43-1.82-2.43-1.82,0,0,1.41-.04,3.21.48Z"/>
    <path class="cls-2" d="M39.63,146.32c-.61,1.62-.44,2.88.07,2.9s1.18-.99,1.47-2.75c.29-1.77-.07-2.85-.07-2.85,0,0-.85,1.04-1.48,2.7Z"/>
    <path class="cls-2" d="M39.26,151.24c1.79.42,2.82,1.29,2.56,1.73-.26.44-1.53.42-3.28-.35-1.74-.77-2.52-1.7-2.52-1.7,0,0,1.4-.11,3.23.31Z"/>
    <path class="cls-2" d="M41.63,150.05c-.53,1.65-.29,2.9.23,2.9.51,0,1.13-1.05,1.33-2.83.2-1.78-.22-2.85-.22-2.85,0,0-.8,1.09-1.34,2.78Z"/>
    <path class="cls-2" d="M41.52,154.98c1.81.32,2.88,1.14,2.65,1.6s-1.51.5-3.29-.18c-1.78-.68-2.6-1.56-2.6-1.56,0,0,1.4-.19,3.25.14Z"/>
    <path class="cls-2" d="M43.81,153.68c-.44,1.67-.13,2.91.38,2.88.51-.03,1.07-1.1,1.18-2.89.11-1.79-.36-2.83-.36-2.83,0,0-.74,1.13-1.19,2.84Z"/>
    <path class="cls-2" d="M43.96,158.61c1.82.23,2.94.99,2.73,1.45-.21.47-1.48.58-3.29,0s-2.68-1.42-2.68-1.42c0,0,1.38-.26,3.25-.03Z"/>
    <path class="cls-2" d="M46.18,157.18c-.35,1.69.02,2.91.53,2.86.51-.06,1.01-1.16,1.02-2.95.01-1.79-.51-2.81-.51-2.81,0,0-.68,1.16-1.04,2.9Z"/>
    <path class="cls-2" d="M46.59,162.1c1.83.13,2.99.83,2.8,1.31-.19.48-1.45.65-3.29.17-1.84-.49-2.75-1.28-2.75-1.28,0,0,1.37-.33,3.24-.2Z"/>
    <path class="cls-2" d="M48.74,160.56c-.26,1.71.17,2.91.68,2.83.51-.08.95-1.21.87-3-.08-1.79-.66-2.78-.66-2.78,0,0-.62,1.2-.89,2.95Z"/>
    <path class="cls-2" d="M49.4,165.45c1.84.04,3.03.67,2.86,1.16s-1.41.73-3.28.34c-1.87-.39-2.82-1.13-2.82-1.13,0,0,1.35-.4,3.23-.37Z"/>
    <path class="cls-2" d="M51.46,163.8c-.17,1.72.32,2.89.82,2.79s.88-1.26.71-3.04c-.17-1.78-.8-2.74-.8-2.74,0,0-.55,1.23-.73,2.99Z"/>
    <path class="cls-2" d="M52.38,168.64c1.83-.06,3.06.52,2.92,1.01-.14.49-1.37.8-3.25.51s-2.87-.99-2.87-.99c0,0,1.33-.47,3.21-.53Z"/>
    <path class="cls-2" d="M54.36,166.89c-.08,1.73.47,2.87.97,2.74.49-.13.82-1.3.55-3.07-.27-1.77-.94-2.69-.94-2.69,0,0-.49,1.26-.57,3.03Z"/>
    <path class="cls-2" d="M55.52,171.68c1.83-.16,3.08.35,2.97.86-.11.5-1.33.87-3.22.68-1.9-.19-2.92-.83-2.92-.83,0,0,1.3-.54,3.17-.7Z"/>
    <path class="cls-2" d="M57.41,169.83c0,1.73.62,2.84,1.11,2.68.49-.16.75-1.34.39-3.1-.36-1.75-1.08-2.64-1.08-2.64,0,0-.42,1.28-.41,3.05Z"/>
    <path class="cls-2" d="M58.82,174.55c1.82-.25,3.09.19,3.01.7-.08.51-1.28.94-3.18.85-1.9-.09-2.96-.68-2.96-.68,0,0,1.27-.61,3.13-.87Z"/>
    <path class="cls-2" d="M60.6,172.6c.1,1.73.77,2.81,1.25,2.62.48-.19.68-1.38.23-3.11-.45-1.73-1.22-2.58-1.22-2.58,0,0-.35,1.3-.25,3.07Z"/>
    <path class="cls-2" d="M62.27,177.24c1.8-.35,3.1.03,3.04.54-.06.51-1.23,1.01-3.13,1.01-1.91,0-2.99-.52-2.99-.52,0,0,1.24-.67,3.08-1.03Z"/>
    <path class="cls-2" d="M63.94,175.2c.19,1.72.92,2.76,1.39,2.55.47-.21.6-1.41.06-3.12-.54-1.71-1.35-2.51-1.35-2.51,0,0-.29,1.32-.09,3.08Z"/>
    <path class="cls-2" d="M65.85,179.74c1.78-.44,3.1-.13,3.07.38-.03.51-1.17,1.07-3.08,1.17-1.9.1-3.01-.37-3.01-.37,0,0,1.2-.74,3.02-1.19Z"/>
    <path class="cls-2" d="M67.42,177.62c.28,1.71,1.06,2.71,1.52,2.48.46-.23.53-1.44-.1-3.12-.63-1.68-1.48-2.44-1.48-2.44,0,0-.22,1.33.07,3.08Z"/>
    <path class="cls-2" d="M69.55,182.06c1.76-.53,3.09-.29,3.08.22s-1.12,1.13-3.01,1.33c-1.89.2-3.03-.21-3.03-.21,0,0,1.16-.8,2.96-1.35Z"/>
    <path class="cls-2" d="M71.01,179.86c.37,1.69,1.2,2.65,1.64,2.4.44-.26.45-1.47-.26-3.11-.72-1.64-1.61-2.36-1.61-2.36,0,0-.15,1.34.23,3.07Z"/>
    <path class="cls-2" d="M73.38,184.18c1.73-.62,3.07-.45,3.09.06s-1.06,1.19-2.94,1.49c-1.88.3-3.04-.05-3.04-.05,0,0,1.12-.86,2.88-1.5Z"/>
    <path class="cls-2" d="M74.71,181.9c.45,1.67,1.34,2.59,1.77,2.31.43-.28.38-1.49-.43-3.09-.8-1.6-1.73-2.27-1.73-2.27,0,0-.08,1.34.39,3.06Z"/>
    <path class="cls-2" d="M77.31,186.1c1.69-.71,3.04-.61,3.09-.1.05.51-.99,1.24-2.86,1.64-1.86.4-3.03.11-3.03.11,0,0,1.07-.92,2.8-1.65Z"/>
    <path class="cls-2" d="M78.52,183.75c.54,1.64,1.47,2.51,1.89,2.21s.3-1.51-.59-3.07c-.88-1.56-1.85-2.18-1.85-2.18,0,0,0,1.35.55,3.03Z"/>
    <path class="cls-2" d="M81.33,187.8c1.65-.8,3-.77,3.08-.27.08.51-.93,1.29-2.77,1.79-1.84.5-3.02.27-3.02.27,0,0,1.02-.97,2.71-1.79Z"/>
    <path class="cls-2" d="M82.42,185.4c.63,1.61,1.6,2.43,2,2.11.4-.32.22-1.52-.75-3.03-.96-1.51-1.96-2.08-1.96-2.08,0,0,.06,1.35.71,3Z"/>
    <path class="cls-2" d="M85.44,189.3c1.61-.89,2.96-.93,3.06-.43.1.5-.86,1.34-2.67,1.93-1.81.59-3.01.43-3.01.43,0,0,.97-1.02,2.61-1.93Z"/>
    <path class="cls-2" d="M86.4,186.84c.71,1.58,1.73,2.35,2.11,2s.14-1.53-.9-2.99c-1.04-1.46-2.06-1.97-2.06-1.97,0,0,.13,1.34.86,2.96Z"/>
    <path class="cls-2" d="M89.62,190.58c1.56-.97,2.91-1.08,3.03-.59.13.5-.79,1.38-2.56,2.07-1.78.69-2.98.58-2.98.58,0,0,.91-1.07,2.51-2.06Z"/>
    <path class="cls-2" d="M90.45,188.07c.79,1.54,1.85,2.25,2.21,1.89.36-.36.06-1.54-1.06-2.94-1.12-1.4-2.17-1.86-2.17-1.86,0,0,.2,1.33,1.02,2.91Z"/>
    <path class="cls-2" d="M93.86,191.64c1.51-1.05,2.84-1.23,3-.74.16.49-.71,1.42-2.45,2.2-1.74.78-2.95.74-2.95.74,0,0,.85-1.12,2.4-2.19Z"/>
    <path class="cls-2" d="M94.56,189.09c.87,1.5,1.96,2.15,2.3,1.77s-.02-1.54-1.21-2.88c-1.19-1.34-2.26-1.74-2.26-1.74,0,0,.27,1.32,1.17,2.85Z"/>
    <path class="cls-2" d="M98.15,192.47c1.45-1.13,2.78-1.38,2.96-.9.18.48-.64,1.46-2.33,2.32-1.7.87-2.9.89-2.9.89,0,0,.8-1.16,2.28-2.32Z"/>
    <path class="cls-2" d="M98.72,189.89c.95,1.45,2.07,2.05,2.39,1.65.32-.4-.1-1.53-1.36-2.81-1.26-1.28-2.35-1.62-2.35-1.62,0,0,.34,1.3,1.31,2.79Z"/>
    <path class="cls-2" d="M102.48,193.08c1.39-1.2,2.7-1.52,2.91-1.05.21.47-.56,1.49-2.21,2.44-1.65.96-2.85,1.04-2.85,1.04,0,0,.73-1.2,2.15-2.43Z"/>
    <path class="cls-2" d="M102.91,190.47c1.02,1.4,2.18,1.93,2.48,1.52.3-.42-.18-1.53-1.51-2.73s-2.43-1.5-2.43-1.5c0,0,.41,1.28,1.46,2.71Z"/>
    <path class="cls-2" d="M106.83,193.46c1.32-1.27,2.62-1.66,2.85-1.2.23.46-.48,1.51-2.08,2.56s-2.79,1.19-2.79,1.19c0,0,.67-1.24,2.02-2.54Z"/>
    <path class="cls-2" d="M107.13,190.84c1.09,1.34,2.28,1.82,2.55,1.39.28-.43-.26-1.52-1.65-2.65-1.38-1.14-2.5-1.37-2.5-1.37,0,0,.48,1.26,1.6,2.63Z"/>
    <path class="cls-2" d="M91.03,29.3c-.87,1.62-1.97,2.39-2.34,2.02-.36-.36,0-1.59,1.19-3.07,1.2-1.48,2.29-1.99,2.29-1.99,0,0-.25,1.38-1.14,3.04Z"/>
    <path class="cls-2" d="M91.56,31.88c-1.46-.94-2.73-1.03-2.86-.53-.13.5.72,1.36,2.39,2.01,1.67.65,2.81.53,2.81.53,0,0-.84-1.05-2.33-2.01Z"/>
    <path class="cls-2" d="M86.83,30.5c-.78,1.66-1.85,2.49-2.23,2.14-.38-.35-.09-1.59,1.02-3.13,1.12-1.54,2.18-2.11,2.18-2.11,0,0-.18,1.4-.98,3.1Z"/>
    <path class="cls-2" d="M87.49,33.06c-1.5-.86-2.78-.88-2.88-.38-.11.5.79,1.32,2.49,1.89,1.7.57,2.83.38,2.83.38,0,0-.9-1.01-2.44-1.89Z"/>
    <path class="cls-2" d="M82.7,31.92c-.69,1.7-1.71,2.58-2.11,2.26-.4-.32-.18-1.58.86-3.18,1.03-1.6,2.07-2.22,2.07-2.22,0,0-.11,1.4-.82,3.15Z"/>
    <path class="cls-2" d="M83.49,34.44c-1.55-.78-2.82-.74-2.9-.23-.08.51.86,1.28,2.58,1.75,1.73.48,2.85.23,2.85.23,0,0-.95-.96-2.53-1.76Z"/>
    <path class="cls-2" d="M78.64,33.56c-.6,1.73-1.58,2.67-1.99,2.37-.41-.3-.26-1.57.69-3.22.95-1.65,1.95-2.33,1.95-2.33,0,0-.03,1.41-.65,3.18Z"/>
    <path class="cls-2" d="M79.57,36.03c-1.58-.7-2.85-.59-2.9-.08-.05.51.92,1.23,2.67,1.61,1.75.38,2.85.08,2.85.08,0,0-1-.91-2.62-1.62Z"/>
    <path class="cls-2" d="M74.68,35.41c-.51,1.76-1.43,2.75-1.86,2.47-.43-.28-.34-1.55.52-3.25.86-1.7,1.82-2.43,1.82-2.43,0,0,.04,1.41-.48,3.21Z"/>
    <path class="cls-2" d="M75.74,37.83c-1.62-.61-2.88-.44-2.9.07-.03.51.99,1.18,2.75,1.47,1.77.29,2.85-.07,2.85-.07,0,0-1.04-.85-2.7-1.48Z"/>
    <path class="cls-2" d="M70.82,37.46c-.42,1.79-1.29,2.82-1.73,2.56-.44-.26-.42-1.53.35-3.28.77-1.74,1.7-2.52,1.7-2.52,0,0,.11,1.4-.31,3.23Z"/>
    <path class="cls-2" d="M72,39.82c-1.65-.53-2.9-.29-2.9.23,0,.51,1.05,1.13,2.83,1.33,1.78.2,2.85-.22,2.85-.22,0,0-1.09-.8-2.78-1.34Z"/>
    <path class="cls-2" d="M67.07,39.71c-.32,1.81-1.14,2.88-1.6,2.65s-.5-1.51.18-3.29c.68-1.78,1.56-2.6,1.56-2.6,0,0,.19,1.4-.14,3.25Z"/>
    <path class="cls-2" d="M68.38,42.01c-1.67-.44-2.91-.13-2.88.38.03.51,1.1,1.07,2.89,1.18,1.79.11,2.83-.36,2.83-.36,0,0-1.13-.74-2.84-1.19Z"/>
    <path class="cls-2" d="M63.45,42.15c-.23,1.82-.99,2.94-1.45,2.73-.47-.21-.58-1.48,0-3.29.58-1.81,1.42-2.68,1.42-2.68,0,0,.26,1.38.03,3.25Z"/>
    <path class="cls-2" d="M64.87,44.38c-1.69-.35-2.91.02-2.86.53s1.16,1.01,2.95,1.02,2.81-.51,2.81-.51c0,0-1.16-.68-2.9-1.04Z"/>
    <path class="cls-2" d="M59.96,44.78c-.13,1.83-.83,2.99-1.31,2.8-.48-.19-.65-1.45-.17-3.29.49-1.84,1.28-2.75,1.28-2.75,0,0,.33,1.37.2,3.24Z"/>
    <path class="cls-2" d="M61.5,46.93c-1.71-.26-2.91.17-2.83.68.08.51,1.21.95,3,.87s2.78-.66,2.78-.66c0,0-1.2-.62-2.95-.89Z"/>
    <path class="cls-2" d="M56.61,47.59c-.04,1.84-.67,3.03-1.16,2.86-.49-.16-.73-1.41-.34-3.28.39-1.87,1.13-2.82,1.13-2.82,0,0,.4,1.35.37,3.23Z"/>
    <path class="cls-2" d="M58.26,49.66c-1.72-.17-2.89.32-2.79.82s1.26.88,3.04.71c1.78-.17,2.74-.8,2.74-.8,0,0-1.23-.55-2.99-.73Z"/>
    <path class="cls-2" d="M53.41,50.58c.06,1.83-.52,3.06-1.01,2.92s-.8-1.37-.51-3.25c.29-1.88.99-2.87.99-2.87,0,0,.47,1.33.53,3.21Z"/>
    <path class="cls-2" d="M55.17,52.55c-1.73-.08-2.87.47-2.74.97s1.3.82,3.07.55c1.77-.27,2.69-.94,2.69-.94,0,0-1.26-.49-3.03-.57Z"/>
    <path class="cls-2" d="M50.38,53.72c.16,1.83-.35,3.08-.86,2.97-.5-.11-.87-1.33-.68-3.22.19-1.9.83-2.92.83-2.92,0,0,.54,1.3.7,3.17Z"/>
    <path class="cls-2" d="M52.23,55.6c-1.73,0-2.84.62-2.68,1.11.16.49,1.34.75,3.1.39s2.64-1.08,2.64-1.08c0,0-1.28-.42-3.05-.41Z"/>
    <path class="cls-2" d="M47.51,57.02c.25,1.82-.19,3.09-.7,3.01-.51-.08-.94-1.28-.85-3.18.09-1.9.68-2.96.68-2.96,0,0,.61,1.27.87,3.13Z"/>
    <path class="cls-2" d="M49.46,58.8c-1.73.1-2.81.77-2.62,1.25.19.48,1.38.68,3.11.23,1.73-.45,2.58-1.22,2.58-1.22,0,0-1.3-.35-3.07-.25Z"/>
    <path class="cls-2" d="M44.82,60.46c.35,1.8-.03,3.1-.54,3.04-.51-.06-1.01-1.23-1.01-3.13s.52-2.99.52-2.99c0,0,.67,1.24,1.03,3.08Z"/>
    <path class="cls-2" d="M46.86,62.14c-1.72.19-2.76.92-2.55,1.39.21.47,1.41.6,3.12.06,1.71-.54,2.51-1.35,2.51-1.35,0,0-1.32-.29-3.08-.09Z"/>
    <path class="cls-2" d="M42.31,64.04c.44,1.78.13,3.1-.38,3.07s-1.07-1.17-1.17-3.08c-.1-1.9.37-3.01.37-3.01,0,0,.74,1.2,1.19,3.02Z"/>
    <path class="cls-2" d="M44.44,65.61c-1.71.28-2.71,1.06-2.48,1.52.23.46,1.44.53,3.12-.1,1.68-.63,2.44-1.48,2.44-1.48,0,0-1.33-.22-3.08.07Z"/>
    <path class="cls-2" d="M40,67.75c.53,1.76.29,3.09-.22,3.08-.51,0-1.13-1.12-1.33-3.01-.2-1.89.21-3.03.21-3.03,0,0,.8,1.16,1.35,2.96Z"/>
    <path class="cls-2" d="M42.2,69.2c-1.69.37-2.65,1.2-2.4,1.64s1.47.45,3.11-.26c1.64-.72,2.36-1.61,2.36-1.61,0,0-1.34-.15-3.07.23Z"/>
    <path class="cls-2" d="M37.88,71.57c.62,1.73.45,3.07-.06,3.09-.51.02-1.19-1.06-1.49-2.94-.3-1.88.05-3.04.05-3.04,0,0,.86,1.12,1.5,2.88Z"/>
    <path class="cls-2" d="M40.15,72.91c-1.67.45-2.59,1.34-2.31,1.77.28.43,1.49.38,3.09-.43,1.6-.8,2.27-1.73,2.27-1.73,0,0-1.34-.08-3.06.39Z"/>
    <path class="cls-2" d="M35.96,75.5c.71,1.69.61,3.04.1,3.09-.51.05-1.24-.99-1.64-2.86-.4-1.86-.11-3.03-.11-3.03,0,0,.92,1.07,1.65,2.8Z"/>
    <path class="cls-2" d="M38.3,76.72c-1.64.54-2.51,1.47-2.21,1.89s1.51.3,3.07-.59c1.56-.88,2.18-1.85,2.18-1.85,0,0-1.35,0-3.03.55Z"/>
    <path class="cls-2" d="M34.25,79.52c.8,1.65.77,3,.27,3.08s-1.29-.93-1.79-2.77c-.5-1.84-.27-3.02-.27-3.02,0,0,.97,1.02,1.79,2.71Z"/>
    <path class="cls-2" d="M36.66,80.62c-1.61.63-2.43,1.6-2.11,2,.32.4,1.52.22,3.03-.75,1.51-.96,2.08-1.96,2.08-1.96,0,0-1.35.06-3,.71Z"/>
    <path class="cls-2" d="M32.76,83.63c.89,1.61.93,2.96.43,3.06-.5.1-1.34-.86-1.93-2.67-.59-1.81-.43-3.01-.43-3.01,0,0,1.02.97,1.93,2.61Z"/>
    <path class="cls-2" d="M35.22,84.6c-1.58.71-2.35,1.73-2,2.11.34.38,1.53.14,2.99-.9,1.46-1.04,1.97-2.06,1.97-2.06,0,0-1.34.13-2.96.86Z"/>
    <path class="cls-2" d="M31.48,87.81c.97,1.56,1.08,2.91.59,3.03-.5.13-1.38-.79-2.07-2.56-.69-1.78-.58-2.98-.58-2.98,0,0,1.07.91,2.06,2.51Z"/>
    <path class="cls-2" d="M33.98,88.65c-1.54.79-2.25,1.85-1.89,2.21.36.36,1.54.06,2.94-1.06,1.4-1.12,1.86-2.17,1.86-2.17,0,0-1.33.2-2.91,1.02Z"/>
    <path class="cls-2" d="M30.42,92.05c1.05,1.51,1.23,2.84.74,3-.49.16-1.42-.71-2.2-2.45-.78-1.74-.74-2.95-.74-2.95,0,0,1.12.85,2.19,2.4Z"/>
    <path class="cls-2" d="M32.97,92.75c-1.5.87-2.15,1.96-1.77,2.3.38.34,1.54-.02,2.88-1.21,1.34-1.19,1.74-2.26,1.74-2.26,0,0-1.32.27-2.85,1.17Z"/>
    <path class="cls-2" d="M29.59,96.34c1.13,1.45,1.38,2.78.9,2.96-.48.18-1.46-.64-2.32-2.33-.87-1.7-.89-2.9-.89-2.9,0,0,1.16.8,2.32,2.28Z"/>
    <path class="cls-2" d="M32.17,96.91c-1.45.95-2.05,2.07-1.65,2.39.4.32,1.53-.1,2.81-1.36,1.28-1.26,1.62-2.35,1.62-2.35,0,0-1.3.34-2.79,1.31Z"/>
    <path class="cls-2" d="M28.98,100.67c1.2,1.39,1.52,2.7,1.05,2.91-.47.21-1.49-.56-2.44-2.21-.96-1.65-1.04-2.85-1.04-2.85,0,0,1.2.73,2.43,2.15Z"/>
    <path class="cls-2" d="M31.58,101.1c-1.4,1.02-1.93,2.18-1.52,2.48.42.3,1.53-.18,2.73-1.51,1.21-1.32,1.5-2.43,1.5-2.43,0,0-1.28.41-2.71,1.46Z"/>
    <path class="cls-2" d="M28.6,105.03c1.27,1.32,1.66,2.62,1.2,2.85-.46.23-1.51-.48-2.56-2.08-1.04-1.6-1.19-2.79-1.19-2.79,0,0,1.24.67,2.54,2.02Z"/>
    <path class="cls-2" d="M31.22,105.32c-1.34,1.09-1.82,2.28-1.39,2.55.43.28,1.52-.26,2.65-1.65,1.14-1.38,1.37-2.5,1.37-2.5,0,0-1.26.48-2.63,1.6Z"/>
    <path class="cls-2" d="M195.32,109.39c-1.34,1.25-1.8,2.53-1.35,2.78s1.54-.4,2.66-1.94c1.12-1.54,1.33-2.73,1.33-2.73,0,0-1.27.6-2.64,1.89Z"/>
    <path class="cls-2" d="M192.68,109.55c1.28,1.16,1.7,2.37,1.25,2.62-.44.25-1.5-.34-2.56-1.78-1.06-1.44-1.24-2.57-1.24-2.57,0,0,1.23.54,2.55,1.73Z"/>
    <path class="cls-2" d="M195.24,113.76c-1.4,1.18-1.93,2.43-1.5,2.71.43.28,1.56-.32,2.76-1.8,1.2-1.48,1.48-2.65,1.48-2.65,0,0-1.3.54-2.74,1.75Z"/>
    <path class="cls-2" d="M192.6,113.78c1.22,1.23,1.57,2.45,1.11,2.68-.46.23-1.48-.42-2.47-1.92-.99-1.49-1.1-2.63-1.1-2.63,0,0,1.2.61,2.45,1.87Z"/>
    <path class="cls-2" d="M194.93,118.13c-1.46,1.11-2.05,2.32-1.63,2.62s1.57-.24,2.85-1.65c1.28-1.41,1.61-2.57,1.61-2.57,0,0-1.33.47-2.83,1.6Z"/>
    <path class="cls-2" d="M192.3,118.01c1.15,1.29,1.44,2.53.97,2.74-.47.21-1.46-.5-2.36-2.04-.91-1.54-.96-2.69-.96-2.69,0,0,1.17.67,2.35,1.99Z"/>
    <path class="cls-2" d="M194.4,122.46c-1.52,1.03-2.17,2.21-1.77,2.53.4.32,1.58-.16,2.93-1.5,1.35-1.34,1.74-2.49,1.74-2.49,0,0-1.35.4-2.91,1.45Z"/>
    <path class="cls-2" d="M191.77,122.21c1.08,1.35,1.31,2.6.83,2.79s-1.43-.57-2.25-2.16c-.82-1.59-.82-2.73-.82-2.73,0,0,1.13.73,2.24,2.11Z"/>
    <path class="cls-2" d="M193.64,126.77c-1.57.95-2.28,2.1-1.9,2.44.38.34,1.59-.07,3.01-1.35,1.42-1.27,1.87-2.39,1.87-2.39,0,0-1.37.33-2.98,1.3Z"/>
    <path class="cls-2" d="M191.03,126.37c1.01,1.4,1.17,2.67.68,2.83-.49.16-1.4-.65-2.14-2.28-.74-1.63-.67-2.77-.67-2.77,0,0,1.09.79,2.13,2.23Z"/>
    <path class="cls-2" d="M192.66,131.03c-1.62.87-2.39,1.97-2.02,2.34s1.59,0,3.07-1.19c1.48-1.2,1.99-2.29,1.99-2.29,0,0-1.38.25-3.04,1.14Z"/>
    <path class="cls-2" d="M190.07,130.5c.94,1.46,1.03,2.73.53,2.86-.5.13-1.36-.72-2.01-2.39-.65-1.67-.53-2.81-.53-2.81,0,0,1.05.84,2.01,2.33Z"/>
    <path class="cls-2" d="M191.46,135.23c-1.66.78-2.49,1.85-2.14,2.23.35.38,1.59.09,3.13-1.02,1.54-1.12,2.11-2.18,2.11-2.18,0,0-1.4.18-3.1.98Z"/>
    <path class="cls-2" d="M188.9,134.56c.86,1.5.88,2.78.38,2.88-.5.11-1.32-.79-1.89-2.49-.57-1.7-.38-2.83-.38-2.83,0,0,1.01.9,1.89,2.44Z"/>
    <path class="cls-2" d="M190.03,139.36c-1.7.69-2.58,1.71-2.26,2.11.32.4,1.58.18,3.18-.86,1.6-1.03,2.22-2.07,2.22-2.07,0,0-1.4.11-3.15.82Z"/>
    <path class="cls-2" d="M187.52,138.56c.78,1.55.74,2.82.23,2.9s-1.28-.86-1.75-2.58c-.48-1.73-.23-2.85-.23-2.85,0,0,.96.95,1.76,2.53Z"/>
    <path class="cls-2" d="M188.4,143.41c-1.73.6-2.67,1.58-2.37,1.99.3.41,1.57.26,3.22-.69,1.65-.95,2.33-1.95,2.33-1.95,0,0-1.41.03-3.18.65Z"/>
    <path class="cls-2" d="M185.92,142.49c.7,1.58.59,2.85.08,2.9-.51.05-1.23-.92-1.61-2.67-.38-1.75-.08-2.85-.08-2.85,0,0,.91,1,1.62,2.62Z"/>
    <path class="cls-2" d="M186.55,147.38c-1.76.51-2.75,1.43-2.47,1.86.28.43,1.55.34,3.25-.52,1.7-.86,2.43-1.82,2.43-1.82,0,0-1.41-.04-3.21.48Z"/>
    <path class="cls-2" d="M184.13,146.32c.61,1.62.44,2.88-.07,2.9-.51.03-1.18-.99-1.47-2.75-.29-1.77.07-2.85.07-2.85,0,0,.85,1.04,1.48,2.7Z"/>
    <path class="cls-2" d="M184.5,151.24c-1.79.42-2.82,1.29-2.56,1.73.26.44,1.53.42,3.28-.35,1.74-.77,2.52-1.7,2.52-1.7,0,0-1.4-.11-3.23.31Z"/>
    <path class="cls-2" d="M182.13,150.05c.53,1.65.29,2.9-.23,2.9-.51,0-1.13-1.05-1.33-2.83-.2-1.78.22-2.85.22-2.85,0,0,.8,1.09,1.34,2.78Z"/>
    <path class="cls-2" d="M182.25,154.98c-1.81.32-2.88,1.14-2.65,1.6s1.51.5,3.29-.18c1.78-.68,2.6-1.56,2.6-1.56,0,0-1.4-.19-3.25.14Z"/>
    <path class="cls-2" d="M179.95,153.68c.44,1.67.13,2.91-.38,2.88-.51-.03-1.07-1.1-1.18-2.89-.11-1.79.36-2.83.36-2.83,0,0,.74,1.13,1.19,2.84Z"/>
    <path class="cls-2" d="M179.8,158.61c-1.82.23-2.94.99-2.73,1.45.21.47,1.48.58,3.29,0,1.81-.58,2.68-1.42,2.68-1.42,0,0-1.38-.26-3.25-.03Z"/>
    <path class="cls-2" d="M177.58,157.18c.35,1.69-.02,2.91-.53,2.86-.51-.06-1.01-1.16-1.02-2.95-.01-1.79.51-2.81.51-2.81,0,0,.68,1.16,1.04,2.9Z"/>
    <path class="cls-2" d="M177.17,162.1c-1.83.13-2.99.83-2.8,1.31.19.48,1.45.65,3.29.17,1.84-.49,2.75-1.28,2.75-1.28,0,0-1.37-.33-3.24-.2Z"/>
    <path class="cls-2" d="M175.02,160.56c.26,1.71-.17,2.91-.68,2.83-.51-.08-.95-1.21-.87-3,.08-1.79.66-2.78.66-2.78,0,0,.62,1.2.89,2.95Z"/>
    <path class="cls-2" d="M174.36,165.45c-1.84.04-3.03.67-2.86,1.16.16.49,1.41.73,3.28.34,1.87-.39,2.82-1.13,2.82-1.13,0,0-1.35-.4-3.23-.37Z"/>
    <path class="cls-2" d="M172.3,163.8c.17,1.72-.32,2.89-.82,2.79s-.88-1.26-.71-3.04c.17-1.78.8-2.74.8-2.74,0,0,.55,1.23.73,2.99Z"/>
    <path class="cls-2" d="M171.38,168.64c-1.83-.06-3.06.52-2.92,1.01.14.49,1.37.8,3.25.51s2.87-.99,2.87-.99c0,0-1.33-.47-3.21-.53Z"/>
    <path class="cls-2" d="M169.41,166.89c.08,1.73-.47,2.87-.97,2.74-.49-.13-.82-1.3-.55-3.07.27-1.77.94-2.69.94-2.69,0,0,.49,1.26.57,3.03Z"/>
    <path class="cls-2" d="M168.24,171.68c-1.83-.16-3.08.35-2.97.86.11.5,1.33.87,3.22.68,1.9-.19,2.92-.83,2.92-.83,0,0-1.3-.54-3.17-.7Z"/>
    <path class="cls-2" d="M166.36,169.83c0,1.73-.62,2.84-1.11,2.68-.49-.16-.75-1.34-.39-3.1.36-1.75,1.08-2.64,1.08-2.64,0,0,.42,1.28.41,3.05Z"/>
    <path class="cls-2" d="M164.94,174.55c-1.82-.25-3.09.19-3.01.7.08.51,1.28.94,3.18.85,1.9-.09,2.96-.68,2.96-.68,0,0-1.27-.61-3.13-.87Z"/>
    <path class="cls-2" d="M163.16,172.6c-.1,1.73-.77,2.81-1.25,2.62-.48-.19-.68-1.38-.23-3.11.45-1.73,1.22-2.58,1.22-2.58,0,0,.35,1.3.25,3.07Z"/>
    <path class="cls-2" d="M161.49,177.24c-1.8-.35-3.1.03-3.04.54.06.51,1.23,1.01,3.13,1.01,1.91,0,2.99-.52,2.99-.52,0,0-1.24-.67-3.08-1.03Z"/>
    <path class="cls-2" d="M159.82,175.2c-.19,1.72-.92,2.76-1.39,2.55-.47-.21-.6-1.41-.06-3.12.54-1.71,1.35-2.51,1.35-2.51,0,0,.29,1.32.09,3.08Z"/>
    <path class="cls-2" d="M157.91,179.74c-1.78-.44-3.1-.13-3.07.38s1.17,1.07,3.08,1.17c1.9.1,3.01-.37,3.01-.37,0,0-1.2-.74-3.02-1.19Z"/>
    <path class="cls-2" d="M156.35,177.62c-.28,1.71-1.06,2.71-1.52,2.48-.46-.23-.53-1.44.1-3.12.63-1.68,1.48-2.44,1.48-2.44,0,0,.22,1.33-.07,3.08Z"/>
    <path class="cls-2" d="M154.21,182.06c-1.76-.53-3.09-.29-3.08.22,0,.51,1.12,1.13,3.01,1.33,1.89.2,3.03-.21,3.03-.21,0,0-1.16-.8-2.96-1.35Z"/>
    <path class="cls-2" d="M152.75,179.86c-.37,1.69-1.2,2.65-1.64,2.4-.44-.26-.45-1.47.26-3.11.72-1.64,1.61-2.36,1.61-2.36,0,0,.15,1.34-.23,3.07Z"/>
    <path class="cls-2" d="M150.38,184.18c-1.73-.62-3.07-.45-3.09.06-.02.51,1.06,1.19,2.94,1.49,1.88.3,3.04-.05,3.04-.05,0,0-1.12-.86-2.88-1.5Z"/>
    <path class="cls-2" d="M149.05,181.9c-.45,1.67-1.34,2.59-1.77,2.31-.43-.28-.38-1.49.43-3.09.8-1.6,1.73-2.27,1.73-2.27,0,0,.08,1.34-.39,3.06Z"/>
    <path class="cls-2" d="M146.45,186.1c-1.69-.71-3.04-.61-3.09-.1s.99,1.24,2.86,1.64,3.03.11,3.03.11c0,0-1.07-.92-2.8-1.65Z"/>
    <path class="cls-2" d="M145.24,183.75c-.54,1.64-1.47,2.51-1.89,2.21-.41-.3-.3-1.51.59-3.07.88-1.56,1.85-2.18,1.85-2.18,0,0,0,1.35-.55,3.03Z"/>
    <path class="cls-2" d="M142.43,187.8c-1.65-.8-3-.77-3.08-.27-.08.51.93,1.29,2.77,1.79s3.02.27,3.02.27c0,0-1.02-.97-2.71-1.79Z"/>
    <path class="cls-2" d="M141.34,185.4c-.63,1.61-1.6,2.43-2,2.11s-.22-1.52.75-3.03c.96-1.51,1.96-2.08,1.96-2.08,0,0-.06,1.35-.71,3Z"/>
    <path class="cls-2" d="M138.32,189.3c-1.61-.89-2.96-.93-3.06-.43s.86,1.34,2.67,1.93c1.81.59,3.01.43,3.01.43,0,0-.97-1.02-2.61-1.93Z"/>
    <path class="cls-2" d="M137.36,186.84c-.71,1.58-1.73,2.35-2.11,2s-.14-1.53.9-2.99c1.04-1.46,2.06-1.97,2.06-1.97,0,0-.13,1.34-.86,2.96Z"/>
    <path class="cls-2" d="M134.14,190.58c-1.56-.97-2.91-1.08-3.03-.59-.13.5.79,1.38,2.56,2.07,1.78.69,2.98.58,2.98.58,0,0-.91-1.07-2.51-2.06Z"/>
    <path class="cls-2" d="M133.31,188.07c-.79,1.54-1.85,2.25-2.21,1.89-.36-.36-.06-1.54,1.06-2.94,1.12-1.4,2.17-1.86,2.17-1.86,0,0-.2,1.33-1.02,2.91Z"/>
    <path class="cls-2" d="M129.9,191.64c-1.51-1.05-2.84-1.23-3-.74-.16.49.71,1.42,2.45,2.2,1.74.78,2.95.74,2.95.74,0,0-.85-1.12-2.4-2.19Z"/>
    <path class="cls-2" d="M129.2,189.09c-.87,1.5-1.96,2.15-2.3,1.77-.34-.38.02-1.54,1.21-2.88,1.19-1.34,2.26-1.74,2.26-1.74,0,0-.27,1.32-1.17,2.85Z"/>
    <path class="cls-2" d="M125.61,192.47c-1.45-1.13-2.78-1.38-2.96-.9-.18.48.64,1.46,2.33,2.32s2.9.89,2.9.89c0,0-.8-1.16-2.28-2.32Z"/>
    <path class="cls-2" d="M125.04,189.89c-.95,1.45-2.07,2.05-2.39,1.65-.32-.4.1-1.53,1.36-2.81,1.26-1.28,2.35-1.62,2.35-1.62,0,0-.34,1.3-1.31,2.79Z"/>
    <path class="cls-2" d="M121.28,193.08c-1.39-1.2-2.7-1.52-2.91-1.05-.21.47.56,1.49,2.21,2.44,1.65.96,2.85,1.04,2.85,1.04,0,0-.73-1.2-2.15-2.43Z"/>
    <path class="cls-2" d="M120.85,190.47c-1.02,1.4-2.18,1.93-2.48,1.52-.3-.42.18-1.53,1.51-2.73,1.32-1.21,2.43-1.5,2.43-1.5,0,0-.41,1.28-1.46,2.71Z"/>
    <path class="cls-2" d="M116.93,193.46c-1.32-1.27-2.62-1.66-2.85-1.2-.23.46.48,1.51,2.08,2.56,1.6,1.04,2.79,1.19,2.79,1.19,0,0-.67-1.24-2.02-2.54Z"/>
    <path class="cls-2" d="M116.63,190.84c-1.09,1.34-2.28,1.82-2.55,1.39-.28-.43.26-1.52,1.65-2.65,1.38-1.14,2.5-1.37,2.5-1.37,0,0-.48,1.26-1.6,2.63Z"/>
    <path class="cls-2" d="M132.73,29.3c.87,1.62,1.97,2.39,2.34,2.02.36-.36,0-1.59-1.19-3.07-1.2-1.48-2.29-1.99-2.29-1.99,0,0,.25,1.38,1.14,3.04Z"/>
    <path class="cls-2" d="M132.2,31.88c1.46-.94,2.73-1.03,2.86-.53.13.5-.72,1.36-2.39,2.01-1.67.65-2.81.53-2.81.53,0,0,.84-1.05,2.33-2.01Z"/>
    <path class="cls-2" d="M136.93,30.5c.78,1.66,1.85,2.49,2.23,2.14.38-.35.09-1.59-1.02-3.13-1.12-1.54-2.18-2.11-2.18-2.11,0,0,.18,1.4.98,3.1Z"/>
    <path class="cls-2" d="M136.27,33.06c1.5-.86,2.78-.88,2.88-.38s-.79,1.32-2.49,1.89c-1.7.57-2.83.38-2.83.38,0,0,.9-1.01,2.44-1.89Z"/>
    <path class="cls-2" d="M141.07,31.92c.69,1.7,1.71,2.58,2.11,2.26.4-.32.18-1.58-.86-3.18-1.03-1.6-2.07-2.22-2.07-2.22,0,0,.11,1.4.82,3.15Z"/>
    <path class="cls-2" d="M140.27,34.44c1.55-.78,2.82-.74,2.9-.23.08.51-.86,1.28-2.58,1.75-1.73.48-2.85.23-2.85.23,0,0,.95-.96,2.53-1.76Z"/>
    <path class="cls-2" d="M145.12,33.56c.6,1.73,1.58,2.67,1.99,2.37.41-.3.26-1.57-.69-3.22-.95-1.65-1.95-2.33-1.95-2.33,0,0,.03,1.41.65,3.18Z"/>
    <path class="cls-2" d="M144.19,36.03c1.58-.7,2.85-.59,2.9-.08.05.51-.92,1.23-2.67,1.61-1.75.38-2.85.08-2.85.08,0,0,1-.91,2.62-1.62Z"/>
    <path class="cls-2" d="M149.08,35.41c.51,1.76,1.43,2.75,1.86,2.47.43-.28.34-1.55-.52-3.25-.86-1.7-1.82-2.43-1.82-2.43,0,0-.04,1.41.48,3.21Z"/>
    <path class="cls-2" d="M148.02,37.83c1.62-.61,2.88-.44,2.9.07.03.51-.99,1.18-2.75,1.47-1.77.29-2.85-.07-2.85-.07,0,0,1.04-.85,2.7-1.48Z"/>
    <path class="cls-2" d="M152.94,37.46c.42,1.79,1.29,2.82,1.73,2.56.44-.26.42-1.53-.35-3.28-.77-1.74-1.7-2.52-1.7-2.52,0,0-.11,1.4.31,3.23Z"/>
    <path class="cls-2" d="M151.76,39.82c1.65-.53,2.9-.29,2.9.23,0,.51-1.05,1.13-2.83,1.33-1.78.2-2.85-.22-2.85-.22,0,0,1.09-.8,2.78-1.34Z"/>
    <path class="cls-2" d="M156.69,39.71c.32,1.81,1.14,2.88,1.6,2.65.46-.24.5-1.51-.18-3.29-.68-1.78-1.56-2.6-1.56-2.6,0,0-.19,1.4.14,3.25Z"/>
    <path class="cls-2" d="M155.38,42.01c1.67-.44,2.91-.13,2.88.38-.03.51-1.1,1.07-2.89,1.18-1.79.11-2.83-.36-2.83-.36,0,0,1.13-.74,2.84-1.19Z"/>
    <path class="cls-2" d="M160.31,42.15c.23,1.82.99,2.94,1.45,2.73s.58-1.48,0-3.29c-.58-1.81-1.42-2.68-1.42-2.68,0,0-.26,1.38-.03,3.25Z"/>
    <path class="cls-2" d="M158.89,44.38c1.69-.35,2.91.02,2.86.53s-1.16,1.01-2.95,1.02-2.81-.51-2.81-.51c0,0,1.16-.68,2.9-1.04Z"/>
    <path class="cls-2" d="M163.8,44.78c.13,1.83.83,2.99,1.31,2.8.48-.19.65-1.45.17-3.29-.49-1.84-1.28-2.75-1.28-2.75,0,0-.33,1.37-.2,3.24Z"/>
    <path class="cls-2" d="M162.26,46.93c1.71-.26,2.91.17,2.83.68-.08.51-1.21.95-3,.87s-2.78-.66-2.78-.66c0,0,1.2-.62,2.95-.89Z"/>
    <path class="cls-2" d="M167.15,47.59c.04,1.84.67,3.03,1.16,2.86s.73-1.41.34-3.28c-.39-1.87-1.13-2.82-1.13-2.82,0,0-.4,1.35-.37,3.23Z"/>
    <path class="cls-2" d="M165.5,49.66c1.72-.17,2.89.32,2.79.82s-1.26.88-3.04.71c-1.78-.17-2.74-.8-2.74-.8,0,0,1.23-.55,2.99-.73Z"/>
    <path class="cls-2" d="M170.35,50.58c-.06,1.83.52,3.06,1.01,2.92.49-.14.8-1.37.51-3.25-.29-1.88-.99-2.87-.99-2.87,0,0-.47,1.33-.53,3.21Z"/>
    <path class="cls-2" d="M168.59,52.55c1.73-.08,2.87.47,2.74.97-.13.49-1.3.82-3.07.55-1.77-.27-2.69-.94-2.69-.94,0,0,1.26-.49,3.03-.57Z"/>
    <path class="cls-2" d="M173.38,53.72c-.16,1.83.35,3.08.86,2.97.5-.11.87-1.33.68-3.22-.19-1.9-.83-2.92-.83-2.92,0,0-.54,1.3-.7,3.17Z"/>
    <path class="cls-2" d="M171.53,55.6c1.73,0,2.84.62,2.68,1.11-.16.49-1.34.75-3.1.39s-2.64-1.08-2.64-1.08c0,0,1.28-.42,3.05-.41Z"/>
    <path class="cls-2" d="M176.25,57.02c-.25,1.82.19,3.09.7,3.01s.94-1.28.85-3.18c-.09-1.9-.68-2.96-.68-2.96,0,0-.61,1.27-.87,3.13Z"/>
    <path class="cls-2" d="M174.3,58.8c1.73.1,2.81.77,2.62,1.25-.19.48-1.38.68-3.11.23s-2.58-1.22-2.58-1.22c0,0,1.3-.35,3.07-.25Z"/>
    <path class="cls-2" d="M178.94,60.46c-.35,1.8.03,3.1.54,3.04s1.01-1.23,1.01-3.13-.52-2.99-.52-2.99c0,0-.67,1.24-1.03,3.08Z"/>
    <path class="cls-2" d="M176.9,62.14c1.72.19,2.76.92,2.55,1.39-.21.47-1.41.6-3.12.06-1.71-.54-2.51-1.35-2.51-1.35,0,0,1.32-.29,3.08-.09Z"/>
    <path class="cls-2" d="M181.45,64.04c-.44,1.78-.13,3.1.38,3.07s1.07-1.17,1.17-3.08c.1-1.9-.37-3.01-.37-3.01,0,0-.74,1.2-1.19,3.02Z"/>
    <path class="cls-2" d="M179.32,65.61c1.71.28,2.71,1.06,2.48,1.52-.23.46-1.44.53-3.12-.1-1.68-.63-2.44-1.48-2.44-1.48,0,0,1.33-.22,3.08.07Z"/>
    <path class="cls-2" d="M183.76,67.75c-.53,1.76-.29,3.09.22,3.08.51,0,1.13-1.12,1.33-3.01.2-1.89-.21-3.03-.21-3.03,0,0-.8,1.16-1.35,2.96Z"/>
    <path class="cls-2" d="M181.56,69.2c1.69.37,2.65,1.2,2.4,1.64s-1.47.45-3.11-.26c-1.64-.72-2.36-1.61-2.36-1.61,0,0,1.34-.15,3.07.23Z"/>
    <path class="cls-2" d="M185.88,71.57c-.62,1.73-.45,3.07.06,3.09s1.19-1.06,1.49-2.94c.3-1.88-.05-3.04-.05-3.04,0,0-.86,1.12-1.5,2.88Z"/>
    <path class="cls-2" d="M183.61,72.91c1.67.45,2.59,1.34,2.31,1.77-.28.43-1.49.38-3.09-.43-1.6-.8-2.27-1.73-2.27-1.73,0,0,1.34-.08,3.06.39Z"/>
    <path class="cls-2" d="M187.8,75.5c-.71,1.69-.61,3.04-.1,3.09.51.05,1.24-.99,1.64-2.86.4-1.86.11-3.03.11-3.03,0,0-.92,1.07-1.65,2.8Z"/>
    <path class="cls-2" d="M185.46,76.72c1.64.54,2.51,1.47,2.21,1.89-.3.41-1.51.3-3.07-.59-1.56-.88-2.18-1.85-2.18-1.85,0,0,1.35,0,3.03.55Z"/>
    <path class="cls-2" d="M189.51,79.52c-.8,1.65-.77,3-.27,3.08.51.08,1.29-.93,1.79-2.77.5-1.84.27-3.02.27-3.02,0,0-.97,1.02-1.79,2.71Z"/>
    <path class="cls-2" d="M187.1,80.62c1.61.63,2.43,1.6,2.11,2-.32.4-1.52.22-3.03-.75-1.51-.96-2.08-1.96-2.08-1.96,0,0,1.35.06,3,.71Z"/>
    <path class="cls-2" d="M191,83.63c-.89,1.61-.93,2.96-.43,3.06.5.1,1.34-.86,1.93-2.67.59-1.81.43-3.01.43-3.01,0,0-1.02.97-1.93,2.61Z"/>
    <path class="cls-2" d="M188.55,84.6c1.58.71,2.35,1.73,2,2.11-.34.38-1.53.14-2.99-.9-1.46-1.04-1.97-2.06-1.97-2.06,0,0,1.34.13,2.96.86Z"/>
    <path class="cls-2" d="M192.28,87.81c-.97,1.56-1.08,2.91-.59,3.03s1.38-.79,2.07-2.56c.69-1.78.58-2.98.58-2.98,0,0-1.07.91-2.06,2.51Z"/>
    <path class="cls-2" d="M189.78,88.65c1.54.79,2.25,1.85,1.89,2.21-.36.36-1.54.06-2.94-1.06s-1.86-2.17-1.86-2.17c0,0,1.33.2,2.91,1.02Z"/>
    <path class="cls-2" d="M193.34,92.05c-1.05,1.51-1.23,2.84-.74,3,.49.16,1.42-.71,2.2-2.45.78-1.74.74-2.95.74-2.95,0,0-1.12.85-2.19,2.4Z"/>
    <path class="cls-2" d="M190.79,92.75c1.5.87,2.15,1.96,1.77,2.3s-1.54-.02-2.88-1.21c-1.34-1.19-1.74-2.26-1.74-2.26,0,0,1.32.27,2.85,1.17Z"/>
    <path class="cls-2" d="M194.17,96.34c-1.13,1.45-1.38,2.78-.9,2.96.48.18,1.46-.64,2.32-2.33.87-1.7.89-2.9.89-2.9,0,0-1.16.8-2.32,2.28Z"/>
    <path class="cls-2" d="M191.59,96.91c1.45.95,2.05,2.07,1.65,2.39-.4.32-1.53-.1-2.81-1.36-1.28-1.26-1.62-2.35-1.62-2.35,0,0,1.3.34,2.79,1.31Z"/>
    <path class="cls-2" d="M194.78,100.67c-1.2,1.39-1.52,2.7-1.05,2.91.47.21,1.49-.56,2.44-2.21.96-1.65,1.04-2.85,1.04-2.85,0,0-1.2.73-2.43,2.15Z"/>
    <path class="cls-2" d="M192.18,101.1c1.4,1.02,1.93,2.18,1.52,2.48s-1.53-.18-2.73-1.51c-1.21-1.32-1.5-2.43-1.5-2.43,0,0,1.28.41,2.71,1.46Z"/>
    <path class="cls-2" d="M195.16,105.03c-1.27,1.32-1.66,2.62-1.2,2.85.46.23,1.51-.48,2.56-2.08s1.19-2.79,1.19-2.79c0,0-1.24.67-2.54,2.02Z"/>
    <path class="cls-2" d="M192.54,105.32c1.34,1.09,1.82,2.28,1.39,2.55-.43.28-1.52-.26-2.65-1.65-1.14-1.38-1.37-2.5-1.37-2.5,0,0,1.26.48,2.63,1.6Z"/>
  </g>
  <path class="cls-2" d="M120.75,224.74l-1.9-1.9c.8-1.3,1.2-2.8,1.2-4.5,0-4.8-3.8-8.6-8.6-8.6s-8.6,3.9-8.6,8.6,3.8,8.6,8.6,8.6c1.9,0,3.6-.6,5-1.7l1.8,1.7,2.5-2.2ZM111.55,223.54c-2.9,0-5.3-2.3-5.3-5.3s2.3-5.3,5.3-5.3,5.3,2.3,5.3,5.3c0,.7-.1,1.3-.4,2l-.1-.1h-4.9l2.7,2.7c-.9.4-1.6.7-2.6.7Z"/>
  <g>
    <path class="cls-2" d="M12.51,157.23l-.88-1.9,7.6-7.4.89,1.92-1.65,1.5,1.52,3.28,2.21-.3.86,1.87-10.55,1.04ZM18.37,154.84l-1.11-2.4-2.24,2.02c-.41.38-1.23,1.01-1.23,1.01v.03s1.03-.19,1.59-.26l2.99-.4Z"/>
    <path class="cls-2" d="M8.41,147.6l-1.2-3.72c-.82-2.55.71-4.85,3.52-5.75,1.55-.5,3.07-.41,4.24.32.81.52,1.44,1.33,1.83,2.53l1.15,3.56-9.53,3.07ZM15.18,141.64c-.58-1.81-1.92-2.17-3.81-1.55-1.89.61-2.95,1.86-2.42,3.5l.5,1.55,6.21-2-.48-1.49Z"/>
    <path class="cls-2" d="M4.91,136l-.42-2.09,5.34-2.86c.61-.32,1.48-.74,1.48-.74v-.03s-.99-.05-1.66-.11l-6.03-.58-.4-2.02,10.48,1.35.36,1.81-9.16,5.27Z"/>
    <path class="cls-2" d="M2.49,121.21l-.19-2.09,9.65-4.42.19,2.11-2.06.86.33,3.6,2.18.46.18,2.05-10.28-2.57ZM8.82,120.93l-.24-2.63-2.79,1.15c-.52.21-1.5.54-1.5.54v.03s1.03.16,1.57.28l2.95.63Z"/>
    <path class="cls-2" d="M1.87,110.75l.06-2.06,5.68-3.16c.56-.31,1.42-.66,1.42-.66v-.03s-1.04.02-1.74,0l-5.25-.16.06-2,10,.31-.06,1.96-5.63,3.24c-.54.31-1.41.67-1.41.67v.03s1.05-.02,1.75,0l5.16.16-.06,2-10-.31Z"/>
    <path class="cls-2" d="M7.54,98.34c-2.93-.45-4.89-2.63-4.44-5.54.38-2.43,2.05-3.65,3.96-3.56l-.31,1.99c-1.02.03-1.79.67-1.97,1.83-.28,1.83,1.1,2.93,3.07,3.24,2.02.31,3.63-.51,3.89-2.17.18-1.17-.39-2.11-1.41-2.4l.3-1.96c.86.19,1.65.69,2.17,1.45.53.78.8,1.79.59,3.16-.43,2.78-2.88,4.43-5.85,3.97Z"/>
    <path class="cls-2" d="M5.06,83.8l1.99-7.09,1.64.46-1.44,5.13,2.16.61,1.26-4.5,1.6.45-1.26,4.5,2.6.73,1.45-5.17,1.63.46-2,7.13-9.63-2.7Z"/>
    <path class="cls-2" d="M8.77,71.71l1.5-3.61c1.03-2.47,3.68-3.23,6.41-2.1,1.5.62,2.61,1.67,3.02,2.98.29.92.24,1.95-.25,3.11l-1.43,3.45-9.24-3.84ZM17.78,71.56c.73-1.76-.06-2.89-1.89-3.65-1.84-.76-3.45-.49-4.11,1.1l-.62,1.5,6.02,2.5.6-1.45Z"/>
    <path class="cls-2" d="M17.06,54.36l3.83-6.06,1.46.92-2.75,4.34,2.03,1.29,2.33-3.68,1.47.93-2.33,3.68,3.5,2.22-1.08,1.72-8.46-5.35Z"/>
    <path class="cls-2" d="M23.86,44.18l4.6-5.74,1.33,1.07-3.34,4.16,1.75,1.4,2.92-3.65,1.3,1.04-2.92,3.65,2.11,1.69,3.36-4.19,1.32,1.06-4.63,5.77-7.8-6.26Z"/>
    <path class="cls-2" d="M31.98,34.52l1.47-1.44,6.29,1.65c.61.16,1.48.51,1.48.51l.02-.02s-.77-.7-1.26-1.2l-3.68-3.75,1.43-1.4,7.02,7.14-1.4,1.37-6.31-1.55c-.6-.15-1.48-.49-1.48-.49l-.02.02s.77.71,1.27,1.21l3.62,3.69-1.43,1.4-7.02-7.14Z"/>
    <path class="cls-2" d="M52.99,27.69l-.02.02c.15,1.33-.35,2.22-1.3,2.94-1.2.91-2.47,1.19-3.68.96-1.22-.24-2.37-.97-3.29-2.18-1.01-1.33-1.42-2.84-1.17-4.25.2-1.08.8-2.05,1.87-2.86,2-1.52,3.99-1.29,5.43.07l-1.58,1.2c-.76-.63-1.78-.74-2.8.04-1.5,1.14-1.3,2.96-.1,4.54,1.24,1.63,3,2.17,4.37,1.13,1.24-.94,1.35-2.48.68-3.36l-.03-.04-1.92,1.46-.95-1.25,3.36-2.55,3.22,4.24-1.21.92-.87-1.03Z"/>
    <path class="cls-2" d="M61.37,20.24l1.77-.9c.67,1.01,1.5,1.12,2.77.47.92-.47,1.57-1.21,1.15-2.03-.44-.87-1.38-.62-2.9-.24-1.78.45-3.46.77-4.41-1.09-.9-1.76.07-3.4,2.06-4.41,2.01-1.02,3.81-.7,4.86,1.03l-1.73.88c-.56-.85-1.49-.94-2.41-.47-.97.5-1.4,1.23-1.08,1.87.37.72,1.1.62,2.57.23,2.04-.54,3.76-.86,4.74,1.06.92,1.81-.02,3.56-2.03,4.59-2.42,1.23-4.34.86-5.36-.99Z"/>
    <path class="cls-2" d="M70.32,8.26l1.91-.7,1.34,3.68,3.7-1.35-1.34-3.68,1.91-.7,3.43,9.41-1.91.7-1.51-4.14-3.7,1.35,1.51,4.14-1.91.7-3.43-9.4Z"/>
    <path class="cls-2" d="M84.61,10.58l-1.54-6.61,1.98-.46,1.54,6.61c.23,1.01.9,1.6,2.22,1.29,1.25-.29,1.67-1.16,1.44-2.17l-1.53-6.58,1.98-.46,1.53,6.61c.48,2.09-.52,3.6-3.01,4.18-2.52.59-4.12-.29-4.61-2.41Z"/>
    <path class="cls-2" d="M95.91,1.37l2.01-.27,1.35,9.92-2.01.27-1.35-9.92Z"/>
    <path class="cls-2" d="M109.03.19l3.91.04c2.67.03,4.38,2.2,4.35,5.15-.02,1.62-.58,3.05-1.64,3.92-.75.61-1.72.95-2.98.94l-3.74-.04.1-10.01ZM112.55,8.49c1.9.02,2.66-1.14,2.68-3.12.02-1.99-.83-3.38-2.56-3.4l-1.62-.02-.07,6.52,1.57.02Z"/>
    <path class="cls-2" d="M122.43.67l7.3.94-.22,1.69-5.29-.68-.29,2.22,4.64.6-.21,1.65-4.64-.6-.35,2.68,5.33.69-.22,1.68-7.34-.95,1.28-9.93Z"/>
    <path class="cls-2" d="M132.72,9.17l1.93.48c-.16,1.2.39,1.83,1.78,2.17,1,.25,1.98.12,2.2-.78.24-.95-.64-1.37-2.04-2.08-1.64-.83-3.11-1.68-2.61-3.71.48-1.92,2.29-2.52,4.45-1.98,2.19.54,3.33,1.97,3,3.96l-1.89-.47c.13-1-.5-1.68-1.51-1.93-1.06-.26-1.86.01-2.04.71-.2.79.42,1.19,1.79,1.86,1.89.93,3.4,1.81,2.88,3.91-.49,1.97-2.35,2.67-4.54,2.13-2.64-.66-3.84-2.2-3.4-4.26Z"/>
    <path class="cls-2" d="M147.14,6.01l1.92.67-3.3,9.45-1.92-.67,3.3-9.45Z"/>
    <path class="cls-2" d="M157.04,19.47h-.03c-1.11.74-2.13.71-3.21.21-1.37-.64-2.21-1.63-2.57-2.8-.36-1.19-.25-2.55.39-3.92.7-1.51,1.85-2.58,3.21-3.02,1.05-.33,2.18-.25,3.4.31,2.28,1.06,3.01,2.92,2.48,4.84l-1.8-.84c.2-.97-.17-1.92-1.34-2.46-1.71-.8-3.23.23-4.06,2.04-.86,1.85-.51,3.67,1.05,4.39,1.41.65,2.82.03,3.29-.97l.02-.05-2.18-1.01.66-1.42,3.82,1.77-2.24,4.83-1.38-.64.5-1.25Z"/>
    <path class="cls-2" d="M166.95,14.93l1.74,1.1-.16,6.5c-.02.63-.15,1.56-.15,1.56h.02s.5-.89.88-1.48l2.8-4.44,1.7,1.07-5.34,8.47-1.66-1.04.06-6.5c.01-.62.13-1.55.13-1.55h-.02s-.51.9-.88,1.5l-2.76,4.37-1.69-1.07,5.34-8.47Z"/>
    <path class="cls-2" d="M182.81,26.12l3.26,2.95c.86.78,1.28,1.61,1.31,2.45.03.8-.25,1.61-.87,2.29-1.27,1.4-3.05,1.51-4.6.1l-1.83-1.65-2.43,2.69-1.56-1.41,6.72-7.42ZM181.19,31.04l1.56,1.41c.79.71,1.6.65,2.21-.02.63-.7.55-1.48-.2-2.16l-1.58-1.43-1.99,2.2Z"/>
    <path class="cls-2" d="M192.17,35.01l3.02,3.46c1.27,1.46,1.28,3.16.02,4.26-.89.77-1.92.95-3.03.21l-.03.03c.41.87.32,1.58-.51,2.48-.97,1.04-1.82,1.7-1.71,2.07l-.07.06-1.28-1.47c-.08-.26.74-1.02,1.5-1.79.77-.78.83-1.65,0-2.6l-1.08-1.23-3.03,2.64-1.34-1.53,7.54-6.59ZM190.18,39.45l1.42,1.62c.73.83,1.52.87,2.12.34.61-.53.72-1.32.01-2.13l-1.46-1.67-2.1,1.83Z"/>
    <path class="cls-2" d="M196.16,47.55c2.48-1.68,5.38-1.37,7.03,1.08,1.65,2.45.85,5.24-1.63,6.91-2.48,1.68-5.36,1.37-7.01-1.08-1.65-2.45-.87-5.24,1.61-6.92ZM200.4,53.83c1.66-1.12,2.45-2.73,1.42-4.25-1.03-1.52-2.84-1.43-4.5-.31-1.65,1.11-2.41,2.76-1.38,4.28,1.03,1.52,2.82,1.39,4.46.28Z"/>
    <path class="cls-2" d="M208.24,57.17l3.26,6.38-1.53.78-2.34-4.57-2.14,1.1,1.98,3.88-1.55.79-1.98-3.88-3.69,1.89-.92-1.81,8.91-4.56Z"/>
    <path class="cls-2" d="M213.54,68.24l2.58,6.89-1.6.6-1.87-4.99-2.1.79,1.64,4.38-1.56.58-1.64-4.38-2.53.95,1.89,5.03-1.59.59-2.6-6.93,9.37-3.51Z"/>
    <path class="cls-2" d="M210.85,81.34l.47,1.93c-1.14.42-1.43,1.21-1.09,2.59.25,1.01.82,1.8,1.72,1.58.95-.23.92-1.21.89-2.77-.03-1.84.04-3.54,2.06-4.04,1.92-.47,3.29.85,3.83,3.01.54,2.19-.19,3.87-2.11,4.5l-.46-1.89c.95-.35,1.25-1.23,1.01-2.24-.26-1.06-.88-1.64-1.57-1.47-.79.19-.85.93-.81,2.45.06,2.11-.02,3.86-2.11,4.37-1.97.49-3.46-.83-4-3.02-.65-2.64.15-4.42,2.19-5Z"/>
    <path class="cls-2" d="M213.55,93.25l.24,1.97c-1.18.29-1.57,1.03-1.39,2.44.13,1.03.6,1.89,1.52,1.77.97-.12,1.05-1.09,1.21-2.65.18-1.83.46-3.51,2.52-3.77,1.96-.24,3.17,1.23,3.45,3.44.28,2.24-.64,3.82-2.62,4.22l-.24-1.93c.99-.24,1.39-1.08,1.26-2.1-.13-1.08-.68-1.74-1.39-1.65-.81.1-.96.83-1.09,2.34-.19,2.1-.47,3.83-2.61,4.09-2.01.25-3.34-1.24-3.62-3.47-.33-2.7.67-4.37,2.76-4.7Z"/>
    <path class="cls-2" d="M221.65,105.52l.08,2.03-10,.39-.08-2.03,10-.39Z"/>
    <path class="cls-2" d="M216.82,112.21c2.99.19,5.09,2.21,4.9,5.16-.19,2.95-2.53,4.66-5.52,4.47-2.99-.19-5.08-2.19-4.89-5.14.19-2.95,2.52-4.68,5.51-4.49ZM216.33,119.76c2,.13,3.61-.67,3.72-2.49.12-1.83-1.37-2.87-3.37-3-1.98-.13-3.59.71-3.71,2.54-.12,1.83,1.37,2.82,3.36,2.95Z"/>
    <path class="cls-2" d="M220.5,127.29l-.39,2.02-6.12,2.2c-.6.21-1.51.42-1.51.42v.03s1.02.14,1.71.28l5.15,1-.38,1.96-9.82-1.92.37-1.92,6.08-2.29c.58-.21,1.5-.43,1.5-.43v-.03s-1.04-.15-1.72-.28l-5.07-.99.38-1.96,9.82,1.92Z"/>
    <path class="cls-2" d="M216.7,143.21l-.65,2-10.61.25.66-2.01,2.23.02,1.12-3.44-1.82-1.29.64-1.96,8.44,6.42ZM210.77,140.97l-.82,2.52,3.02.04c.56,0,1.59.09,1.59.09v-.03s-.87-.55-1.33-.88l-2.47-1.75Z"/>
    <path class="cls-2" d="M213.13,152.98l-.84,1.85-7.56-3.46-1.96,4.28-1.54-.71,2.8-6.12,9.1,4.17Z"/>
  </g>
  <rect class="cls-1" x="21.48" y="92.25" width="180.8" height="35.7"/>
  <g>
    <path class="cls-2" d="M69.69,90.11l10.12,28.96c.54,1.5,1.04,2.59,1.51,3.26.47.67.93,1.1,1.37,1.27.44.18.99.29,1.66.36v.37h-11.04v-.37c1.13,0,2-.11,2.62-.32.61-.21.92-.79.92-1.74,0-.52-.15-1.22-.44-2.09-.06-.12-.09-.21-.09-.28l-3.01-8.97h-11.7l-2.69,8.31c-.37,1.13-.55,2.04-.55,2.73,0,.95.24,1.58.71,1.89.47.31,1.15.47,2.02.47v.37h-7.94v-.37c1.13-.11,2.04-.54,2.72-1.3.68-.76,1.27-1.91,1.78-3.45l9.55-29.1h2.48ZM62,109.34h10.76l-5.51-16.04h-.09l-5.16,16.04Z"/>
    <path class="cls-2" d="M86.54,90.91v-.39h20.29v5.14h-.37c-.09-1.06-.48-2-1.16-2.83-.68-.83-1.85-1.25-3.5-1.25h-8.12v15.31h7.57c1.44,0,2.42-.29,2.94-.88.52-.59.86-1.4,1.01-2.44h.37v7.67h-.37c-.09-.96-.41-1.75-.95-2.38-.54-.62-1.54-.93-3-.93h-7.57v12.32c0,1.12.32,2.02.96,2.7.64.68,1.42,1.02,2.32,1.02h.48v.37h-10.9v-.37h.46c.92,0,1.68-.34,2.28-1.03s.91-1.58.91-2.68v-25.57c0-1.45-.33-2.44-.99-2.97-.66-.53-1.39-.79-2.2-.79h-.46Z"/>
    <path class="cls-2" d="M110.64,90.91v-.39h13.01c1.82,0,3.5.16,5.04.47,1.54.31,2.92.73,4.13,1.25,1.22.52,2.27,1.09,3.16,1.71.89.62,1.64,1.25,2.25,1.89,1.07,1.07,1.98,2.26,2.73,3.57.75,1.31,1.31,2.69,1.69,4.14.37,1.45.56,2.95.56,4.5s-.18,3.01-.55,4.41c-.37,1.39-.89,2.68-1.58,3.87s-1.51,2.26-2.47,3.22c-.96.96-2.07,1.84-3.34,2.62-1.09.64-2.33,1.16-3.74,1.56-1.41.4-3.31.6-5.71.6h-15.17v-.37h.46c1.06,0,1.84-.4,2.36-1.19.52-.79.78-1.64.78-2.52v-25.52c0-.86-.14-1.58-.42-2.16-.28-.58-.66-1-1.14-1.26-.47-.26-1-.39-1.58-.39h-.46ZM117.73,92.13v26.78c0,1.32.21,2.28.63,2.9.42.62,1.07,1.02,1.96,1.2s2.19.28,3.9.28c2.45,0,4.51-.24,6.2-.72,1.68-.48,3.31-1.56,4.89-3.22,1.16-1.24,2.1-2.75,2.8-4.54s1.06-3.96,1.06-6.49c0-2-.28-3.99-.85-5.96-.57-1.97-1.43-3.71-2.59-5.24-1.3-1.73-2.97-3.08-5.01-4.06-2.04-.98-4.5-1.47-7.38-1.47-1.48,0-3.35.18-5.6.55Z"/>
    <path class="cls-2" d="M147.38,90.91v-.39h11.08c1.85,0,3.48.25,4.9.76s2.59,1.19,3.53,2.07c.94.87,1.64,1.86,2.11,2.95.47,1.09.7,2.25.7,3.45s-.22,2.31-.65,3.41c-.44,1.09-1.12,2.07-2.05,2.92-.93.85-2.16,1.53-3.67,2.03s-3.26.76-5.23.76c-.63,0-1.84-.09-3.63-.28v11.66c0,2.4,1.22,3.64,3.67,3.72v.37h-10.76v-.37c1.06-.03,1.92-.33,2.6-.91.68-.57,1.02-1.51,1.02-2.81v-25.57c0-.78-.12-1.43-.37-1.95s-.53-.89-.86-1.11-.7-.39-1.1-.49-.69-.18-.84-.21h-.46ZM154.47,91.71v15.93c1.18.21,2.34.32,3.49.32,2.19,0,4.04-.56,5.57-1.69,1.52-1.12,2.28-3.21,2.28-6.25,0-2.51-.67-4.57-2.01-6.18-1.34-1.61-3.37-2.42-6.09-2.42-1.06,0-2.13.1-3.24.3Z"/>
  </g>
</svg>