<?xml version="1.0" encoding="UTF-8"?>
<svg id="IEWP" xmlns="http://www.w3.org/2000/svg" viewBox="0 0 223.5 231">
  <defs>
    <style>
      .cls-1 {
        fill: none;
      }

      .cls-1, .cls-2 {
        stroke-width: 0px;
      }

      .cls-2 {
        fill: #faf0b6;
      }
    </style>
  </defs>
  <g>
    <path class="cls-2" d="M131.75,32.94v.31c3.38.95,6.7,2.12,9.96,3.51,9.74,4.16,18.48,10.1,25.98,17.65,7.5,7.55,13.37,16.33,17.46,26.11,4.23,10.12,6.36,20.85,6.32,31.91-.04,11.03-2.24,21.73-6.53,31.8-4.14,9.72-10.06,18.45-17.58,25.94-7.52,7.49-16.27,13.37-26.01,17.48-10.08,4.25-20.78,6.41-31.8,6.41h-.31c-11.06-.04-21.78-2.25-31.87-6.56-9.74-4.16-18.48-10.1-25.98-17.65-7.5-7.55-13.37-16.33-17.46-26.11-4.23-10.12-6.36-20.85-6.32-31.91.04-11.03,2.24-21.73,6.53-31.8,4.14-9.72,10.06-18.45,17.58-25.94,7.52-7.49,16.27-13.37,26.01-17.48,3.14-1.33,6.35-2.45,9.6-3.36v-.3c-34.51,9.66-59.88,41.28-60.02,78.89-.17,45.41,36.51,82.36,81.92,82.53.11,0,.2,0,.31,0,45.27,0,82.05-36.62,82.22-81.92.14-37.82-25.28-69.77-60.02-79.49Z"/>
    <path class="cls-2" d="M26.05,111.39c1.34,1.25,1.8,2.53,1.35,2.78s-1.54-.4-2.66-1.94c-1.12-1.54-1.33-2.73-1.33-2.73,0,0,1.27.6,2.64,1.89Z"/>
    <path class="cls-2" d="M28.69,111.55c-1.28,1.16-1.7,2.37-1.25,2.62.44.25,1.5-.34,2.56-1.78,1.06-1.44,1.24-2.57,1.24-2.57,0,0-1.23.54-2.55,1.73Z"/>
    <path class="cls-2" d="M26.13,115.76c1.4,1.18,1.93,2.43,1.5,2.71s-1.56-.32-2.76-1.8c-1.2-1.48-1.48-2.65-1.48-2.65,0,0,1.3.54,2.74,1.75Z"/>
    <path class="cls-2" d="M28.77,115.78c-1.22,1.23-1.57,2.45-1.11,2.68.46.23,1.48-.42,2.47-1.92s1.1-2.63,1.1-2.63c0,0-1.2.61-2.45,1.87Z"/>
    <path class="cls-2" d="M26.43,120.13c1.46,1.11,2.05,2.32,1.63,2.62s-1.57-.24-2.85-1.65c-1.28-1.41-1.61-2.57-1.61-2.57,0,0,1.33.47,2.83,1.6Z"/>
    <path class="cls-2" d="M29.07,120.01c-1.15,1.29-1.44,2.53-.97,2.74.47.21,1.46-.5,2.36-2.04.91-1.54.96-2.69.96-2.69,0,0-1.17.67-2.35,1.99Z"/>
    <path class="cls-2" d="M26.97,124.46c1.52,1.03,2.17,2.21,1.77,2.53-.4.32-1.58-.16-2.93-1.5-1.35-1.34-1.74-2.49-1.74-2.49,0,0,1.35.4,2.91,1.45Z"/>
    <path class="cls-2" d="M29.6,124.21c-1.08,1.35-1.31,2.6-.83,2.79.48.18,1.43-.57,2.25-2.16.82-1.59.82-2.73.82-2.73,0,0-1.13.73-2.24,2.11Z"/>
    <path class="cls-2" d="M27.73,128.77c1.57.95,2.28,2.1,1.9,2.44-.38.34-1.59-.07-3.01-1.35-1.42-1.27-1.87-2.39-1.87-2.39,0,0,1.37.33,2.98,1.3Z"/>
    <path class="cls-2" d="M30.34,128.37c-1.01,1.4-1.17,2.67-.68,2.83.49.16,1.4-.65,2.14-2.28.74-1.63.67-2.77.67-2.77,0,0-1.09.79-2.13,2.23Z"/>
    <path class="cls-2" d="M28.71,133.03c1.62.87,2.39,1.97,2.02,2.34-.36.36-1.59,0-3.07-1.19-1.48-1.2-1.99-2.29-1.99-2.29,0,0,1.38.25,3.04,1.14Z"/>
    <path class="cls-2" d="M31.3,132.5c-.94,1.46-1.03,2.73-.53,2.86.5.13,1.36-.72,2.01-2.39.65-1.67.53-2.81.53-2.81,0,0-1.05.84-2.01,2.33Z"/>
    <path class="cls-2" d="M29.91,137.23c1.66.78,2.49,1.85,2.14,2.23-.35.38-1.59.09-3.13-1.02-1.54-1.12-2.11-2.18-2.11-2.18,0,0,1.4.18,3.1.98Z"/>
    <path class="cls-2" d="M32.47,136.56c-.86,1.5-.88,2.78-.38,2.88.5.11,1.32-.79,1.89-2.49.57-1.7.38-2.83.38-2.83,0,0-1.01.9-1.89,2.44Z"/>
    <path class="cls-2" d="M31.34,141.36c1.7.69,2.58,1.71,2.26,2.11-.32.4-1.58.18-3.18-.86-1.6-1.03-2.22-2.07-2.22-2.07,0,0,1.4.11,3.15.82Z"/>
    <path class="cls-2" d="M33.85,140.56c-.78,1.55-.74,2.82-.23,2.9s1.28-.86,1.75-2.58c.48-1.73.23-2.85.23-2.85,0,0-.96.95-1.76,2.53Z"/>
    <path class="cls-2" d="M32.97,145.41c1.73.6,2.67,1.58,2.37,1.99-.3.41-1.57.26-3.22-.69-1.65-.95-2.33-1.95-2.33-1.95,0,0,1.41.03,3.18.65Z"/>
    <path class="cls-2" d="M35.45,144.49c-.7,1.58-.59,2.85-.08,2.9.51.05,1.23-.92,1.61-2.67.38-1.75.08-2.85.08-2.85,0,0-.91,1-1.62,2.62Z"/>
    <path class="cls-2" d="M34.82,149.38c1.76.51,2.75,1.43,2.47,1.86-.28.43-1.55.34-3.25-.52-1.7-.86-2.43-1.82-2.43-1.82,0,0,1.41-.04,3.21.48Z"/>
    <path class="cls-2" d="M37.24,148.32c-.61,1.62-.44,2.88.07,2.9s1.18-.99,1.47-2.75c.29-1.77-.07-2.85-.07-2.85,0,0-.85,1.04-1.48,2.7Z"/>
    <path class="cls-2" d="M36.87,153.24c1.79.42,2.82,1.29,2.56,1.73-.26.44-1.53.42-3.28-.35-1.74-.77-2.52-1.7-2.52-1.7,0,0,1.4-.11,3.23.31Z"/>
    <path class="cls-2" d="M39.23,152.05c-.53,1.65-.29,2.9.23,2.9.51,0,1.13-1.05,1.33-2.83.2-1.78-.22-2.85-.22-2.85,0,0-.8,1.09-1.34,2.78Z"/>
    <path class="cls-2" d="M39.12,156.98c1.81.32,2.88,1.14,2.65,1.6s-1.51.5-3.29-.18c-1.78-.68-2.6-1.56-2.6-1.56,0,0,1.4-.19,3.25.14Z"/>
    <path class="cls-2" d="M41.42,155.68c-.44,1.67-.13,2.91.38,2.88.51-.03,1.07-1.1,1.18-2.89s-.36-2.83-.36-2.83c0,0-.74,1.13-1.19,2.84Z"/>
    <path class="cls-2" d="M41.57,160.61c1.82.23,2.94.99,2.73,1.45-.21.47-1.48.58-3.29,0s-2.68-1.42-2.68-1.42c0,0,1.38-.26,3.25-.03Z"/>
    <path class="cls-2" d="M43.79,159.18c-.35,1.69.02,2.91.53,2.86.51-.06,1.01-1.16,1.02-2.95.01-1.79-.51-2.81-.51-2.81,0,0-.68,1.16-1.04,2.9Z"/>
    <path class="cls-2" d="M44.2,164.1c1.83.13,2.99.83,2.8,1.31-.19.48-1.45.65-3.29.17-1.84-.49-2.75-1.28-2.75-1.28,0,0,1.37-.33,3.24-.2Z"/>
    <path class="cls-2" d="M46.35,162.56c-.26,1.71.17,2.91.68,2.83.51-.08.95-1.21.87-3-.08-1.79-.66-2.78-.66-2.78,0,0-.62,1.2-.89,2.95Z"/>
    <path class="cls-2" d="M47.01,167.45c1.84.04,3.03.67,2.86,1.16s-1.41.73-3.28.34c-1.87-.39-2.82-1.13-2.82-1.13,0,0,1.35-.4,3.23-.37Z"/>
    <path class="cls-2" d="M49.07,165.8c-.17,1.72.32,2.89.82,2.79s.88-1.26.71-3.04c-.17-1.78-.8-2.74-.8-2.74,0,0-.55,1.23-.73,2.99Z"/>
    <path class="cls-2" d="M49.99,170.64c1.83-.06,3.06.52,2.92,1.01-.14.49-1.37.8-3.25.51s-2.87-.99-2.87-.99c0,0,1.33-.47,3.21-.53Z"/>
    <path class="cls-2" d="M51.96,168.89c-.08,1.73.47,2.87.97,2.74.49-.13.82-1.3.55-3.07-.27-1.77-.94-2.69-.94-2.69,0,0-.49,1.26-.57,3.03Z"/>
    <path class="cls-2" d="M53.13,173.68c1.83-.16,3.08.35,2.97.86-.11.5-1.33.87-3.22.68-1.9-.19-2.92-.83-2.92-.83,0,0,1.3-.54,3.17-.7Z"/>
    <path class="cls-2" d="M55.01,171.83c0,1.73.62,2.84,1.11,2.68.49-.16.75-1.34.39-3.1-.36-1.75-1.08-2.64-1.08-2.64,0,0-.42,1.28-.41,3.05Z"/>
    <path class="cls-2" d="M56.43,176.55c1.82-.25,3.09.19,3.01.7-.08.51-1.28.94-3.18.85-1.9-.09-2.96-.68-2.96-.68,0,0,1.27-.61,3.13-.87Z"/>
    <path class="cls-2" d="M58.21,174.6c.1,1.73.77,2.81,1.25,2.62.48-.19.68-1.38.23-3.11-.45-1.73-1.22-2.58-1.22-2.58,0,0-.35,1.3-.25,3.07Z"/>
    <path class="cls-2" d="M59.88,179.24c1.8-.35,3.1.03,3.04.54-.06.51-1.23,1.01-3.13,1.01-1.91,0-2.99-.52-2.99-.52,0,0,1.24-.67,3.08-1.03Z"/>
    <path class="cls-2" d="M61.55,177.2c.19,1.72.92,2.76,1.39,2.55.47-.21.6-1.41.06-3.12-.54-1.71-1.35-2.51-1.35-2.51,0,0-.29,1.32-.09,3.08Z"/>
    <path class="cls-2" d="M63.46,181.74c1.78-.44,3.1-.13,3.07.38-.03.51-1.17,1.07-3.08,1.17-1.9.1-3.01-.37-3.01-.37,0,0,1.2-.74,3.02-1.19Z"/>
    <path class="cls-2" d="M65.02,179.62c.28,1.71,1.06,2.71,1.52,2.48.46-.23.53-1.44-.1-3.12-.63-1.68-1.48-2.44-1.48-2.44,0,0-.22,1.33.07,3.08Z"/>
    <path class="cls-2" d="M67.16,184.06c1.76-.53,3.09-.29,3.08.22s-1.12,1.13-3.01,1.33c-1.89.2-3.03-.21-3.03-.21,0,0,1.16-.8,2.96-1.35Z"/>
    <path class="cls-2" d="M68.62,181.86c.37,1.69,1.2,2.65,1.64,2.4.44-.26.45-1.47-.26-3.11-.72-1.64-1.61-2.36-1.61-2.36,0,0-.15,1.34.23,3.07Z"/>
    <path class="cls-2" d="M70.99,186.18c1.73-.62,3.07-.45,3.09.06s-1.06,1.19-2.94,1.49c-1.88.3-3.04-.05-3.04-.05,0,0,1.12-.86,2.88-1.5Z"/>
    <path class="cls-2" d="M72.32,183.9c.45,1.67,1.34,2.59,1.77,2.31.43-.28.38-1.49-.43-3.09-.8-1.6-1.73-2.27-1.73-2.27,0,0-.08,1.34.39,3.06Z"/>
    <path class="cls-2" d="M74.91,188.1c1.69-.71,3.04-.61,3.09-.1.05.51-.99,1.24-2.86,1.64s-3.03.11-3.03.11c0,0,1.07-.92,2.8-1.65Z"/>
    <path class="cls-2" d="M76.13,185.75c.54,1.64,1.47,2.51,1.89,2.21s.3-1.51-.59-3.07c-.88-1.56-1.85-2.18-1.85-2.18,0,0,0,1.35.55,3.03Z"/>
    <path class="cls-2" d="M78.94,189.8c1.65-.8,3-.77,3.08-.27.08.51-.93,1.29-2.77,1.79-1.84.5-3.02.27-3.02.27,0,0,1.02-.97,2.71-1.79Z"/>
    <path class="cls-2" d="M80.03,187.4c.63,1.61,1.6,2.43,2,2.11.4-.32.22-1.52-.75-3.03-.96-1.51-1.96-2.08-1.96-2.08,0,0,.06,1.35.71,3Z"/>
    <path class="cls-2" d="M83.05,191.3c1.61-.89,2.96-.93,3.06-.43.1.5-.86,1.34-2.67,1.93-1.81.59-3.01.43-3.01.43,0,0,.97-1.02,2.61-1.93Z"/>
    <path class="cls-2" d="M84.01,188.84c.71,1.58,1.73,2.35,2.11,2s.14-1.53-.9-2.99c-1.04-1.46-2.06-1.97-2.06-1.97,0,0,.13,1.34.86,2.96Z"/>
    <path class="cls-2" d="M87.23,192.58c1.56-.97,2.91-1.08,3.03-.59.13.5-.79,1.38-2.56,2.07-1.78.69-2.98.58-2.98.58,0,0,.91-1.07,2.51-2.06Z"/>
    <path class="cls-2" d="M88.06,190.07c.79,1.54,1.85,2.25,2.21,1.89.36-.36.06-1.54-1.06-2.94-1.12-1.4-2.17-1.86-2.17-1.86,0,0,.2,1.33,1.02,2.91Z"/>
    <path class="cls-2" d="M91.47,193.64c1.51-1.05,2.84-1.23,3-.74.16.49-.71,1.42-2.45,2.2-1.74.78-2.95.74-2.95.74,0,0,.85-1.12,2.4-2.19Z"/>
    <path class="cls-2" d="M92.17,191.09c.87,1.5,1.96,2.15,2.3,1.77s-.02-1.54-1.21-2.88c-1.19-1.34-2.26-1.74-2.26-1.74,0,0,.27,1.32,1.17,2.85Z"/>
    <path class="cls-2" d="M95.76,194.47c1.45-1.13,2.78-1.38,2.96-.9.18.48-.64,1.46-2.33,2.32-1.7.87-2.9.89-2.9.89,0,0,.8-1.16,2.28-2.32Z"/>
    <path class="cls-2" d="M96.33,191.89c.95,1.45,2.07,2.05,2.39,1.65.32-.4-.1-1.53-1.36-2.81-1.26-1.28-2.35-1.62-2.35-1.62,0,0,.34,1.3,1.31,2.79Z"/>
    <path class="cls-2" d="M100.09,195.08c1.39-1.2,2.7-1.52,2.91-1.05.21.47-.56,1.49-2.21,2.44-1.65.96-2.85,1.04-2.85,1.04,0,0,.73-1.2,2.15-2.43Z"/>
    <path class="cls-2" d="M100.52,192.47c1.02,1.4,2.18,1.93,2.48,1.52.3-.42-.18-1.53-1.51-2.73s-2.43-1.5-2.43-1.5c0,0,.41,1.28,1.46,2.71Z"/>
    <path class="cls-2" d="M104.44,195.46c1.32-1.27,2.62-1.66,2.85-1.2.23.46-.48,1.51-2.08,2.56s-2.79,1.19-2.79,1.19c0,0,.67-1.24,2.02-2.54Z"/>
    <path class="cls-2" d="M104.74,192.84c1.09,1.34,2.28,1.82,2.55,1.39.28-.43-.26-1.52-1.65-2.65-1.38-1.14-2.5-1.37-2.5-1.37,0,0,.48,1.26,1.6,2.63Z"/>
    <path class="cls-2" d="M88.64,31.3c-.87,1.62-1.97,2.39-2.34,2.02-.36-.36,0-1.59,1.19-3.07,1.2-1.48,2.29-1.99,2.29-1.99,0,0-.25,1.38-1.14,3.04Z"/>
    <path class="cls-2" d="M89.17,33.88c-1.46-.94-2.73-1.03-2.86-.53-.13.5.72,1.36,2.39,2.01,1.67.65,2.81.53,2.81.53,0,0-.84-1.05-2.33-2.01Z"/>
    <path class="cls-2" d="M84.44,32.5c-.78,1.66-1.85,2.49-2.23,2.14-.38-.35-.09-1.59,1.02-3.13,1.12-1.54,2.18-2.11,2.18-2.11,0,0-.18,1.4-.98,3.1Z"/>
    <path class="cls-2" d="M85.1,35.06c-1.5-.86-2.78-.88-2.88-.38-.11.5.79,1.32,2.49,1.89,1.7.57,2.83.38,2.83.38,0,0-.9-1.01-2.44-1.89Z"/>
    <path class="cls-2" d="M80.3,33.92c-.69,1.7-1.71,2.58-2.11,2.26-.4-.32-.18-1.58.86-3.18,1.03-1.6,2.07-2.22,2.07-2.22,0,0-.11,1.4-.82,3.15Z"/>
    <path class="cls-2" d="M81.1,36.44c-1.55-.78-2.82-.74-2.9-.23-.08.51.86,1.28,2.58,1.75,1.73.48,2.85.23,2.85.23,0,0-.95-.96-2.53-1.76Z"/>
    <path class="cls-2" d="M76.25,35.56c-.6,1.73-1.58,2.67-1.99,2.37-.41-.3-.26-1.57.69-3.22.95-1.65,1.95-2.33,1.95-2.33,0,0-.03,1.41-.65,3.18Z"/>
    <path class="cls-2" d="M77.18,38.03c-1.58-.7-2.85-.59-2.9-.08-.05.51.92,1.23,2.67,1.61,1.75.38,2.85.08,2.85.08,0,0-1-.91-2.62-1.62Z"/>
    <path class="cls-2" d="M72.29,37.41c-.51,1.76-1.43,2.75-1.86,2.47-.43-.28-.34-1.55.52-3.25.86-1.7,1.82-2.43,1.82-2.43,0,0,.04,1.41-.48,3.21Z"/>
    <path class="cls-2" d="M73.35,39.83c-1.62-.61-2.88-.44-2.9.07-.03.51.99,1.18,2.75,1.47,1.77.29,2.85-.07,2.85-.07,0,0-1.04-.85-2.7-1.48Z"/>
    <path class="cls-2" d="M68.43,39.46c-.42,1.79-1.29,2.82-1.73,2.56-.44-.26-.42-1.53.35-3.28.77-1.74,1.7-2.52,1.7-2.52,0,0,.11,1.4-.31,3.23Z"/>
    <path class="cls-2" d="M69.61,41.82c-1.65-.53-2.9-.29-2.9.23,0,.51,1.05,1.13,2.83,1.33,1.78.2,2.85-.22,2.85-.22,0,0-1.09-.8-2.78-1.34Z"/>
    <path class="cls-2" d="M64.68,41.71c-.32,1.81-1.14,2.88-1.6,2.65s-.5-1.51.18-3.29c.68-1.78,1.56-2.6,1.56-2.6,0,0,.19,1.4-.14,3.25Z"/>
    <path class="cls-2" d="M65.99,44.01c-1.67-.44-2.91-.13-2.88.38.03.51,1.1,1.07,2.89,1.18,1.79.11,2.83-.36,2.83-.36,0,0-1.13-.74-2.84-1.19Z"/>
    <path class="cls-2" d="M61.06,44.15c-.23,1.82-.99,2.94-1.45,2.73-.47-.21-.58-1.48,0-3.29.58-1.81,1.42-2.68,1.42-2.68,0,0,.26,1.38.03,3.25Z"/>
    <path class="cls-2" d="M62.48,46.38c-1.69-.35-2.91.02-2.86.53s1.16,1.01,2.95,1.02,2.81-.51,2.81-.51c0,0-1.16-.68-2.9-1.04Z"/>
    <path class="cls-2" d="M57.57,46.78c-.13,1.83-.83,2.99-1.31,2.8-.48-.19-.65-1.45-.17-3.29.49-1.84,1.28-2.75,1.28-2.75,0,0,.33,1.37.2,3.24Z"/>
    <path class="cls-2" d="M59.1,48.93c-1.71-.26-2.91.17-2.83.68.08.51,1.21.95,3,.87s2.78-.66,2.78-.66c0,0-1.2-.62-2.95-.89Z"/>
    <path class="cls-2" d="M54.22,49.59c-.04,1.84-.67,3.03-1.16,2.86-.49-.16-.73-1.41-.34-3.28.39-1.87,1.13-2.82,1.13-2.82,0,0,.4,1.35.37,3.23Z"/>
    <path class="cls-2" d="M55.87,51.66c-1.72-.17-2.89.32-2.79.82s1.26.88,3.04.71c1.78-.17,2.74-.8,2.74-.8,0,0-1.23-.55-2.99-.73Z"/>
    <path class="cls-2" d="M51.02,52.58c.06,1.83-.52,3.06-1.01,2.92s-.8-1.37-.51-3.25c.29-1.88.99-2.87.99-2.87,0,0,.47,1.33.53,3.21Z"/>
    <path class="cls-2" d="M52.78,54.55c-1.73-.08-2.87.47-2.74.97s1.3.82,3.07.55c1.77-.27,2.69-.94,2.69-.94,0,0-1.26-.49-3.03-.57Z"/>
    <path class="cls-2" d="M47.99,55.72c.16,1.83-.35,3.08-.86,2.97-.5-.11-.87-1.33-.68-3.22.19-1.9.83-2.92.83-2.92,0,0,.54,1.3.7,3.17Z"/>
    <path class="cls-2" d="M49.84,57.6c-1.73,0-2.84.62-2.68,1.11.16.49,1.34.75,3.1.39s2.64-1.08,2.64-1.08c0,0-1.28-.42-3.05-.41Z"/>
    <path class="cls-2" d="M45.12,59.02c.25,1.82-.19,3.09-.7,3.01-.51-.08-.94-1.28-.85-3.18.09-1.9.68-2.96.68-2.96,0,0,.61,1.27.87,3.13Z"/>
    <path class="cls-2" d="M47.07,60.8c-1.73.1-2.81.77-2.62,1.25.19.48,1.38.68,3.11.23,1.73-.45,2.58-1.22,2.58-1.22,0,0-1.3-.35-3.07-.25Z"/>
    <path class="cls-2" d="M42.43,62.46c.35,1.8-.03,3.1-.54,3.04-.51-.06-1.01-1.23-1.01-3.13s.52-2.99.52-2.99c0,0,.67,1.24,1.03,3.08Z"/>
    <path class="cls-2" d="M44.47,64.14c-1.72.19-2.76.92-2.55,1.39.21.47,1.41.6,3.12.06,1.71-.54,2.51-1.35,2.51-1.35,0,0-1.32-.29-3.08-.09Z"/>
    <path class="cls-2" d="M39.92,66.04c.44,1.78.13,3.1-.38,3.07s-1.07-1.17-1.17-3.08c-.1-1.9.37-3.01.37-3.01,0,0,.74,1.2,1.19,3.02Z"/>
    <path class="cls-2" d="M42.05,67.61c-1.71.28-2.71,1.06-2.48,1.52.23.46,1.44.53,3.12-.1,1.68-.63,2.44-1.48,2.44-1.48,0,0-1.33-.22-3.08.07Z"/>
    <path class="cls-2" d="M37.6,69.75c.53,1.76.29,3.09-.22,3.08-.51,0-1.13-1.12-1.33-3.01-.2-1.89.21-3.03.21-3.03,0,0,.8,1.16,1.35,2.96Z"/>
    <path class="cls-2" d="M39.81,71.2c-1.69.37-2.65,1.2-2.4,1.64s1.47.45,3.11-.26c1.64-.72,2.36-1.61,2.36-1.61,0,0-1.34-.15-3.07.23Z"/>
    <path class="cls-2" d="M35.49,73.57c.62,1.73.45,3.07-.06,3.09-.51.02-1.19-1.06-1.49-2.94-.3-1.88.05-3.04.05-3.04,0,0,.86,1.12,1.5,2.88Z"/>
    <path class="cls-2" d="M37.76,74.91c-1.67.45-2.59,1.34-2.31,1.77.28.43,1.49.38,3.09-.43,1.6-.8,2.27-1.73,2.27-1.73,0,0-1.34-.08-3.06.39Z"/>
    <path class="cls-2" d="M33.57,77.5c.71,1.69.61,3.04.1,3.09-.51.05-1.24-.99-1.64-2.86-.4-1.86-.11-3.03-.11-3.03,0,0,.92,1.07,1.65,2.8Z"/>
    <path class="cls-2" d="M35.91,78.72c-1.64.54-2.51,1.47-2.21,1.89s1.51.3,3.07-.59c1.56-.88,2.18-1.85,2.18-1.85,0,0-1.35,0-3.03.55Z"/>
    <path class="cls-2" d="M31.86,81.52c.8,1.65.77,3,.27,3.08s-1.29-.93-1.79-2.77c-.5-1.84-.27-3.02-.27-3.02,0,0,.97,1.02,1.79,2.71Z"/>
    <path class="cls-2" d="M34.27,82.62c-1.61.63-2.43,1.6-2.11,2,.32.4,1.52.22,3.03-.75,1.51-.96,2.08-1.96,2.08-1.96,0,0-1.35.06-3,.71Z"/>
    <path class="cls-2" d="M30.37,85.63c.89,1.61.93,2.96.43,3.06-.5.1-1.34-.86-1.93-2.67-.59-1.81-.43-3.01-.43-3.01,0,0,1.02.97,1.93,2.61Z"/>
    <path class="cls-2" d="M32.82,86.6c-1.58.71-2.35,1.73-2,2.11.34.38,1.53.14,2.99-.9,1.46-1.04,1.97-2.06,1.97-2.06,0,0-1.34.13-2.96.86Z"/>
    <path class="cls-2" d="M29.09,89.81c.97,1.56,1.08,2.91.59,3.03-.5.13-1.38-.79-2.07-2.56-.69-1.78-.58-2.98-.58-2.98,0,0,1.07.91,2.06,2.51Z"/>
    <path class="cls-2" d="M31.59,90.65c-1.54.79-2.25,1.85-1.89,2.21.36.36,1.54.06,2.94-1.06,1.4-1.12,1.86-2.17,1.86-2.17,0,0-1.33.2-2.91,1.02Z"/>
    <path class="cls-2" d="M28.03,94.05c1.05,1.51,1.23,2.84.74,3-.49.16-1.42-.71-2.2-2.45-.78-1.74-.74-2.95-.74-2.95,0,0,1.12.85,2.19,2.4Z"/>
    <path class="cls-2" d="M30.58,94.75c-1.5.87-2.15,1.96-1.77,2.3.38.34,1.54-.02,2.88-1.21,1.34-1.19,1.74-2.26,1.74-2.26,0,0-1.32.27-2.85,1.17Z"/>
    <path class="cls-2" d="M27.2,98.34c1.13,1.45,1.38,2.78.9,2.96-.48.18-1.46-.64-2.32-2.33-.87-1.7-.89-2.9-.89-2.9,0,0,1.16.8,2.32,2.28Z"/>
    <path class="cls-2" d="M29.77,98.91c-1.45.95-2.05,2.07-1.65,2.39.4.32,1.53-.1,2.81-1.36,1.28-1.26,1.62-2.35,1.62-2.35,0,0-1.3.34-2.79,1.31Z"/>
    <path class="cls-2" d="M26.59,102.67c1.2,1.39,1.52,2.7,1.05,2.91-.47.21-1.49-.56-2.44-2.21-.96-1.65-1.04-2.85-1.04-2.85,0,0,1.2.73,2.43,2.15Z"/>
    <path class="cls-2" d="M29.19,103.1c-1.4,1.02-1.93,2.18-1.52,2.48.42.3,1.53-.18,2.73-1.51,1.21-1.32,1.5-2.43,1.5-2.43,0,0-1.28.41-2.71,1.46Z"/>
    <path class="cls-2" d="M26.21,107.03c1.27,1.32,1.66,2.62,1.2,2.85-.46.23-1.51-.48-2.56-2.08-1.04-1.6-1.19-2.79-1.19-2.79,0,0,1.24.67,2.54,2.02Z"/>
    <path class="cls-2" d="M28.83,107.32c-1.34,1.09-1.82,2.28-1.39,2.55.43.28,1.52-.26,2.65-1.65,1.14-1.38,1.37-2.5,1.37-2.5,0,0-1.26.48-2.63,1.6Z"/>
    <path class="cls-2" d="M192.92,111.39c-1.34,1.25-1.8,2.53-1.35,2.78s1.54-.4,2.66-1.94c1.12-1.54,1.33-2.73,1.33-2.73,0,0-1.27.6-2.64,1.89Z"/>
    <path class="cls-2" d="M190.29,111.55c1.28,1.16,1.7,2.37,1.25,2.62-.44.25-1.5-.34-2.56-1.78-1.06-1.44-1.24-2.57-1.24-2.57,0,0,1.23.54,2.55,1.73Z"/>
    <path class="cls-2" d="M192.85,115.76c-1.4,1.18-1.93,2.43-1.5,2.71.43.28,1.56-.32,2.76-1.8,1.2-1.48,1.48-2.65,1.48-2.65,0,0-1.3.54-2.74,1.75Z"/>
    <path class="cls-2" d="M190.21,115.78c1.22,1.23,1.57,2.45,1.11,2.68-.46.23-1.48-.42-2.47-1.92-.99-1.49-1.1-2.63-1.1-2.63,0,0,1.2.61,2.45,1.87Z"/>
    <path class="cls-2" d="M192.54,120.13c-1.46,1.11-2.05,2.32-1.63,2.62s1.57-.24,2.85-1.65c1.28-1.41,1.61-2.57,1.61-2.57,0,0-1.33.47-2.83,1.6Z"/>
    <path class="cls-2" d="M189.91,120.01c1.15,1.29,1.44,2.53.97,2.74-.47.21-1.46-.5-2.36-2.04-.91-1.54-.96-2.69-.96-2.69,0,0,1.17.67,2.35,1.99Z"/>
    <path class="cls-2" d="M192.01,124.46c-1.52,1.03-2.17,2.21-1.77,2.53.4.32,1.58-.16,2.93-1.5,1.35-1.34,1.74-2.49,1.74-2.49,0,0-1.35.4-2.91,1.45Z"/>
    <path class="cls-2" d="M189.38,124.21c1.08,1.35,1.31,2.6.83,2.79s-1.43-.57-2.25-2.16c-.82-1.59-.82-2.73-.82-2.73,0,0,1.13.73,2.24,2.11Z"/>
    <path class="cls-2" d="M191.25,128.77c-1.57.95-2.28,2.1-1.9,2.44.38.34,1.59-.07,3.01-1.35,1.42-1.27,1.87-2.39,1.87-2.39,0,0-1.37.33-2.98,1.3Z"/>
    <path class="cls-2" d="M188.64,128.37c1.01,1.4,1.17,2.67.68,2.83-.49.16-1.4-.65-2.14-2.28-.74-1.63-.67-2.77-.67-2.77,0,0,1.09.79,2.13,2.23Z"/>
    <path class="cls-2" d="M190.27,133.03c-1.62.87-2.39,1.97-2.02,2.34s1.59,0,3.07-1.19c1.48-1.2,1.99-2.29,1.99-2.29,0,0-1.38.25-3.04,1.14Z"/>
    <path class="cls-2" d="M187.68,132.5c.94,1.46,1.03,2.73.53,2.86-.5.13-1.36-.72-2.01-2.39-.65-1.67-.53-2.81-.53-2.81,0,0,1.05.84,2.01,2.33Z"/>
    <path class="cls-2" d="M189.06,137.23c-1.66.78-2.49,1.85-2.14,2.23.35.38,1.59.09,3.13-1.02,1.54-1.12,2.11-2.18,2.11-2.18,0,0-1.4.18-3.1.98Z"/>
    <path class="cls-2" d="M186.51,136.56c.86,1.5.88,2.78.38,2.88-.5.11-1.32-.79-1.89-2.49-.57-1.7-.38-2.83-.38-2.83,0,0,1.01.9,1.89,2.44Z"/>
    <path class="cls-2" d="M187.64,141.36c-1.7.69-2.58,1.71-2.26,2.11.32.4,1.58.18,3.18-.86,1.6-1.03,2.22-2.07,2.22-2.07,0,0-1.4.11-3.15.82Z"/>
    <path class="cls-2" d="M185.12,140.56c.78,1.55.74,2.82.23,2.9s-1.28-.86-1.75-2.58c-.48-1.73-.23-2.85-.23-2.85,0,0,.96.95,1.76,2.53Z"/>
    <path class="cls-2" d="M186,145.41c-1.73.6-2.67,1.58-2.37,1.99.3.41,1.57.26,3.22-.69,1.65-.95,2.33-1.95,2.33-1.95,0,0-1.41.03-3.18.65Z"/>
    <path class="cls-2" d="M183.53,144.49c.7,1.58.59,2.85.08,2.9-.51.05-1.23-.92-1.61-2.67-.38-1.75-.08-2.85-.08-2.85,0,0,.91,1,1.62,2.62Z"/>
    <path class="cls-2" d="M184.16,149.38c-1.76.51-2.75,1.43-2.47,1.86.28.43,1.55.34,3.25-.52,1.7-.86,2.43-1.82,2.43-1.82,0,0-1.41-.04-3.21.48Z"/>
    <path class="cls-2" d="M181.74,148.32c.61,1.62.44,2.88-.07,2.9-.51.03-1.18-.99-1.47-2.75-.29-1.77.07-2.85.07-2.85,0,0,.85,1.04,1.48,2.7Z"/>
    <path class="cls-2" d="M182.1,153.24c-1.79.42-2.82,1.29-2.56,1.73.26.44,1.53.42,3.28-.35,1.74-.77,2.52-1.7,2.52-1.7,0,0-1.4-.11-3.23.31Z"/>
    <path class="cls-2" d="M179.74,152.05c.53,1.65.29,2.9-.23,2.9-.51,0-1.13-1.05-1.33-2.83-.2-1.78.22-2.85.22-2.85,0,0,.8,1.09,1.34,2.78Z"/>
    <path class="cls-2" d="M179.85,156.98c-1.81.32-2.88,1.14-2.65,1.6s1.51.5,3.29-.18c1.78-.68,2.6-1.56,2.6-1.56,0,0-1.4-.19-3.25.14Z"/>
    <path class="cls-2" d="M177.56,155.68c.44,1.67.13,2.91-.38,2.88-.51-.03-1.07-1.1-1.18-2.89-.11-1.79.36-2.83.36-2.83,0,0,.74,1.13,1.19,2.84Z"/>
    <path class="cls-2" d="M177.41,160.61c-1.82.23-2.94.99-2.73,1.45.21.47,1.48.58,3.29,0,1.81-.58,2.68-1.42,2.68-1.42,0,0-1.38-.26-3.25-.03Z"/>
    <path class="cls-2" d="M175.18,159.18c.35,1.69-.02,2.91-.53,2.86-.51-.06-1.01-1.16-1.02-2.95-.01-1.79.51-2.81.51-2.81,0,0,.68,1.16,1.04,2.9Z"/>
    <path class="cls-2" d="M174.78,164.1c-1.83.13-2.99.83-2.8,1.31.19.48,1.45.65,3.29.17,1.84-.49,2.75-1.28,2.75-1.28,0,0-1.37-.33-3.24-.2Z"/>
    <path class="cls-2" d="M172.63,162.56c.26,1.71-.17,2.91-.68,2.83-.51-.08-.95-1.21-.87-3,.08-1.79.66-2.78.66-2.78,0,0,.62,1.2.89,2.95Z"/>
    <path class="cls-2" d="M171.97,167.45c-1.84.04-3.03.67-2.86,1.16.16.49,1.41.73,3.28.34,1.87-.39,2.82-1.13,2.82-1.13,0,0-1.35-.4-3.23-.37Z"/>
    <path class="cls-2" d="M169.91,165.8c.17,1.72-.32,2.89-.82,2.79s-.88-1.26-.71-3.04c.17-1.78.8-2.74.8-2.74,0,0,.55,1.23.73,2.99Z"/>
    <path class="cls-2" d="M168.99,170.64c-1.83-.06-3.06.52-2.92,1.01.14.49,1.37.8,3.25.51s2.87-.99,2.87-.99c0,0-1.33-.47-3.21-.53Z"/>
    <path class="cls-2" d="M167.01,168.89c.08,1.73-.47,2.87-.97,2.74-.49-.13-.82-1.3-.55-3.07.27-1.77.94-2.69.94-2.69,0,0,.49,1.26.57,3.03Z"/>
    <path class="cls-2" d="M165.84,173.68c-1.83-.16-3.08.35-2.97.86.11.5,1.33.87,3.22.68,1.9-.19,2.92-.83,2.92-.83,0,0-1.3-.54-3.17-.7Z"/>
    <path class="cls-2" d="M163.96,171.83c0,1.73-.62,2.84-1.11,2.68-.49-.16-.75-1.34-.39-3.1.36-1.75,1.08-2.64,1.08-2.64,0,0,.42,1.28.41,3.05Z"/>
    <path class="cls-2" d="M162.55,176.55c-1.82-.25-3.09.19-3.01.7.08.51,1.28.94,3.18.85,1.9-.09,2.96-.68,2.96-.68,0,0-1.27-.61-3.13-.87Z"/>
    <path class="cls-2" d="M160.76,174.6c-.1,1.73-.77,2.81-1.25,2.62-.48-.19-.68-1.38-.23-3.11.45-1.73,1.22-2.58,1.22-2.58,0,0,.35,1.3.25,3.07Z"/>
    <path class="cls-2" d="M159.1,179.24c-1.8-.35-3.1.03-3.04.54.06.51,1.23,1.01,3.13,1.01,1.91,0,2.99-.52,2.99-.52,0,0-1.24-.67-3.08-1.03Z"/>
    <path class="cls-2" d="M157.42,177.2c-.19,1.72-.92,2.76-1.39,2.55-.47-.21-.6-1.41-.06-3.12.54-1.71,1.35-2.51,1.35-2.51,0,0,.29,1.32.09,3.08Z"/>
    <path class="cls-2" d="M155.52,181.74c-1.78-.44-3.1-.13-3.07.38s1.17,1.07,3.08,1.17c1.9.1,3.01-.37,3.01-.37,0,0-1.2-.74-3.02-1.19Z"/>
    <path class="cls-2" d="M153.95,179.62c-.28,1.71-1.06,2.71-1.52,2.48-.46-.23-.53-1.44.1-3.12.63-1.68,1.48-2.44,1.48-2.44,0,0,.22,1.33-.07,3.08Z"/>
    <path class="cls-2" d="M151.81,184.06c-1.76-.53-3.09-.29-3.08.22s1.12,1.13,3.01,1.33c1.89.2,3.03-.21,3.03-.21,0,0-1.16-.8-2.96-1.35Z"/>
    <path class="cls-2" d="M150.36,181.86c-.37,1.69-1.2,2.65-1.64,2.4-.44-.26-.45-1.47.26-3.11.72-1.64,1.61-2.36,1.61-2.36,0,0,.15,1.34-.23,3.07Z"/>
    <path class="cls-2" d="M147.99,186.18c-1.73-.62-3.07-.45-3.09.06-.02.51,1.06,1.19,2.94,1.49,1.88.3,3.04-.05,3.04-.05,0,0-1.12-.86-2.88-1.5Z"/>
    <path class="cls-2" d="M146.65,183.9c-.45,1.67-1.34,2.59-1.77,2.31-.43-.28-.38-1.49.43-3.09.8-1.6,1.73-2.27,1.73-2.27,0,0,.08,1.34-.39,3.06Z"/>
    <path class="cls-2" d="M144.06,188.1c-1.69-.71-3.04-.61-3.09-.1s.99,1.24,2.86,1.64,3.03.11,3.03.11c0,0-1.07-.92-2.8-1.65Z"/>
    <path class="cls-2" d="M142.85,185.75c-.54,1.64-1.47,2.51-1.89,2.21-.41-.3-.3-1.51.59-3.07.88-1.56,1.85-2.18,1.85-2.18,0,0,0,1.35-.55,3.03Z"/>
    <path class="cls-2" d="M140.04,189.8c-1.65-.8-3-.77-3.08-.27-.08.51.93,1.29,2.77,1.79s3.02.27,3.02.27c0,0-1.02-.97-2.71-1.79Z"/>
    <path class="cls-2" d="M138.95,187.4c-.63,1.61-1.6,2.43-2,2.11s-.22-1.52.75-3.03c.96-1.51,1.96-2.08,1.96-2.08,0,0-.06,1.35-.71,3Z"/>
    <path class="cls-2" d="M135.93,191.3c-1.61-.89-2.96-.93-3.06-.43s.86,1.34,2.67,1.93c1.81.59,3.01.43,3.01.43,0,0-.97-1.02-2.61-1.93Z"/>
    <path class="cls-2" d="M134.97,188.84c-.71,1.58-1.73,2.35-2.11,2s-.14-1.53.9-2.99c1.04-1.46,2.06-1.97,2.06-1.97,0,0-.13,1.34-.86,2.96Z"/>
    <path class="cls-2" d="M131.75,192.58c-1.56-.97-2.91-1.08-3.03-.59-.13.5.79,1.38,2.56,2.07,1.78.69,2.98.58,2.98.58,0,0-.91-1.07-2.51-2.06Z"/>
    <path class="cls-2" d="M130.92,190.07c-.79,1.54-1.85,2.25-2.21,1.89-.36-.36-.06-1.54,1.06-2.94,1.12-1.4,2.17-1.86,2.17-1.86,0,0-.2,1.33-1.02,2.91Z"/>
    <path class="cls-2" d="M127.51,193.64c-1.51-1.05-2.84-1.23-3-.74-.16.49.71,1.42,2.45,2.2,1.74.78,2.95.74,2.95.74,0,0-.85-1.12-2.4-2.19Z"/>
    <path class="cls-2" d="M126.81,191.09c-.87,1.5-1.96,2.15-2.3,1.77-.34-.38.02-1.54,1.21-2.88,1.19-1.34,2.26-1.74,2.26-1.74,0,0-.27,1.32-1.17,2.85Z"/>
    <path class="cls-2" d="M123.22,194.47c-1.45-1.13-2.78-1.38-2.96-.9-.18.48.64,1.46,2.33,2.32s2.9.89,2.9.89c0,0-.8-1.16-2.28-2.32Z"/>
    <path class="cls-2" d="M122.65,191.89c-.95,1.45-2.07,2.05-2.39,1.65-.32-.4.1-1.53,1.36-2.81,1.26-1.28,2.35-1.62,2.35-1.62,0,0-.34,1.3-1.31,2.79Z"/>
    <path class="cls-2" d="M118.89,195.08c-1.39-1.2-2.7-1.52-2.91-1.05-.21.47.56,1.49,2.21,2.44,1.65.96,2.85,1.04,2.85,1.04,0,0-.73-1.2-2.15-2.43Z"/>
    <path class="cls-2" d="M118.46,192.47c-1.02,1.4-2.18,1.93-2.48,1.52-.3-.42.18-1.53,1.51-2.73,1.32-1.21,2.43-1.5,2.43-1.5,0,0-.41,1.28-1.46,2.71Z"/>
    <path class="cls-2" d="M114.54,195.46c-1.32-1.27-2.62-1.66-2.85-1.2-.23.46.48,1.51,2.08,2.56,1.6,1.04,2.79,1.19,2.79,1.19,0,0-.67-1.24-2.02-2.54Z"/>
    <path class="cls-2" d="M114.24,192.84c-1.09,1.34-2.28,1.82-2.55,1.39-.28-.43.26-1.52,1.65-2.65,1.38-1.14,2.5-1.37,2.5-1.37,0,0-.48,1.26-1.6,2.63Z"/>
    <path class="cls-2" d="M130.34,31.3c.87,1.62,1.97,2.39,2.34,2.02.36-.36,0-1.59-1.19-3.07-1.2-1.48-2.29-1.99-2.29-1.99,0,0,.25,1.38,1.14,3.04Z"/>
    <path class="cls-2" d="M129.81,33.88c1.46-.94,2.73-1.03,2.86-.53.13.5-.72,1.36-2.39,2.01-1.67.65-2.81.53-2.81.53,0,0,.84-1.05,2.33-2.01Z"/>
    <path class="cls-2" d="M134.54,32.5c.78,1.66,1.85,2.49,2.23,2.14.38-.35.09-1.59-1.02-3.13-1.12-1.54-2.18-2.11-2.18-2.11,0,0,.18,1.4.98,3.1Z"/>
    <path class="cls-2" d="M133.88,35.06c1.5-.86,2.78-.88,2.88-.38s-.79,1.32-2.49,1.89c-1.7.57-2.83.38-2.83.38,0,0,.9-1.01,2.44-1.89Z"/>
    <path class="cls-2" d="M138.67,33.92c.69,1.7,1.71,2.58,2.11,2.26.4-.32.18-1.58-.86-3.18-1.03-1.6-2.07-2.22-2.07-2.22,0,0,.11,1.4.82,3.15Z"/>
    <path class="cls-2" d="M137.88,36.44c1.55-.78,2.82-.74,2.9-.23.08.51-.86,1.28-2.58,1.75-1.73.48-2.85.23-2.85.23,0,0,.95-.96,2.53-1.76Z"/>
    <path class="cls-2" d="M142.73,35.56c.6,1.73,1.58,2.67,1.99,2.37.41-.3.26-1.57-.69-3.22-.95-1.65-1.95-2.33-1.95-2.33,0,0,.03,1.41.65,3.18Z"/>
    <path class="cls-2" d="M141.8,38.03c1.58-.7,2.85-.59,2.9-.08.05.51-.92,1.23-2.67,1.61-1.75.38-2.85.08-2.85.08,0,0,1-.91,2.62-1.62Z"/>
    <path class="cls-2" d="M146.69,37.41c.51,1.76,1.43,2.75,1.86,2.47.43-.28.34-1.55-.52-3.25-.86-1.7-1.82-2.43-1.82-2.43,0,0-.04,1.41.48,3.21Z"/>
    <path class="cls-2" d="M145.63,39.83c1.62-.61,2.88-.44,2.9.07.03.51-.99,1.18-2.75,1.47-1.77.29-2.85-.07-2.85-.07,0,0,1.04-.85,2.7-1.48Z"/>
    <path class="cls-2" d="M150.55,39.46c.42,1.79,1.29,2.82,1.73,2.56.44-.26.42-1.53-.35-3.28-.77-1.74-1.7-2.52-1.7-2.52,0,0-.11,1.4.31,3.23Z"/>
    <path class="cls-2" d="M149.37,41.82c1.65-.53,2.9-.29,2.9.23,0,.51-1.05,1.13-2.83,1.33-1.78.2-2.85-.22-2.85-.22,0,0,1.09-.8,2.78-1.34Z"/>
    <path class="cls-2" d="M154.29,41.71c.32,1.81,1.14,2.88,1.6,2.65.46-.24.5-1.51-.18-3.29-.68-1.78-1.56-2.6-1.56-2.6,0,0-.19,1.4.14,3.25Z"/>
    <path class="cls-2" d="M152.99,44.01c1.67-.44,2.91-.13,2.88.38-.03.51-1.1,1.07-2.89,1.18-1.79.11-2.83-.36-2.83-.36,0,0,1.13-.74,2.84-1.19Z"/>
    <path class="cls-2" d="M157.92,44.15c.23,1.82.99,2.94,1.45,2.73s.58-1.48,0-3.29-1.42-2.68-1.42-2.68c0,0-.26,1.38-.03,3.25Z"/>
    <path class="cls-2" d="M156.5,46.38c1.69-.35,2.91.02,2.86.53s-1.16,1.01-2.95,1.02-2.81-.51-2.81-.51c0,0,1.16-.68,2.9-1.04Z"/>
    <path class="cls-2" d="M161.41,46.78c.13,1.83.83,2.99,1.31,2.8.48-.19.65-1.45.17-3.29-.49-1.84-1.28-2.75-1.28-2.75,0,0-.33,1.37-.2,3.24Z"/>
    <path class="cls-2" d="M159.87,48.93c1.71-.26,2.91.17,2.83.68-.08.51-1.21.95-3,.87s-2.78-.66-2.78-.66c0,0,1.2-.62,2.95-.89Z"/>
    <path class="cls-2" d="M164.76,49.59c.04,1.84.67,3.03,1.16,2.86s.73-1.41.34-3.28c-.39-1.87-1.13-2.82-1.13-2.82,0,0-.4,1.35-.37,3.23Z"/>
    <path class="cls-2" d="M163.11,51.66c1.72-.17,2.89.32,2.79.82s-1.26.88-3.04.71c-1.78-.17-2.74-.8-2.74-.8,0,0,1.23-.55,2.99-.73Z"/>
    <path class="cls-2" d="M167.95,52.58c-.06,1.83.52,3.06,1.01,2.92.49-.14.8-1.37.51-3.25-.29-1.88-.99-2.87-.99-2.87,0,0-.47,1.33-.53,3.21Z"/>
    <path class="cls-2" d="M166.2,54.55c1.73-.08,2.87.47,2.74.97-.13.49-1.3.82-3.07.55-1.77-.27-2.69-.94-2.69-.94,0,0,1.26-.49,3.03-.57Z"/>
    <path class="cls-2" d="M170.99,55.72c-.16,1.83.35,3.08.86,2.97.5-.11.87-1.33.68-3.22-.19-1.9-.83-2.92-.83-2.92,0,0-.54,1.3-.7,3.17Z"/>
    <path class="cls-2" d="M169.14,57.6c1.73,0,2.84.62,2.68,1.11-.16.49-1.34.75-3.1.39s-2.64-1.08-2.64-1.08c0,0,1.28-.42,3.05-.41Z"/>
    <path class="cls-2" d="M173.86,59.02c-.25,1.82.19,3.09.7,3.01s.94-1.28.85-3.18c-.09-1.9-.68-2.96-.68-2.96,0,0-.61,1.27-.87,3.13Z"/>
    <path class="cls-2" d="M171.91,60.8c1.73.1,2.81.77,2.62,1.25-.19.48-1.38.68-3.11.23s-2.58-1.22-2.58-1.22c0,0,1.3-.35,3.07-.25Z"/>
    <path class="cls-2" d="M176.55,62.46c-.35,1.8.03,3.1.54,3.04s1.01-1.23,1.01-3.13-.52-2.99-.52-2.99c0,0-.67,1.24-1.03,3.08Z"/>
    <path class="cls-2" d="M174.51,64.14c1.72.19,2.76.92,2.55,1.39-.21.47-1.41.6-3.12.06-1.71-.54-2.51-1.35-2.51-1.35,0,0,1.32-.29,3.08-.09Z"/>
    <path class="cls-2" d="M179.06,66.04c-.44,1.78-.13,3.1.38,3.07s1.07-1.17,1.17-3.08c.1-1.9-.37-3.01-.37-3.01,0,0-.74,1.2-1.19,3.02Z"/>
    <path class="cls-2" d="M176.93,67.61c1.71.28,2.71,1.06,2.48,1.52-.23.46-1.44.53-3.12-.1-1.68-.63-2.44-1.48-2.44-1.48,0,0,1.33-.22,3.08.07Z"/>
    <path class="cls-2" d="M181.37,69.75c-.53,1.76-.29,3.09.22,3.08.51,0,1.13-1.12,1.33-3.01.2-1.89-.21-3.03-.21-3.03,0,0-.8,1.16-1.35,2.96Z"/>
    <path class="cls-2" d="M179.17,71.2c1.69.37,2.65,1.2,2.4,1.64s-1.47.45-3.11-.26c-1.64-.72-2.36-1.61-2.36-1.61,0,0,1.34-.15,3.07.23Z"/>
    <path class="cls-2" d="M183.49,73.57c-.62,1.73-.45,3.07.06,3.09s1.19-1.06,1.49-2.94c.3-1.88-.05-3.04-.05-3.04,0,0-.86,1.12-1.5,2.88Z"/>
    <path class="cls-2" d="M181.22,74.91c1.67.45,2.59,1.34,2.31,1.77-.28.43-1.49.38-3.09-.43-1.6-.8-2.27-1.73-2.27-1.73,0,0,1.34-.08,3.06.39Z"/>
    <path class="cls-2" d="M185.41,77.5c-.71,1.69-.61,3.04-.1,3.09.51.05,1.24-.99,1.64-2.86.4-1.86.11-3.03.11-3.03,0,0-.92,1.07-1.65,2.8Z"/>
    <path class="cls-2" d="M183.06,78.72c1.64.54,2.51,1.47,2.21,1.89-.3.41-1.51.3-3.07-.59s-2.18-1.85-2.18-1.85c0,0,1.35,0,3.03.55Z"/>
    <path class="cls-2" d="M187.12,81.52c-.8,1.65-.77,3-.27,3.08.51.08,1.29-.93,1.79-2.77.5-1.84.27-3.02.27-3.02,0,0-.97,1.02-1.79,2.71Z"/>
    <path class="cls-2" d="M184.71,82.62c1.61.63,2.43,1.6,2.11,2-.32.4-1.52.22-3.03-.75-1.51-.96-2.08-1.96-2.08-1.96,0,0,1.35.06,3,.71Z"/>
    <path class="cls-2" d="M188.61,85.63c-.89,1.61-.93,2.96-.43,3.06.5.1,1.34-.86,1.93-2.67.59-1.81.43-3.01.43-3.01,0,0-1.02.97-1.93,2.61Z"/>
    <path class="cls-2" d="M186.15,86.6c1.58.71,2.35,1.73,2,2.11-.34.38-1.53.14-2.99-.9-1.46-1.04-1.97-2.06-1.97-2.06,0,0,1.34.13,2.96.86Z"/>
    <path class="cls-2" d="M189.89,89.81c-.97,1.56-1.08,2.91-.59,3.03s1.38-.79,2.07-2.56c.69-1.78.58-2.98.58-2.98,0,0-1.07.91-2.06,2.51Z"/>
    <path class="cls-2" d="M187.38,90.65c1.54.79,2.25,1.85,1.89,2.21-.36.36-1.54.06-2.94-1.06s-1.86-2.17-1.86-2.17c0,0,1.33.2,2.91,1.02Z"/>
    <path class="cls-2" d="M190.95,94.05c-1.05,1.51-1.23,2.84-.74,3,.49.16,1.42-.71,2.2-2.45.78-1.74.74-2.95.74-2.95,0,0-1.12.85-2.19,2.4Z"/>
    <path class="cls-2" d="M188.4,94.75c1.5.87,2.15,1.96,1.77,2.3s-1.54-.02-2.88-1.21c-1.34-1.19-1.74-2.26-1.74-2.26,0,0,1.32.27,2.85,1.17Z"/>
    <path class="cls-2" d="M191.78,98.34c-1.13,1.45-1.38,2.78-.9,2.96.48.18,1.46-.64,2.32-2.33.87-1.7.89-2.9.89-2.9,0,0-1.16.8-2.32,2.28Z"/>
    <path class="cls-2" d="M189.2,98.91c1.45.95,2.05,2.07,1.65,2.39-.4.32-1.53-.1-2.81-1.36-1.28-1.26-1.62-2.35-1.62-2.35,0,0,1.3.34,2.79,1.31Z"/>
    <path class="cls-2" d="M192.39,102.67c-1.2,1.39-1.52,2.7-1.05,2.91.47.21,1.49-.56,2.44-2.21.96-1.65,1.04-2.85,1.04-2.85,0,0-1.2.73-2.43,2.15Z"/>
    <path class="cls-2" d="M189.79,103.1c1.4,1.02,1.93,2.18,1.52,2.48s-1.53-.18-2.73-1.51c-1.21-1.32-1.5-2.43-1.5-2.43,0,0,1.28.41,2.71,1.46Z"/>
    <path class="cls-2" d="M192.77,107.03c-1.27,1.32-1.66,2.62-1.2,2.85.46.23,1.51-.48,2.56-2.08s1.19-2.79,1.19-2.79c0,0-1.24.67-2.54,2.02Z"/>
    <path class="cls-2" d="M190.15,107.32c1.34,1.09,1.82,2.28,1.39,2.55-.43.28-1.52-.26-2.65-1.65-1.14-1.38-1.37-2.5-1.37-2.5,0,0,1.26.48,2.63,1.6Z"/>
  </g>
  <path class="cls-2" d="M118.72,226.74l-1.9-1.9c.8-1.3,1.2-2.8,1.2-4.5,0-4.8-3.8-8.6-8.6-8.6s-8.6,3.9-8.6,8.6,3.8,8.6,8.6,8.6c1.9,0,3.6-.6,5-1.7l1.8,1.7,2.5-2.2ZM109.52,225.54c-2.9,0-5.3-2.3-5.3-5.3s2.3-5.3,5.3-5.3,5.3,2.3,5.3,5.3c0,.7-.1,1.3-.4,2l-.1-.1h-4.9l2.7,2.7c-.9.4-1.6.7-2.6.7Z"/>
  <g>
    <path class="cls-2" d="M43.2,199.84l-1.66-1.28,3.32-10.08,1.67,1.29-.77,2.09,2.86,2.21,1.82-1.28,1.63,1.26-8.88,5.79ZM47.3,195.01l-2.09-1.62-1.05,2.83c-.19.52-.62,1.47-.62,1.47l.02.02s.81-.64,1.27-.96l2.47-1.74Z"/>
    <path class="cls-2" d="M35.12,193.19l-2.78-2.74c-1.91-1.88-1.62-4.62.46-6.73,1.14-1.16,2.53-1.79,3.9-1.68.96.08,1.9.51,2.79,1.4l2.66,2.62-7.03,7.13ZM38.35,184.78c-1.36-1.34-2.7-1.03-4.1.39-1.4,1.42-1.75,3.01-.52,4.22l1.16,1.14,4.58-4.65-1.12-1.1Z"/>
    <path class="cls-2" d="M26.64,184.52l-1.34-1.65,3.4-5.01c.39-.57.97-1.34.97-1.34l-.02-.02s-.89.41-1.51.67l-5.61,2.28-1.29-1.6,9.9-3.67,1.16,1.44-5.66,8.91Z"/>
    <path class="cls-2" d="M17.62,172.56l-1.14-1.76,6.5-8.39,1.15,1.78-1.42,1.72,1.96,3.04,2.14-.6,1.12,1.73-10.3,2.5ZM23.1,169.38l-1.44-2.22-1.94,2.32c-.36.43-1.07,1.18-1.07,1.18v.02s1-.33,1.54-.48l2.91-.81Z"/>
    <path class="cls-2" d="M12.22,163.58l-.9-1.85,3.58-5.44c.35-.53.96-1.24.96-1.24v-.02s-.92.5-1.55.81l-4.73,2.29-.87-1.8,9.01-4.36.85,1.77-3.49,5.49c-.34.52-.94,1.25-.94,1.25v.03s.93-.51,1.56-.81l4.65-2.25.87,1.8-9.01,4.36Z"/>
    <path class="cls-2" d="M11.51,149.97c-2.81.95-5.55-.07-6.5-2.87-.79-2.33.14-4.18,1.87-4.99l.65,1.91c-.9.5-1.28,1.42-.9,2.54.59,1.75,2.33,2.09,4.22,1.46,1.94-.65,2.99-2.13,2.45-3.73-.38-1.13-1.33-1.69-2.36-1.48l-.64-1.89c.85-.23,1.79-.14,2.6.29.83.44,1.54,1.23,1.98,2.54.9,2.67-.51,5.26-3.37,6.22Z"/>
    <path class="cls-2" d="M2.6,138.21l-1.5-7.21,1.67-.35,1.09,5.22,2.19-.46-.96-4.58,1.63-.34.96,4.58,2.64-.55-1.1-5.26,1.66-.35,1.51,7.25-9.8,2.05Z"/>
    <path class="cls-2" d="M.31,125.73l-.34-3.89c-.23-2.66,1.76-4.57,4.71-4.83,1.62-.14,3.09.28,4.06,1.25.68.69,1.11,1.62,1.22,2.87l.33,3.73-9.98.87ZM8.23,121.43c-.17-1.9-1.39-2.54-3.37-2.36-1.98.17-3.29,1.16-3.14,2.88l.14,1.62,6.5-.57-.14-1.56Z"/>
    <path class="cls-2" d="M-.33,106.72l.12-2.03,10,.58-.12,2.03-10-.58Z"/>
    <path class="cls-2" d="M.2,99.36l.31-2.04,6.03-2.45c.59-.24,1.49-.48,1.49-.48v-.03s-1.03-.1-1.72-.21l-5.19-.8.3-1.98,9.9,1.52-.3,1.94-5.99,2.54c-.57.24-1.48.5-1.48.5v.03s1.04.1,1.74.21l5.11.78-.3,1.98-9.9-1.52Z"/>
    <path class="cls-2" d="M2.48,86.51l2.16-7.75,1.65.46-.81,2.9,8,2.23-.54,1.96-8-2.22-.81,2.9-1.65-.46Z"/>
    <path class="cls-2" d="M6.26,74.04l2.77-6.82,1.58.64-2.01,4.94,2.08.84,1.76-4.33,1.54.63-1.76,4.33,2.5,1.02,2.03-4.98,1.57.64-2.79,6.86-9.27-3.77Z"/>
    <path class="cls-2" d="M11.32,62.46l2.22-4.02c.93-1.69,2.53-2.28,3.99-1.47,1.03.57,1.55,1.48,1.24,2.77l.04.02c.68-.68,1.38-.84,2.5-.36,1.31.56,2.22,1.13,2.53.9l.09.05-.94,1.7c-.22.17-1.21-.35-2.2-.8-1-.45-1.83-.21-2.44.89l-.79,1.43,3.52,1.94-.98,1.78-8.76-4.83ZM16.17,62.81l1.04-1.89c.53-.97.29-1.72-.4-2.11-.71-.39-1.49-.23-2.01.71l-1.07,1.94,2.44,1.35Z"/>
    <path class="cls-2" d="M17.94,51.13l1.21-1.67,6.48.57c.63.06,1.54.25,1.54.25l.02-.02s-.87-.56-1.44-.97l-4.25-3.07,1.17-1.62,8.11,5.86-1.15,1.59-6.48-.47c-.62-.05-1.54-.23-1.54-.23l-.02.02s.88.57,1.45.98l4.19,3.02-1.17,1.62-8.11-5.86Z"/>
    <path class="cls-2" d="M28.06,38.26l1.43-1.54,9.75,4.22-1.44,1.55-2.02-.95-2.46,2.65,1.11,1.93-1.4,1.51-4.98-9.36ZM32.51,42.78l1.8-1.94-2.73-1.3c-.5-.24-1.41-.75-1.41-.75l-.02.02s.57.87.84,1.36l1.51,2.62Z"/>
    <path class="cls-2" d="M34,32.12l6.05-5.31,1.12,1.28-2.26,1.98,5.47,6.24-1.53,1.34-5.47-6.24-2.26,1.98-1.13-1.28Z"/>
    <path class="cls-2" d="M43.89,23.91l1.64-1.2,5.9,8.08-1.64,1.2-5.9-8.08Z"/>
    <path class="cls-2" d="M52.11,24.16c-1.52-2.58-1.04-5.45,1.51-6.95,2.55-1.5,5.28-.53,6.8,2.05,1.52,2.58,1.04,5.43-1.5,6.93-2.55,1.5-5.29.55-6.81-2.03ZM58.64,20.32c-1.02-1.73-2.58-2.61-4.16-1.68-1.58.93-1.6,2.75-.58,4.47,1.01,1.71,2.61,2.58,4.19,1.64,1.58-.93,1.56-2.73.55-4.44Z"/>
    <path class="cls-2" d="M62.5,12.65l1.89-.81,5.26,3.82c.51.38,1.19,1.01,1.19,1.01h.03s-.46-.94-.73-1.58l-2.07-4.82,1.84-.79,3.94,9.2-1.8.77-5.32-3.74c-.5-.36-1.2-.99-1.2-.99h-.03s.46.95.74,1.6l2.03,4.75-1.84.79-3.94-9.2Z"/>
    <path class="cls-2" d="M77.79,6.85l2.02-.58,6.17,8.63-2.03.59-1.24-1.86-3.47,1-.04,2.23-1.98.57.56-10.59ZM79.27,13.01l2.54-.74-1.66-2.52c-.31-.46-.82-1.37-.82-1.37h-.03s.04,1.05.03,1.6l-.06,3.02Z"/>
    <path class="cls-2" d="M87.91,4.3l2-.34,1.38,8.2,4.64-.78.28,1.67-6.64,1.12-1.66-9.87Z"/>
    <path class="cls-2" d="M104.94,7.24c0-3,1.89-5.22,4.84-5.21s4.81,2.24,4.8,5.23-1.87,5.2-4.83,5.2c-2.95,0-4.82-2.22-4.82-5.22ZM112.51,7.26c0-2-.89-3.56-2.72-3.56-1.83,0-2.78,1.55-2.78,3.55,0,1.99.93,3.54,2.76,3.55s2.73-1.55,2.74-3.54Z"/>
    <path class="cls-2" d="M119.75,2.64l4.55.58c1.92.25,3.05,1.52,2.84,3.17-.15,1.17-.8,1.99-2.13,2.17v.04c.88.38,1.28.97,1.25,2.19-.04,1.42-.23,2.48.1,2.68v.1s-1.94-.25-1.94-.25c-.24-.14-.12-1.26-.07-2.34.05-1.09-.48-1.78-1.73-1.94l-1.62-.21-.51,3.98-2.01-.26,1.27-9.93ZM121.2,7.28l2.14.27c1.1.14,1.71-.36,1.81-1.15.1-.81-.33-1.47-1.4-1.6l-2.19-.28-.35,2.76Z"/>
    <path class="cls-2" d="M137.62,14.81h-.03c-.95.93-1.96,1.09-3.11.8-1.46-.38-2.47-1.2-3.04-2.29-.57-1.1-.71-2.47-.33-3.93.42-1.61,1.35-2.88,2.61-3.55.97-.52,2.1-.64,3.4-.31,2.44.63,3.49,2.33,3.31,4.31l-1.93-.5c.02-.99-.52-1.85-1.77-2.18-1.83-.47-3.13.81-3.62,2.74-.51,1.98.16,3.7,1.83,4.13,1.5.39,2.78-.48,3.06-1.55v-.05s-2.32-.6-2.32-.6l.39-1.52,4.08,1.05-1.33,5.15-1.48-.38.27-1.32Z"/>
    <path class="cls-2" d="M149.07,9.58l1.95.78-.43,10.6-1.96-.78.17-2.22-3.35-1.34-1.4,1.73-1.91-.76,6.94-8ZM146.45,15.35l2.46.98.23-3.01c.04-.56.19-1.58.19-1.58h-.03s-.61.83-.96,1.27l-1.9,2.35Z"/>
    <path class="cls-2" d="M158.68,13.76l1.8.99.24,6.5c.02.63-.06,1.56-.06,1.56h.03s.45-.92.79-1.54l2.52-4.6,1.75.96-4.81,8.77-1.72-.94-.34-6.49c-.03-.62.04-1.56.04-1.56h-.03s-.46.93-.79,1.55l-2.48,4.53-1.76-.96,4.81-8.77Z"/>
    <path class="cls-2" d="M170.25,20.56l1.68,1.14-5.62,8.28-1.68-1.14,5.62-8.28Z"/>
    <path class="cls-2" d="M170.58,31.1l8.5-1.76.03-.03-3.95-3.24,1.07-1.31,5.81,4.76-1.07,1.31-8.23,1.72-.03.03,4.16,3.4-1.09,1.33-6.16-5.04.97-1.18Z"/>
    <path class="cls-2" d="M185.74,33l1.45,1.42-7.02,7.14-1.45-1.42,7.02-7.14Z"/>
    <path class="cls-2" d="M190.93,38.26l1.33,1.57-2.13,6.15c-.21.6-.62,1.44-.62,1.44l.02.02s.76-.71,1.29-1.16l4.01-3.38,1.29,1.53-7.66,6.45-1.26-1.5,2.03-6.18c.2-.59.6-1.44.6-1.44l-.02-.02s-.77.72-1.3,1.17l-3.95,3.33-1.29-1.53,7.66-6.45Z"/>
    <path class="cls-2" d="M196.12,59.69v-.02c-1.35.05-2.2-.52-2.85-1.52-.82-1.27-1-2.55-.68-3.74.33-1.2,1.15-2.29,2.42-3.11,1.4-.9,2.94-1.2,4.32-.84,1.06.28,1.98.95,2.71,2.08,1.37,2.12.98,4.08-.49,5.41l-1.08-1.67c.69-.71.88-1.71.18-2.8-1.03-1.59-2.85-1.53-4.52-.45-1.72,1.11-2.39,2.83-1.46,4.27.84,1.31,2.37,1.54,3.3.93l.05-.03-1.31-2.02,1.32-.85,2.29,3.54-4.47,2.89-.83-1.28,1.09-.79Z"/>
    <path class="cls-2" d="M209.47,66.36l1.69,4.05c.45,1.07.47,2,.14,2.78-.31.74-.91,1.35-1.76,1.71-1.74.73-3.4.07-4.21-1.87l-.95-2.27-3.34,1.4-.81-1.94,9.23-3.86ZM205.91,70.12l.81,1.94c.41.98,1.17,1.27,2.01.92.87-.36,1.13-1.11.74-2.04l-.82-1.96-2.74,1.14Z"/>
    <path class="cls-2" d="M214.15,78.39l1.25,4.42c.53,1.86-.2,3.4-1.8,3.86-1.13.32-2.14.04-2.83-1.1h-.04c0,.97-.39,1.58-1.52,2.03-1.32.52-2.37.76-2.43,1.14l-.09.03-.53-1.87c.04-.27,1.11-.6,2.12-.98,1.03-.38,1.45-1.14,1.11-2.35l-.45-1.58-3.87,1.1-.55-1.95,9.63-2.73ZM210.45,81.55l.59,2.07c.3,1.06,1,1.43,1.77,1.21.78-.22,1.22-.88.93-1.92l-.6-2.13-2.68.76Z"/>
    <path class="cls-2" d="M212.41,91.44c2.96-.45,5.44,1.07,5.89,3.99.44,2.92-1.48,5.1-4.44,5.54-2.96.45-5.43-1.06-5.87-3.98-.44-2.92,1.46-5.11,4.42-5.56ZM213.54,98.93c1.98-.3,3.38-1.42,3.11-3.23-.28-1.81-1.95-2.51-3.93-2.21-1.96.3-3.36,1.46-3.08,3.27.28,1.81,1.95,2.47,3.91,2.17Z"/>
    <path class="cls-2" d="M219.17,105.25l.28,7.16-1.72.07-.2-5.13-2.41.09.17,4.35-1.73.07-.17-4.35-4.14.16-.08-2.03,10-.39Z"/>
    <path class="cls-2" d="M219.3,117.57l-.59,7.34-1.7-.14.43-5.32-2.23-.18-.38,4.66-1.66-.14.38-4.66-2.7-.22-.43,5.36-1.69-.14.6-7.38,9.98.81Z"/>
    <path class="cls-2" d="M211.28,128.26l-.39,1.95c-1.21-.1-1.81.48-2.09,1.88-.2,1.02-.02,1.98.88,2.16.96.19,1.34-.7,1.98-2.13.75-1.68,1.54-3.19,3.58-2.79,1.94.39,2.62,2.17,2.19,4.35-.44,2.21-1.81,3.42-3.82,3.18l.38-1.91c1.01.09,1.66-.58,1.86-1.6.21-1.07-.1-1.86-.8-2-.8-.16-1.17.48-1.77,1.88-.84,1.93-1.65,3.49-3.77,3.06-1.99-.4-2.78-2.23-2.34-4.44.53-2.67,2.01-3.94,4.1-3.6Z"/>
    <path class="cls-2" d="M208.66,140.21l-.62,1.89c-1.19-.24-1.85.26-2.3,1.62-.32.99-.26,1.96.62,2.25.93.3,1.42-.54,2.22-1.88.94-1.58,1.9-2.98,3.89-2.34,1.88.61,2.35,2.46,1.66,4.58-.7,2.14-2.2,3.18-4.17,2.7l.61-1.85c.99.21,1.71-.38,2.04-1.37.34-1.04.12-1.86-.55-2.08-.77-.25-1.21.34-1.98,1.65-1.07,1.82-2.05,3.26-4.1,2.59-1.93-.63-2.5-2.54-1.79-4.68.84-2.58,2.47-3.67,4.5-3.08Z"/>
    <path class="cls-2" d="M210.79,154.79l-.81,1.86-9.19-3.97.8-1.86,9.19,3.97Z"/>
    <path class="cls-2" d="M203.55,158.77c2.62,1.46,3.66,4.18,2.22,6.76-1.43,2.58-4.29,3.13-6.91,1.67-2.62-1.46-3.65-4.16-2.21-6.74,1.43-2.58,4.28-3.15,6.9-1.69ZM199.87,165.39c1.75.97,3.55.94,4.44-.66.89-1.6-.01-3.18-1.76-4.15-1.74-.97-3.55-.9-4.45.7-.89,1.6.03,3.14,1.77,4.11Z"/>
    <path class="cls-2" d="M200.45,173.93l-1.22,1.66-6.47-.62c-.63-.06-1.54-.26-1.54-.26l-.02.02s.87.57,1.43.98l4.23,3.11-1.18,1.61-8.07-5.93,1.16-1.58,6.48.52c.62.06,1.54.25,1.54.25l.02-.02s-.88-.58-1.44-.99l-4.16-3.06,1.19-1.61,8.07,5.93Z"/>
    <path class="cls-2" d="M190.21,186.7l-1.44,1.53-9.7-4.29,1.45-1.54,2.01.97,2.48-2.63-1.1-1.94,1.41-1.5,4.89,9.4ZM185.8,182.15l-1.81,1.93,2.71,1.32c.5.24,1.4.76,1.4.76l.02-.02s-.56-.87-.83-1.36l-1.48-2.63Z"/>
    <path class="cls-2" d="M182.82,194.05l-1.55,1.31-5.38-6.35-3.59,3.04-1.09-1.29,5.14-4.35,6.47,7.64Z"/>
  </g>
  <path id="SVGID_1_" class="cls-1" d="M9.25,112.1C9.25,56.6,54.25,11.5,109.85,11.5s100.6,45,100.6,100.6-45,100.6-100.6,100.6c-55.6-.1-100.6-45.1-100.6-100.6Z"/>
  <rect class="cls-1" x="19.45" y="94.25" width="180.8" height="35.7"/>
  <g>
    <path class="cls-2" d="M70.26,92.11l10.12,28.96c.54,1.5,1.04,2.59,1.51,3.26.47.67.93,1.1,1.37,1.27.44.18.99.29,1.66.36v.37h-11.04v-.37c1.13,0,2-.11,2.62-.32.61-.21.92-.79.92-1.74,0-.52-.15-1.22-.44-2.09-.06-.12-.09-.21-.09-.28l-3.01-8.97h-11.7l-2.69,8.31c-.37,1.13-.55,2.04-.55,2.73,0,.95.24,1.58.71,1.89.47.31,1.15.47,2.02.47v.37h-7.94v-.37c1.13-.11,2.04-.54,2.72-1.3.68-.76,1.27-1.91,1.78-3.45l9.55-29.1h2.48ZM62.57,111.34h10.76l-5.51-16.04h-.09l-5.16,16.04Z"/>
    <path class="cls-2" d="M97.96,92.52v.39c-1.01,0-1.87.28-2.57.85-.7.57-1.06,1.51-1.06,2.82v25.66c0,1.3.37,2.25,1.12,2.83.75.59,1.58.88,2.5.88v.37h-10.72v-.37c.98,0,1.82-.29,2.54-.86.71-.57,1.07-1.53,1.07-2.86v-25.66c0-1.41-.36-2.37-1.07-2.89-.71-.52-1.56-.78-2.54-.78v-.39h10.72Z"/>
    <path class="cls-2" d="M137.84,109.46c0,3.17-.79,6.11-2.35,8.84-1.57,2.72-3.71,4.89-6.42,6.51s-5.71,2.42-9,2.42-6.33-.81-9.09-2.42-4.92-3.79-6.51-6.53c-1.58-2.74-2.38-5.72-2.38-8.95,0-2.48.47-4.81,1.41-6.99.94-2.18,2.26-4.08,3.95-5.7,1.69-1.62,3.62-2.88,5.78-3.76,2.16-.89,4.42-1.33,6.78-1.33s4.53.42,6.66,1.27c2.13.85,4.04,2.08,5.73,3.68,1.69,1.61,3.02,3.51,3.98,5.71s1.45,4.62,1.45,7.25ZM133.8,109.55c0-4.5-.79-8.02-2.39-10.56-1.59-2.54-3.43-4.24-5.51-5.11s-4.04-1.3-5.88-1.3c-1.42,0-2.9.23-4.43.7-1.53.47-3.02,1.32-4.46,2.56-1.45,1.24-2.64,2.98-3.57,5.23s-1.4,5.03-1.4,8.33c0,2.91.39,5.44,1.16,7.61.77,2.17,1.84,3.93,3.19,5.3,1.35,1.37,2.85,2.36,4.48,2.96,1.63.6,3.32.91,5.08.91,1.58,0,3.17-.28,4.79-.84s3.09-1.47,4.43-2.73c1.34-1.26,2.42-2.98,3.26-5.14.83-2.17,1.25-4.81,1.25-7.93Z"/>
    <path class="cls-2" d="M142.14,92.91v-.39h11.08c1.85,0,3.48.25,4.9.76s2.59,1.19,3.53,2.07c.94.87,1.64,1.86,2.11,2.95.47,1.09.7,2.25.7,3.45s-.22,2.31-.65,3.41c-.44,1.09-1.12,2.07-2.05,2.92-.93.85-2.16,1.53-3.67,2.03s-3.26.76-5.23.76c-.63,0-1.84-.09-3.63-.28v11.66c0,2.4,1.22,3.64,3.67,3.72v.37h-10.76v-.37c1.06-.03,1.92-.33,2.6-.91.68-.57,1.02-1.51,1.02-2.81v-25.57c0-.78-.12-1.43-.37-1.95s-.53-.89-.86-1.11-.7-.39-1.1-.49-.69-.18-.84-.21h-.46ZM149.23,93.71v15.93c1.18.21,2.34.32,3.49.32,2.19,0,4.04-.56,5.57-1.69,1.52-1.12,2.28-3.21,2.28-6.25,0-2.51-.67-4.57-2.01-6.18-1.34-1.61-3.37-2.42-6.09-2.42-1.06,0-2.13.1-3.24.3Z"/>
  </g>
</svg>