<?xml version="1.0" encoding="UTF-8"?>
<svg id="IEWP" xmlns="http://www.w3.org/2000/svg" viewBox="0 0 225.5 229">
  <defs>
    <style>
      .cls-1 {
        fill: none;
      }

      .cls-1, .cls-2 {
        stroke-width: 0px;
      }

      .cls-2 {
        fill: #faf0b6;
      }
    </style>
  </defs>
  <g>
    <path class="cls-2" d="M135.72,31.07v.31c3.38.95,6.7,2.12,9.96,3.51,9.74,4.16,18.48,10.1,25.98,17.65,7.5,7.55,13.37,16.33,17.46,26.11,4.23,10.12,6.36,20.85,6.32,31.91-.04,11.03-2.24,21.73-6.53,31.8-4.14,9.72-10.06,18.45-17.58,25.94-7.52,7.49-16.27,13.37-26.01,17.48-10.08,4.25-20.78,6.41-31.8,6.41h-.31c-11.06-.04-21.78-2.25-31.87-6.56-9.74-4.16-18.48-10.1-25.98-17.65-7.5-7.55-13.37-16.33-17.46-26.11-4.23-10.12-6.36-20.85-6.32-31.91.04-11.03,2.24-21.73,6.53-31.8,4.14-9.72,10.06-18.45,17.58-25.94,7.52-7.49,16.27-13.37,26.01-17.48,3.14-1.33,6.35-2.45,9.6-3.36v-.3c-34.51,9.66-59.88,41.28-60.02,78.89-.17,45.41,36.51,82.36,81.92,82.53.11,0,.2,0,.31,0,45.27,0,82.05-36.62,82.22-81.92.14-37.82-25.28-69.77-60.02-79.49Z"/>
    <path class="cls-2" d="M30.03,109.53c1.34,1.25,1.8,2.53,1.35,2.78s-1.54-.4-2.66-1.94c-1.12-1.54-1.33-2.73-1.33-2.73,0,0,1.27.6,2.64,1.89Z"/>
    <path class="cls-2" d="M32.66,109.69c-1.28,1.16-1.7,2.37-1.25,2.62.44.25,1.5-.34,2.56-1.78,1.06-1.44,1.24-2.57,1.24-2.57,0,0-1.23.54-2.55,1.73Z"/>
    <path class="cls-2" d="M30.11,113.9c1.4,1.18,1.93,2.43,1.5,2.71s-1.56-.32-2.76-1.8c-1.2-1.48-1.48-2.65-1.48-2.65,0,0,1.3.54,2.74,1.75Z"/>
    <path class="cls-2" d="M32.75,113.92c-1.22,1.23-1.57,2.45-1.11,2.68.46.23,1.48-.42,2.47-1.92s1.1-2.63,1.1-2.63c0,0-1.2.61-2.45,1.87Z"/>
    <path class="cls-2" d="M30.41,118.26c1.46,1.11,2.05,2.32,1.63,2.62s-1.57-.24-2.85-1.65c-1.28-1.41-1.61-2.57-1.61-2.57,0,0,1.33.47,2.83,1.6Z"/>
    <path class="cls-2" d="M33.05,118.14c-1.15,1.29-1.44,2.53-.97,2.74.47.21,1.46-.5,2.36-2.04.91-1.54.96-2.69.96-2.69,0,0-1.17.67-2.35,1.99Z"/>
    <path class="cls-2" d="M30.94,122.6c1.52,1.03,2.17,2.21,1.77,2.53-.4.32-1.58-.16-2.93-1.5-1.35-1.34-1.74-2.49-1.74-2.49,0,0,1.35.4,2.91,1.45Z"/>
    <path class="cls-2" d="M33.57,122.34c-1.08,1.35-1.31,2.6-.83,2.79.48.18,1.43-.57,2.25-2.16.82-1.59.82-2.73.82-2.73,0,0-1.13.73-2.24,2.11Z"/>
    <path class="cls-2" d="M31.7,126.9c1.57.95,2.28,2.1,1.9,2.44-.38.34-1.59-.07-3.01-1.35-1.42-1.27-1.87-2.39-1.87-2.39,0,0,1.37.33,2.98,1.3Z"/>
    <path class="cls-2" d="M34.31,126.51c-1.01,1.4-1.17,2.67-.68,2.83.49.16,1.4-.65,2.14-2.28.74-1.63.67-2.77.67-2.77,0,0-1.09.79-2.13,2.23Z"/>
    <path class="cls-2" d="M32.68,131.16c1.62.87,2.39,1.97,2.02,2.34-.36.36-1.59,0-3.07-1.19-1.48-1.2-1.99-2.29-1.99-2.29,0,0,1.38.25,3.04,1.14Z"/>
    <path class="cls-2" d="M35.27,130.63c-.94,1.46-1.03,2.73-.53,2.86.5.13,1.36-.72,2.01-2.39.65-1.67.53-2.81.53-2.81,0,0-1.05.84-2.01,2.33Z"/>
    <path class="cls-2" d="M33.89,135.36c1.66.78,2.49,1.85,2.14,2.23-.35.38-1.59.09-3.13-1.02-1.54-1.12-2.11-2.18-2.11-2.18,0,0,1.4.18,3.1.98Z"/>
    <path class="cls-2" d="M36.44,134.7c-.86,1.5-.88,2.78-.38,2.88.5.11,1.32-.79,1.89-2.49.57-1.7.38-2.83.38-2.83,0,0-1.01.9-1.89,2.44Z"/>
    <path class="cls-2" d="M35.31,139.49c1.7.69,2.58,1.71,2.26,2.11-.32.4-1.58.18-3.18-.86-1.6-1.03-2.22-2.07-2.22-2.07,0,0,1.4.11,3.15.82Z"/>
    <path class="cls-2" d="M37.83,138.7c-.78,1.55-.74,2.82-.23,2.9s1.28-.86,1.75-2.58c.48-1.73.23-2.85.23-2.85,0,0-.96.95-1.76,2.53Z"/>
    <path class="cls-2" d="M36.95,143.55c1.73.6,2.67,1.58,2.37,1.99-.3.41-1.57.26-3.22-.69-1.65-.95-2.33-1.95-2.33-1.95,0,0,1.41.03,3.18.65Z"/>
    <path class="cls-2" d="M39.42,142.62c-.7,1.58-.59,2.85-.08,2.9.51.05,1.23-.92,1.61-2.67.38-1.75.08-2.85.08-2.85,0,0-.91,1-1.62,2.62Z"/>
    <path class="cls-2" d="M38.8,147.51c1.76.51,2.75,1.43,2.47,1.86-.28.43-1.55.34-3.25-.52-1.7-.86-2.43-1.82-2.43-1.82,0,0,1.41-.04,3.21.48Z"/>
    <path class="cls-2" d="M41.22,146.45c-.61,1.62-.44,2.88.07,2.9s1.18-.99,1.47-2.75c.29-1.77-.07-2.85-.07-2.85,0,0-.85,1.04-1.48,2.7Z"/>
    <path class="cls-2" d="M40.85,151.37c1.79.42,2.82,1.29,2.56,1.73-.26.44-1.53.42-3.28-.35-1.74-.77-2.52-1.7-2.52-1.7,0,0,1.4-.11,3.23.31Z"/>
    <path class="cls-2" d="M43.21,150.19c-.53,1.65-.29,2.9.23,2.9.51,0,1.13-1.05,1.33-2.83.2-1.78-.22-2.85-.22-2.85,0,0-.8,1.09-1.34,2.78Z"/>
    <path class="cls-2" d="M43.1,155.12c1.81.32,2.88,1.14,2.65,1.6s-1.51.5-3.29-.18c-1.78-.68-2.6-1.56-2.6-1.56,0,0,1.4-.19,3.25.14Z"/>
    <path class="cls-2" d="M45.4,153.81c-.44,1.67-.13,2.91.38,2.88.51-.03,1.07-1.1,1.18-2.89.11-1.79-.36-2.83-.36-2.83,0,0-.74,1.13-1.19,2.84Z"/>
    <path class="cls-2" d="M45.54,158.74c1.82.23,2.94.99,2.73,1.45-.21.47-1.48.58-3.29,0s-2.68-1.42-2.68-1.42c0,0,1.38-.26,3.25-.03Z"/>
    <path class="cls-2" d="M47.77,157.32c-.35,1.69.02,2.91.53,2.86.51-.06,1.01-1.16,1.02-2.95.01-1.79-.51-2.81-.51-2.81,0,0-.68,1.16-1.04,2.9Z"/>
    <path class="cls-2" d="M48.17,162.23c1.83.13,2.99.83,2.8,1.31-.19.48-1.45.65-3.29.17-1.84-.49-2.75-1.28-2.75-1.28,0,0,1.37-.33,3.24-.2Z"/>
    <path class="cls-2" d="M50.32,160.69c-.26,1.71.17,2.91.68,2.83.51-.08.95-1.21.87-3-.08-1.79-.66-2.78-.66-2.78,0,0-.62,1.2-.89,2.95Z"/>
    <path class="cls-2" d="M50.98,165.58c1.84.04,3.03.67,2.86,1.16s-1.41.73-3.28.34c-1.87-.39-2.82-1.13-2.82-1.13,0,0,1.35-.4,3.23-.37Z"/>
    <path class="cls-2" d="M53.05,163.93c-.17,1.72.32,2.89.82,2.79s.88-1.26.71-3.04c-.17-1.78-.8-2.74-.8-2.74,0,0-.55,1.23-.73,2.99Z"/>
    <path class="cls-2" d="M53.96,168.78c1.83-.06,3.06.52,2.92,1.01-.14.49-1.37.8-3.25.51s-2.87-.99-2.87-.99c0,0,1.33-.47,3.21-.53Z"/>
    <path class="cls-2" d="M55.94,167.02c-.08,1.73.47,2.87.97,2.74.49-.13.82-1.3.55-3.07-.27-1.77-.94-2.69-.94-2.69,0,0-.49,1.26-.57,3.03Z"/>
    <path class="cls-2" d="M57.11,171.81c1.83-.16,3.08.35,2.97.86-.11.5-1.33.87-3.22.68-1.9-.19-2.92-.83-2.92-.83,0,0,1.3-.54,3.17-.7Z"/>
    <path class="cls-2" d="M58.99,169.96c0,1.73.62,2.84,1.11,2.68.49-.16.75-1.34.39-3.1-.36-1.75-1.08-2.64-1.08-2.64,0,0-.42,1.28-.41,3.05Z"/>
    <path class="cls-2" d="M60.41,174.68c1.82-.25,3.09.19,3.01.7-.08.51-1.28.94-3.18.85-1.9-.09-2.96-.68-2.96-.68,0,0,1.27-.61,3.13-.87Z"/>
    <path class="cls-2" d="M62.19,172.73c.1,1.73.77,2.81,1.25,2.62.48-.19.68-1.38.23-3.11-.45-1.73-1.22-2.58-1.22-2.58,0,0-.35,1.3-.25,3.07Z"/>
    <path class="cls-2" d="M63.85,177.37c1.8-.35,3.1.03,3.04.54-.06.51-1.23,1.01-3.13,1.01-1.91,0-2.99-.52-2.99-.52,0,0,1.24-.67,3.08-1.03Z"/>
    <path class="cls-2" d="M65.53,175.33c.19,1.72.92,2.76,1.39,2.55.47-.21.6-1.41.06-3.12-.54-1.71-1.35-2.51-1.35-2.51,0,0-.29,1.32-.09,3.08Z"/>
    <path class="cls-2" d="M67.43,179.88c1.78-.44,3.1-.13,3.07.38-.03.51-1.17,1.07-3.08,1.17-1.9.1-3.01-.37-3.01-.37,0,0,1.2-.74,3.02-1.19Z"/>
    <path class="cls-2" d="M69,177.75c.28,1.71,1.06,2.71,1.52,2.48.46-.23.53-1.44-.1-3.12-.63-1.68-1.48-2.44-1.48-2.44,0,0-.22,1.33.07,3.08Z"/>
    <path class="cls-2" d="M71.14,182.19c1.76-.53,3.09-.29,3.08.22s-1.12,1.13-3.01,1.33c-1.89.2-3.03-.21-3.03-.21,0,0,1.16-.8,2.96-1.35Z"/>
    <path class="cls-2" d="M72.59,179.99c.37,1.69,1.2,2.65,1.64,2.4.44-.26.45-1.47-.26-3.11-.72-1.64-1.61-2.36-1.61-2.36,0,0-.15,1.34.23,3.07Z"/>
    <path class="cls-2" d="M74.96,184.31c1.73-.62,3.07-.45,3.09.06s-1.06,1.19-2.94,1.49c-1.88.3-3.04-.05-3.04-.05,0,0,1.12-.86,2.88-1.5Z"/>
    <path class="cls-2" d="M76.3,182.04c.45,1.67,1.34,2.59,1.77,2.31.43-.28.38-1.49-.43-3.09-.8-1.6-1.73-2.27-1.73-2.27,0,0-.08,1.34.39,3.06Z"/>
    <path class="cls-2" d="M78.89,186.23c1.69-.71,3.04-.61,3.09-.1.05.51-.99,1.24-2.86,1.64-1.86.4-3.03.11-3.03.11,0,0,1.07-.92,2.8-1.65Z"/>
    <path class="cls-2" d="M80.11,183.89c.54,1.64,1.47,2.51,1.89,2.21s.3-1.51-.59-3.07c-.88-1.56-1.85-2.18-1.85-2.18,0,0,0,1.35.55,3.03Z"/>
    <path class="cls-2" d="M82.91,187.94c1.65-.8,3-.77,3.08-.27.08.51-.93,1.29-2.77,1.79-1.84.5-3.02.27-3.02.27,0,0,1.02-.97,2.71-1.79Z"/>
    <path class="cls-2" d="M84.01,185.53c.63,1.61,1.6,2.43,2,2.11.4-.32.22-1.52-.75-3.03-.96-1.51-1.96-2.08-1.96-2.08,0,0,.06,1.35.71,3Z"/>
    <path class="cls-2" d="M87.02,189.43c1.61-.89,2.96-.93,3.06-.43.1.5-.86,1.34-2.67,1.93-1.81.59-3.01.43-3.01.43,0,0,.97-1.02,2.61-1.93Z"/>
    <path class="cls-2" d="M87.99,186.97c.71,1.58,1.73,2.35,2.11,2s.14-1.53-.9-2.99c-1.04-1.46-2.06-1.97-2.06-1.97,0,0,.13,1.34.86,2.96Z"/>
    <path class="cls-2" d="M91.2,190.71c1.56-.97,2.91-1.08,3.03-.59.13.5-.79,1.38-2.56,2.07-1.78.69-2.98.58-2.98.58,0,0,.91-1.07,2.51-2.06Z"/>
    <path class="cls-2" d="M92.04,188.21c.79,1.54,1.85,2.25,2.21,1.89.36-.36.06-1.54-1.06-2.94-1.12-1.4-2.17-1.86-2.17-1.86,0,0,.2,1.33,1.02,2.91Z"/>
    <path class="cls-2" d="M95.44,191.77c1.51-1.05,2.84-1.23,3-.74.16.49-.71,1.42-2.45,2.2-1.74.78-2.95.74-2.95.74,0,0,.85-1.12,2.4-2.19Z"/>
    <path class="cls-2" d="M96.14,189.22c.87,1.5,1.96,2.15,2.3,1.77s-.02-1.54-1.21-2.88c-1.19-1.34-2.26-1.74-2.26-1.74,0,0,.27,1.32,1.17,2.85Z"/>
    <path class="cls-2" d="M99.73,192.6c1.45-1.13,2.78-1.38,2.96-.9.18.48-.64,1.46-2.33,2.32-1.7.87-2.9.89-2.9.89,0,0,.8-1.16,2.28-2.32Z"/>
    <path class="cls-2" d="M100.3,190.02c.95,1.45,2.07,2.05,2.39,1.65.32-.4-.1-1.53-1.36-2.81-1.26-1.28-2.35-1.62-2.35-1.62,0,0,.34,1.3,1.31,2.79Z"/>
    <path class="cls-2" d="M104.06,193.21c1.39-1.2,2.7-1.52,2.91-1.05.21.47-.56,1.49-2.21,2.44-1.65.96-2.85,1.04-2.85,1.04,0,0,.73-1.2,2.15-2.43Z"/>
    <path class="cls-2" d="M104.49,190.61c1.02,1.4,2.18,1.93,2.48,1.52.3-.42-.18-1.53-1.51-2.73s-2.43-1.5-2.43-1.5c0,0,.41,1.28,1.46,2.71Z"/>
    <path class="cls-2" d="M108.42,193.59c1.32-1.27,2.62-1.66,2.85-1.2.23.46-.48,1.51-2.08,2.56s-2.79,1.19-2.79,1.19c0,0,.67-1.24,2.02-2.54Z"/>
    <path class="cls-2" d="M108.71,190.97c1.09,1.34,2.28,1.82,2.55,1.39.28-.43-.26-1.52-1.65-2.65-1.38-1.14-2.5-1.37-2.5-1.37,0,0,.48,1.26,1.6,2.63Z"/>
    <path class="cls-2" d="M92.61,29.43c-.87,1.62-1.97,2.39-2.34,2.02-.36-.36,0-1.59,1.19-3.07,1.2-1.48,2.29-1.99,2.29-1.99,0,0-.25,1.38-1.14,3.04Z"/>
    <path class="cls-2" d="M93.14,32.02c-1.46-.94-2.73-1.03-2.86-.53-.13.5.72,1.36,2.39,2.01,1.67.65,2.81.53,2.81.53,0,0-.84-1.05-2.33-2.01Z"/>
    <path class="cls-2" d="M88.41,30.63c-.78,1.66-1.85,2.49-2.23,2.14-.38-.35-.09-1.59,1.02-3.13,1.12-1.54,2.18-2.11,2.18-2.11,0,0-.18,1.4-.98,3.1Z"/>
    <path class="cls-2" d="M89.08,33.19c-1.5-.86-2.78-.88-2.88-.38-.11.5.79,1.32,2.49,1.89,1.7.57,2.83.38,2.83.38,0,0-.9-1.01-2.44-1.89Z"/>
    <path class="cls-2" d="M84.28,32.06c-.69,1.7-1.71,2.58-2.11,2.26-.4-.32-.18-1.58.86-3.18,1.03-1.6,2.07-2.22,2.07-2.22,0,0-.11,1.4-.82,3.15Z"/>
    <path class="cls-2" d="M85.08,34.57c-1.55-.78-2.82-.74-2.9-.23-.08.51.86,1.28,2.58,1.75,1.73.48,2.85.23,2.85.23,0,0-.95-.96-2.53-1.76Z"/>
    <path class="cls-2" d="M80.23,33.69c-.6,1.73-1.58,2.67-1.99,2.37-.41-.3-.26-1.57.69-3.22.95-1.65,1.95-2.33,1.95-2.33,0,0-.03,1.41-.65,3.18Z"/>
    <path class="cls-2" d="M81.15,36.17c-1.58-.7-2.85-.59-2.9-.08-.05.51.92,1.23,2.67,1.61,1.75.38,2.85.08,2.85.08,0,0-1-.91-2.62-1.62Z"/>
    <path class="cls-2" d="M76.26,35.54c-.51,1.76-1.43,2.75-1.86,2.47-.43-.28-.34-1.55.52-3.25.86-1.7,1.82-2.43,1.82-2.43,0,0,.04,1.41-.48,3.21Z"/>
    <path class="cls-2" d="M77.32,37.96c-1.62-.61-2.88-.44-2.9.07-.03.51.99,1.18,2.75,1.47,1.77.29,2.85-.07,2.85-.07,0,0-1.04-.85-2.7-1.48Z"/>
    <path class="cls-2" d="M72.41,37.59c-.42,1.79-1.29,2.82-1.73,2.56-.44-.26-.42-1.53.35-3.28.77-1.74,1.7-2.52,1.7-2.52,0,0,.11,1.4-.31,3.23Z"/>
    <path class="cls-2" d="M73.59,39.95c-1.65-.53-2.9-.29-2.9.23,0,.51,1.05,1.13,2.83,1.33,1.78.2,2.85-.22,2.85-.22,0,0-1.09-.8-2.78-1.34Z"/>
    <path class="cls-2" d="M68.66,39.84c-.32,1.81-1.14,2.88-1.6,2.65s-.5-1.51.18-3.29c.68-1.78,1.56-2.6,1.56-2.6,0,0,.19,1.4-.14,3.25Z"/>
    <path class="cls-2" d="M69.96,42.14c-1.67-.44-2.91-.13-2.88.38.03.51,1.1,1.07,2.89,1.18,1.79.11,2.83-.36,2.83-.36,0,0-1.13-.74-2.84-1.19Z"/>
    <path class="cls-2" d="M65.03,42.29c-.23,1.82-.99,2.94-1.45,2.73-.47-.21-.58-1.48,0-3.29.58-1.81,1.42-2.68,1.42-2.68,0,0,.26,1.38.03,3.25Z"/>
    <path class="cls-2" d="M66.46,44.51c-1.69-.35-2.91.02-2.86.53s1.16,1.01,2.95,1.02,2.81-.51,2.81-.51c0,0-1.16-.68-2.9-1.04Z"/>
    <path class="cls-2" d="M61.54,44.92c-.13,1.83-.83,2.99-1.31,2.8-.48-.19-.65-1.45-.17-3.29.49-1.84,1.28-2.75,1.28-2.75,0,0,.33,1.37.2,3.24Z"/>
    <path class="cls-2" d="M63.08,47.07c-1.71-.26-2.91.17-2.83.68.08.51,1.21.95,3,.87s2.78-.66,2.78-.66c0,0-1.2-.62-2.95-.89Z"/>
    <path class="cls-2" d="M58.2,47.73c-.04,1.84-.67,3.03-1.16,2.86-.49-.16-.73-1.41-.34-3.28.39-1.87,1.13-2.82,1.13-2.82,0,0,.4,1.35.37,3.23Z"/>
    <path class="cls-2" d="M59.84,49.79c-1.72-.17-2.89.32-2.79.82s1.26.88,3.04.71c1.78-.17,2.74-.8,2.74-.8,0,0-1.23-.55-2.99-.73Z"/>
    <path class="cls-2" d="M55,50.71c.06,1.83-.52,3.06-1.01,2.92s-.8-1.37-.51-3.25c.29-1.88.99-2.87.99-2.87,0,0,.47,1.33.53,3.21Z"/>
    <path class="cls-2" d="M56.75,52.68c-1.73-.08-2.87.47-2.74.97s1.3.82,3.07.55c1.77-.27,2.69-.94,2.69-.94,0,0-1.26-.49-3.03-.57Z"/>
    <path class="cls-2" d="M51.96,53.85c.16,1.83-.35,3.08-.86,2.97-.5-.11-.87-1.33-.68-3.22.19-1.9.83-2.92.83-2.92,0,0,.54,1.3.7,3.17Z"/>
    <path class="cls-2" d="M53.82,55.73c-1.73,0-2.84.62-2.68,1.11.16.49,1.34.75,3.1.39s2.64-1.08,2.64-1.08c0,0-1.28-.42-3.05-.41Z"/>
    <path class="cls-2" d="M49.09,57.15c.25,1.82-.19,3.09-.7,3.01-.51-.08-.94-1.28-.85-3.18.09-1.9.68-2.96.68-2.96,0,0,.61,1.27.87,3.13Z"/>
    <path class="cls-2" d="M51.04,58.93c-1.73.1-2.81.77-2.62,1.25.19.48,1.38.68,3.11.23,1.73-.45,2.58-1.22,2.58-1.22,0,0-1.3-.35-3.07-.25Z"/>
    <path class="cls-2" d="M46.4,60.6c.35,1.8-.03,3.1-.54,3.04-.51-.06-1.01-1.23-1.01-3.13s.52-2.99.52-2.99c0,0,.67,1.24,1.03,3.08Z"/>
    <path class="cls-2" d="M48.44,62.27c-1.72.19-2.76.92-2.55,1.39.21.47,1.41.6,3.12.06,1.71-.54,2.51-1.35,2.51-1.35,0,0-1.32-.29-3.08-.09Z"/>
    <path class="cls-2" d="M43.9,64.18c.44,1.78.13,3.1-.38,3.07s-1.07-1.17-1.17-3.08c-.1-1.9.37-3.01.37-3.01,0,0,.74,1.2,1.19,3.02Z"/>
    <path class="cls-2" d="M46.02,65.74c-1.71.28-2.71,1.06-2.48,1.52.23.46,1.44.53,3.12-.1,1.68-.63,2.44-1.48,2.44-1.48,0,0-1.33-.22-3.08.07Z"/>
    <path class="cls-2" d="M41.58,67.88c.53,1.76.29,3.09-.22,3.08-.51,0-1.13-1.12-1.33-3.01-.2-1.89.21-3.03.21-3.03,0,0,.8,1.16,1.35,2.96Z"/>
    <path class="cls-2" d="M43.78,69.34c-1.69.37-2.65,1.2-2.4,1.64s1.47.45,3.11-.26c1.64-.72,2.36-1.61,2.36-1.61,0,0-1.34-.15-3.07.23Z"/>
    <path class="cls-2" d="M39.46,71.71c.62,1.73.45,3.07-.06,3.09-.51.02-1.19-1.06-1.49-2.94-.3-1.88.05-3.04.05-3.04,0,0,.86,1.12,1.5,2.88Z"/>
    <path class="cls-2" d="M41.74,73.04c-1.67.45-2.59,1.34-2.31,1.77.28.43,1.49.38,3.09-.43,1.6-.8,2.27-1.73,2.27-1.73,0,0-1.34-.08-3.06.39Z"/>
    <path class="cls-2" d="M37.54,75.63c.71,1.69.61,3.04.1,3.09-.51.05-1.24-.99-1.64-2.86-.4-1.86-.11-3.03-.11-3.03,0,0,.92,1.07,1.65,2.8Z"/>
    <path class="cls-2" d="M39.89,76.85c-1.64.54-2.51,1.47-2.21,1.89s1.51.3,3.07-.59c1.56-.88,2.18-1.85,2.18-1.85,0,0-1.35,0-3.03.55Z"/>
    <path class="cls-2" d="M35.84,79.66c.8,1.65.77,3,.27,3.08s-1.29-.93-1.79-2.77c-.5-1.84-.27-3.02-.27-3.02,0,0,.97,1.02,1.79,2.71Z"/>
    <path class="cls-2" d="M38.24,80.75c-1.61.63-2.43,1.6-2.11,2,.32.4,1.52.22,3.03-.75,1.51-.96,2.08-1.96,2.08-1.96,0,0-1.35.06-3,.71Z"/>
    <path class="cls-2" d="M34.34,83.76c.89,1.61.93,2.96.43,3.06-.5.1-1.34-.86-1.93-2.67-.59-1.81-.43-3.01-.43-3.01,0,0,1.02.97,1.93,2.61Z"/>
    <path class="cls-2" d="M36.8,84.73c-1.58.71-2.35,1.73-2,2.11.34.38,1.53.14,2.99-.9,1.46-1.04,1.97-2.06,1.97-2.06,0,0-1.34.13-2.96.86Z"/>
    <path class="cls-2" d="M33.06,87.94c.97,1.56,1.08,2.91.59,3.03-.5.13-1.38-.79-2.07-2.56-.69-1.78-.58-2.98-.58-2.98,0,0,1.07.91,2.06,2.51Z"/>
    <path class="cls-2" d="M35.57,88.78c-1.54.79-2.25,1.85-1.89,2.21.36.36,1.54.06,2.94-1.06,1.4-1.12,1.86-2.17,1.86-2.17,0,0-1.33.2-2.91,1.02Z"/>
    <path class="cls-2" d="M32.01,92.19c1.05,1.51,1.23,2.84.74,3-.49.16-1.42-.71-2.2-2.45-.78-1.74-.74-2.95-.74-2.95,0,0,1.12.85,2.19,2.4Z"/>
    <path class="cls-2" d="M34.55,92.89c-1.5.87-2.15,1.96-1.77,2.3.38.34,1.54-.02,2.88-1.21,1.34-1.19,1.74-2.26,1.74-2.26,0,0-1.32.27-2.85,1.17Z"/>
    <path class="cls-2" d="M31.17,96.48c1.13,1.45,1.38,2.78.9,2.96-.48.18-1.46-.64-2.32-2.33-.87-1.7-.89-2.9-.89-2.9,0,0,1.16.8,2.32,2.28Z"/>
    <path class="cls-2" d="M33.75,97.04c-1.45.95-2.05,2.07-1.65,2.39.4.32,1.53-.1,2.81-1.36,1.28-1.26,1.62-2.35,1.62-2.35,0,0-1.3.34-2.79,1.31Z"/>
    <path class="cls-2" d="M30.56,100.8c1.2,1.39,1.52,2.7,1.05,2.91-.47.21-1.49-.56-2.44-2.21-.96-1.65-1.04-2.85-1.04-2.85,0,0,1.2.73,2.43,2.15Z"/>
    <path class="cls-2" d="M33.17,101.24c-1.4,1.02-1.93,2.18-1.52,2.48.42.3,1.53-.18,2.73-1.51,1.21-1.32,1.5-2.43,1.5-2.43,0,0-1.28.41-2.71,1.46Z"/>
    <path class="cls-2" d="M30.18,105.16c1.27,1.32,1.66,2.62,1.2,2.85-.46.23-1.51-.48-2.56-2.08-1.04-1.6-1.19-2.79-1.19-2.79,0,0,1.24.67,2.54,2.02Z"/>
    <path class="cls-2" d="M32.81,105.45c-1.34,1.09-1.82,2.28-1.39,2.55.43.28,1.52-.26,2.65-1.65,1.14-1.38,1.37-2.5,1.37-2.5,0,0-1.26.48-2.63,1.6Z"/>
    <path class="cls-2" d="M196.9,109.53c-1.34,1.25-1.8,2.53-1.35,2.78s1.54-.4,2.66-1.94c1.12-1.54,1.33-2.73,1.33-2.73,0,0-1.27.6-2.64,1.89Z"/>
    <path class="cls-2" d="M194.26,109.69c1.28,1.16,1.7,2.37,1.25,2.62-.44.25-1.5-.34-2.56-1.78-1.06-1.44-1.24-2.57-1.24-2.57,0,0,1.23.54,2.55,1.73Z"/>
    <path class="cls-2" d="M196.82,113.9c-1.4,1.18-1.93,2.43-1.5,2.71.43.28,1.56-.32,2.76-1.8,1.2-1.48,1.48-2.65,1.48-2.65,0,0-1.3.54-2.74,1.75Z"/>
    <path class="cls-2" d="M194.18,113.92c1.22,1.23,1.57,2.45,1.11,2.68-.46.23-1.48-.42-2.47-1.92-.99-1.49-1.1-2.63-1.1-2.63,0,0,1.2.61,2.45,1.87Z"/>
    <path class="cls-2" d="M196.52,118.26c-1.46,1.11-2.05,2.32-1.63,2.62s1.57-.24,2.85-1.65c1.28-1.41,1.61-2.57,1.61-2.57,0,0-1.33.47-2.83,1.6Z"/>
    <path class="cls-2" d="M193.88,118.14c1.15,1.29,1.44,2.53.97,2.74-.47.21-1.46-.5-2.36-2.04-.91-1.54-.96-2.69-.96-2.69,0,0,1.17.67,2.35,1.99Z"/>
    <path class="cls-2" d="M195.99,122.6c-1.52,1.03-2.17,2.21-1.77,2.53.4.32,1.58-.16,2.93-1.5,1.35-1.34,1.74-2.49,1.74-2.49,0,0-1.35.4-2.91,1.45Z"/>
    <path class="cls-2" d="M193.36,122.34c1.08,1.35,1.31,2.6.83,2.79s-1.43-.57-2.25-2.16c-.82-1.59-.82-2.73-.82-2.73,0,0,1.13.73,2.24,2.11Z"/>
    <path class="cls-2" d="M195.23,126.9c-1.57.95-2.28,2.1-1.9,2.44.38.34,1.59-.07,3.01-1.35,1.42-1.27,1.87-2.39,1.87-2.39,0,0-1.37.33-2.98,1.3Z"/>
    <path class="cls-2" d="M192.62,126.51c1.01,1.4,1.17,2.67.68,2.83-.49.16-1.4-.65-2.14-2.28-.74-1.63-.67-2.77-.67-2.77,0,0,1.09.79,2.13,2.23Z"/>
    <path class="cls-2" d="M194.24,131.16c-1.62.87-2.39,1.97-2.02,2.34s1.59,0,3.07-1.19c1.48-1.2,1.99-2.29,1.99-2.29,0,0-1.38.25-3.04,1.14Z"/>
    <path class="cls-2" d="M191.66,130.63c.94,1.46,1.03,2.73.53,2.86-.5.13-1.36-.72-2.01-2.39-.65-1.67-.53-2.81-.53-2.81,0,0,1.05.84,2.01,2.33Z"/>
    <path class="cls-2" d="M193.04,135.36c-1.66.78-2.49,1.85-2.14,2.23.35.38,1.59.09,3.13-1.02,1.54-1.12,2.11-2.18,2.11-2.18,0,0-1.4.18-3.1.98Z"/>
    <path class="cls-2" d="M190.48,134.7c.86,1.5.88,2.78.38,2.88-.5.11-1.32-.79-1.89-2.49-.57-1.7-.38-2.83-.38-2.83,0,0,1.01.9,1.89,2.44Z"/>
    <path class="cls-2" d="M191.62,139.49c-1.7.69-2.58,1.71-2.26,2.11.32.4,1.58.18,3.18-.86,1.6-1.03,2.22-2.07,2.22-2.07,0,0-1.4.11-3.15.82Z"/>
    <path class="cls-2" d="M189.1,138.7c.78,1.55.74,2.82.23,2.9s-1.28-.86-1.75-2.58c-.48-1.73-.23-2.85-.23-2.85,0,0,.96.95,1.76,2.53Z"/>
    <path class="cls-2" d="M189.98,143.55c-1.73.6-2.67,1.58-2.37,1.99.3.41,1.57.26,3.22-.69,1.65-.95,2.33-1.95,2.33-1.95,0,0-1.41.03-3.18.65Z"/>
    <path class="cls-2" d="M187.51,142.62c.7,1.58.59,2.85.08,2.9-.51.05-1.23-.92-1.61-2.67-.38-1.75-.08-2.85-.08-2.85,0,0,.91,1,1.62,2.62Z"/>
    <path class="cls-2" d="M188.13,147.51c-1.76.51-2.75,1.43-2.47,1.86.28.43,1.55.34,3.25-.52,1.7-.86,2.43-1.82,2.43-1.82,0,0-1.41-.04-3.21.48Z"/>
    <path class="cls-2" d="M185.71,146.45c.61,1.62.44,2.88-.07,2.9-.51.03-1.18-.99-1.47-2.75-.29-1.77.07-2.85.07-2.85,0,0,.85,1.04,1.48,2.7Z"/>
    <path class="cls-2" d="M186.08,151.37c-1.79.42-2.82,1.29-2.56,1.73.26.44,1.53.42,3.28-.35,1.74-.77,2.52-1.7,2.52-1.7,0,0-1.4-.11-3.23.31Z"/>
    <path class="cls-2" d="M183.72,150.19c.53,1.65.29,2.9-.23,2.9-.51,0-1.13-1.05-1.33-2.83-.2-1.78.22-2.85.22-2.85,0,0,.8,1.09,1.34,2.78Z"/>
    <path class="cls-2" d="M183.83,155.12c-1.81.32-2.88,1.14-2.65,1.6s1.51.5,3.29-.18c1.78-.68,2.6-1.56,2.6-1.56,0,0-1.4-.19-3.25.14Z"/>
    <path class="cls-2" d="M181.53,153.81c.44,1.67.13,2.91-.38,2.88-.51-.03-1.07-1.1-1.18-2.89-.11-1.79.36-2.83.36-2.83,0,0,.74,1.13,1.19,2.84Z"/>
    <path class="cls-2" d="M181.38,158.74c-1.82.23-2.94.99-2.73,1.45.21.47,1.48.58,3.29,0,1.81-.58,2.68-1.42,2.68-1.42,0,0-1.38-.26-3.25-.03Z"/>
    <path class="cls-2" d="M179.16,157.32c.35,1.69-.02,2.91-.53,2.86-.51-.06-1.01-1.16-1.02-2.95-.01-1.79.51-2.81.51-2.81,0,0,.68,1.16,1.04,2.9Z"/>
    <path class="cls-2" d="M178.75,162.23c-1.83.13-2.99.83-2.8,1.31.19.48,1.45.65,3.29.17,1.84-.49,2.75-1.28,2.75-1.28,0,0-1.37-.33-3.24-.2Z"/>
    <path class="cls-2" d="M176.61,160.69c.26,1.71-.17,2.91-.68,2.83-.51-.08-.95-1.21-.87-3,.08-1.79.66-2.78.66-2.78,0,0,.62,1.2.89,2.95Z"/>
    <path class="cls-2" d="M175.94,165.58c-1.84.04-3.03.67-2.86,1.16.16.49,1.41.73,3.28.34,1.87-.39,2.82-1.13,2.82-1.13,0,0-1.35-.4-3.23-.37Z"/>
    <path class="cls-2" d="M173.88,163.93c.17,1.72-.32,2.89-.82,2.79s-.88-1.26-.71-3.04c.17-1.78.8-2.74.8-2.74,0,0,.55,1.23.73,2.99Z"/>
    <path class="cls-2" d="M172.96,168.78c-1.83-.06-3.06.52-2.92,1.01.14.49,1.37.8,3.25.51s2.87-.99,2.87-.99c0,0-1.33-.47-3.21-.53Z"/>
    <path class="cls-2" d="M170.99,167.02c.08,1.73-.47,2.87-.97,2.74-.49-.13-.82-1.3-.55-3.07.27-1.77.94-2.69.94-2.69,0,0,.49,1.26.57,3.03Z"/>
    <path class="cls-2" d="M169.82,171.81c-1.83-.16-3.08.35-2.97.86.11.5,1.33.87,3.22.68,1.9-.19,2.92-.83,2.92-.83,0,0-1.3-.54-3.17-.7Z"/>
    <path class="cls-2" d="M167.94,169.96c0,1.73-.62,2.84-1.11,2.68-.49-.16-.75-1.34-.39-3.1.36-1.75,1.08-2.64,1.08-2.64,0,0,.42,1.28.41,3.05Z"/>
    <path class="cls-2" d="M166.52,174.68c-1.82-.25-3.09.19-3.01.7.08.51,1.28.94,3.18.85,1.9-.09,2.96-.68,2.96-.68,0,0-1.27-.61-3.13-.87Z"/>
    <path class="cls-2" d="M164.74,172.73c-.1,1.73-.77,2.81-1.25,2.62-.48-.19-.68-1.38-.23-3.11.45-1.73,1.22-2.58,1.22-2.58,0,0,.35,1.3.25,3.07Z"/>
    <path class="cls-2" d="M163.08,177.37c-1.8-.35-3.1.03-3.04.54.06.51,1.23,1.01,3.13,1.01,1.91,0,2.99-.52,2.99-.52,0,0-1.24-.67-3.08-1.03Z"/>
    <path class="cls-2" d="M161.4,175.33c-.19,1.72-.92,2.76-1.39,2.55-.47-.21-.6-1.41-.06-3.12.54-1.71,1.35-2.51,1.35-2.51,0,0,.29,1.32.09,3.08Z"/>
    <path class="cls-2" d="M159.5,179.88c-1.78-.44-3.1-.13-3.07.38s1.17,1.07,3.08,1.17c1.9.1,3.01-.37,3.01-.37,0,0-1.2-.74-3.02-1.19Z"/>
    <path class="cls-2" d="M157.93,177.75c-.28,1.71-1.06,2.71-1.52,2.48-.46-.23-.53-1.44.1-3.12.63-1.68,1.48-2.44,1.48-2.44,0,0,.22,1.33-.07,3.08Z"/>
    <path class="cls-2" d="M155.79,182.19c-1.76-.53-3.09-.29-3.08.22,0,.51,1.12,1.13,3.01,1.33,1.89.2,3.03-.21,3.03-.21,0,0-1.16-.8-2.96-1.35Z"/>
    <path class="cls-2" d="M154.34,179.99c-.37,1.69-1.2,2.65-1.64,2.4-.44-.26-.45-1.47.26-3.11.72-1.64,1.61-2.36,1.61-2.36,0,0,.15,1.34-.23,3.07Z"/>
    <path class="cls-2" d="M151.97,184.31c-1.73-.62-3.07-.45-3.09.06-.02.51,1.06,1.19,2.94,1.49,1.88.3,3.04-.05,3.04-.05,0,0-1.12-.86-2.88-1.5Z"/>
    <path class="cls-2" d="M150.63,182.04c-.45,1.67-1.34,2.59-1.77,2.31-.43-.28-.38-1.49.43-3.09.8-1.6,1.73-2.27,1.73-2.27,0,0,.08,1.34-.39,3.06Z"/>
    <path class="cls-2" d="M148.04,186.23c-1.69-.71-3.04-.61-3.09-.1s.99,1.24,2.86,1.64,3.03.11,3.03.11c0,0-1.07-.92-2.8-1.65Z"/>
    <path class="cls-2" d="M146.82,183.89c-.54,1.64-1.47,2.51-1.89,2.21-.41-.3-.3-1.51.59-3.07.88-1.56,1.85-2.18,1.85-2.18,0,0,0,1.35-.55,3.03Z"/>
    <path class="cls-2" d="M144.01,187.94c-1.65-.8-3-.77-3.08-.27-.08.51.93,1.29,2.77,1.79s3.02.27,3.02.27c0,0-1.02-.97-2.71-1.79Z"/>
    <path class="cls-2" d="M142.92,185.53c-.63,1.61-1.6,2.43-2,2.11s-.22-1.52.75-3.03c.96-1.51,1.96-2.08,1.96-2.08,0,0-.06,1.35-.71,3Z"/>
    <path class="cls-2" d="M139.91,189.43c-1.61-.89-2.96-.93-3.06-.43s.86,1.34,2.67,1.93c1.81.59,3.01.43,3.01.43,0,0-.97-1.02-2.61-1.93Z"/>
    <path class="cls-2" d="M138.94,186.97c-.71,1.58-1.73,2.35-2.11,2s-.14-1.53.9-2.99c1.04-1.46,2.06-1.97,2.06-1.97,0,0-.13,1.34-.86,2.96Z"/>
    <path class="cls-2" d="M135.73,190.71c-1.56-.97-2.91-1.08-3.03-.59-.13.5.79,1.38,2.56,2.07,1.78.69,2.98.58,2.98.58,0,0-.91-1.07-2.51-2.06Z"/>
    <path class="cls-2" d="M134.89,188.21c-.79,1.54-1.85,2.25-2.21,1.89-.36-.36-.06-1.54,1.06-2.94,1.12-1.4,2.17-1.86,2.17-1.86,0,0-.2,1.33-1.02,2.91Z"/>
    <path class="cls-2" d="M131.49,191.77c-1.51-1.05-2.84-1.23-3-.74-.16.49.71,1.42,2.45,2.2,1.74.78,2.95.74,2.95.74,0,0-.85-1.12-2.4-2.19Z"/>
    <path class="cls-2" d="M130.78,189.22c-.87,1.5-1.96,2.15-2.3,1.77-.34-.38.02-1.54,1.21-2.88,1.19-1.34,2.26-1.74,2.26-1.74,0,0-.27,1.32-1.17,2.85Z"/>
    <path class="cls-2" d="M127.2,192.6c-1.45-1.13-2.78-1.38-2.96-.9-.18.48.64,1.46,2.33,2.32s2.9.89,2.9.89c0,0-.8-1.16-2.28-2.32Z"/>
    <path class="cls-2" d="M126.63,190.02c-.95,1.45-2.07,2.05-2.39,1.65-.32-.4.1-1.53,1.36-2.81,1.26-1.28,2.35-1.62,2.35-1.62,0,0-.34,1.3-1.31,2.79Z"/>
    <path class="cls-2" d="M122.87,193.21c-1.39-1.2-2.7-1.52-2.91-1.05-.21.47.56,1.49,2.21,2.44,1.65.96,2.85,1.04,2.85,1.04,0,0-.73-1.2-2.15-2.43Z"/>
    <path class="cls-2" d="M122.44,190.61c-1.02,1.4-2.18,1.93-2.48,1.52-.3-.42.18-1.53,1.51-2.73,1.32-1.21,2.43-1.5,2.43-1.5,0,0-.41,1.28-1.46,2.71Z"/>
    <path class="cls-2" d="M118.51,193.59c-1.32-1.27-2.62-1.66-2.85-1.2-.23.46.48,1.51,2.08,2.56,1.6,1.04,2.79,1.19,2.79,1.19,0,0-.67-1.24-2.02-2.54Z"/>
    <path class="cls-2" d="M118.22,190.97c-1.09,1.34-2.28,1.82-2.55,1.39-.28-.43.26-1.52,1.65-2.65,1.38-1.14,2.5-1.37,2.5-1.37,0,0-.48,1.26-1.6,2.63Z"/>
    <path class="cls-2" d="M134.31,29.43c.87,1.62,1.97,2.39,2.34,2.02.36-.36,0-1.59-1.19-3.07-1.2-1.48-2.29-1.99-2.29-1.99,0,0,.25,1.38,1.14,3.04Z"/>
    <path class="cls-2" d="M133.78,32.02c1.46-.94,2.73-1.03,2.86-.53.13.5-.72,1.36-2.39,2.01-1.67.65-2.81.53-2.81.53,0,0,.84-1.05,2.33-2.01Z"/>
    <path class="cls-2" d="M138.52,30.63c.78,1.66,1.85,2.49,2.23,2.14.38-.35.09-1.59-1.02-3.13-1.12-1.54-2.18-2.11-2.18-2.11,0,0,.18,1.4.98,3.1Z"/>
    <path class="cls-2" d="M137.85,33.19c1.5-.86,2.78-.88,2.88-.38s-.79,1.32-2.49,1.89c-1.7.57-2.83.38-2.83.38,0,0,.9-1.01,2.44-1.89Z"/>
    <path class="cls-2" d="M142.65,32.06c.69,1.7,1.71,2.58,2.11,2.26.4-.32.18-1.58-.86-3.18-1.03-1.6-2.07-2.22-2.07-2.22,0,0,.11,1.4.82,3.15Z"/>
    <path class="cls-2" d="M141.85,34.57c1.55-.78,2.82-.74,2.9-.23.08.51-.86,1.28-2.58,1.75-1.73.48-2.85.23-2.85.23,0,0,.95-.96,2.53-1.76Z"/>
    <path class="cls-2" d="M146.7,33.69c.6,1.73,1.58,2.67,1.99,2.37.41-.3.26-1.57-.69-3.22-.95-1.65-1.95-2.33-1.95-2.33,0,0,.03,1.41.65,3.18Z"/>
    <path class="cls-2" d="M145.77,36.17c1.58-.7,2.85-.59,2.9-.08.05.51-.92,1.23-2.67,1.61-1.75.38-2.85.08-2.85.08,0,0,1-.91,2.62-1.62Z"/>
    <path class="cls-2" d="M150.66,35.54c.51,1.76,1.43,2.75,1.86,2.47.43-.28.34-1.55-.52-3.25-.86-1.7-1.82-2.43-1.82-2.43,0,0-.04,1.41.48,3.21Z"/>
    <path class="cls-2" d="M149.61,37.96c1.62-.61,2.88-.44,2.9.07.03.51-.99,1.18-2.75,1.47-1.77.29-2.85-.07-2.85-.07,0,0,1.04-.85,2.7-1.48Z"/>
    <path class="cls-2" d="M154.52,37.59c.42,1.79,1.29,2.82,1.73,2.56.44-.26.42-1.53-.35-3.28-.77-1.74-1.7-2.52-1.7-2.52,0,0-.11,1.4.31,3.23Z"/>
    <path class="cls-2" d="M153.34,39.95c1.65-.53,2.9-.29,2.9.23,0,.51-1.05,1.13-2.83,1.33-1.78.2-2.85-.22-2.85-.22,0,0,1.09-.8,2.78-1.34Z"/>
    <path class="cls-2" d="M158.27,39.84c.32,1.81,1.14,2.88,1.6,2.65.46-.24.5-1.51-.18-3.29-.68-1.78-1.56-2.6-1.56-2.6,0,0-.19,1.4.14,3.25Z"/>
    <path class="cls-2" d="M156.97,42.14c1.67-.44,2.91-.13,2.88.38-.03.51-1.1,1.07-2.89,1.18-1.79.11-2.83-.36-2.83-.36,0,0,1.13-.74,2.84-1.19Z"/>
    <path class="cls-2" d="M161.89,42.29c.23,1.82.99,2.94,1.45,2.73s.58-1.48,0-3.29c-.58-1.81-1.42-2.68-1.42-2.68,0,0-.26,1.38-.03,3.25Z"/>
    <path class="cls-2" d="M160.47,44.51c1.69-.35,2.91.02,2.86.53s-1.16,1.01-2.95,1.02-2.81-.51-2.81-.51c0,0,1.16-.68,2.9-1.04Z"/>
    <path class="cls-2" d="M165.38,44.92c.13,1.83.83,2.99,1.31,2.8.48-.19.65-1.45.17-3.29-.49-1.84-1.28-2.75-1.28-2.75,0,0-.33,1.37-.2,3.24Z"/>
    <path class="cls-2" d="M163.85,47.07c1.71-.26,2.91.17,2.83.68-.08.51-1.21.95-3,.87s-2.78-.66-2.78-.66c0,0,1.2-.62,2.95-.89Z"/>
    <path class="cls-2" d="M168.73,47.73c.04,1.84.67,3.03,1.16,2.86s.73-1.41.34-3.28c-.39-1.87-1.13-2.82-1.13-2.82,0,0-.4,1.35-.37,3.23Z"/>
    <path class="cls-2" d="M167.09,49.79c1.72-.17,2.89.32,2.79.82s-1.26.88-3.04.71c-1.78-.17-2.74-.8-2.74-.8,0,0,1.23-.55,2.99-.73Z"/>
    <path class="cls-2" d="M171.93,50.71c-.06,1.83.52,3.06,1.01,2.92.49-.14.8-1.37.51-3.25-.29-1.88-.99-2.87-.99-2.87,0,0-.47,1.33-.53,3.21Z"/>
    <path class="cls-2" d="M170.18,52.68c1.73-.08,2.87.47,2.74.97-.13.49-1.3.82-3.07.55-1.77-.27-2.69-.94-2.69-.94,0,0,1.26-.49,3.03-.57Z"/>
    <path class="cls-2" d="M174.97,53.85c-.16,1.83.35,3.08.86,2.97.5-.11.87-1.33.68-3.22-.19-1.9-.83-2.92-.83-2.92,0,0-.54,1.3-.7,3.17Z"/>
    <path class="cls-2" d="M173.11,55.73c1.73,0,2.84.62,2.68,1.11-.16.49-1.34.75-3.1.39s-2.64-1.08-2.64-1.08c0,0,1.28-.42,3.05-.41Z"/>
    <path class="cls-2" d="M177.83,57.15c-.25,1.82.19,3.09.7,3.01s.94-1.28.85-3.18c-.09-1.9-.68-2.96-.68-2.96,0,0-.61,1.27-.87,3.13Z"/>
    <path class="cls-2" d="M175.88,58.93c1.73.1,2.81.77,2.62,1.25-.19.48-1.38.68-3.11.23s-2.58-1.22-2.58-1.22c0,0,1.3-.35,3.07-.25Z"/>
    <path class="cls-2" d="M180.52,60.6c-.35,1.8.03,3.1.54,3.04s1.01-1.23,1.01-3.13-.52-2.99-.52-2.99c0,0-.67,1.24-1.03,3.08Z"/>
    <path class="cls-2" d="M178.49,62.27c1.72.19,2.76.92,2.55,1.39-.21.47-1.41.6-3.12.06-1.71-.54-2.51-1.35-2.51-1.35,0,0,1.32-.29,3.08-.09Z"/>
    <path class="cls-2" d="M183.03,64.18c-.44,1.78-.13,3.1.38,3.07s1.07-1.17,1.17-3.08c.1-1.9-.37-3.01-.37-3.01,0,0-.74,1.2-1.19,3.02Z"/>
    <path class="cls-2" d="M180.91,65.74c1.71.28,2.71,1.06,2.48,1.52-.23.46-1.44.53-3.12-.1-1.68-.63-2.44-1.48-2.44-1.48,0,0,1.33-.22,3.08.07Z"/>
    <path class="cls-2" d="M185.35,67.88c-.53,1.76-.29,3.09.22,3.08.51,0,1.13-1.12,1.33-3.01.2-1.89-.21-3.03-.21-3.03,0,0-.8,1.16-1.35,2.96Z"/>
    <path class="cls-2" d="M183.14,69.34c1.69.37,2.65,1.2,2.4,1.64s-1.47.45-3.11-.26c-1.64-.72-2.36-1.61-2.36-1.61,0,0,1.34-.15,3.07.23Z"/>
    <path class="cls-2" d="M187.47,71.71c-.62,1.73-.45,3.07.06,3.09s1.19-1.06,1.49-2.94c.3-1.88-.05-3.04-.05-3.04,0,0-.86,1.12-1.5,2.88Z"/>
    <path class="cls-2" d="M185.19,73.04c1.67.45,2.59,1.34,2.31,1.77-.28.43-1.49.38-3.09-.43-1.6-.8-2.27-1.73-2.27-1.73,0,0,1.34-.08,3.06.39Z"/>
    <path class="cls-2" d="M189.38,75.63c-.71,1.69-.61,3.04-.1,3.09.51.05,1.24-.99,1.64-2.86.4-1.86.11-3.03.11-3.03,0,0-.92,1.07-1.65,2.8Z"/>
    <path class="cls-2" d="M187.04,76.85c1.64.54,2.51,1.47,2.21,1.89-.3.41-1.51.3-3.07-.59-1.56-.88-2.18-1.85-2.18-1.85,0,0,1.35,0,3.03.55Z"/>
    <path class="cls-2" d="M191.09,79.66c-.8,1.65-.77,3-.27,3.08.51.08,1.29-.93,1.79-2.77.5-1.84.27-3.02.27-3.02,0,0-.97,1.02-1.79,2.71Z"/>
    <path class="cls-2" d="M188.69,80.75c1.61.63,2.43,1.6,2.11,2-.32.4-1.52.22-3.03-.75-1.51-.96-2.08-1.96-2.08-1.96,0,0,1.35.06,3,.71Z"/>
    <path class="cls-2" d="M192.59,83.76c-.89,1.61-.93,2.96-.43,3.06.5.1,1.34-.86,1.93-2.67.59-1.81.43-3.01.43-3.01,0,0-1.02.97-1.93,2.61Z"/>
    <path class="cls-2" d="M190.13,84.73c1.58.71,2.35,1.73,2,2.11-.34.38-1.53.14-2.99-.9-1.46-1.04-1.97-2.06-1.97-2.06,0,0,1.34.13,2.96.86Z"/>
    <path class="cls-2" d="M193.87,87.94c-.97,1.56-1.08,2.91-.59,3.03s1.38-.79,2.07-2.56c.69-1.78.58-2.98.58-2.98,0,0-1.07.91-2.06,2.51Z"/>
    <path class="cls-2" d="M191.36,88.78c1.54.79,2.25,1.85,1.89,2.21-.36.36-1.54.06-2.94-1.06s-1.86-2.17-1.86-2.17c0,0,1.33.2,2.91,1.02Z"/>
    <path class="cls-2" d="M194.92,92.19c-1.05,1.51-1.23,2.84-.74,3,.49.16,1.42-.71,2.2-2.45.78-1.74.74-2.95.74-2.95,0,0-1.12.85-2.19,2.4Z"/>
    <path class="cls-2" d="M192.38,92.89c1.5.87,2.15,1.96,1.77,2.3s-1.54-.02-2.88-1.21c-1.34-1.19-1.74-2.26-1.74-2.26,0,0,1.32.27,2.85,1.17Z"/>
    <path class="cls-2" d="M195.76,96.48c-1.13,1.45-1.38,2.78-.9,2.96.48.18,1.46-.64,2.32-2.33.87-1.7.89-2.9.89-2.9,0,0-1.16.8-2.32,2.28Z"/>
    <path class="cls-2" d="M193.18,97.04c1.45.95,2.05,2.07,1.65,2.39-.4.32-1.53-.1-2.81-1.36-1.28-1.26-1.62-2.35-1.62-2.35,0,0,1.3.34,2.79,1.31Z"/>
    <path class="cls-2" d="M196.37,100.8c-1.2,1.39-1.52,2.7-1.05,2.91.47.21,1.49-.56,2.44-2.21.96-1.65,1.04-2.85,1.04-2.85,0,0-1.2.73-2.43,2.15Z"/>
    <path class="cls-2" d="M193.76,101.24c1.4,1.02,1.93,2.18,1.52,2.48s-1.53-.18-2.73-1.51c-1.21-1.32-1.5-2.43-1.5-2.43,0,0,1.28.41,2.71,1.46Z"/>
    <path class="cls-2" d="M196.75,105.16c-1.27,1.32-1.66,2.62-1.2,2.85.46.23,1.51-.48,2.56-2.08s1.19-2.79,1.19-2.79c0,0-1.24.67-2.54,2.02Z"/>
    <path class="cls-2" d="M194.12,105.45c1.34,1.09,1.82,2.28,1.39,2.55-.43.28-1.52-.26-2.65-1.65-1.14-1.38-1.37-2.5-1.37-2.5,0,0,1.26.48,2.63,1.6Z"/>
  </g>
  <path class="cls-2" d="M122.33,224.87l-1.9-1.9c.8-1.3,1.2-2.8,1.2-4.5,0-4.8-3.8-8.6-8.6-8.6s-8.6,3.9-8.6,8.6,3.8,8.6,8.6,8.6c1.9,0,3.6-.6,5-1.7l1.8,1.7,2.5-2.2ZM113.13,223.67c-2.9,0-5.3-2.3-5.3-5.3s2.3-5.3,5.3-5.3,5.3,2.3,5.3,5.3c0,.7-.1,1.3-.4,2l-.1-.1h-4.9l2.7,2.7c-.9.4-1.6.7-2.6.7Z"/>
  <g>
    <path class="cls-2" d="M21.99,171.28l-1.15-1.76,6.44-8.44,1.16,1.77-1.41,1.73,1.98,3.02,2.14-.62,1.13,1.72-10.29,2.57ZM27.44,168.06l-1.45-2.21-1.92,2.33c-.35.43-1.07,1.18-1.07,1.18l.02.02s.98-.34,1.52-.49l2.9-.83Z"/>
    <path class="cls-2" d="M20.33,150.22v.03c1.34.14,2.1.82,2.61,1.9.64,1.37.64,2.67.16,3.8-.49,1.14-1.46,2.11-2.83,2.75-1.51.7-3.08.78-4.4.23-1.01-.42-1.83-1.22-2.4-2.44-1.06-2.29-.41-4.18,1.23-5.29l.84,1.8c-.78.61-1.1,1.58-.56,2.75.8,1.71,2.61,1.91,4.42,1.07,1.85-.86,2.76-2.47,2.03-4.03-.65-1.41-2.14-1.85-3.14-1.38l-.05.02,1.01,2.18-1.42.66-1.77-3.82,4.83-2.24.64,1.38-1.19.63Z"/>
    <path class="cls-2" d="M9.09,144.92l-.62-1.93,9.53-3.07.62,1.93-9.53,3.07Z"/>
    <path class="cls-2" d="M6.29,135.2l-.39-2.02,4.86-4.33c.47-.42,1.24-.95,1.24-.95v-.03s-1.01.25-1.7.38l-5.16.99-.38-1.97,9.83-1.89.37,1.92-4.79,4.4c-.46.42-1.23.96-1.23.96v.03s1.03-.25,1.71-.39l5.08-.98.38,1.97-9.83,1.89Z"/>
    <path class="cls-2" d="M12.15,111.44v.03c1.17.64,1.62,1.56,1.67,2.75.06,1.51-.44,2.71-1.31,3.57-.89.86-2.16,1.39-3.67,1.45-1.66.07-3.14-.46-4.15-1.47-.77-.78-1.22-1.83-1.28-3.17-.1-2.52,1.23-4.01,3.17-4.41l.08,1.99c-.96.26-1.62,1.03-1.57,2.32.08,1.89,1.68,2.76,3.67,2.68,2.04-.08,3.5-1.22,3.42-2.94-.06-1.55-1.26-2.53-2.37-2.48h-.06s.1,2.41.1,2.41l-1.56.06-.17-4.21,5.31-.21.06,1.52-1.34.12Z"/>
    <path class="cls-2" d="M4.75,93.75l.32-2,9.88,1.59-.32,2-9.88-1.59Z"/>
    <path class="cls-2" d="M6.64,83.84l.57-1.98,6.29-1.66c.61-.16,1.54-.29,1.54-.29v-.03s-1-.23-1.68-.42l-5.05-1.45.55-1.92,9.62,2.76-.54,1.88-6.26,1.76c-.6.16-1.53.3-1.53.3v.03s1.02.24,1.69.43l4.97,1.42-.55,1.92-9.62-2.76Z"/>
    <path class="cls-2" d="M15.31,60.57l2.12-3.85c.56-1.02,1.27-1.61,2.08-1.84.77-.21,1.62-.13,2.43.32,1.65.91,2.17,2.62,1.16,4.46l-1.19,2.16,3.17,1.75-1.01,1.84-8.76-4.83ZM20.47,61.02l1.01-1.84c.51-.93.27-1.71-.53-2.15-.82-.45-1.57-.19-2.06.69l-1.03,1.86,2.6,1.43Z"/>
    <path class="cls-2" d="M23.31,47.25l1.21-1.63,6.68,4.96,2.81-3.78,1.36,1.01-4.02,5.41-8.04-5.97Z"/>
    <path class="cls-2" d="M34.34,33.94l1.47-1.5,9.61,4.5-1.48,1.51-1.99-1.01-2.53,2.57,1.05,1.96-1.44,1.47-4.69-9.5ZM38.65,38.58l1.86-1.89-2.68-1.38c-.5-.25-1.38-.79-1.38-.79l-.02.02s.54.89.8,1.38l1.43,2.66Z"/>
    <path class="cls-2" d="M46.24,29.62c-1.8-2.36-1.72-5.28.63-7.08,1.96-1.5,4.01-1.22,5.33.17l-1.6,1.22c-.76-.69-1.76-.75-2.69-.04-1.47,1.12-1.23,2.88-.02,4.46,1.24,1.62,2.98,2.14,4.31,1.12.94-.72,1.18-1.8.64-2.71l1.58-1.21c.49.73.71,1.64.56,2.55-.15.93-.67,1.85-1.77,2.69-2.23,1.71-5.14,1.21-6.97-1.18Z"/>
    <path class="cls-2" d="M56.82,15.97l6.43-3.59.83,1.49-4.66,2.6,1.09,1.96,4.08-2.28.81,1.45-4.08,2.28,1.32,2.36,4.69-2.62.83,1.48-6.47,3.61-4.88-8.74Z"/>
    <path class="cls-2" d="M78.5,5.95l3.75-1.1c2.57-.76,4.83.83,5.66,3.66.46,1.56.34,3.08-.42,4.22-.54.8-1.37,1.41-2.57,1.77l-3.59,1.05-2.83-9.6ZM84.28,12.86c1.83-.54,2.21-1.86,1.65-3.77-.56-1.91-1.79-2.99-3.44-2.5l-1.56.46,1.84,6.26,1.5-.44Z"/>
    <path class="cls-2" d="M94.08,2l7.29-1.05.24,1.69-5.28.76.32,2.22,4.63-.67.24,1.65-4.63.67.38,2.67,5.32-.77.24,1.68-7.33,1.05-1.43-9.91Z"/>
    <path class="cls-2" d="M108.82,7.3h1.99c.14,1.19.83,1.67,2.26,1.66,1.04,0,1.94-.37,1.94-1.3,0-.98-.96-1.17-2.48-1.51-1.79-.4-3.43-.87-3.44-2.95,0-1.97,1.6-3,3.82-3.01,2.25,0,3.71,1.09,3.88,3.1h-1.94c-.12-1-.9-1.5-1.94-1.49-1.09,0-1.8.47-1.8,1.18,0,.81.7,1.05,2.19,1.36,2.06.44,3.74.92,3.75,3.08,0,2.03-1.62,3.17-3.88,3.18-2.71.01-4.26-1.18-4.34-3.3Z"/>
    <path class="cls-2" d="M124.71.93l2.02.22-1.1,9.95-2.02-.22,1.11-9.95Z"/>
    <path class="cls-2" d="M139.8,12.45h-.03c-.93.95-1.94,1.13-3.1.85-1.47-.35-2.49-1.15-3.08-2.23-.59-1.09-.75-2.45-.4-3.92.39-1.62,1.29-2.9,2.54-3.59.96-.53,2.09-.68,3.4-.37,2.45.58,3.53,2.27,3.39,4.25l-1.93-.46c0-.99-.55-1.84-1.81-2.14-1.84-.44-3.11.87-3.57,2.8-.47,1.99.23,3.69,1.9,4.09,1.51.36,2.77-.53,3.03-1.61v-.05s-2.33-.56-2.33-.56l.36-1.53,4.1.98-1.23,5.17-1.48-.35.24-1.32Z"/>
    <path class="cls-2" d="M151.13,6.91l1.91.78.98,6.43c.09.63.12,1.56.12,1.56h.03s.34-.97.6-1.62l1.98-4.86,1.85.75-3.77,9.27-1.82-.74-1.08-6.41c-.1-.61-.14-1.55-.14-1.55h-.03s-.34.98-.61,1.63l-1.95,4.79-1.86-.75,3.77-9.27Z"/>
    <path class="cls-2" d="M173.34,18.03l3.6,2.52c.95.67,1.47,1.44,1.61,2.27.13.79-.04,1.63-.57,2.38-1.08,1.55-2.84,1.88-4.56.67l-2.02-1.41-2.08,2.97-1.72-1.2,5.74-8.21ZM172.35,23.12l1.72,1.2c.87.61,1.67.45,2.19-.3.54-.77.36-1.54-.46-2.12l-1.75-1.22-1.7,2.43Z"/>
    <path class="cls-2" d="M185.78,27.45l3.35,3.14c1.41,1.32,1.59,3.02.45,4.23-.8.86-1.82,1.14-2.99.51l-.03.03c.49.83.48,1.54-.26,2.51-.86,1.13-1.64,1.88-1.49,2.23l-.07.07-1.42-1.33c-.11-.25.64-1.09,1.31-1.93.68-.85.66-1.72-.26-2.58l-1.19-1.12-2.75,2.93-1.48-1.39,6.84-7.3ZM184.24,32.06l1.57,1.47c.81.76,1.6.71,2.14.13.55-.59.59-1.39-.2-2.12l-1.61-1.51-1.91,2.03Z"/>
    <path class="cls-2" d="M192.74,41.46c2.35-1.86,5.26-1.77,7.09.54,1.83,2.31,1.25,5.16-1.1,7.02-2.35,1.86-5.24,1.77-7.07-.54-1.83-2.32-1.26-5.16,1.08-7.02ZM197.44,47.39c1.57-1.24,2.23-2.91,1.09-4.35s-2.94-1.21-4.51.03c-1.56,1.23-2.2,2.93-1.06,4.37,1.14,1.44,2.91,1.17,4.47-.06Z"/>
    <path class="cls-2" d="M206.97,52.42l3.59,6.21-1.49.86-2.57-4.45-2.09,1.21,2.18,3.77-1.5.87-2.18-3.77-3.59,2.07-1.02-1.76,8.67-5.01Z"/>
    <path class="cls-2" d="M213.98,65.66l2.76,6.83-1.58.64-2-4.94-2.08.84,1.76,4.33-1.54.63-1.75-4.33-2.5,1.01,2.02,4.98-1.57.64-2.78-6.86,9.28-3.76Z"/>
    <path class="cls-2" d="M212.37,81.26l.48,1.93c-1.13.43-1.43,1.21-1.09,2.59.25,1.01.82,1.8,1.72,1.58.95-.24.91-1.21.88-2.77-.04-1.84.03-3.54,2.05-4.04,1.92-.48,3.29.84,3.83,3,.54,2.19-.18,3.87-2.1,4.5l-.47-1.89c.95-.35,1.25-1.23,1-2.24-.26-1.06-.88-1.64-1.58-1.47-.79.2-.85.93-.8,2.45.06,2.11,0,3.85-2.1,4.37-1.97.49-3.46-.83-4.01-3.01-.66-2.64.14-4.42,2.17-5Z"/>
    <path class="cls-2" d="M215.48,95.67l.2,1.98c-1.18.26-1.59.99-1.45,2.41.1,1.03.56,1.9,1.48,1.81.98-.1,1.08-1.07,1.27-2.62.22-1.82.53-3.5,2.61-3.71,1.97-.2,3.14,1.3,3.37,3.52.23,2.24-.73,3.8-2.72,4.16l-.19-1.94c.99-.21,1.42-1.04,1.31-2.07-.11-1.09-.64-1.75-1.35-1.68-.81.08-.98.8-1.15,2.31-.24,2.09-.56,3.81-2.71,4.03-2.02.2-3.31-1.31-3.54-3.56-.27-2.7.77-4.36,2.87-4.64Z"/>
    <path class="cls-2" d="M223.34,110.86l-.03,2.03-10.01-.14.03-2.03,10.01.14Z"/>
    <path class="cls-2" d="M217.99,119.86c2.97.41,4.92,2.57,4.52,5.49-.4,2.93-2.86,4.47-5.83,4.07-2.97-.41-4.91-2.55-4.51-5.48.4-2.93,2.85-4.49,5.81-4.08ZM216.97,127.36c1.98.27,3.64-.41,3.89-2.22.25-1.82-1.16-2.96-3.15-3.23-1.97-.27-3.64.45-3.88,2.27-.25,1.82,1.17,2.92,3.14,3.18Z"/>
    <path class="cls-2" d="M219.94,137.78l-.59,1.97-6.3,1.6c-.62.15-1.54.27-1.54.27v.03s1,.24,1.67.44l5.03,1.5-.57,1.92-9.59-2.86.56-1.88,6.27-1.69c.6-.16,1.53-.29,1.53-.29v-.03s-1.01-.25-1.68-.45l-4.95-1.48.57-1.92,9.59,2.86Z"/>
    <path class="cls-2" d="M213.53,155.73l-.89,1.9-10.56-1.04.89-1.92,2.21.29,1.53-3.27-1.65-1.5.87-1.86,7.59,7.39ZM207.92,152.78l-1.12,2.4,2.99.41c.55.07,1.57.28,1.57.28v-.03s-.79-.65-1.21-1.03l-2.23-2.03Z"/>
    <path class="cls-2" d="M207.42,167.34l-1.1,1.7-6.98-4.52-2.56,3.95-1.42-.92,3.66-5.65,8.4,5.44Z"/>
  </g>
  <rect class="cls-1" x="23.06" y="92.38" width="180.8" height="35.7"/>
  <g>
    <path class="cls-2" d="M70.52,90.24l10.12,28.96c.54,1.5,1.04,2.59,1.51,3.26.47.67.93,1.1,1.37,1.27.44.18.99.29,1.66.36v.37h-11.04v-.37c1.13,0,2-.11,2.62-.32.61-.21.92-.79.92-1.74,0-.52-.15-1.22-.44-2.09-.06-.12-.09-.21-.09-.28l-3.01-8.97h-11.7l-2.69,8.31c-.37,1.13-.55,2.04-.55,2.73,0,.95.24,1.58.71,1.89.47.31,1.15.47,2.02.47v.37h-7.94v-.37c1.13-.11,2.04-.54,2.72-1.3.68-.76,1.27-1.91,1.78-3.45l9.55-29.1h2.48ZM62.83,109.47h10.76l-5.51-16.04h-.09l-5.16,16.04Z"/>
    <path class="cls-2" d="M87.55,91.04v-.39h11.08c1.85,0,3.48.25,4.9.76s2.59,1.19,3.53,2.07c.94.87,1.64,1.86,2.11,2.95s.7,2.25.7,3.45-.22,2.31-.65,3.41c-.44,1.09-1.12,2.07-2.05,2.92s-2.16,1.53-3.67,2.03-3.26.76-5.23.76c-.63,0-1.84-.09-3.63-.28v11.66c0,2.4,1.22,3.64,3.67,3.72v.37h-10.76v-.37c1.06-.03,1.92-.33,2.6-.91.68-.57,1.02-1.51,1.02-2.81v-25.57c0-.78-.12-1.43-.37-1.95-.25-.52-.53-.89-.86-1.11s-.7-.39-1.1-.49c-.41-.11-.69-.18-.84-.21h-.46ZM94.64,91.85v15.93c1.18.21,2.34.32,3.49.32,2.19,0,4.04-.56,5.57-1.69,1.52-1.12,2.28-3.21,2.28-6.25,0-2.51-.67-4.57-2.01-6.19-1.34-1.61-3.37-2.42-6.09-2.42-1.06,0-2.13.1-3.24.3Z"/>
    <path class="cls-2" d="M112.98,91.04v-.39h13.01c1.82,0,3.5.16,5.04.47,1.54.31,2.92.73,4.13,1.25,1.22.52,2.27,1.09,3.16,1.71.89.62,1.64,1.25,2.25,1.89,1.07,1.07,1.98,2.26,2.73,3.57.75,1.31,1.31,2.69,1.69,4.14.37,1.45.56,2.95.56,4.5s-.18,3.01-.55,4.41c-.37,1.39-.89,2.68-1.58,3.87s-1.51,2.26-2.47,3.22c-.96.96-2.07,1.84-3.34,2.62-1.09.64-2.33,1.16-3.74,1.56-1.41.4-3.31.6-5.71.6h-15.17v-.37h.46c1.06,0,1.84-.4,2.36-1.19.52-.79.78-1.64.78-2.52v-25.52c0-.86-.14-1.58-.42-2.16s-.66-1-1.14-1.26c-.47-.26-1-.39-1.58-.39h-.46ZM120.07,92.26v26.78c0,1.32.21,2.28.63,2.9.42.62,1.07,1.02,1.96,1.2s2.19.28,3.9.28c2.45,0,4.51-.24,6.2-.72,1.68-.48,3.31-1.56,4.89-3.22,1.16-1.24,2.1-2.75,2.8-4.54s1.06-3.96,1.06-6.5c0-2-.28-3.99-.85-5.96-.57-1.97-1.43-3.71-2.59-5.24-1.3-1.73-2.97-3.08-5.01-4.06-2.04-.98-4.5-1.47-7.38-1.47-1.48,0-3.35.18-5.6.55Z"/>
    <path class="cls-2" d="M149.72,91.04v-.39h11.08c1.85,0,3.48.25,4.9.76s2.59,1.19,3.53,2.07c.94.87,1.64,1.86,2.11,2.95s.7,2.25.7,3.45-.22,2.31-.65,3.41c-.44,1.09-1.12,2.07-2.05,2.92s-2.16,1.53-3.67,2.03-3.26.76-5.23.76c-.63,0-1.84-.09-3.63-.28v11.66c0,2.4,1.22,3.64,3.67,3.72v.37h-10.76v-.37c1.06-.03,1.92-.33,2.6-.91.68-.57,1.02-1.51,1.02-2.81v-25.57c0-.78-.12-1.43-.37-1.95-.25-.52-.53-.89-.86-1.11s-.7-.39-1.1-.49c-.41-.11-.69-.18-.84-.21h-.46ZM156.81,91.85v15.93c1.18.21,2.34.32,3.49.32,2.19,0,4.04-.56,5.57-1.69,1.52-1.12,2.28-3.21,2.28-6.25,0-2.51-.67-4.57-2.01-6.19-1.34-1.61-3.37-2.42-6.09-2.42-1.06,0-2.13.1-3.24.3Z"/>
  </g>
</svg>