<?xml version="1.0" encoding="UTF-8"?>
<svg id="IEWP" xmlns="http://www.w3.org/2000/svg" viewBox="0 0 223 227">
  <defs>
    <style>
      .cls-1 {
        isolation: isolate;
      }

      .cls-2 {
        fill: none;
      }

      .cls-2, .cls-3 {
        stroke-width: 0px;
      }

      .cls-3 {
        fill: #faf0b6;
      }
    </style>
  </defs>
  <g>
    <path class="cls-3" d="M132.75,30.94v.31c3.38.95,6.7,2.12,9.96,3.51,9.74,4.16,18.48,10.1,25.98,17.65,7.5,7.55,13.37,16.33,17.46,26.11,4.23,10.12,6.36,20.85,6.32,31.91-.04,11.03-2.24,21.73-6.53,31.8-4.14,9.72-10.06,18.45-17.58,25.94-7.52,7.49-16.27,13.37-26.01,17.48-10.08,4.25-20.78,6.41-31.8,6.41h-.31c-11.06-.04-21.78-2.25-31.87-6.56-9.74-4.16-18.48-10.1-25.98-17.65-7.5-7.55-13.37-16.33-17.46-26.11-4.23-10.12-6.36-20.85-6.32-31.91.04-11.03,2.24-21.73,6.53-31.8,4.14-9.72,10.06-18.45,17.58-25.94,7.52-7.49,16.27-13.37,26.01-17.48,3.14-1.33,6.35-2.45,9.6-3.36v-.3c-34.51,9.66-59.88,41.28-60.02,78.89-.17,45.41,36.51,82.36,81.92,82.53.11,0,.2,0,.31,0,45.27,0,82.05-36.62,82.22-81.92.14-37.82-25.28-69.77-60.02-79.49Z"/>
    <path class="cls-3" d="M27.05,109.39c1.34,1.25,1.8,2.53,1.35,2.78s-1.54-.4-2.66-1.94c-1.12-1.54-1.33-2.73-1.33-2.73,0,0,1.27.6,2.64,1.89Z"/>
    <path class="cls-3" d="M29.69,109.55c-1.28,1.16-1.7,2.37-1.25,2.62.44.25,1.5-.34,2.56-1.78,1.06-1.44,1.24-2.57,1.24-2.57,0,0-1.23.54-2.55,1.73Z"/>
    <path class="cls-3" d="M27.13,113.76c1.4,1.18,1.93,2.43,1.5,2.71s-1.56-.32-2.76-1.8c-1.2-1.48-1.48-2.65-1.48-2.65,0,0,1.3.54,2.74,1.75Z"/>
    <path class="cls-3" d="M29.77,113.78c-1.22,1.23-1.57,2.45-1.11,2.68.46.23,1.48-.42,2.47-1.92s1.1-2.63,1.1-2.63c0,0-1.2.61-2.45,1.87Z"/>
    <path class="cls-3" d="M27.43,118.13c1.46,1.11,2.05,2.32,1.63,2.62s-1.57-.24-2.85-1.65c-1.28-1.41-1.61-2.57-1.61-2.57,0,0,1.33.47,2.83,1.6Z"/>
    <path class="cls-3" d="M30.07,118.01c-1.15,1.29-1.44,2.53-.97,2.74.47.21,1.46-.5,2.36-2.04.91-1.54.96-2.69.96-2.69,0,0-1.17.67-2.35,1.99Z"/>
    <path class="cls-3" d="M27.97,122.46c1.52,1.03,2.17,2.21,1.77,2.53-.4.32-1.58-.16-2.93-1.5-1.35-1.34-1.74-2.49-1.74-2.49,0,0,1.35.4,2.91,1.45Z"/>
    <path class="cls-3" d="M30.6,122.21c-1.08,1.35-1.31,2.6-.83,2.79.48.18,1.43-.57,2.25-2.16.82-1.59.82-2.73.82-2.73,0,0-1.13.73-2.24,2.11Z"/>
    <path class="cls-3" d="M28.73,126.77c1.57.95,2.28,2.1,1.9,2.44-.38.34-1.59-.07-3.01-1.35-1.42-1.27-1.87-2.39-1.87-2.39,0,0,1.37.33,2.98,1.3Z"/>
    <path class="cls-3" d="M31.34,126.37c-1.01,1.4-1.17,2.67-.68,2.83.49.16,1.4-.65,2.14-2.28.74-1.63.67-2.77.67-2.77,0,0-1.09.79-2.13,2.23Z"/>
    <path class="cls-3" d="M29.71,131.03c1.62.87,2.39,1.97,2.02,2.34-.36.36-1.59,0-3.07-1.19-1.48-1.2-1.99-2.29-1.99-2.29,0,0,1.38.25,3.04,1.14Z"/>
    <path class="cls-3" d="M32.3,130.5c-.94,1.46-1.03,2.73-.53,2.86.5.13,1.36-.72,2.01-2.39.65-1.67.53-2.81.53-2.81,0,0-1.05.84-2.01,2.33Z"/>
    <path class="cls-3" d="M30.91,135.23c1.66.78,2.49,1.85,2.14,2.23-.35.38-1.59.09-3.13-1.02-1.54-1.12-2.11-2.18-2.11-2.18,0,0,1.4.18,3.1.98Z"/>
    <path class="cls-3" d="M33.47,134.56c-.86,1.5-.88,2.78-.38,2.88.5.11,1.32-.79,1.89-2.49.57-1.7.38-2.83.38-2.83,0,0-1.01.9-1.89,2.44Z"/>
    <path class="cls-3" d="M32.34,139.36c1.7.69,2.58,1.71,2.26,2.11-.32.4-1.58.18-3.18-.86-1.6-1.03-2.22-2.07-2.22-2.07,0,0,1.4.11,3.15.82Z"/>
    <path class="cls-3" d="M34.85,138.56c-.78,1.55-.74,2.82-.23,2.9s1.28-.86,1.75-2.58c.48-1.73.23-2.85.23-2.85,0,0-.96.95-1.76,2.53Z"/>
    <path class="cls-3" d="M33.97,143.41c1.73.6,2.67,1.58,2.37,1.99-.3.41-1.57.26-3.22-.69-1.65-.95-2.33-1.95-2.33-1.95,0,0,1.41.03,3.18.65Z"/>
    <path class="cls-3" d="M36.45,142.49c-.7,1.58-.59,2.85-.08,2.9.51.05,1.23-.92,1.61-2.67.38-1.75.08-2.85.08-2.85,0,0-.91,1-1.62,2.62Z"/>
    <path class="cls-3" d="M35.82,147.38c1.76.51,2.75,1.43,2.47,1.86-.28.43-1.55.34-3.25-.52-1.7-.86-2.43-1.82-2.43-1.82,0,0,1.41-.04,3.21.48Z"/>
    <path class="cls-3" d="M38.24,146.32c-.61,1.62-.44,2.88.07,2.9s1.18-.99,1.47-2.75c.29-1.77-.07-2.85-.07-2.85,0,0-.85,1.04-1.48,2.7Z"/>
    <path class="cls-3" d="M37.87,151.24c1.79.42,2.82,1.29,2.56,1.73-.26.44-1.53.42-3.28-.35-1.74-.77-2.52-1.7-2.52-1.7,0,0,1.4-.11,3.23.31Z"/>
    <path class="cls-3" d="M40.23,150.05c-.53,1.65-.29,2.9.23,2.9.51,0,1.13-1.05,1.33-2.83.2-1.78-.22-2.85-.22-2.85,0,0-.8,1.09-1.34,2.78Z"/>
    <path class="cls-3" d="M40.12,154.98c1.81.32,2.88,1.14,2.65,1.6s-1.51.5-3.29-.18c-1.78-.68-2.6-1.56-2.6-1.56,0,0,1.4-.19,3.25.14Z"/>
    <path class="cls-3" d="M42.42,153.68c-.44,1.67-.13,2.91.38,2.88.51-.03,1.07-1.1,1.18-2.89s-.36-2.83-.36-2.83c0,0-.74,1.13-1.19,2.84Z"/>
    <path class="cls-3" d="M42.57,158.61c1.82.23,2.94.99,2.73,1.45-.21.47-1.48.58-3.29,0s-2.68-1.42-2.68-1.42c0,0,1.38-.26,3.25-.03Z"/>
    <path class="cls-3" d="M44.79,157.18c-.35,1.69.02,2.91.53,2.86.51-.06,1.01-1.16,1.02-2.95.01-1.79-.51-2.81-.51-2.81,0,0-.68,1.16-1.04,2.9Z"/>
    <path class="cls-3" d="M45.2,162.1c1.83.13,2.99.83,2.8,1.31-.19.48-1.45.65-3.29.17-1.84-.49-2.75-1.28-2.75-1.28,0,0,1.37-.33,3.24-.2Z"/>
    <path class="cls-3" d="M47.35,160.56c-.26,1.71.17,2.91.68,2.83.51-.08.95-1.21.87-3-.08-1.79-.66-2.78-.66-2.78,0,0-.62,1.2-.89,2.95Z"/>
    <path class="cls-3" d="M48.01,165.45c1.84.04,3.03.67,2.86,1.16s-1.41.73-3.28.34c-1.87-.39-2.82-1.13-2.82-1.13,0,0,1.35-.4,3.23-.37Z"/>
    <path class="cls-3" d="M50.07,163.8c-.17,1.72.32,2.89.82,2.79s.88-1.26.71-3.04c-.17-1.78-.8-2.74-.8-2.74,0,0-.55,1.23-.73,2.99Z"/>
    <path class="cls-3" d="M50.99,168.64c1.83-.06,3.06.52,2.92,1.01-.14.49-1.37.8-3.25.51s-2.87-.99-2.87-.99c0,0,1.33-.47,3.21-.53Z"/>
    <path class="cls-3" d="M52.96,166.89c-.08,1.73.47,2.87.97,2.74.49-.13.82-1.3.55-3.07-.27-1.77-.94-2.69-.94-2.69,0,0-.49,1.26-.57,3.03Z"/>
    <path class="cls-3" d="M54.13,171.68c1.83-.16,3.08.35,2.97.86-.11.5-1.33.87-3.22.68-1.9-.19-2.92-.83-2.92-.83,0,0,1.3-.54,3.17-.7Z"/>
    <path class="cls-3" d="M56.01,169.83c0,1.73.62,2.84,1.11,2.68.49-.16.75-1.34.39-3.1-.36-1.75-1.08-2.64-1.08-2.64,0,0-.42,1.28-.41,3.05Z"/>
    <path class="cls-3" d="M57.43,174.55c1.82-.25,3.09.19,3.01.7-.08.51-1.28.94-3.18.85-1.9-.09-2.96-.68-2.96-.68,0,0,1.27-.61,3.13-.87Z"/>
    <path class="cls-3" d="M59.21,172.6c.1,1.73.77,2.81,1.25,2.62.48-.19.68-1.38.23-3.11-.45-1.73-1.22-2.58-1.22-2.58,0,0-.35,1.3-.25,3.07Z"/>
    <path class="cls-3" d="M60.88,177.24c1.8-.35,3.1.03,3.04.54-.06.51-1.23,1.01-3.13,1.01-1.91,0-2.99-.52-2.99-.52,0,0,1.24-.67,3.08-1.03Z"/>
    <path class="cls-3" d="M62.55,175.2c.19,1.72.92,2.76,1.39,2.55.47-.21.6-1.41.06-3.12-.54-1.71-1.35-2.51-1.35-2.51,0,0-.29,1.32-.09,3.08Z"/>
    <path class="cls-3" d="M64.46,179.74c1.78-.44,3.1-.13,3.07.38-.03.51-1.17,1.07-3.08,1.17-1.9.1-3.01-.37-3.01-.37,0,0,1.2-.74,3.02-1.19Z"/>
    <path class="cls-3" d="M66.02,177.62c.28,1.71,1.06,2.71,1.52,2.48.46-.23.53-1.44-.1-3.12-.63-1.68-1.48-2.44-1.48-2.44,0,0-.22,1.33.07,3.08Z"/>
    <path class="cls-3" d="M68.16,182.06c1.76-.53,3.09-.29,3.08.22s-1.12,1.13-3.01,1.33c-1.89.2-3.03-.21-3.03-.21,0,0,1.16-.8,2.96-1.35Z"/>
    <path class="cls-3" d="M69.62,179.86c.37,1.69,1.2,2.65,1.64,2.4.44-.26.45-1.47-.26-3.11-.72-1.64-1.61-2.36-1.61-2.36,0,0-.15,1.34.23,3.07Z"/>
    <path class="cls-3" d="M71.99,184.18c1.73-.62,3.07-.45,3.09.06s-1.06,1.19-2.94,1.49c-1.88.3-3.04-.05-3.04-.05,0,0,1.12-.86,2.88-1.5Z"/>
    <path class="cls-3" d="M73.32,181.9c.45,1.67,1.34,2.59,1.77,2.31.43-.28.38-1.49-.43-3.09-.8-1.6-1.73-2.27-1.73-2.27,0,0-.08,1.34.39,3.06Z"/>
    <path class="cls-3" d="M75.91,186.1c1.69-.71,3.04-.61,3.09-.1.05.51-.99,1.24-2.86,1.64-1.86.4-3.03.11-3.03.11,0,0,1.07-.92,2.8-1.65Z"/>
    <path class="cls-3" d="M77.13,183.75c.54,1.64,1.47,2.51,1.89,2.21s.3-1.51-.59-3.07c-.88-1.56-1.85-2.18-1.85-2.18,0,0,0,1.35.55,3.03Z"/>
    <path class="cls-3" d="M79.94,187.8c1.65-.8,3-.77,3.08-.27.08.51-.93,1.29-2.77,1.79-1.84.5-3.02.27-3.02.27,0,0,1.02-.97,2.71-1.79Z"/>
    <path class="cls-3" d="M81.03,185.4c.63,1.61,1.6,2.43,2,2.11.4-.32.22-1.52-.75-3.03-.96-1.51-1.96-2.08-1.96-2.08,0,0,.06,1.35.71,3Z"/>
    <path class="cls-3" d="M84.05,189.3c1.61-.89,2.96-.93,3.06-.43.1.5-.86,1.34-2.67,1.93-1.81.59-3.01.43-3.01.43,0,0,.97-1.02,2.61-1.93Z"/>
    <path class="cls-3" d="M85.01,186.84c.71,1.58,1.73,2.35,2.11,2s.14-1.53-.9-2.99c-1.04-1.46-2.06-1.97-2.06-1.97,0,0,.13,1.34.86,2.96Z"/>
    <path class="cls-3" d="M88.23,190.58c1.56-.97,2.91-1.08,3.03-.59.13.5-.79,1.38-2.56,2.07-1.78.69-2.98.58-2.98.58,0,0,.91-1.07,2.51-2.06Z"/>
    <path class="cls-3" d="M89.06,188.07c.79,1.54,1.85,2.25,2.21,1.89.36-.36.06-1.54-1.06-2.94-1.12-1.4-2.17-1.86-2.17-1.86,0,0,.2,1.33,1.02,2.91Z"/>
    <path class="cls-3" d="M92.47,191.64c1.51-1.05,2.84-1.23,3-.74.16.49-.71,1.42-2.45,2.2-1.74.78-2.95.74-2.95.74,0,0,.85-1.12,2.4-2.19Z"/>
    <path class="cls-3" d="M93.17,189.09c.87,1.5,1.96,2.15,2.3,1.77s-.02-1.54-1.21-2.88c-1.19-1.34-2.26-1.74-2.26-1.74,0,0,.27,1.32,1.17,2.85Z"/>
    <path class="cls-3" d="M96.76,192.47c1.45-1.13,2.78-1.38,2.96-.9.18.48-.64,1.46-2.33,2.32-1.7.87-2.9.89-2.9.89,0,0,.8-1.16,2.28-2.32Z"/>
    <path class="cls-3" d="M97.33,189.89c.95,1.45,2.07,2.05,2.39,1.65.32-.4-.1-1.53-1.36-2.81-1.26-1.28-2.35-1.62-2.35-1.62,0,0,.34,1.3,1.31,2.79Z"/>
    <path class="cls-3" d="M101.09,193.08c1.39-1.2,2.7-1.52,2.91-1.05.21.47-.56,1.49-2.21,2.44-1.65.96-2.85,1.04-2.85,1.04,0,0,.73-1.2,2.15-2.43Z"/>
    <path class="cls-3" d="M101.52,190.47c1.02,1.4,2.18,1.93,2.48,1.52.3-.42-.18-1.53-1.51-2.73s-2.43-1.5-2.43-1.5c0,0,.41,1.28,1.46,2.71Z"/>
    <path class="cls-3" d="M105.44,193.46c1.32-1.27,2.62-1.66,2.85-1.2.23.46-.48,1.51-2.08,2.56s-2.79,1.19-2.79,1.19c0,0,.67-1.24,2.02-2.54Z"/>
    <path class="cls-3" d="M105.74,190.84c1.09,1.34,2.28,1.82,2.55,1.39.28-.43-.26-1.52-1.65-2.65-1.38-1.14-2.5-1.37-2.5-1.37,0,0,.48,1.26,1.6,2.63Z"/>
    <path class="cls-3" d="M89.64,29.3c-.87,1.62-1.97,2.39-2.34,2.02-.36-.36,0-1.59,1.19-3.07,1.2-1.48,2.29-1.99,2.29-1.99,0,0-.25,1.38-1.14,3.04Z"/>
    <path class="cls-3" d="M90.17,31.88c-1.46-.94-2.73-1.03-2.86-.53-.13.5.72,1.36,2.39,2.01,1.67.65,2.81.53,2.81.53,0,0-.84-1.05-2.33-2.01Z"/>
    <path class="cls-3" d="M85.44,30.5c-.78,1.66-1.85,2.49-2.23,2.14-.38-.35-.09-1.59,1.02-3.13,1.12-1.54,2.18-2.11,2.18-2.11,0,0-.18,1.4-.98,3.1Z"/>
    <path class="cls-3" d="M86.1,33.06c-1.5-.86-2.78-.88-2.88-.38-.11.5.79,1.32,2.49,1.89,1.7.57,2.83.38,2.83.38,0,0-.9-1.01-2.44-1.89Z"/>
    <path class="cls-3" d="M81.3,31.92c-.69,1.7-1.71,2.58-2.11,2.26-.4-.32-.18-1.58.86-3.18,1.03-1.6,2.07-2.22,2.07-2.22,0,0-.11,1.4-.82,3.15Z"/>
    <path class="cls-3" d="M82.1,34.44c-1.55-.78-2.82-.74-2.9-.23-.08.51.86,1.28,2.58,1.75,1.73.48,2.85.23,2.85.23,0,0-.95-.96-2.53-1.76Z"/>
    <path class="cls-3" d="M77.25,33.56c-.6,1.73-1.58,2.67-1.99,2.37-.41-.3-.26-1.57.69-3.22.95-1.65,1.95-2.33,1.95-2.33,0,0-.03,1.41-.65,3.18Z"/>
    <path class="cls-3" d="M78.18,36.03c-1.58-.7-2.85-.59-2.9-.08-.05.51.92,1.23,2.67,1.61,1.75.38,2.85.08,2.85.08,0,0-1-.91-2.62-1.62Z"/>
    <path class="cls-3" d="M73.29,35.41c-.51,1.76-1.43,2.75-1.86,2.47-.43-.28-.34-1.55.52-3.25.86-1.7,1.82-2.43,1.82-2.43,0,0,.04,1.41-.48,3.21Z"/>
    <path class="cls-3" d="M74.35,37.83c-1.62-.61-2.88-.44-2.9.07-.03.51.99,1.18,2.75,1.47,1.77.29,2.85-.07,2.85-.07,0,0-1.04-.85-2.7-1.48Z"/>
    <path class="cls-3" d="M69.43,37.46c-.42,1.79-1.29,2.82-1.73,2.56-.44-.26-.42-1.53.35-3.28.77-1.74,1.7-2.52,1.7-2.52,0,0,.11,1.4-.31,3.23Z"/>
    <path class="cls-3" d="M70.61,39.82c-1.65-.53-2.9-.29-2.9.23,0,.51,1.05,1.13,2.83,1.33,1.78.2,2.85-.22,2.85-.22,0,0-1.09-.8-2.78-1.34Z"/>
    <path class="cls-3" d="M65.68,39.71c-.32,1.81-1.14,2.88-1.6,2.65s-.5-1.51.18-3.29c.68-1.78,1.56-2.6,1.56-2.6,0,0,.19,1.4-.14,3.25Z"/>
    <path class="cls-3" d="M66.99,42.01c-1.67-.44-2.91-.13-2.88.38.03.51,1.1,1.07,2.89,1.18,1.79.11,2.83-.36,2.83-.36,0,0-1.13-.74-2.84-1.19Z"/>
    <path class="cls-3" d="M62.06,42.15c-.23,1.82-.99,2.94-1.45,2.73-.47-.21-.58-1.48,0-3.29.58-1.81,1.42-2.68,1.42-2.68,0,0,.26,1.38.03,3.25Z"/>
    <path class="cls-3" d="M63.48,44.38c-1.69-.35-2.91.02-2.86.53s1.16,1.01,2.95,1.02,2.81-.51,2.81-.51c0,0-1.16-.68-2.9-1.04Z"/>
    <path class="cls-3" d="M58.57,44.78c-.13,1.83-.83,2.99-1.31,2.8-.48-.19-.65-1.45-.17-3.29.49-1.84,1.28-2.75,1.28-2.75,0,0,.33,1.37.2,3.24Z"/>
    <path class="cls-3" d="M60.1,46.93c-1.71-.26-2.91.17-2.83.68.08.51,1.21.95,3,.87s2.78-.66,2.78-.66c0,0-1.2-.62-2.95-.89Z"/>
    <path class="cls-3" d="M55.22,47.59c-.04,1.84-.67,3.03-1.16,2.86-.49-.16-.73-1.41-.34-3.28.39-1.87,1.13-2.82,1.13-2.82,0,0,.4,1.35.37,3.23Z"/>
    <path class="cls-3" d="M56.87,49.66c-1.72-.17-2.89.32-2.79.82s1.26.88,3.04.71c1.78-.17,2.74-.8,2.74-.8,0,0-1.23-.55-2.99-.73Z"/>
    <path class="cls-3" d="M52.02,50.58c.06,1.83-.52,3.06-1.01,2.92s-.8-1.37-.51-3.25c.29-1.88.99-2.87.99-2.87,0,0,.47,1.33.53,3.21Z"/>
    <path class="cls-3" d="M53.78,52.55c-1.73-.08-2.87.47-2.74.97s1.3.82,3.07.55c1.77-.27,2.69-.94,2.69-.94,0,0-1.26-.49-3.03-.57Z"/>
    <path class="cls-3" d="M48.99,53.72c.16,1.83-.35,3.08-.86,2.97-.5-.11-.87-1.33-.68-3.22.19-1.9.83-2.92.83-2.92,0,0,.54,1.3.7,3.17Z"/>
    <path class="cls-3" d="M50.84,55.6c-1.73,0-2.84.62-2.68,1.11.16.49,1.34.75,3.1.39s2.64-1.08,2.64-1.08c0,0-1.28-.42-3.05-.41Z"/>
    <path class="cls-3" d="M46.12,57.02c.25,1.82-.19,3.09-.7,3.01-.51-.08-.94-1.28-.85-3.18.09-1.9.68-2.96.68-2.96,0,0,.61,1.27.87,3.13Z"/>
    <path class="cls-3" d="M48.07,58.8c-1.73.1-2.81.77-2.62,1.25.19.48,1.38.68,3.11.23,1.73-.45,2.58-1.22,2.58-1.22,0,0-1.3-.35-3.07-.25Z"/>
    <path class="cls-3" d="M43.43,60.46c.35,1.8-.03,3.1-.54,3.04-.51-.06-1.01-1.23-1.01-3.13s.52-2.99.52-2.99c0,0,.67,1.24,1.03,3.08Z"/>
    <path class="cls-3" d="M45.47,62.14c-1.72.19-2.76.92-2.55,1.39.21.47,1.41.6,3.12.06,1.71-.54,2.51-1.35,2.51-1.35,0,0-1.32-.29-3.08-.09Z"/>
    <path class="cls-3" d="M40.92,64.04c.44,1.78.13,3.1-.38,3.07s-1.07-1.17-1.17-3.08c-.1-1.9.37-3.01.37-3.01,0,0,.74,1.2,1.19,3.02Z"/>
    <path class="cls-3" d="M43.05,65.61c-1.71.28-2.71,1.06-2.48,1.52.23.46,1.44.53,3.12-.1,1.68-.63,2.44-1.48,2.44-1.48,0,0-1.33-.22-3.08.07Z"/>
    <path class="cls-3" d="M38.6,67.75c.53,1.76.29,3.09-.22,3.08-.51,0-1.13-1.12-1.33-3.01-.2-1.89.21-3.03.21-3.03,0,0,.8,1.16,1.35,2.96Z"/>
    <path class="cls-3" d="M40.81,69.2c-1.69.37-2.65,1.2-2.4,1.64s1.47.45,3.11-.26c1.64-.72,2.36-1.61,2.36-1.61,0,0-1.34-.15-3.07.23Z"/>
    <path class="cls-3" d="M36.49,71.57c.62,1.73.45,3.07-.06,3.09-.51.02-1.19-1.06-1.49-2.94-.3-1.88.05-3.04.05-3.04,0,0,.86,1.12,1.5,2.88Z"/>
    <path class="cls-3" d="M38.76,72.91c-1.67.45-2.59,1.34-2.31,1.77.28.43,1.49.38,3.09-.43,1.6-.8,2.27-1.73,2.27-1.73,0,0-1.34-.08-3.06.39Z"/>
    <path class="cls-3" d="M34.57,75.5c.71,1.69.61,3.04.1,3.09-.51.05-1.24-.99-1.64-2.86-.4-1.86-.11-3.03-.11-3.03,0,0,.92,1.07,1.65,2.8Z"/>
    <path class="cls-3" d="M36.91,76.72c-1.64.54-2.51,1.47-2.21,1.89s1.51.3,3.07-.59c1.56-.88,2.18-1.85,2.18-1.85,0,0-1.35,0-3.03.55Z"/>
    <path class="cls-3" d="M32.86,79.52c.8,1.65.77,3,.27,3.08s-1.29-.93-1.79-2.77c-.5-1.84-.27-3.02-.27-3.02,0,0,.97,1.02,1.79,2.71Z"/>
    <path class="cls-3" d="M35.27,80.62c-1.61.63-2.43,1.6-2.11,2,.32.4,1.52.22,3.03-.75,1.51-.96,2.08-1.96,2.08-1.96,0,0-1.35.06-3,.71Z"/>
    <path class="cls-3" d="M31.37,83.63c.89,1.61.93,2.96.43,3.06-.5.1-1.34-.86-1.93-2.67-.59-1.81-.43-3.01-.43-3.01,0,0,1.02.97,1.93,2.61Z"/>
    <path class="cls-3" d="M33.82,84.6c-1.58.71-2.35,1.73-2,2.11.34.38,1.53.14,2.99-.9,1.46-1.04,1.97-2.06,1.97-2.06,0,0-1.34.13-2.96.86Z"/>
    <path class="cls-3" d="M30.09,87.81c.97,1.56,1.08,2.91.59,3.03-.5.13-1.38-.79-2.07-2.56-.69-1.78-.58-2.98-.58-2.98,0,0,1.07.91,2.06,2.51Z"/>
    <path class="cls-3" d="M32.59,88.65c-1.54.79-2.25,1.85-1.89,2.21.36.36,1.54.06,2.94-1.06,1.4-1.12,1.86-2.17,1.86-2.17,0,0-1.33.2-2.91,1.02Z"/>
    <path class="cls-3" d="M29.03,92.05c1.05,1.51,1.23,2.84.74,3-.49.16-1.42-.71-2.2-2.45-.78-1.74-.74-2.95-.74-2.95,0,0,1.12.85,2.19,2.4Z"/>
    <path class="cls-3" d="M31.58,92.75c-1.5.87-2.15,1.96-1.77,2.3.38.34,1.54-.02,2.88-1.21,1.34-1.19,1.74-2.26,1.74-2.26,0,0-1.32.27-2.85,1.17Z"/>
    <path class="cls-3" d="M28.2,96.34c1.13,1.45,1.38,2.78.9,2.96-.48.18-1.46-.64-2.32-2.33-.87-1.7-.89-2.9-.89-2.9,0,0,1.16.8,2.32,2.28Z"/>
    <path class="cls-3" d="M30.77,96.91c-1.45.95-2.05,2.07-1.65,2.39.4.32,1.53-.1,2.81-1.36,1.28-1.26,1.62-2.35,1.62-2.35,0,0-1.3.34-2.79,1.31Z"/>
    <path class="cls-3" d="M27.59,100.67c1.2,1.39,1.52,2.7,1.05,2.91-.47.21-1.49-.56-2.44-2.21-.96-1.65-1.04-2.85-1.04-2.85,0,0,1.2.73,2.43,2.15Z"/>
    <path class="cls-3" d="M30.19,101.1c-1.4,1.02-1.93,2.18-1.52,2.48.42.3,1.53-.18,2.73-1.51,1.21-1.32,1.5-2.43,1.5-2.43,0,0-1.28.41-2.71,1.46Z"/>
    <path class="cls-3" d="M27.21,105.03c1.27,1.32,1.66,2.62,1.2,2.85-.46.23-1.51-.48-2.56-2.08-1.04-1.6-1.19-2.79-1.19-2.79,0,0,1.24.67,2.54,2.02Z"/>
    <path class="cls-3" d="M29.83,105.32c-1.34,1.09-1.82,2.28-1.39,2.55.43.28,1.52-.26,2.65-1.65,1.14-1.38,1.37-2.5,1.37-2.5,0,0-1.26.48-2.63,1.6Z"/>
    <path class="cls-3" d="M193.92,109.39c-1.34,1.25-1.8,2.53-1.35,2.78s1.54-.4,2.66-1.94c1.12-1.54,1.33-2.73,1.33-2.73,0,0-1.27.6-2.64,1.89Z"/>
    <path class="cls-3" d="M191.29,109.55c1.28,1.16,1.7,2.37,1.25,2.62-.44.25-1.5-.34-2.56-1.78-1.06-1.44-1.24-2.57-1.24-2.57,0,0,1.23.54,2.55,1.73Z"/>
    <path class="cls-3" d="M193.85,113.76c-1.4,1.18-1.93,2.43-1.5,2.71.43.28,1.56-.32,2.76-1.8,1.2-1.48,1.48-2.65,1.48-2.65,0,0-1.3.54-2.74,1.75Z"/>
    <path class="cls-3" d="M191.21,113.78c1.22,1.23,1.57,2.45,1.11,2.68-.46.23-1.48-.42-2.47-1.92-.99-1.49-1.1-2.63-1.1-2.63,0,0,1.2.61,2.45,1.87Z"/>
    <path class="cls-3" d="M193.54,118.13c-1.46,1.11-2.05,2.32-1.63,2.62s1.57-.24,2.85-1.65c1.28-1.41,1.61-2.57,1.61-2.57,0,0-1.33.47-2.83,1.6Z"/>
    <path class="cls-3" d="M190.91,118.01c1.15,1.29,1.44,2.53.97,2.74-.47.21-1.46-.5-2.36-2.04-.91-1.54-.96-2.69-.96-2.69,0,0,1.17.67,2.35,1.99Z"/>
    <path class="cls-3" d="M193.01,122.46c-1.52,1.03-2.17,2.21-1.77,2.53.4.32,1.58-.16,2.93-1.5,1.35-1.34,1.74-2.49,1.74-2.49,0,0-1.35.4-2.91,1.45Z"/>
    <path class="cls-3" d="M190.38,122.21c1.08,1.35,1.31,2.6.83,2.79s-1.43-.57-2.25-2.16c-.82-1.59-.82-2.73-.82-2.73,0,0,1.13.73,2.24,2.11Z"/>
    <path class="cls-3" d="M192.25,126.77c-1.57.95-2.28,2.1-1.9,2.44.38.34,1.59-.07,3.01-1.35,1.42-1.27,1.87-2.39,1.87-2.39,0,0-1.37.33-2.98,1.3Z"/>
    <path class="cls-3" d="M189.64,126.37c1.01,1.4,1.17,2.67.68,2.83-.49.16-1.4-.65-2.14-2.28-.74-1.63-.67-2.77-.67-2.77,0,0,1.09.79,2.13,2.23Z"/>
    <path class="cls-3" d="M191.27,131.03c-1.62.87-2.39,1.97-2.02,2.34s1.59,0,3.07-1.19c1.48-1.2,1.99-2.29,1.99-2.29,0,0-1.38.25-3.04,1.14Z"/>
    <path class="cls-3" d="M188.68,130.5c.94,1.46,1.03,2.73.53,2.86-.5.13-1.36-.72-2.01-2.39-.65-1.67-.53-2.81-.53-2.81,0,0,1.05.84,2.01,2.33Z"/>
    <path class="cls-3" d="M190.06,135.23c-1.66.78-2.49,1.85-2.14,2.23.35.38,1.59.09,3.13-1.02,1.54-1.12,2.11-2.18,2.11-2.18,0,0-1.4.18-3.1.98Z"/>
    <path class="cls-3" d="M187.51,134.56c.86,1.5.88,2.78.38,2.88-.5.11-1.32-.79-1.89-2.49-.57-1.7-.38-2.83-.38-2.83,0,0,1.01.9,1.89,2.44Z"/>
    <path class="cls-3" d="M188.64,139.36c-1.7.69-2.58,1.71-2.26,2.11.32.4,1.58.18,3.18-.86,1.6-1.03,2.22-2.07,2.22-2.07,0,0-1.4.11-3.15.82Z"/>
    <path class="cls-3" d="M186.12,138.56c.78,1.55.74,2.82.23,2.9s-1.28-.86-1.75-2.58c-.48-1.73-.23-2.85-.23-2.85,0,0,.96.95,1.76,2.53Z"/>
    <path class="cls-3" d="M187,143.41c-1.73.6-2.67,1.58-2.37,1.99.3.41,1.57.26,3.22-.69,1.65-.95,2.33-1.95,2.33-1.95,0,0-1.41.03-3.18.65Z"/>
    <path class="cls-3" d="M184.53,142.49c.7,1.58.59,2.85.08,2.9-.51.05-1.23-.92-1.61-2.67-.38-1.75-.08-2.85-.08-2.85,0,0,.91,1,1.62,2.62Z"/>
    <path class="cls-3" d="M185.16,147.38c-1.76.51-2.75,1.43-2.47,1.86.28.43,1.55.34,3.25-.52,1.7-.86,2.43-1.82,2.43-1.82,0,0-1.41-.04-3.21.48Z"/>
    <path class="cls-3" d="M182.74,146.32c.61,1.62.44,2.88-.07,2.9-.51.03-1.18-.99-1.47-2.75-.29-1.77.07-2.85.07-2.85,0,0,.85,1.04,1.48,2.7Z"/>
    <path class="cls-3" d="M183.1,151.24c-1.79.42-2.82,1.29-2.56,1.73.26.44,1.53.42,3.28-.35,1.74-.77,2.52-1.7,2.52-1.7,0,0-1.4-.11-3.23.31Z"/>
    <path class="cls-3" d="M180.74,150.05c.53,1.65.29,2.9-.23,2.9-.51,0-1.13-1.05-1.33-2.83-.2-1.78.22-2.85.22-2.85,0,0,.8,1.09,1.34,2.78Z"/>
    <path class="cls-3" d="M180.85,154.98c-1.81.32-2.88,1.14-2.65,1.6s1.51.5,3.29-.18c1.78-.68,2.6-1.56,2.6-1.56,0,0-1.4-.19-3.25.14Z"/>
    <path class="cls-3" d="M178.56,153.68c.44,1.67.13,2.91-.38,2.88-.51-.03-1.07-1.1-1.18-2.89-.11-1.79.36-2.83.36-2.83,0,0,.74,1.13,1.19,2.84Z"/>
    <path class="cls-3" d="M178.41,158.61c-1.82.23-2.94.99-2.73,1.45.21.47,1.48.58,3.29,0,1.81-.58,2.68-1.42,2.68-1.42,0,0-1.38-.26-3.25-.03Z"/>
    <path class="cls-3" d="M176.18,157.18c.35,1.69-.02,2.91-.53,2.86-.51-.06-1.01-1.16-1.02-2.95-.01-1.79.51-2.81.51-2.81,0,0,.68,1.16,1.04,2.9Z"/>
    <path class="cls-3" d="M175.78,162.1c-1.83.13-2.99.83-2.8,1.31.19.48,1.45.65,3.29.17,1.84-.49,2.75-1.28,2.75-1.28,0,0-1.37-.33-3.24-.2Z"/>
    <path class="cls-3" d="M173.63,160.56c.26,1.71-.17,2.91-.68,2.83-.51-.08-.95-1.21-.87-3,.08-1.79.66-2.78.66-2.78,0,0,.62,1.2.89,2.95Z"/>
    <path class="cls-3" d="M172.97,165.45c-1.84.04-3.03.67-2.86,1.16.16.49,1.41.73,3.28.34,1.87-.39,2.82-1.13,2.82-1.13,0,0-1.35-.4-3.23-.37Z"/>
    <path class="cls-3" d="M170.91,163.8c.17,1.72-.32,2.89-.82,2.79s-.88-1.26-.71-3.04c.17-1.78.8-2.74.8-2.74,0,0,.55,1.23.73,2.99Z"/>
    <path class="cls-3" d="M169.99,168.64c-1.83-.06-3.06.52-2.92,1.01.14.49,1.37.8,3.25.51s2.87-.99,2.87-.99c0,0-1.33-.47-3.21-.53Z"/>
    <path class="cls-3" d="M168.01,166.89c.08,1.73-.47,2.87-.97,2.74-.49-.13-.82-1.3-.55-3.07.27-1.77.94-2.69.94-2.69,0,0,.49,1.26.57,3.03Z"/>
    <path class="cls-3" d="M166.84,171.68c-1.83-.16-3.08.35-2.97.86.11.5,1.33.87,3.22.68,1.9-.19,2.92-.83,2.92-.83,0,0-1.3-.54-3.17-.7Z"/>
    <path class="cls-3" d="M164.96,169.83c0,1.73-.62,2.84-1.11,2.68-.49-.16-.75-1.34-.39-3.1.36-1.75,1.08-2.64,1.08-2.64,0,0,.42,1.28.41,3.05Z"/>
    <path class="cls-3" d="M163.55,174.55c-1.82-.25-3.09.19-3.01.7.08.51,1.28.94,3.18.85,1.9-.09,2.96-.68,2.96-.68,0,0-1.27-.61-3.13-.87Z"/>
    <path class="cls-3" d="M161.76,172.6c-.1,1.73-.77,2.81-1.25,2.62-.48-.19-.68-1.38-.23-3.11.45-1.73,1.22-2.58,1.22-2.58,0,0,.35,1.3.25,3.07Z"/>
    <path class="cls-3" d="M160.1,177.24c-1.8-.35-3.1.03-3.04.54.06.51,1.23,1.01,3.13,1.01,1.91,0,2.99-.52,2.99-.52,0,0-1.24-.67-3.08-1.03Z"/>
    <path class="cls-3" d="M158.42,175.2c-.19,1.72-.92,2.76-1.39,2.55-.47-.21-.6-1.41-.06-3.12.54-1.71,1.35-2.51,1.35-2.51,0,0,.29,1.32.09,3.08Z"/>
    <path class="cls-3" d="M156.52,179.74c-1.78-.44-3.1-.13-3.07.38s1.17,1.07,3.08,1.17c1.9.1,3.01-.37,3.01-.37,0,0-1.2-.74-3.02-1.19Z"/>
    <path class="cls-3" d="M154.95,177.62c-.28,1.71-1.06,2.71-1.52,2.48-.46-.23-.53-1.44.1-3.12.63-1.68,1.48-2.44,1.48-2.44,0,0,.22,1.33-.07,3.08Z"/>
    <path class="cls-3" d="M152.81,182.06c-1.76-.53-3.09-.29-3.08.22s1.12,1.13,3.01,1.33c1.89.2,3.03-.21,3.03-.21,0,0-1.16-.8-2.96-1.35Z"/>
    <path class="cls-3" d="M151.36,179.86c-.37,1.69-1.2,2.65-1.64,2.4-.44-.26-.45-1.47.26-3.11.72-1.64,1.61-2.36,1.61-2.36,0,0,.15,1.34-.23,3.07Z"/>
    <path class="cls-3" d="M148.99,184.18c-1.73-.62-3.07-.45-3.09.06-.02.51,1.06,1.19,2.94,1.49,1.88.3,3.04-.05,3.04-.05,0,0-1.12-.86-2.88-1.5Z"/>
    <path class="cls-3" d="M147.65,181.9c-.45,1.67-1.34,2.59-1.77,2.31-.43-.28-.38-1.49.43-3.09.8-1.6,1.73-2.27,1.73-2.27,0,0,.08,1.34-.39,3.06Z"/>
    <path class="cls-3" d="M145.06,186.1c-1.69-.71-3.04-.61-3.09-.1s.99,1.24,2.86,1.64c1.86.4,3.03.11,3.03.11,0,0-1.07-.92-2.8-1.65Z"/>
    <path class="cls-3" d="M143.85,183.75c-.54,1.64-1.47,2.51-1.89,2.21-.41-.3-.3-1.51.59-3.07.88-1.56,1.85-2.18,1.85-2.18,0,0,0,1.35-.55,3.03Z"/>
    <path class="cls-3" d="M141.04,187.8c-1.65-.8-3-.77-3.08-.27-.08.51.93,1.29,2.77,1.79s3.02.27,3.02.27c0,0-1.02-.97-2.71-1.79Z"/>
    <path class="cls-3" d="M139.95,185.4c-.63,1.61-1.6,2.43-2,2.11s-.22-1.52.75-3.03c.96-1.51,1.96-2.08,1.96-2.08,0,0-.06,1.35-.71,3Z"/>
    <path class="cls-3" d="M136.93,189.3c-1.61-.89-2.96-.93-3.06-.43s.86,1.34,2.67,1.93c1.81.59,3.01.43,3.01.43,0,0-.97-1.02-2.61-1.93Z"/>
    <path class="cls-3" d="M135.97,186.84c-.71,1.58-1.73,2.35-2.11,2s-.14-1.53.9-2.99c1.04-1.46,2.06-1.97,2.06-1.97,0,0-.13,1.34-.86,2.96Z"/>
    <path class="cls-3" d="M132.75,190.58c-1.56-.97-2.91-1.08-3.03-.59-.13.5.79,1.38,2.56,2.07,1.78.69,2.98.58,2.98.58,0,0-.91-1.07-2.51-2.06Z"/>
    <path class="cls-3" d="M131.92,188.07c-.79,1.54-1.85,2.25-2.21,1.89-.36-.36-.06-1.54,1.06-2.94,1.12-1.4,2.17-1.86,2.17-1.86,0,0-.2,1.33-1.02,2.91Z"/>
    <path class="cls-3" d="M128.51,191.64c-1.51-1.05-2.84-1.23-3-.74-.16.49.71,1.42,2.45,2.2,1.74.78,2.95.74,2.95.74,0,0-.85-1.12-2.4-2.19Z"/>
    <path class="cls-3" d="M127.81,189.09c-.87,1.5-1.96,2.15-2.3,1.77-.34-.38.02-1.54,1.21-2.88,1.19-1.34,2.26-1.74,2.26-1.74,0,0-.27,1.32-1.17,2.85Z"/>
    <path class="cls-3" d="M124.22,192.47c-1.45-1.13-2.78-1.38-2.96-.9-.18.48.64,1.46,2.33,2.32s2.9.89,2.9.89c0,0-.8-1.16-2.28-2.32Z"/>
    <path class="cls-3" d="M123.65,189.89c-.95,1.45-2.07,2.05-2.39,1.65-.32-.4.1-1.53,1.36-2.81,1.26-1.28,2.35-1.62,2.35-1.62,0,0-.34,1.3-1.31,2.79Z"/>
    <path class="cls-3" d="M119.89,193.08c-1.39-1.2-2.7-1.52-2.91-1.05-.21.47.56,1.49,2.21,2.44,1.65.96,2.85,1.04,2.85,1.04,0,0-.73-1.2-2.15-2.43Z"/>
    <path class="cls-3" d="M119.46,190.47c-1.02,1.4-2.18,1.93-2.48,1.52-.3-.42.18-1.53,1.51-2.73,1.32-1.21,2.43-1.5,2.43-1.5,0,0-.41,1.28-1.46,2.71Z"/>
    <path class="cls-3" d="M115.54,193.46c-1.32-1.27-2.62-1.66-2.85-1.2-.23.46.48,1.51,2.08,2.56,1.6,1.04,2.79,1.19,2.79,1.19,0,0-.67-1.24-2.02-2.54Z"/>
    <path class="cls-3" d="M115.24,190.84c-1.09,1.34-2.28,1.82-2.55,1.39-.28-.43.26-1.52,1.65-2.65,1.38-1.14,2.5-1.37,2.5-1.37,0,0-.48,1.26-1.6,2.63Z"/>
    <path class="cls-3" d="M131.34,29.3c.87,1.62,1.97,2.39,2.34,2.02.36-.36,0-1.59-1.19-3.07-1.2-1.48-2.29-1.99-2.29-1.99,0,0,.25,1.38,1.14,3.04Z"/>
    <path class="cls-3" d="M130.81,31.88c1.46-.94,2.73-1.03,2.86-.53.13.5-.72,1.36-2.39,2.01-1.67.65-2.81.53-2.81.53,0,0,.84-1.05,2.33-2.01Z"/>
    <path class="cls-3" d="M135.54,30.5c.78,1.66,1.85,2.49,2.23,2.14.38-.35.09-1.59-1.02-3.13-1.12-1.54-2.18-2.11-2.18-2.11,0,0,.18,1.4.98,3.1Z"/>
    <path class="cls-3" d="M134.88,33.06c1.5-.86,2.78-.88,2.88-.38s-.79,1.32-2.49,1.89c-1.7.57-2.83.38-2.83.38,0,0,.9-1.01,2.44-1.89Z"/>
    <path class="cls-3" d="M139.67,31.92c.69,1.7,1.71,2.58,2.11,2.26.4-.32.18-1.58-.86-3.18-1.03-1.6-2.07-2.22-2.07-2.22,0,0,.11,1.4.82,3.15Z"/>
    <path class="cls-3" d="M138.88,34.44c1.55-.78,2.82-.74,2.9-.23.08.51-.86,1.28-2.58,1.75-1.73.48-2.85.23-2.85.23,0,0,.95-.96,2.53-1.76Z"/>
    <path class="cls-3" d="M143.73,33.56c.6,1.73,1.58,2.67,1.99,2.37.41-.3.26-1.57-.69-3.22-.95-1.65-1.95-2.33-1.95-2.33,0,0,.03,1.41.65,3.18Z"/>
    <path class="cls-3" d="M142.8,36.03c1.58-.7,2.85-.59,2.9-.08.05.51-.92,1.23-2.67,1.61-1.75.38-2.85.08-2.85.08,0,0,1-.91,2.62-1.62Z"/>
    <path class="cls-3" d="M147.69,35.41c.51,1.76,1.43,2.75,1.86,2.47.43-.28.34-1.55-.52-3.25-.86-1.7-1.82-2.43-1.82-2.43,0,0-.04,1.41.48,3.21Z"/>
    <path class="cls-3" d="M146.63,37.83c1.62-.61,2.88-.44,2.9.07.03.51-.99,1.18-2.75,1.47-1.77.29-2.85-.07-2.85-.07,0,0,1.04-.85,2.7-1.48Z"/>
    <path class="cls-3" d="M151.55,37.46c.42,1.79,1.29,2.82,1.73,2.56.44-.26.42-1.53-.35-3.28-.77-1.74-1.7-2.52-1.7-2.52,0,0-.11,1.4.31,3.23Z"/>
    <path class="cls-3" d="M150.37,39.82c1.65-.53,2.9-.29,2.9.23,0,.51-1.05,1.13-2.83,1.33-1.78.2-2.85-.22-2.85-.22,0,0,1.09-.8,2.78-1.34Z"/>
    <path class="cls-3" d="M155.29,39.71c.32,1.81,1.14,2.88,1.6,2.65.46-.24.5-1.51-.18-3.29-.68-1.78-1.56-2.6-1.56-2.6,0,0-.19,1.4.14,3.25Z"/>
    <path class="cls-3" d="M153.99,42.01c1.67-.44,2.91-.13,2.88.38-.03.51-1.1,1.07-2.89,1.18-1.79.11-2.83-.36-2.83-.36,0,0,1.13-.74,2.84-1.19Z"/>
    <path class="cls-3" d="M158.92,42.15c.23,1.82.99,2.94,1.45,2.73s.58-1.48,0-3.29-1.42-2.68-1.42-2.68c0,0-.26,1.38-.03,3.25Z"/>
    <path class="cls-3" d="M157.5,44.38c1.69-.35,2.91.02,2.86.53s-1.16,1.01-2.95,1.02-2.81-.51-2.81-.51c0,0,1.16-.68,2.9-1.04Z"/>
    <path class="cls-3" d="M162.41,44.78c.13,1.83.83,2.99,1.31,2.8.48-.19.65-1.45.17-3.29-.49-1.84-1.28-2.75-1.28-2.75,0,0-.33,1.37-.2,3.24Z"/>
    <path class="cls-3" d="M160.87,46.93c1.71-.26,2.91.17,2.83.68-.08.51-1.21.95-3,.87s-2.78-.66-2.78-.66c0,0,1.2-.62,2.95-.89Z"/>
    <path class="cls-3" d="M165.76,47.59c.04,1.84.67,3.03,1.16,2.86s.73-1.41.34-3.28c-.39-1.87-1.13-2.82-1.13-2.82,0,0-.4,1.35-.37,3.23Z"/>
    <path class="cls-3" d="M164.11,49.66c1.72-.17,2.89.32,2.79.82s-1.26.88-3.04.71c-1.78-.17-2.74-.8-2.74-.8,0,0,1.23-.55,2.99-.73Z"/>
    <path class="cls-3" d="M168.95,50.58c-.06,1.83.52,3.06,1.01,2.92.49-.14.8-1.37.51-3.25-.29-1.88-.99-2.87-.99-2.87,0,0-.47,1.33-.53,3.21Z"/>
    <path class="cls-3" d="M167.2,52.55c1.73-.08,2.87.47,2.74.97-.13.49-1.3.82-3.07.55-1.77-.27-2.69-.94-2.69-.94,0,0,1.26-.49,3.03-.57Z"/>
    <path class="cls-3" d="M171.99,53.72c-.16,1.83.35,3.08.86,2.97.5-.11.87-1.33.68-3.22-.19-1.9-.83-2.92-.83-2.92,0,0-.54,1.3-.7,3.17Z"/>
    <path class="cls-3" d="M170.14,55.6c1.73,0,2.84.62,2.68,1.11-.16.49-1.34.75-3.1.39s-2.64-1.08-2.64-1.08c0,0,1.28-.42,3.05-.41Z"/>
    <path class="cls-3" d="M174.86,57.02c-.25,1.82.19,3.09.7,3.01s.94-1.28.85-3.18c-.09-1.9-.68-2.96-.68-2.96,0,0-.61,1.27-.87,3.13Z"/>
    <path class="cls-3" d="M172.91,58.8c1.73.1,2.81.77,2.62,1.25-.19.48-1.38.68-3.11.23s-2.58-1.22-2.58-1.22c0,0,1.3-.35,3.07-.25Z"/>
    <path class="cls-3" d="M177.55,60.46c-.35,1.8.03,3.1.54,3.04s1.01-1.23,1.01-3.13-.52-2.99-.52-2.99c0,0-.67,1.24-1.03,3.08Z"/>
    <path class="cls-3" d="M175.51,62.14c1.72.19,2.76.92,2.55,1.39-.21.47-1.41.6-3.12.06-1.71-.54-2.51-1.35-2.51-1.35,0,0,1.32-.29,3.08-.09Z"/>
    <path class="cls-3" d="M180.06,64.04c-.44,1.78-.13,3.1.38,3.07s1.07-1.17,1.17-3.08c.1-1.9-.37-3.01-.37-3.01,0,0-.74,1.2-1.19,3.02Z"/>
    <path class="cls-3" d="M177.93,65.61c1.71.28,2.71,1.06,2.48,1.52-.23.46-1.44.53-3.12-.1-1.68-.63-2.44-1.48-2.44-1.48,0,0,1.33-.22,3.08.07Z"/>
    <path class="cls-3" d="M182.37,67.75c-.53,1.76-.29,3.09.22,3.08.51,0,1.13-1.12,1.33-3.01.2-1.89-.21-3.03-.21-3.03,0,0-.8,1.16-1.35,2.96Z"/>
    <path class="cls-3" d="M180.17,69.2c1.69.37,2.65,1.2,2.4,1.64s-1.47.45-3.11-.26c-1.64-.72-2.36-1.61-2.36-1.61,0,0,1.34-.15,3.07.23Z"/>
    <path class="cls-3" d="M184.49,71.57c-.62,1.73-.45,3.07.06,3.09s1.19-1.06,1.49-2.94c.3-1.88-.05-3.04-.05-3.04,0,0-.86,1.12-1.5,2.88Z"/>
    <path class="cls-3" d="M182.22,72.91c1.67.45,2.59,1.34,2.31,1.77-.28.43-1.49.38-3.09-.43-1.6-.8-2.27-1.73-2.27-1.73,0,0,1.34-.08,3.06.39Z"/>
    <path class="cls-3" d="M186.41,75.5c-.71,1.69-.61,3.04-.1,3.09.51.05,1.24-.99,1.64-2.86.4-1.86.11-3.03.11-3.03,0,0-.92,1.07-1.65,2.8Z"/>
    <path class="cls-3" d="M184.06,76.72c1.64.54,2.51,1.47,2.21,1.89-.3.41-1.51.3-3.07-.59s-2.18-1.85-2.18-1.85c0,0,1.35,0,3.03.55Z"/>
    <path class="cls-3" d="M188.12,79.52c-.8,1.65-.77,3-.27,3.08.51.08,1.29-.93,1.79-2.77.5-1.84.27-3.02.27-3.02,0,0-.97,1.02-1.79,2.71Z"/>
    <path class="cls-3" d="M185.71,80.62c1.61.63,2.43,1.6,2.11,2-.32.4-1.52.22-3.03-.75-1.51-.96-2.08-1.96-2.08-1.96,0,0,1.35.06,3,.71Z"/>
    <path class="cls-3" d="M189.61,83.63c-.89,1.61-.93,2.96-.43,3.06.5.1,1.34-.86,1.93-2.67.59-1.81.43-3.01.43-3.01,0,0-1.02.97-1.93,2.61Z"/>
    <path class="cls-3" d="M187.15,84.6c1.58.71,2.35,1.73,2,2.11-.34.38-1.53.14-2.99-.9-1.46-1.04-1.97-2.06-1.97-2.06,0,0,1.34.13,2.96.86Z"/>
    <path class="cls-3" d="M190.89,87.81c-.97,1.56-1.08,2.91-.59,3.03s1.38-.79,2.07-2.56c.69-1.78.58-2.98.58-2.98,0,0-1.07.91-2.06,2.51Z"/>
    <path class="cls-3" d="M188.38,88.65c1.54.79,2.25,1.85,1.89,2.21-.36.36-1.54.06-2.94-1.06-1.4-1.12-1.86-2.17-1.86-2.17,0,0,1.33.2,2.91,1.02Z"/>
    <path class="cls-3" d="M191.95,92.05c-1.05,1.51-1.23,2.84-.74,3,.49.16,1.42-.71,2.2-2.45.78-1.74.74-2.95.74-2.95,0,0-1.12.85-2.19,2.4Z"/>
    <path class="cls-3" d="M189.4,92.75c1.5.87,2.15,1.96,1.77,2.3s-1.54-.02-2.88-1.21c-1.34-1.19-1.74-2.26-1.74-2.26,0,0,1.32.27,2.85,1.17Z"/>
    <path class="cls-3" d="M192.78,96.34c-1.13,1.45-1.38,2.78-.9,2.96.48.18,1.46-.64,2.32-2.33.87-1.7.89-2.9.89-2.9,0,0-1.16.8-2.32,2.28Z"/>
    <path class="cls-3" d="M190.2,96.91c1.45.95,2.05,2.07,1.65,2.39-.4.32-1.53-.1-2.81-1.36-1.28-1.26-1.62-2.35-1.62-2.35,0,0,1.3.34,2.79,1.31Z"/>
    <path class="cls-3" d="M193.39,100.67c-1.2,1.39-1.52,2.7-1.05,2.91.47.21,1.49-.56,2.44-2.21.96-1.65,1.04-2.85,1.04-2.85,0,0-1.2.73-2.43,2.15Z"/>
    <path class="cls-3" d="M190.79,101.1c1.4,1.02,1.93,2.18,1.52,2.48s-1.53-.18-2.73-1.51c-1.21-1.32-1.5-2.43-1.5-2.43,0,0,1.28.41,2.71,1.46Z"/>
    <path class="cls-3" d="M193.77,105.03c-1.27,1.32-1.66,2.62-1.2,2.85.46.23,1.51-.48,2.56-2.08,1.04-1.6,1.19-2.79,1.19-2.79,0,0-1.24.67-2.54,2.02Z"/>
    <path class="cls-3" d="M191.15,105.32c1.34,1.09,1.82,2.28,1.39,2.55-.43.28-1.52-.26-2.65-1.65-1.14-1.38-1.37-2.5-1.37-2.5,0,0,1.26.48,2.63,1.6Z"/>
  </g>
  <path class="cls-3" d="M119.72,224.74l-1.9-1.9c.8-1.3,1.2-2.8,1.2-4.5,0-4.8-3.8-8.6-8.6-8.6s-8.6,3.9-8.6,8.6,3.8,8.6,8.6,8.6c1.9,0,3.6-.6,5-1.7l1.8,1.7,2.5-2.2ZM110.52,223.54c-2.9,0-5.3-2.3-5.3-5.3s2.3-5.3,5.3-5.3,5.3,2.3,5.3,5.3c0,.7-.1,1.3-.4,2l-.1-.1h-4.9l2.7,2.7c-.9.4-1.6.7-2.6.7Z"/>
  <g>
    <path class="cls-3" d="M50.1,202.01l-1.68-1.13,5.58-8.31,1.69,1.13-5.58,8.31Z"/>
    <path class="cls-3" d="M44.04,197.81l-1.59-1.3.96-6.44c.1-.63.34-1.53.34-1.53l-.02-.02s-.61.84-1.06,1.38l-3.32,4.07-1.55-1.27,6.34-7.75,1.52,1.24-.86,6.45c-.09.61-.32,1.52-.32,1.52l.02.02s.62-.85,1.06-1.39l3.27-4,1.55,1.27-6.34,7.75Z"/>
    <path class="cls-3" d="M34.11,189.31l-5.59-5.8,1.23-1.19,2.09,2.17,5.98-5.77,1.41,1.46-5.98,5.77,2.09,2.17-1.23,1.19Z"/>
    <path class="cls-3" d="M25.29,179.71l-4.48-5.85,1.36-1.04,3.24,4.23,1.78-1.36-2.84-3.71,1.32-1.01,2.84,3.71,2.14-1.64-3.27-4.27,1.35-1.03,4.5,5.88-7.95,6.08Z"/>
    <path class="cls-3" d="M17.85,169.49l-2.35-3.95c-.99-1.66-.68-3.34.75-4.19,1.01-.6,2.06-.59,3.02.34l.04-.02c-.24-.93-.03-1.61.95-2.34,1.14-.84,2.1-1.35,2.05-1.73l.08-.05,1,1.67c.03.27-.92.87-1.8,1.49-.9.63-1.11,1.47-.47,2.56l.84,1.41,3.45-2.05,1.04,1.74-8.6,5.12ZM20.62,165.48l-1.1-1.85c-.57-.95-1.34-1.13-2.02-.72-.7.41-.95,1.17-.4,2.09l1.13,1.9,2.39-1.42Z"/>
    <path class="cls-3" d="M11.44,158.07l-.83-1.88,3.77-5.3c.37-.51,1-1.2,1-1.2v-.03s-.94.47-1.58.75l-4.81,2.11-.81-1.83,9.16-4.03.79,1.79-3.69,5.35c-.36.51-.98,1.21-.98,1.21v.03s.95-.47,1.59-.76l4.73-2.08.81,1.83-9.16,4.03Z"/>
    <path class="cls-3" d="M5.48,142.8l-.6-2.01,8.58-6.25.61,2.03-1.85,1.25,1.04,3.46,2.23.02.59,1.97-10.59-.47ZM11.63,141.27l-.76-2.54-2.51,1.69c-.46.31-1.36.83-1.36.83v.03s1.05-.05,1.61-.04l3.02.03Z"/>
    <path class="cls-3" d="M3.2,134.54l-1.49-7.91,1.68-.32.56,2.96,8.16-1.53.38,1.99-8.16,1.54.56,2.96-1.68.32Z"/>
    <path class="cls-3" d="M1.17,121.87l-.2-2.02,9.96-.97.2,2.02-9.96.97Z"/>
    <path class="cls-3" d="M5.58,114.92c-3,0-5.22-1.88-5.22-4.83s2.23-4.81,5.22-4.81c3,0,5.21,1.86,5.21,4.82,0,2.95-2.21,4.83-5.21,4.83ZM5.58,107.35c-2,0-3.56.9-3.56,2.73,0,1.83,1.55,2.77,3.55,2.77s3.54-.94,3.54-2.77c0-1.83-1.55-2.73-3.54-2.73Z"/>
    <path class="cls-3" d="M.92,100.12l.26-2.04,5.96-2.6c.58-.25,1.48-.52,1.48-.52v-.03s-1.03-.08-1.73-.16l-5.21-.67.25-1.99,9.93,1.27-.25,1.94-5.92,2.69c-.57.25-1.46.53-1.46.53v.03s1.04.08,1.74.17l5.12.65-.25,1.99-9.93-1.27Z"/>
    <path class="cls-3" d="M3.67,83.99l.52-2.04,10.58-.95-.52,2.05-2.23.12-.89,3.5,1.9,1.16-.51,2-8.84-5.85ZM9.73,85.84l.65-2.56-3.02.16c-.56.03-1.59.01-1.59.01v.03s.91.49,1.38.79l2.57,1.58Z"/>
    <path class="cls-3" d="M6.58,73.99l.72-1.9,7.77,2.96,1.67-4.4,1.58.6-2.4,6.29-9.36-3.56Z"/>
    <path class="cls-3" d="M13.67,57.86l1.98-3.37c1.35-2.31,4.08-2.7,6.63-1.2,1.4.82,2.35,2.02,2.58,3.37.15.95-.03,1.96-.67,3.05l-1.89,3.22-8.63-5.07ZM22.62,58.95c.96-1.64.34-2.87-1.38-3.88-1.71-1.01-3.35-.96-4.22.52l-.82,1.4,5.62,3.31.79-1.35Z"/>
    <path class="cls-3" d="M20.75,46.5l4.46-5.87,1.36,1.03-3.23,4.25,1.79,1.36,2.83-3.73,1.33,1.01-2.83,3.72,2.15,1.64,3.25-4.28,1.35,1.02-4.48,5.9-7.97-6.06Z"/>
    <path class="cls-3" d="M33.26,41.83l1.38-1.43c.97.73,1.78.57,2.77-.46.72-.75,1.08-1.66.42-2.29-.71-.68-1.51-.13-2.82.73-1.53,1.01-3.01,1.86-4.51.42-1.42-1.37-1.05-3.23.49-4.84,1.56-1.62,3.37-1.91,4.93-.63l-1.35,1.4c-.8-.62-1.71-.4-2.43.35-.76.79-.92,1.62-.4,2.12.59.56,1.24.22,2.5-.63,1.75-1.17,3.27-2.05,4.82-.55,1.46,1.41,1.15,3.37-.41,5-1.88,1.96-3.81,2.24-5.39.82Z"/>
    <path class="cls-3" d="M37.7,27.74l1.53-1.33,6.56,7.57-1.53,1.33-6.56-7.57Z"/>
    <path class="cls-3" d="M54.28,25.84l-.02.02c.11,1.33-.42,2.21-1.39,2.9-1.23.88-2.51,1.11-3.71.85-1.21-.28-2.34-1.05-3.22-2.28-.96-1.36-1.33-2.89-1.03-4.28.23-1.08.86-2.02,1.96-2.8,2.05-1.46,4.03-1.16,5.43.25l-1.62,1.15c-.74-.66-1.75-.8-2.8-.05-1.54,1.09-1.4,2.92-.25,4.54,1.18,1.67,2.93,2.26,4.33,1.27,1.27-.9,1.43-2.44.79-3.34l-.03-.05-1.96,1.39-.91-1.28,3.44-2.44,3.08,4.34-1.24.88-.84-1.06Z"/>
    <path class="cls-3" d="M55.26,14.99l1.81-.97,5.57,3.36c.54.33,1.28.91,1.28.91h.02s-.54-.9-.87-1.52l-2.47-4.63,1.77-.94,4.71,8.83-1.73.92-5.61-3.27c-.54-.32-1.28-.89-1.28-.89h-.02s.54.91.87,1.53l2.43,4.56-1.77.94-4.71-8.83Z"/>
    <path class="cls-3" d="M75.48,5.91l2-.65,6.44,8.43-2.01.65-1.29-1.82-3.44,1.11.03,2.23-1.96.63.23-10.6ZM77.15,12.02l2.52-.82-1.74-2.47c-.32-.45-.86-1.34-.86-1.34h-.03s.07,1.04.08,1.6l.04,3.02Z"/>
    <path class="cls-3" d="M85.56,2.98l2.02-.39,4.33,4.86c.42.48.95,1.24.95,1.24h.03s-.25-1.01-.38-1.7l-.99-5.16,1.97-.38,1.89,9.83-1.93.37-4.4-4.79c-.42-.46-.96-1.23-.96-1.23h-.03s.25,1.03.39,1.71l.98,5.07-1.97.38-1.89-9.83Z"/>
    <path class="cls-3" d="M99,.74l3.9-.26c2.67-.18,4.53,1.86,4.73,4.8.11,1.62-.34,3.08-1.33,4.03-.7.67-1.64,1.08-2.9,1.16l-3.73.25-.68-9.99ZM103.15,8.75c1.9-.13,2.56-1.34,2.43-3.32s-1.09-3.31-2.81-3.19l-1.62.11.44,6.51,1.56-.11Z"/>
    <path class="cls-3" d="M118.21.42l3.88.41c2.66.28,4.15,2.61,3.84,5.54-.17,1.61-.86,2.98-2,3.74-.8.54-1.8.78-3.05.65l-3.72-.39,1.05-9.95ZM120.92,9.01c1.89.2,2.75-.88,2.96-2.85.21-1.98-.51-3.45-2.22-3.63l-1.62-.17-.68,6.49,1.56.16Z"/>
    <path class="cls-3" d="M131.49,2.17l7.18,1.63-.38,1.67-5.2-1.18-.5,2.18,4.56,1.04-.37,1.62-4.56-1.04-.6,2.64,5.24,1.19-.38,1.65-7.22-1.64,2.22-9.76Z"/>
    <path class="cls-3" d="M141.45,9.82c1-2.8,3.5-4.31,6.28-3.32,2.32.83,3.2,2.7,2.76,4.57l-1.9-.68c.17-1.01-.32-1.88-1.43-2.28-1.74-.62-3.09.53-3.76,2.41-.69,1.92-.18,3.67,1.4,4.23,1.12.4,2.15,0,2.62-.94l1.87.67c-.35.81-.99,1.49-1.84,1.86-.86.38-1.91.45-3.22-.02-2.65-.95-3.81-3.66-2.79-6.5Z"/>
    <path class="cls-3" d="M153.61,14.4c1.36-2.67,4.04-3.8,6.67-2.47,2.63,1.34,3.28,4.17,1.93,6.83-1.36,2.67-4.02,3.8-6.65,2.46-2.63-1.34-3.3-4.16-1.95-6.83ZM160.36,17.83c.91-1.78.81-3.58-.82-4.41-1.64-.83-3.17.13-4.08,1.91-.9,1.77-.77,3.58.87,4.41,1.63.83,3.14-.15,4.04-1.92Z"/>
    <path class="cls-3" d="M168.9,16.95l3.8,2.58c1.6,1.08,2.04,2.73,1.1,4.11-.66.97-1.61,1.41-2.88.98l-.02.03c.62.74.71,1.45.13,2.53-.68,1.25-1.33,2.11-1.13,2.43l-.05.08-1.61-1.09c-.15-.23.46-1.18,1-2.12.54-.95.38-1.81-.67-2.51l-1.36-.92-2.25,3.33-1.68-1.14,5.62-8.29ZM168.1,21.76l1.79,1.21c.92.62,1.69.45,2.14-.21.46-.67.36-1.46-.53-2.07l-1.83-1.24-1.56,2.31Z"/>
    <path class="cls-3" d="M181.69,26.43l1.59,1.38-3.9,9.87-1.6-1.39.89-2.05-2.73-2.37-1.89,1.18-1.55-1.35,9.19-5.27ZM177.32,31.01l2,1.73,1.21-2.76c.22-.51.7-1.43.7-1.43l-.02-.02s-.85.6-1.33.89l-2.57,1.59Z"/>
    <path class="cls-3" d="M188.03,32.17l5.5,5.88-1.25,1.17-2.05-2.2-6.06,5.67-1.39-1.48,6.06-5.67-2.05-2.2,1.25-1.17Z"/>
    <path class="cls-3" d="M196.54,41.78l1.25,1.6-7.89,6.16-1.25-1.6,7.89-6.16Z"/>
    <path class="cls-3" d="M200.99,47.67l1.11,1.73-2.91,5.81c-.29.57-.8,1.34-.8,1.34v.02s.86-.6,1.45-.98l4.42-2.83,1.08,1.69-8.43,5.39-1.05-1.65,2.82-5.85c.28-.56.78-1.35.78-1.35v-.02s-.87.61-1.46.99l-4.35,2.78-1.08-1.69,8.43-5.39Z"/>
    <path class="cls-3" d="M203.31,69.62v-.03c-1.34-.13-2.11-.81-2.62-1.88-.64-1.37-.65-2.67-.18-3.8.49-1.14,1.45-2.12,2.82-2.77,1.51-.71,3.08-.8,4.4-.26,1.02.42,1.84,1.21,2.41,2.42,1.07,2.28.43,4.18-1.2,5.3l-.85-1.8c.78-.61,1.1-1.58.55-2.75-.81-1.71-2.62-1.89-4.42-1.04-1.85.87-2.75,2.49-2.01,4.04.66,1.41,2.15,1.84,3.15,1.36l.05-.02-1.03-2.18,1.42-.67,1.8,3.81-4.82,2.27-.65-1.38,1.19-.64Z"/>
    <path class="cls-3" d="M215.65,78.01l1.14,4.24c.3,1.12.2,2.05-.23,2.77-.41.69-1.08,1.22-1.97,1.46-1.83.49-3.38-.38-3.92-2.41l-.64-2.38-3.5.94-.54-2.03,9.67-2.59ZM211.63,81.26l.54,2.03c.28,1.03.99,1.42,1.87,1.18.91-.24,1.27-.95,1.01-1.92l-.55-2.05-2.87.77Z"/>
    <path class="cls-3" d="M218.69,90.56l.66,4.55c.28,1.91-.65,3.35-2.3,3.58-1.16.17-2.13-.25-2.66-1.47h-.04c-.13.96-.59,1.5-1.78,1.8-1.38.34-2.46.44-2.56.81h-.1s-.28-1.91-.28-1.91c.08-.27,1.18-.45,2.24-.69,1.07-.24,1.59-.94,1.41-2.18l-.23-1.62-3.98.57-.29-2.01,9.91-1.43ZM214.6,93.2l.31,2.13c.16,1.09.8,1.55,1.59,1.44.8-.12,1.33-.71,1.17-1.78l-.31-2.19-2.76.4Z"/>
    <path class="cls-3" d="M215.29,103.28c2.99-.02,5.23,1.84,5.25,4.79.02,2.95-2.19,4.83-5.19,4.85-3,.02-5.22-1.83-5.24-4.78-.02-2.95,2.18-4.84,5.18-4.86ZM215.33,110.85c2-.01,3.55-.92,3.54-2.75-.01-1.83-1.57-2.76-3.57-2.75-1.99.01-3.53.96-3.52,2.79.01,1.83,1.57,2.72,3.56,2.71Z"/>
    <path class="cls-3" d="M220.15,117.92l-.72,7.14-1.71-.17.52-5.12-2.4-.24-.44,4.33-1.73-.17.44-4.33-4.12-.42.2-2.02,9.96,1Z"/>
    <path class="cls-3" d="M218.62,130.06l-1.56,7.2-1.67-.36,1.13-5.21-2.19-.48-.99,4.57-1.63-.35.99-4.57-2.64-.57-1.14,5.25-1.66-.36,1.57-7.24,9.78,2.12Z"/>
    <path class="cls-3" d="M209.26,139.61l-.64,1.88c-1.18-.26-1.86.24-2.32,1.59-.33.98-.29,1.96.59,2.26.93.32,1.42-.52,2.25-1.85.96-1.56,1.95-2.96,3.92-2.28,1.87.64,2.31,2.49,1.59,4.6-.73,2.13-2.25,3.15-4.21,2.64l.63-1.84c.99.22,1.72-.36,2.06-1.34.35-1.03.15-1.86-.53-2.09-.77-.26-1.22.32-2.01,1.62-1.09,1.8-2.1,3.23-4.14,2.54-1.92-.66-2.46-2.58-1.73-4.71.88-2.57,2.52-3.64,4.54-3.02Z"/>
    <path class="cls-3" d="M205.07,151.1l-.87,1.79c-1.15-.4-1.87.01-2.49,1.3-.45.93-.52,1.91.31,2.31.88.43,1.47-.35,2.45-1.57,1.15-1.44,2.29-2.71,4.17-1.8,1.78.86,2,2.75,1.03,4.76-.98,2.03-2.61,2.86-4.49,2.12l.85-1.75c.96.34,1.75-.15,2.2-1.08.48-.98.37-1.83-.27-2.14-.73-.35-1.25.17-2.19,1.37-1.3,1.66-2.47,2.96-4.41,2.02-1.83-.88-2.14-2.85-1.16-4.88,1.18-2.45,2.94-3.31,4.87-2.45Z"/>
    <path class="cls-3" d="M205.22,165.84l-1.05,1.74-8.58-5.16,1.05-1.74,8.58,5.16Z"/>
    <path class="cls-3" d="M197.55,168.79c2.41,1.79,3.07,4.62,1.31,6.99-1.76,2.37-4.66,2.54-7.07.75-2.41-1.79-3.07-4.6-1.31-6.97,1.76-2.37,4.66-2.56,7.06-.77ZM193.03,174.87c1.61,1.19,3.39,1.4,4.48-.07,1.09-1.47.41-3.15-1.2-4.35-1.6-1.19-3.4-1.36-4.5.11-1.09,1.47-.38,3.12,1.22,4.3Z"/>
    <path class="cls-3" d="M192.45,183.44l-1.43,1.48-6.33-1.47c-.62-.15-1.49-.47-1.49-.47l-.02.02s.78.68,1.29,1.16l3.78,3.64-1.39,1.44-7.21-6.94,1.36-1.41,6.35,1.37c.61.14,1.49.45,1.49.45l.02-.02s-.8-.69-1.3-1.17l-3.72-3.58,1.39-1.44,7.21,6.94Z"/>
    <path class="cls-3" d="M180.63,194.74l-1.63,1.33-9.06-5.54,1.64-1.33,1.87,1.23,2.8-2.28-.83-2.07,1.6-1.3,3.62,9.97ZM176.87,189.65l-2.05,1.67,2.52,1.67c.47.31,1.29.94,1.29.94l.02-.02s-.44-.94-.65-1.46l-1.13-2.8Z"/>
    <path class="cls-3" d="M172.33,201.04l-1.71,1.09-4.48-7-3.96,2.54-.91-1.43,5.67-3.63,5.4,8.43Z"/>
  </g>
  <path id="SVGID_1_" class="cls-2" d="M10.25,110.1C10.25,54.6,55.25,9.5,110.85,9.5s100.6,45,100.6,100.6-45,100.6-100.6,100.6c-55.6-.1-100.6-45.1-100.6-100.6Z"/>
  <rect class="cls-2" x="20.45" y="92.25" width="180.8" height="35.7"/>
  <g class="cls-1">
    <path class="cls-3" d="M66.43,90.52v.39c-1.01,0-1.87.28-2.57.85-.7.57-1.06,1.51-1.06,2.82v25.66c0,1.3.37,2.25,1.12,2.83.75.59,1.58.88,2.5.88v.37h-10.72v-.37c.98,0,1.82-.29,2.54-.86.71-.57,1.07-1.53,1.07-2.86v-25.66c0-1.41-.36-2.37-1.07-2.89-.71-.52-1.56-.78-2.54-.78v-.39h10.72Z"/>
    <path class="cls-3" d="M69.89,90.91v-.39h13.01c1.82,0,3.5.16,5.04.47,1.54.31,2.92.73,4.13,1.25,1.22.52,2.27,1.09,3.16,1.71.89.62,1.64,1.25,2.25,1.89,1.07,1.07,1.98,2.26,2.73,3.57.75,1.31,1.31,2.69,1.69,4.14.37,1.45.56,2.95.56,4.5s-.18,3.01-.55,4.41c-.37,1.39-.89,2.68-1.58,3.87s-1.51,2.26-2.47,3.22c-.96.96-2.07,1.84-3.34,2.62-1.09.64-2.33,1.16-3.74,1.56-1.41.4-3.31.6-5.71.6h-15.17v-.37h.46c1.06,0,1.84-.4,2.36-1.19.52-.79.78-1.64.78-2.52v-25.52c0-.86-.14-1.58-.42-2.16-.28-.58-.66-1-1.14-1.26-.47-.26-1-.39-1.58-.39h-.46ZM76.98,92.13v26.78c0,1.32.21,2.28.63,2.9.42.62,1.07,1.02,1.96,1.2s2.19.28,3.9.28c2.45,0,4.51-.24,6.2-.72,1.68-.48,3.31-1.56,4.89-3.22,1.16-1.24,2.1-2.75,2.8-4.54s1.06-3.96,1.06-6.49c0-2-.28-3.99-.85-5.96-.57-1.97-1.43-3.71-2.59-5.24-1.3-1.73-2.97-3.08-5.01-4.06-2.04-.98-4.5-1.47-7.38-1.47-1.48,0-3.35.18-5.6.55Z"/>
    <path class="cls-3" d="M106.59,90.91v-.39h13.01c1.82,0,3.5.16,5.04.47,1.54.31,2.92.73,4.13,1.25,1.22.52,2.27,1.09,3.16,1.71.89.62,1.64,1.25,2.25,1.89,1.07,1.07,1.98,2.26,2.73,3.57.75,1.31,1.31,2.69,1.69,4.14.37,1.45.56,2.95.56,4.5s-.18,3.01-.55,4.41c-.37,1.39-.89,2.68-1.58,3.87s-1.51,2.26-2.47,3.22c-.96.96-2.07,1.84-3.34,2.62-1.09.64-2.33,1.16-3.74,1.56-1.41.4-3.31.6-5.71.6h-15.17v-.37h.46c1.06,0,1.84-.4,2.36-1.19.52-.79.78-1.64.78-2.52v-25.52c0-.86-.14-1.58-.42-2.16-.28-.58-.66-1-1.14-1.26-.47-.26-1-.39-1.58-.39h-.46ZM113.68,92.13v26.78c0,1.32.21,2.28.63,2.9.42.62,1.07,1.02,1.96,1.2s2.19.28,3.9.28c2.45,0,4.51-.24,6.2-.72,1.68-.48,3.31-1.56,4.89-3.22,1.16-1.24,2.1-2.75,2.8-4.54s1.06-3.96,1.06-6.49c0-2-.28-3.99-.85-5.96-.57-1.97-1.43-3.71-2.59-5.24-1.3-1.73-2.97-3.08-5.01-4.06-2.04-.98-4.5-1.47-7.38-1.47-1.48,0-3.35.18-5.6.55Z"/>
    <path class="cls-3" d="M143.33,90.91v-.39h11.08c1.85,0,3.48.25,4.9.76s2.59,1.19,3.53,2.07c.94.87,1.64,1.86,2.11,2.95.47,1.09.7,2.25.7,3.45s-.22,2.31-.65,3.41c-.44,1.09-1.12,2.07-2.05,2.92-.93.85-2.16,1.53-3.67,2.03s-3.26.76-5.23.76c-.63,0-1.84-.09-3.63-.28v11.66c0,2.4,1.22,3.64,3.67,3.72v.37h-10.76v-.37c1.06-.03,1.92-.33,2.6-.91.68-.57,1.02-1.51,1.02-2.81v-25.57c0-.78-.12-1.43-.37-1.95s-.53-.89-.86-1.11-.7-.39-1.1-.49-.69-.18-.84-.21h-.46ZM150.42,91.71v15.93c1.18.21,2.34.32,3.49.32,2.19,0,4.04-.56,5.57-1.69,1.52-1.12,2.28-3.21,2.28-6.25,0-2.51-.67-4.57-2.01-6.18-1.34-1.61-3.37-2.42-6.09-2.42-1.06,0-2.13.1-3.24.3Z"/>
  </g>
</svg>