<?xml version="1.0" encoding="UTF-8"?>
<svg id="IEWP" xmlns="http://www.w3.org/2000/svg" viewBox="0 0 225.5 231">
  <defs>
    <style>
      .cls-1 {
        fill: none;
      }

      .cls-1, .cls-2 {
        stroke-width: 0px;
      }

      .cls-2 {
        fill: #faf0b6;
      }
    </style>
  </defs>
  <g>
    <path class="cls-2" d="M134.55,32.61v.31c3.38.95,6.7,2.12,9.96,3.51,9.74,4.16,18.48,10.1,25.98,17.65,7.5,7.55,13.37,16.33,17.46,26.11,4.23,10.12,6.36,20.85,6.32,31.91-.04,11.03-2.24,21.73-6.53,31.8-4.14,9.72-10.06,18.45-17.58,25.94-7.52,7.49-16.27,13.37-26.01,17.48-10.08,4.25-20.78,6.41-31.8,6.41h-.31c-11.06-.04-21.78-2.25-31.87-6.56-9.74-4.16-18.48-10.1-25.98-17.65-7.5-7.55-13.37-16.33-17.46-26.11-4.23-10.12-6.36-20.85-6.32-31.91.04-11.03,2.24-21.73,6.53-31.8,4.14-9.72,10.06-18.45,17.58-25.94,7.52-7.49,16.27-13.37,26.01-17.48,3.14-1.33,6.35-2.45,9.6-3.36v-.3c-34.51,9.66-59.88,41.28-60.02,78.89-.17,45.41,36.51,82.36,81.92,82.53.11,0,.2,0,.31,0,45.27,0,82.05-36.62,82.22-81.92.14-37.82-25.28-69.77-60.02-79.49Z"/>
    <path class="cls-2" d="M28.85,111.06c1.34,1.25,1.8,2.53,1.35,2.78s-1.54-.4-2.66-1.94c-1.12-1.54-1.33-2.73-1.33-2.73,0,0,1.27.6,2.64,1.89Z"/>
    <path class="cls-2" d="M31.49,111.22c-1.28,1.16-1.7,2.37-1.25,2.62.44.25,1.5-.34,2.56-1.78,1.06-1.44,1.24-2.57,1.24-2.57,0,0-1.23.54-2.55,1.73Z"/>
    <path class="cls-2" d="M28.93,115.43c1.4,1.18,1.93,2.43,1.5,2.71s-1.56-.32-2.76-1.8c-1.2-1.48-1.48-2.65-1.48-2.65,0,0,1.3.54,2.74,1.75Z"/>
    <path class="cls-2" d="M31.57,115.45c-1.22,1.23-1.57,2.45-1.11,2.68.46.23,1.48-.42,2.47-1.92s1.1-2.63,1.1-2.63c0,0-1.2.61-2.45,1.87Z"/>
    <path class="cls-2" d="M29.24,119.79c1.46,1.11,2.05,2.32,1.63,2.62s-1.57-.24-2.85-1.65c-1.28-1.41-1.61-2.57-1.61-2.57,0,0,1.33.47,2.83,1.6Z"/>
    <path class="cls-2" d="M31.87,119.68c-1.15,1.29-1.44,2.53-.97,2.74.47.21,1.46-.5,2.36-2.04.91-1.54.96-2.69.96-2.69,0,0-1.17.67-2.35,1.99Z"/>
    <path class="cls-2" d="M29.77,124.13c1.52,1.03,2.17,2.21,1.77,2.53-.4.32-1.58-.16-2.93-1.5-1.35-1.34-1.74-2.49-1.74-2.49,0,0,1.35.4,2.91,1.45Z"/>
    <path class="cls-2" d="M32.4,123.88c-1.08,1.35-1.31,2.6-.83,2.79.48.18,1.43-.57,2.25-2.16.82-1.59.82-2.73.82-2.73,0,0-1.13.73-2.24,2.11Z"/>
    <path class="cls-2" d="M30.53,128.44c1.57.95,2.28,2.1,1.9,2.44-.38.34-1.59-.07-3.01-1.35-1.42-1.27-1.87-2.39-1.87-2.39,0,0,1.37.33,2.98,1.3Z"/>
    <path class="cls-2" d="M33.14,128.04c-1.01,1.4-1.17,2.67-.68,2.83.49.16,1.4-.65,2.14-2.28.74-1.63.67-2.77.67-2.77,0,0-1.09.79-2.13,2.23Z"/>
    <path class="cls-2" d="M31.51,132.7c1.62.87,2.39,1.97,2.02,2.34-.36.36-1.59,0-3.07-1.19-1.48-1.2-1.99-2.29-1.99-2.29,0,0,1.38.25,3.04,1.14Z"/>
    <path class="cls-2" d="M34.1,132.17c-.94,1.46-1.03,2.73-.53,2.86.5.13,1.36-.72,2.01-2.39.65-1.67.53-2.81.53-2.81,0,0-1.05.84-2.01,2.33Z"/>
    <path class="cls-2" d="M32.71,136.9c1.66.78,2.49,1.85,2.14,2.23-.35.38-1.59.09-3.13-1.02-1.54-1.12-2.11-2.18-2.11-2.18,0,0,1.4.18,3.1.98Z"/>
    <path class="cls-2" d="M35.27,136.23c-.86,1.5-.88,2.78-.38,2.88.5.11,1.32-.79,1.89-2.49.57-1.7.38-2.83.38-2.83,0,0-1.01.9-1.89,2.44Z"/>
    <path class="cls-2" d="M34.14,141.03c1.7.69,2.58,1.71,2.26,2.11-.32.4-1.58.18-3.18-.86-1.6-1.03-2.22-2.07-2.22-2.07,0,0,1.4.11,3.15.82Z"/>
    <path class="cls-2" d="M36.65,140.23c-.78,1.55-.74,2.82-.23,2.9s1.28-.86,1.75-2.58c.48-1.73.23-2.85.23-2.85,0,0-.96.95-1.76,2.53Z"/>
    <path class="cls-2" d="M35.77,145.08c1.73.6,2.67,1.58,2.37,1.99-.3.41-1.57.26-3.22-.69-1.65-.95-2.33-1.95-2.33-1.95,0,0,1.41.03,3.18.65Z"/>
    <path class="cls-2" d="M38.25,144.16c-.7,1.58-.59,2.85-.08,2.9.51.05,1.23-.92,1.61-2.67.38-1.75.08-2.85.08-2.85,0,0-.91,1-1.62,2.62Z"/>
    <path class="cls-2" d="M37.62,149.05c1.76.51,2.75,1.43,2.47,1.86-.28.43-1.55.34-3.25-.52-1.7-.86-2.43-1.82-2.43-1.82,0,0,1.41-.04,3.21.48Z"/>
    <path class="cls-2" d="M40.04,147.99c-.61,1.62-.44,2.88.07,2.9s1.18-.99,1.47-2.75c.29-1.77-.07-2.85-.07-2.85,0,0-.85,1.04-1.48,2.7Z"/>
    <path class="cls-2" d="M39.67,152.9c1.79.42,2.82,1.29,2.56,1.73-.26.44-1.53.42-3.28-.35-1.74-.77-2.52-1.7-2.52-1.7,0,0,1.4-.11,3.23.31Z"/>
    <path class="cls-2" d="M42.04,151.72c-.53,1.65-.29,2.9.23,2.9.51,0,1.13-1.05,1.33-2.83.2-1.78-.22-2.85-.22-2.85,0,0-.8,1.09-1.34,2.78Z"/>
    <path class="cls-2" d="M41.93,156.65c1.81.32,2.88,1.14,2.65,1.6s-1.51.5-3.29-.18c-1.78-.68-2.6-1.56-2.6-1.56,0,0,1.4-.19,3.25.14Z"/>
    <path class="cls-2" d="M44.22,155.35c-.44,1.67-.13,2.91.38,2.88.51-.03,1.07-1.1,1.18-2.89.11-1.79-.36-2.83-.36-2.83,0,0-.74,1.13-1.19,2.84Z"/>
    <path class="cls-2" d="M44.37,160.28c1.82.23,2.94.99,2.73,1.45-.21.47-1.48.58-3.29,0s-2.68-1.42-2.68-1.42c0,0,1.38-.26,3.25-.03Z"/>
    <path class="cls-2" d="M46.59,158.85c-.35,1.69.02,2.91.53,2.86.51-.06,1.01-1.16,1.02-2.95.01-1.79-.51-2.81-.51-2.81,0,0-.68,1.16-1.04,2.9Z"/>
    <path class="cls-2" d="M47,163.77c1.83.13,2.99.83,2.8,1.31-.19.48-1.45.65-3.29.17-1.84-.49-2.75-1.28-2.75-1.28,0,0,1.37-.33,3.24-.2Z"/>
    <path class="cls-2" d="M49.15,162.23c-.26,1.71.17,2.91.68,2.83.51-.08.95-1.21.87-3-.08-1.79-.66-2.78-.66-2.78,0,0-.62,1.2-.89,2.95Z"/>
    <path class="cls-2" d="M49.81,167.11c1.84.04,3.03.67,2.86,1.16s-1.41.73-3.28.34c-1.87-.39-2.82-1.13-2.82-1.13,0,0,1.35-.4,3.23-.37Z"/>
    <path class="cls-2" d="M51.87,165.47c-.17,1.72.32,2.89.82,2.79s.88-1.26.71-3.04c-.17-1.78-.8-2.74-.8-2.74,0,0-.55,1.23-.73,2.99Z"/>
    <path class="cls-2" d="M52.79,170.31c1.83-.06,3.06.52,2.92,1.01-.14.49-1.37.8-3.25.51s-2.87-.99-2.87-.99c0,0,1.33-.47,3.21-.53Z"/>
    <path class="cls-2" d="M54.77,168.56c-.08,1.73.47,2.87.97,2.74.49-.13.82-1.3.55-3.07-.27-1.77-.94-2.69-.94-2.69,0,0-.49,1.26-.57,3.03Z"/>
    <path class="cls-2" d="M55.93,173.35c1.83-.16,3.08.35,2.97.86-.11.5-1.33.87-3.22.68-1.9-.19-2.92-.83-2.92-.83,0,0,1.3-.54,3.17-.7Z"/>
    <path class="cls-2" d="M57.81,171.49c0,1.73.62,2.84,1.11,2.68.49-.16.75-1.34.39-3.1-.36-1.75-1.08-2.64-1.08-2.64,0,0-.42,1.28-.41,3.05Z"/>
    <path class="cls-2" d="M59.23,176.22c1.82-.25,3.09.19,3.01.7-.08.51-1.28.94-3.18.85-1.9-.09-2.96-.68-2.96-.68,0,0,1.27-.61,3.13-.87Z"/>
    <path class="cls-2" d="M61.01,174.27c.1,1.73.77,2.81,1.25,2.62.48-.19.68-1.38.23-3.11-.45-1.73-1.22-2.58-1.22-2.58,0,0-.35,1.3-.25,3.07Z"/>
    <path class="cls-2" d="M62.68,178.91c1.8-.35,3.1.03,3.04.54-.06.51-1.23,1.01-3.13,1.01-1.91,0-2.99-.52-2.99-.52,0,0,1.24-.67,3.08-1.03Z"/>
    <path class="cls-2" d="M64.35,176.87c.19,1.72.92,2.76,1.39,2.55.47-.21.6-1.41.06-3.12-.54-1.71-1.35-2.51-1.35-2.51,0,0-.29,1.32-.09,3.08Z"/>
    <path class="cls-2" d="M66.26,181.41c1.78-.44,3.1-.13,3.07.38-.03.51-1.17,1.07-3.08,1.17-1.9.1-3.01-.37-3.01-.37,0,0,1.2-.74,3.02-1.19Z"/>
    <path class="cls-2" d="M67.83,179.29c.28,1.71,1.06,2.71,1.52,2.48.46-.23.53-1.44-.1-3.12-.63-1.68-1.48-2.44-1.48-2.44,0,0-.22,1.33.07,3.08Z"/>
    <path class="cls-2" d="M69.96,183.73c1.76-.53,3.09-.29,3.08.22s-1.12,1.13-3.01,1.33c-1.89.2-3.03-.21-3.03-.21,0,0,1.16-.8,2.96-1.35Z"/>
    <path class="cls-2" d="M71.42,181.53c.37,1.69,1.2,2.65,1.64,2.4.44-.26.45-1.47-.26-3.11-.72-1.64-1.61-2.36-1.61-2.36,0,0-.15,1.34.23,3.07Z"/>
    <path class="cls-2" d="M73.79,185.85c1.73-.62,3.07-.45,3.09.06s-1.06,1.19-2.94,1.49c-1.88.3-3.04-.05-3.04-.05,0,0,1.12-.86,2.88-1.5Z"/>
    <path class="cls-2" d="M75.12,183.57c.45,1.67,1.34,2.59,1.77,2.31.43-.28.38-1.49-.43-3.09-.8-1.6-1.73-2.27-1.73-2.27,0,0-.08,1.34.39,3.06Z"/>
    <path class="cls-2" d="M77.72,187.77c1.69-.71,3.04-.61,3.09-.1.05.51-.99,1.24-2.86,1.64-1.86.4-3.03.11-3.03.11,0,0,1.07-.92,2.8-1.65Z"/>
    <path class="cls-2" d="M78.93,185.42c.54,1.64,1.47,2.51,1.89,2.21s.3-1.51-.59-3.07c-.88-1.56-1.85-2.18-1.85-2.18,0,0,0,1.35.55,3.03Z"/>
    <path class="cls-2" d="M81.74,189.47c1.65-.8,3-.77,3.08-.27.08.51-.93,1.29-2.77,1.79-1.84.5-3.02.27-3.02.27,0,0,1.02-.97,2.71-1.79Z"/>
    <path class="cls-2" d="M82.83,187.07c.63,1.61,1.6,2.43,2,2.11.4-.32.22-1.52-.75-3.03-.96-1.51-1.96-2.08-1.96-2.08,0,0,.06,1.35.71,3Z"/>
    <path class="cls-2" d="M85.85,190.97c1.61-.89,2.96-.93,3.06-.43.1.5-.86,1.34-2.67,1.93-1.81.59-3.01.43-3.01.43,0,0,.97-1.02,2.61-1.93Z"/>
    <path class="cls-2" d="M86.81,188.51c.71,1.58,1.73,2.35,2.11,2s.14-1.53-.9-2.99c-1.04-1.46-2.06-1.97-2.06-1.97,0,0,.13,1.34.86,2.96Z"/>
    <path class="cls-2" d="M90.03,192.25c1.56-.97,2.91-1.08,3.03-.59.13.5-.79,1.38-2.56,2.07-1.78.69-2.98.58-2.98.58,0,0,.91-1.07,2.51-2.06Z"/>
    <path class="cls-2" d="M90.86,189.74c.79,1.54,1.85,2.25,2.21,1.89.36-.36.06-1.54-1.06-2.94-1.12-1.4-2.17-1.86-2.17-1.86,0,0,.2,1.33,1.02,2.91Z"/>
    <path class="cls-2" d="M94.27,193.3c1.51-1.05,2.84-1.23,3-.74.16.49-.71,1.42-2.45,2.2-1.74.78-2.95.74-2.95.74,0,0,.85-1.12,2.4-2.19Z"/>
    <path class="cls-2" d="M94.97,190.76c.87,1.5,1.96,2.15,2.3,1.77s-.02-1.54-1.21-2.88c-1.19-1.34-2.26-1.74-2.26-1.74,0,0,.27,1.32,1.17,2.85Z"/>
    <path class="cls-2" d="M98.56,194.14c1.45-1.13,2.78-1.38,2.96-.9.18.48-.64,1.46-2.33,2.32-1.7.87-2.9.89-2.9.89,0,0,.8-1.16,2.28-2.32Z"/>
    <path class="cls-2" d="M99.13,191.56c.95,1.45,2.07,2.05,2.39,1.65.32-.4-.1-1.53-1.36-2.81-1.26-1.28-2.35-1.62-2.35-1.62,0,0,.34,1.3,1.31,2.79Z"/>
    <path class="cls-2" d="M102.89,194.75c1.39-1.2,2.7-1.52,2.91-1.05.21.47-.56,1.49-2.21,2.44-1.65.96-2.85,1.04-2.85,1.04,0,0,.73-1.2,2.15-2.43Z"/>
    <path class="cls-2" d="M103.32,192.14c1.02,1.4,2.18,1.93,2.48,1.52.3-.42-.18-1.53-1.51-2.73s-2.43-1.5-2.43-1.5c0,0,.41,1.28,1.46,2.71Z"/>
    <path class="cls-2" d="M107.24,195.13c1.32-1.27,2.62-1.66,2.85-1.2.23.46-.48,1.51-2.08,2.56s-2.79,1.19-2.79,1.19c0,0,.67-1.24,2.02-2.54Z"/>
    <path class="cls-2" d="M107.54,192.5c1.09,1.34,2.28,1.82,2.55,1.39.28-.43-.26-1.52-1.65-2.65-1.38-1.14-2.5-1.37-2.5-1.37,0,0,.48,1.26,1.6,2.63Z"/>
    <path class="cls-2" d="M91.44,30.96c-.87,1.62-1.97,2.39-2.34,2.02-.36-.36,0-1.59,1.19-3.07,1.2-1.48,2.29-1.99,2.29-1.99,0,0-.25,1.38-1.14,3.04Z"/>
    <path class="cls-2" d="M91.97,33.55c-1.46-.94-2.73-1.03-2.86-.53-.13.5.72,1.36,2.39,2.01,1.67.65,2.81.53,2.81.53,0,0-.84-1.05-2.33-2.01Z"/>
    <path class="cls-2" d="M87.24,32.17c-.78,1.66-1.85,2.49-2.23,2.14-.38-.35-.09-1.59,1.02-3.13,1.12-1.54,2.18-2.11,2.18-2.11,0,0-.18,1.4-.98,3.1Z"/>
    <path class="cls-2" d="M87.9,34.72c-1.5-.86-2.78-.88-2.88-.38-.11.5.79,1.32,2.49,1.89,1.7.57,2.83.38,2.83.38,0,0-.9-1.01-2.44-1.89Z"/>
    <path class="cls-2" d="M83.1,33.59c-.69,1.7-1.71,2.58-2.11,2.26-.4-.32-.18-1.58.86-3.18,1.03-1.6,2.07-2.22,2.07-2.22,0,0-.11,1.4-.82,3.15Z"/>
    <path class="cls-2" d="M83.9,36.11c-1.55-.78-2.82-.74-2.9-.23-.08.51.86,1.28,2.58,1.75,1.73.48,2.85.23,2.85.23,0,0-.95-.96-2.53-1.76Z"/>
    <path class="cls-2" d="M79.05,35.23c-.6,1.73-1.58,2.67-1.99,2.37-.41-.3-.26-1.57.69-3.22.95-1.65,1.95-2.33,1.95-2.33,0,0-.03,1.41-.65,3.18Z"/>
    <path class="cls-2" d="M79.98,37.7c-1.58-.7-2.85-.59-2.9-.08-.05.51.92,1.23,2.67,1.61,1.75.38,2.85.08,2.85.08,0,0-1-.91-2.62-1.62Z"/>
    <path class="cls-2" d="M75.09,37.08c-.51,1.76-1.43,2.75-1.86,2.47-.43-.28-.34-1.55.52-3.25.86-1.7,1.82-2.43,1.82-2.43,0,0,.04,1.41-.48,3.21Z"/>
    <path class="cls-2" d="M76.15,39.5c-1.62-.61-2.88-.44-2.9.07-.03.51.99,1.18,2.75,1.47,1.77.29,2.85-.07,2.85-.07,0,0-1.04-.85-2.7-1.48Z"/>
    <path class="cls-2" d="M71.23,39.13c-.42,1.79-1.29,2.82-1.73,2.56-.44-.26-.42-1.53.35-3.28.77-1.74,1.7-2.52,1.7-2.52,0,0,.11,1.4-.31,3.23Z"/>
    <path class="cls-2" d="M72.41,41.49c-1.65-.53-2.9-.29-2.9.23,0,.51,1.05,1.13,2.83,1.33,1.78.2,2.85-.22,2.85-.22,0,0-1.09-.8-2.78-1.34Z"/>
    <path class="cls-2" d="M67.48,41.38c-.32,1.81-1.14,2.88-1.6,2.65s-.5-1.51.18-3.29c.68-1.78,1.56-2.6,1.56-2.6,0,0,.19,1.4-.14,3.25Z"/>
    <path class="cls-2" d="M68.79,43.68c-1.67-.44-2.91-.13-2.88.38.03.51,1.1,1.07,2.89,1.18,1.79.11,2.83-.36,2.83-.36,0,0-1.13-.74-2.84-1.19Z"/>
    <path class="cls-2" d="M63.86,43.82c-.23,1.82-.99,2.94-1.45,2.73-.47-.21-.58-1.48,0-3.29.58-1.81,1.42-2.68,1.42-2.68,0,0,.26,1.38.03,3.25Z"/>
    <path class="cls-2" d="M65.28,46.05c-1.69-.35-2.91.02-2.86.53s1.16,1.01,2.95,1.02,2.81-.51,2.81-.51c0,0-1.16-.68-2.9-1.04Z"/>
    <path class="cls-2" d="M60.37,46.45c-.13,1.83-.83,2.99-1.31,2.8-.48-.19-.65-1.45-.17-3.29.49-1.84,1.28-2.75,1.28-2.75,0,0,.33,1.37.2,3.24Z"/>
    <path class="cls-2" d="M61.91,48.6c-1.71-.26-2.91.17-2.83.68.08.51,1.21.95,3,.87s2.78-.66,2.78-.66c0,0-1.2-.62-2.95-.89Z"/>
    <path class="cls-2" d="M57.02,49.26c-.04,1.84-.67,3.03-1.16,2.86-.49-.16-.73-1.41-.34-3.28.39-1.87,1.13-2.82,1.13-2.82,0,0,.4,1.35.37,3.23Z"/>
    <path class="cls-2" d="M58.67,51.33c-1.72-.17-2.89.32-2.79.82s1.26.88,3.04.71c1.78-.17,2.74-.8,2.74-.8,0,0-1.23-.55-2.99-.73Z"/>
    <path class="cls-2" d="M53.82,52.24c.06,1.83-.52,3.06-1.01,2.92s-.8-1.37-.51-3.25c.29-1.88.99-2.87.99-2.87,0,0,.47,1.33.53,3.21Z"/>
    <path class="cls-2" d="M55.58,54.22c-1.73-.08-2.87.47-2.74.97s1.3.82,3.07.55c1.77-.27,2.69-.94,2.69-.94,0,0-1.26-.49-3.03-.57Z"/>
    <path class="cls-2" d="M50.79,55.39c.16,1.83-.35,3.08-.86,2.97-.5-.11-.87-1.33-.68-3.22.19-1.9.83-2.92.83-2.92,0,0,.54,1.3.7,3.17Z"/>
    <path class="cls-2" d="M52.64,57.27c-1.73,0-2.84.62-2.68,1.11.16.49,1.34.75,3.1.39s2.64-1.08,2.64-1.08c0,0-1.28-.42-3.05-.41Z"/>
    <path class="cls-2" d="M47.92,58.69c.25,1.82-.19,3.09-.7,3.01-.51-.08-.94-1.28-.85-3.18.09-1.9.68-2.96.68-2.96,0,0,.61,1.27.87,3.13Z"/>
    <path class="cls-2" d="M49.87,60.47c-1.73.1-2.81.77-2.62,1.25.19.48,1.38.68,3.11.23,1.73-.45,2.58-1.22,2.58-1.22,0,0-1.3-.35-3.07-.25Z"/>
    <path class="cls-2" d="M45.23,62.13c.35,1.8-.03,3.1-.54,3.04-.51-.06-1.01-1.23-1.01-3.13s.52-2.99.52-2.99c0,0,.67,1.24,1.03,3.08Z"/>
    <path class="cls-2" d="M47.27,63.81c-1.72.19-2.76.92-2.55,1.39.21.47,1.41.6,3.12.06,1.71-.54,2.51-1.35,2.51-1.35,0,0-1.32-.29-3.08-.09Z"/>
    <path class="cls-2" d="M42.72,65.71c.44,1.78.13,3.1-.38,3.07s-1.07-1.17-1.17-3.08c-.1-1.9.37-3.01.37-3.01,0,0,.74,1.2,1.19,3.02Z"/>
    <path class="cls-2" d="M44.85,67.28c-1.71.28-2.71,1.06-2.48,1.52.23.46,1.44.53,3.12-.1,1.68-.63,2.44-1.48,2.44-1.48,0,0-1.33-.22-3.08.07Z"/>
    <path class="cls-2" d="M40.41,69.42c.53,1.76.29,3.09-.22,3.08-.51,0-1.13-1.12-1.33-3.01-.2-1.89.21-3.03.21-3.03,0,0,.8,1.16,1.35,2.96Z"/>
    <path class="cls-2" d="M42.61,70.87c-1.69.37-2.65,1.2-2.4,1.64s1.47.45,3.11-.26c1.64-.72,2.36-1.61,2.36-1.61,0,0-1.34-.15-3.07.23Z"/>
    <path class="cls-2" d="M38.29,73.24c.62,1.73.45,3.07-.06,3.09-.51.02-1.19-1.06-1.49-2.94-.3-1.88.05-3.04.05-3.04,0,0,.86,1.12,1.5,2.88Z"/>
    <path class="cls-2" d="M40.56,74.58c-1.67.45-2.59,1.34-2.31,1.77.28.43,1.49.38,3.09-.43,1.6-.8,2.27-1.73,2.27-1.73,0,0-1.34-.08-3.06.39Z"/>
    <path class="cls-2" d="M36.37,77.17c.71,1.69.61,3.04.1,3.09-.51.05-1.24-.99-1.64-2.86-.4-1.86-.11-3.03-.11-3.03,0,0,.92,1.07,1.65,2.8Z"/>
    <path class="cls-2" d="M38.71,78.39c-1.64.54-2.51,1.47-2.21,1.89s1.51.3,3.07-.59c1.56-.88,2.18-1.85,2.18-1.85,0,0-1.35,0-3.03.55Z"/>
    <path class="cls-2" d="M34.66,81.19c.8,1.65.77,3,.27,3.08s-1.29-.93-1.79-2.77c-.5-1.84-.27-3.02-.27-3.02,0,0,.97,1.02,1.79,2.71Z"/>
    <path class="cls-2" d="M37.07,82.29c-1.61.63-2.43,1.6-2.11,2,.32.4,1.52.22,3.03-.75,1.51-.96,2.08-1.96,2.08-1.96,0,0-1.35.06-3,.71Z"/>
    <path class="cls-2" d="M33.17,85.3c.89,1.61.93,2.96.43,3.06-.5.1-1.34-.86-1.93-2.67-.59-1.81-.43-3.01-.43-3.01,0,0,1.02.97,1.93,2.61Z"/>
    <path class="cls-2" d="M35.62,86.27c-1.58.71-2.35,1.73-2,2.11.34.38,1.53.14,2.99-.9,1.46-1.04,1.97-2.06,1.97-2.06,0,0-1.34.13-2.96.86Z"/>
    <path class="cls-2" d="M31.89,89.48c.97,1.56,1.08,2.91.59,3.03-.5.13-1.38-.79-2.07-2.56-.69-1.78-.58-2.98-.58-2.98,0,0,1.07.91,2.06,2.51Z"/>
    <path class="cls-2" d="M34.39,90.32c-1.54.79-2.25,1.85-1.89,2.21.36.36,1.54.06,2.94-1.06,1.4-1.12,1.86-2.17,1.86-2.17,0,0-1.33.2-2.91,1.02Z"/>
    <path class="cls-2" d="M30.83,93.72c1.05,1.51,1.23,2.84.74,3-.49.16-1.42-.71-2.2-2.45-.78-1.74-.74-2.95-.74-2.95,0,0,1.12.85,2.19,2.4Z"/>
    <path class="cls-2" d="M33.38,94.42c-1.5.87-2.15,1.96-1.77,2.3.38.34,1.54-.02,2.88-1.21,1.34-1.19,1.74-2.26,1.74-2.26,0,0-1.32.27-2.85,1.17Z"/>
    <path class="cls-2" d="M30,98.01c1.13,1.45,1.38,2.78.9,2.96-.48.18-1.46-.64-2.32-2.33-.87-1.7-.89-2.9-.89-2.9,0,0,1.16.8,2.32,2.28Z"/>
    <path class="cls-2" d="M32.58,98.58c-1.45.95-2.05,2.07-1.65,2.39.4.32,1.53-.1,2.81-1.36,1.28-1.26,1.62-2.35,1.62-2.35,0,0-1.3.34-2.79,1.31Z"/>
    <path class="cls-2" d="M29.39,102.34c1.2,1.39,1.52,2.7,1.05,2.91-.47.21-1.49-.56-2.44-2.21-.96-1.65-1.04-2.85-1.04-2.85,0,0,1.2.73,2.43,2.15Z"/>
    <path class="cls-2" d="M31.99,102.77c-1.4,1.02-1.93,2.18-1.52,2.48.42.3,1.53-.18,2.73-1.51,1.21-1.32,1.5-2.43,1.5-2.43,0,0-1.28.41-2.71,1.46Z"/>
    <path class="cls-2" d="M29.01,106.7c1.27,1.32,1.66,2.62,1.2,2.85-.46.23-1.51-.48-2.56-2.08-1.04-1.6-1.19-2.79-1.19-2.79,0,0,1.24.67,2.54,2.02Z"/>
    <path class="cls-2" d="M31.63,106.99c-1.34,1.09-1.82,2.28-1.39,2.55.43.28,1.52-.26,2.65-1.65,1.14-1.38,1.37-2.5,1.37-2.5,0,0-1.26.48-2.63,1.6Z"/>
    <path class="cls-2" d="M195.73,111.06c-1.34,1.25-1.8,2.53-1.35,2.78s1.54-.4,2.66-1.94c1.12-1.54,1.33-2.73,1.33-2.73,0,0-1.27.6-2.64,1.89Z"/>
    <path class="cls-2" d="M193.09,111.22c1.28,1.16,1.7,2.37,1.25,2.62-.44.25-1.5-.34-2.56-1.78-1.06-1.44-1.24-2.57-1.24-2.57,0,0,1.23.54,2.55,1.73Z"/>
    <path class="cls-2" d="M195.65,115.43c-1.4,1.18-1.93,2.43-1.5,2.71.43.28,1.56-.32,2.76-1.8,1.2-1.48,1.48-2.65,1.48-2.65,0,0-1.3.54-2.74,1.75Z"/>
    <path class="cls-2" d="M193.01,115.45c1.22,1.23,1.57,2.45,1.11,2.68-.46.23-1.48-.42-2.47-1.92-.99-1.49-1.1-2.63-1.1-2.63,0,0,1.2.61,2.45,1.87Z"/>
    <path class="cls-2" d="M195.34,119.79c-1.46,1.11-2.05,2.32-1.63,2.62s1.57-.24,2.85-1.65c1.28-1.41,1.61-2.57,1.61-2.57,0,0-1.33.47-2.83,1.6Z"/>
    <path class="cls-2" d="M192.71,119.68c1.15,1.29,1.44,2.53.97,2.74-.47.21-1.46-.5-2.36-2.04-.91-1.54-.96-2.69-.96-2.69,0,0,1.17.67,2.35,1.99Z"/>
    <path class="cls-2" d="M194.81,124.13c-1.52,1.03-2.17,2.21-1.77,2.53.4.32,1.58-.16,2.93-1.5,1.35-1.34,1.74-2.49,1.74-2.49,0,0-1.35.4-2.91,1.45Z"/>
    <path class="cls-2" d="M192.18,123.88c1.08,1.35,1.31,2.6.83,2.79s-1.43-.57-2.25-2.16c-.82-1.59-.82-2.73-.82-2.73,0,0,1.13.73,2.24,2.11Z"/>
    <path class="cls-2" d="M194.05,128.44c-1.57.95-2.28,2.1-1.9,2.44.38.34,1.59-.07,3.01-1.35,1.42-1.27,1.87-2.39,1.87-2.39,0,0-1.37.33-2.98,1.3Z"/>
    <path class="cls-2" d="M191.44,128.04c1.01,1.4,1.17,2.67.68,2.83-.49.16-1.4-.65-2.14-2.28-.74-1.63-.67-2.77-.67-2.77,0,0,1.09.79,2.13,2.23Z"/>
    <path class="cls-2" d="M193.07,132.7c-1.62.87-2.39,1.97-2.02,2.34s1.59,0,3.07-1.19c1.48-1.2,1.99-2.29,1.99-2.29,0,0-1.38.25-3.04,1.14Z"/>
    <path class="cls-2" d="M190.48,132.17c.94,1.46,1.03,2.73.53,2.86-.5.13-1.36-.72-2.01-2.39-.65-1.67-.53-2.81-.53-2.81,0,0,1.05.84,2.01,2.33Z"/>
    <path class="cls-2" d="M191.86,136.9c-1.66.78-2.49,1.85-2.14,2.23.35.38,1.59.09,3.13-1.02,1.54-1.12,2.11-2.18,2.11-2.18,0,0-1.4.18-3.1.98Z"/>
    <path class="cls-2" d="M189.31,136.23c.86,1.5.88,2.78.38,2.88-.5.11-1.32-.79-1.89-2.49-.57-1.7-.38-2.83-.38-2.83,0,0,1.01.9,1.89,2.44Z"/>
    <path class="cls-2" d="M190.44,141.03c-1.7.69-2.58,1.71-2.26,2.11.32.4,1.58.18,3.18-.86,1.6-1.03,2.22-2.07,2.22-2.07,0,0-1.4.11-3.15.82Z"/>
    <path class="cls-2" d="M187.92,140.23c.78,1.55.74,2.82.23,2.9s-1.28-.86-1.75-2.58c-.48-1.73-.23-2.85-.23-2.85,0,0,.96.95,1.76,2.53Z"/>
    <path class="cls-2" d="M188.8,145.08c-1.73.6-2.67,1.58-2.37,1.99.3.41,1.57.26,3.22-.69,1.65-.95,2.33-1.95,2.33-1.95,0,0-1.41.03-3.18.65Z"/>
    <path class="cls-2" d="M186.33,144.16c.7,1.58.59,2.85.08,2.9-.51.05-1.23-.92-1.61-2.67-.38-1.75-.08-2.85-.08-2.85,0,0,.91,1,1.62,2.62Z"/>
    <path class="cls-2" d="M186.96,149.05c-1.76.51-2.75,1.43-2.47,1.86.28.43,1.55.34,3.25-.52,1.7-.86,2.43-1.82,2.43-1.82,0,0-1.41-.04-3.21.48Z"/>
    <path class="cls-2" d="M184.54,147.99c.61,1.62.44,2.88-.07,2.9-.51.03-1.18-.99-1.47-2.75-.29-1.77.07-2.85.07-2.85,0,0,.85,1.04,1.48,2.7Z"/>
    <path class="cls-2" d="M184.91,152.9c-1.79.42-2.82,1.29-2.56,1.73.26.44,1.53.42,3.28-.35,1.74-.77,2.52-1.7,2.52-1.7,0,0-1.4-.11-3.23.31Z"/>
    <path class="cls-2" d="M182.54,151.72c.53,1.65.29,2.9-.23,2.9-.51,0-1.13-1.05-1.33-2.83-.2-1.78.22-2.85.22-2.85,0,0,.8,1.09,1.34,2.78Z"/>
    <path class="cls-2" d="M182.65,156.65c-1.81.32-2.88,1.14-2.65,1.6s1.51.5,3.29-.18c1.78-.68,2.6-1.56,2.6-1.56,0,0-1.4-.19-3.25.14Z"/>
    <path class="cls-2" d="M180.36,155.35c.44,1.67.13,2.91-.38,2.88-.51-.03-1.07-1.1-1.18-2.89-.11-1.79.36-2.83.36-2.83,0,0,.74,1.13,1.19,2.84Z"/>
    <path class="cls-2" d="M180.21,160.28c-1.82.23-2.94.99-2.73,1.45.21.47,1.48.58,3.29,0,1.81-.58,2.68-1.42,2.68-1.42,0,0-1.38-.26-3.25-.03Z"/>
    <path class="cls-2" d="M177.99,158.85c.35,1.69-.02,2.91-.53,2.86-.51-.06-1.01-1.16-1.02-2.95-.01-1.79.51-2.81.51-2.81,0,0,.68,1.16,1.04,2.9Z"/>
    <path class="cls-2" d="M177.58,163.77c-1.83.13-2.99.83-2.8,1.31.19.48,1.45.65,3.29.17,1.84-.49,2.75-1.28,2.75-1.28,0,0-1.37-.33-3.24-.2Z"/>
    <path class="cls-2" d="M175.43,162.23c.26,1.71-.17,2.91-.68,2.83-.51-.08-.95-1.21-.87-3,.08-1.79.66-2.78.66-2.78,0,0,.62,1.2.89,2.95Z"/>
    <path class="cls-2" d="M174.77,167.11c-1.84.04-3.03.67-2.86,1.16.16.49,1.41.73,3.28.34,1.87-.39,2.82-1.13,2.82-1.13,0,0-1.35-.4-3.23-.37Z"/>
    <path class="cls-2" d="M172.71,165.47c.17,1.72-.32,2.89-.82,2.79s-.88-1.26-.71-3.04c.17-1.78.8-2.74.8-2.74,0,0,.55,1.23.73,2.99Z"/>
    <path class="cls-2" d="M171.79,170.31c-1.83-.06-3.06.52-2.92,1.01.14.49,1.37.8,3.25.51s2.87-.99,2.87-.99c0,0-1.33-.47-3.21-.53Z"/>
    <path class="cls-2" d="M169.81,168.56c.08,1.73-.47,2.87-.97,2.74-.49-.13-.82-1.3-.55-3.07.27-1.77.94-2.69.94-2.69,0,0,.49,1.26.57,3.03Z"/>
    <path class="cls-2" d="M168.65,173.35c-1.83-.16-3.08.35-2.97.86.11.5,1.33.87,3.22.68,1.9-.19,2.92-.83,2.92-.83,0,0-1.3-.54-3.17-.7Z"/>
    <path class="cls-2" d="M166.76,171.49c0,1.73-.62,2.84-1.11,2.68-.49-.16-.75-1.34-.39-3.1.36-1.75,1.08-2.64,1.08-2.64,0,0,.42,1.28.41,3.05Z"/>
    <path class="cls-2" d="M165.35,176.22c-1.82-.25-3.09.19-3.01.7.08.51,1.28.94,3.18.85,1.9-.09,2.96-.68,2.96-.68,0,0-1.27-.61-3.13-.87Z"/>
    <path class="cls-2" d="M163.57,174.27c-.1,1.73-.77,2.81-1.25,2.62-.48-.19-.68-1.38-.23-3.11.45-1.73,1.22-2.58,1.22-2.58,0,0,.35,1.3.25,3.07Z"/>
    <path class="cls-2" d="M161.9,178.91c-1.8-.35-3.1.03-3.04.54.06.51,1.23,1.01,3.13,1.01,1.91,0,2.99-.52,2.99-.52,0,0-1.24-.67-3.08-1.03Z"/>
    <path class="cls-2" d="M160.23,176.87c-.19,1.72-.92,2.76-1.39,2.55-.47-.21-.6-1.41-.06-3.12.54-1.71,1.35-2.51,1.35-2.51,0,0,.29,1.32.09,3.08Z"/>
    <path class="cls-2" d="M158.32,181.41c-1.78-.44-3.1-.13-3.07.38s1.17,1.07,3.08,1.17c1.9.1,3.01-.37,3.01-.37,0,0-1.2-.74-3.02-1.19Z"/>
    <path class="cls-2" d="M156.75,179.29c-.28,1.71-1.06,2.71-1.52,2.48-.46-.23-.53-1.44.1-3.12.63-1.68,1.48-2.44,1.48-2.44,0,0,.22,1.33-.07,3.08Z"/>
    <path class="cls-2" d="M154.62,183.73c-1.76-.53-3.09-.29-3.08.22,0,.51,1.12,1.13,3.01,1.33,1.89.2,3.03-.21,3.03-.21,0,0-1.16-.8-2.96-1.35Z"/>
    <path class="cls-2" d="M153.16,181.53c-.37,1.69-1.2,2.65-1.64,2.4-.44-.26-.45-1.47.26-3.11.72-1.64,1.61-2.36,1.61-2.36,0,0,.15,1.34-.23,3.07Z"/>
    <path class="cls-2" d="M150.79,185.85c-1.73-.62-3.07-.45-3.09.06-.02.51,1.06,1.19,2.94,1.49,1.88.3,3.04-.05,3.04-.05,0,0-1.12-.86-2.88-1.5Z"/>
    <path class="cls-2" d="M149.46,183.57c-.45,1.67-1.34,2.59-1.77,2.31-.43-.28-.38-1.49.43-3.09.8-1.6,1.73-2.27,1.73-2.27,0,0,.08,1.34-.39,3.06Z"/>
    <path class="cls-2" d="M146.86,187.77c-1.69-.71-3.04-.61-3.09-.1s.99,1.24,2.86,1.64,3.03.11,3.03.11c0,0-1.07-.92-2.8-1.65Z"/>
    <path class="cls-2" d="M145.65,185.42c-.54,1.64-1.47,2.51-1.89,2.21-.41-.3-.3-1.51.59-3.07.88-1.56,1.85-2.18,1.85-2.18,0,0,0,1.35-.55,3.03Z"/>
    <path class="cls-2" d="M142.84,189.47c-1.65-.8-3-.77-3.08-.27-.08.51.93,1.29,2.77,1.79s3.02.27,3.02.27c0,0-1.02-.97-2.71-1.79Z"/>
    <path class="cls-2" d="M141.75,187.07c-.63,1.61-1.6,2.43-2,2.11s-.22-1.52.75-3.03c.96-1.51,1.96-2.08,1.96-2.08,0,0-.06,1.35-.71,3Z"/>
    <path class="cls-2" d="M138.73,190.97c-1.61-.89-2.96-.93-3.06-.43s.86,1.34,2.67,1.93c1.81.59,3.01.43,3.01.43,0,0-.97-1.02-2.61-1.93Z"/>
    <path class="cls-2" d="M137.77,188.51c-.71,1.58-1.73,2.35-2.11,2s-.14-1.53.9-2.99c1.04-1.46,2.06-1.97,2.06-1.97,0,0-.13,1.34-.86,2.96Z"/>
    <path class="cls-2" d="M134.55,192.25c-1.56-.97-2.91-1.08-3.03-.59-.13.5.79,1.38,2.56,2.07,1.78.69,2.98.58,2.98.58,0,0-.91-1.07-2.51-2.06Z"/>
    <path class="cls-2" d="M133.72,189.74c-.79,1.54-1.85,2.25-2.21,1.89-.36-.36-.06-1.54,1.06-2.94,1.12-1.4,2.17-1.86,2.17-1.86,0,0-.2,1.33-1.02,2.91Z"/>
    <path class="cls-2" d="M130.31,193.3c-1.51-1.05-2.84-1.23-3-.74-.16.49.71,1.42,2.45,2.2,1.74.78,2.95.74,2.95.74,0,0-.85-1.12-2.4-2.19Z"/>
    <path class="cls-2" d="M129.61,190.76c-.87,1.5-1.96,2.15-2.3,1.77-.34-.38.02-1.54,1.21-2.88,1.19-1.34,2.26-1.74,2.26-1.74,0,0-.27,1.32-1.17,2.85Z"/>
    <path class="cls-2" d="M126.02,194.14c-1.45-1.13-2.78-1.38-2.96-.9-.18.48.64,1.46,2.33,2.32s2.9.89,2.9.89c0,0-.8-1.16-2.28-2.32Z"/>
    <path class="cls-2" d="M125.45,191.56c-.95,1.45-2.07,2.05-2.39,1.65-.32-.4.1-1.53,1.36-2.81,1.26-1.28,2.35-1.62,2.35-1.62,0,0-.34,1.3-1.31,2.79Z"/>
    <path class="cls-2" d="M121.69,194.75c-1.39-1.2-2.7-1.52-2.91-1.05-.21.47.56,1.49,2.21,2.44,1.65.96,2.85,1.04,2.85,1.04,0,0-.73-1.2-2.15-2.43Z"/>
    <path class="cls-2" d="M121.26,192.14c-1.02,1.4-2.18,1.93-2.48,1.52-.3-.42.18-1.53,1.51-2.73,1.32-1.21,2.43-1.5,2.43-1.5,0,0-.41,1.28-1.46,2.71Z"/>
    <path class="cls-2" d="M117.34,195.13c-1.32-1.27-2.62-1.66-2.85-1.2-.23.46.48,1.51,2.08,2.56,1.6,1.04,2.79,1.19,2.79,1.19,0,0-.67-1.24-2.02-2.54Z"/>
    <path class="cls-2" d="M117.04,192.5c-1.09,1.34-2.28,1.82-2.55,1.39-.28-.43.26-1.52,1.65-2.65,1.38-1.14,2.5-1.37,2.5-1.37,0,0-.48,1.26-1.6,2.63Z"/>
    <path class="cls-2" d="M133.14,30.96c.87,1.62,1.97,2.39,2.34,2.02.36-.36,0-1.59-1.19-3.07-1.2-1.48-2.29-1.99-2.29-1.99,0,0,.25,1.38,1.14,3.04Z"/>
    <path class="cls-2" d="M132.61,33.55c1.46-.94,2.73-1.03,2.86-.53.13.5-.72,1.36-2.39,2.01-1.67.65-2.81.53-2.81.53,0,0,.84-1.05,2.33-2.01Z"/>
    <path class="cls-2" d="M137.34,32.17c.78,1.66,1.85,2.49,2.23,2.14.38-.35.09-1.59-1.02-3.13-1.12-1.54-2.18-2.11-2.18-2.11,0,0,.18,1.4.98,3.1Z"/>
    <path class="cls-2" d="M136.68,34.72c1.5-.86,2.78-.88,2.88-.38s-.79,1.32-2.49,1.89c-1.7.57-2.83.38-2.83.38,0,0,.9-1.01,2.44-1.89Z"/>
    <path class="cls-2" d="M141.47,33.59c.69,1.7,1.71,2.58,2.11,2.26.4-.32.18-1.58-.86-3.18-1.03-1.6-2.07-2.22-2.07-2.22,0,0,.11,1.4.82,3.15Z"/>
    <path class="cls-2" d="M140.68,36.11c1.55-.78,2.82-.74,2.9-.23.08.51-.86,1.28-2.58,1.75-1.73.48-2.85.23-2.85.23,0,0,.95-.96,2.53-1.76Z"/>
    <path class="cls-2" d="M145.53,35.23c.6,1.73,1.58,2.67,1.99,2.37.41-.3.26-1.57-.69-3.22-.95-1.65-1.95-2.33-1.95-2.33,0,0,.03,1.41.65,3.18Z"/>
    <path class="cls-2" d="M144.6,37.7c1.58-.7,2.85-.59,2.9-.08.05.51-.92,1.23-2.67,1.61-1.75.38-2.85.08-2.85.08,0,0,1-.91,2.62-1.62Z"/>
    <path class="cls-2" d="M149.49,37.08c.51,1.76,1.43,2.75,1.86,2.47.43-.28.34-1.55-.52-3.25-.86-1.7-1.82-2.43-1.82-2.43,0,0-.04,1.41.48,3.21Z"/>
    <path class="cls-2" d="M148.43,39.5c1.62-.61,2.88-.44,2.9.07.03.51-.99,1.18-2.75,1.47-1.77.29-2.85-.07-2.85-.07,0,0,1.04-.85,2.7-1.48Z"/>
    <path class="cls-2" d="M153.35,39.13c.42,1.79,1.29,2.82,1.73,2.56.44-.26.42-1.53-.35-3.28-.77-1.74-1.7-2.52-1.7-2.52,0,0-.11,1.4.31,3.23Z"/>
    <path class="cls-2" d="M152.17,41.49c1.65-.53,2.9-.29,2.9.23,0,.51-1.05,1.13-2.83,1.33-1.78.2-2.85-.22-2.85-.22,0,0,1.09-.8,2.78-1.34Z"/>
    <path class="cls-2" d="M157.1,41.38c.32,1.81,1.14,2.88,1.6,2.65.46-.24.5-1.51-.18-3.29-.68-1.78-1.56-2.6-1.56-2.6,0,0-.19,1.4.14,3.25Z"/>
    <path class="cls-2" d="M155.79,43.68c1.67-.44,2.91-.13,2.88.38-.03.51-1.1,1.07-2.89,1.18-1.79.11-2.83-.36-2.83-.36,0,0,1.13-.74,2.84-1.19Z"/>
    <path class="cls-2" d="M160.72,43.82c.23,1.82.99,2.94,1.45,2.73s.58-1.48,0-3.29c-.58-1.81-1.42-2.68-1.42-2.68,0,0-.26,1.38-.03,3.25Z"/>
    <path class="cls-2" d="M159.3,46.05c1.69-.35,2.91.02,2.86.53s-1.16,1.01-2.95,1.02-2.81-.51-2.81-.51c0,0,1.16-.68,2.9-1.04Z"/>
    <path class="cls-2" d="M164.21,46.45c.13,1.83.83,2.99,1.31,2.8.48-.19.65-1.45.17-3.29-.49-1.84-1.28-2.75-1.28-2.75,0,0-.33,1.37-.2,3.24Z"/>
    <path class="cls-2" d="M162.67,48.6c1.71-.26,2.91.17,2.83.68-.08.51-1.21.95-3,.87s-2.78-.66-2.78-.66c0,0,1.2-.62,2.95-.89Z"/>
    <path class="cls-2" d="M167.56,49.26c.04,1.84.67,3.03,1.16,2.86s.73-1.41.34-3.28c-.39-1.87-1.13-2.82-1.13-2.82,0,0-.4,1.35-.37,3.23Z"/>
    <path class="cls-2" d="M165.91,51.33c1.72-.17,2.89.32,2.79.82s-1.26.88-3.04.71c-1.78-.17-2.74-.8-2.74-.8,0,0,1.23-.55,2.99-.73Z"/>
    <path class="cls-2" d="M170.76,52.24c-.06,1.83.52,3.06,1.01,2.92.49-.14.8-1.37.51-3.25-.29-1.88-.99-2.87-.99-2.87,0,0-.47,1.33-.53,3.21Z"/>
    <path class="cls-2" d="M169,54.22c1.73-.08,2.87.47,2.74.97-.13.49-1.3.82-3.07.55-1.77-.27-2.69-.94-2.69-.94,0,0,1.26-.49,3.03-.57Z"/>
    <path class="cls-2" d="M173.79,55.39c-.16,1.83.35,3.08.86,2.97.5-.11.87-1.33.68-3.22-.19-1.9-.83-2.92-.83-2.92,0,0-.54,1.3-.7,3.17Z"/>
    <path class="cls-2" d="M171.94,57.27c1.73,0,2.84.62,2.68,1.11-.16.49-1.34.75-3.1.39s-2.64-1.08-2.64-1.08c0,0,1.28-.42,3.05-.41Z"/>
    <path class="cls-2" d="M176.66,58.69c-.25,1.82.19,3.09.7,3.01s.94-1.28.85-3.18c-.09-1.9-.68-2.96-.68-2.96,0,0-.61,1.27-.87,3.13Z"/>
    <path class="cls-2" d="M174.71,60.47c1.73.1,2.81.77,2.62,1.25-.19.48-1.38.68-3.11.23s-2.58-1.22-2.58-1.22c0,0,1.3-.35,3.07-.25Z"/>
    <path class="cls-2" d="M179.35,62.13c-.35,1.8.03,3.1.54,3.04s1.01-1.23,1.01-3.13-.52-2.99-.52-2.99c0,0-.67,1.24-1.03,3.08Z"/>
    <path class="cls-2" d="M177.31,63.81c1.72.19,2.76.92,2.55,1.39-.21.47-1.41.6-3.12.06-1.71-.54-2.51-1.35-2.51-1.35,0,0,1.32-.29,3.08-.09Z"/>
    <path class="cls-2" d="M181.86,65.71c-.44,1.78-.13,3.1.38,3.07s1.07-1.17,1.17-3.08c.1-1.9-.37-3.01-.37-3.01,0,0-.74,1.2-1.19,3.02Z"/>
    <path class="cls-2" d="M179.73,67.28c1.71.28,2.71,1.06,2.48,1.52-.23.46-1.44.53-3.12-.1-1.68-.63-2.44-1.48-2.44-1.48,0,0,1.33-.22,3.08.07Z"/>
    <path class="cls-2" d="M184.17,69.42c-.53,1.76-.29,3.09.22,3.08.51,0,1.13-1.12,1.33-3.01.2-1.89-.21-3.03-.21-3.03,0,0-.8,1.16-1.35,2.96Z"/>
    <path class="cls-2" d="M181.97,70.87c1.69.37,2.65,1.2,2.4,1.64s-1.47.45-3.11-.26c-1.64-.72-2.36-1.61-2.36-1.61,0,0,1.34-.15,3.07.23Z"/>
    <path class="cls-2" d="M186.29,73.24c-.62,1.73-.45,3.07.06,3.09s1.19-1.06,1.49-2.94c.3-1.88-.05-3.04-.05-3.04,0,0-.86,1.12-1.5,2.88Z"/>
    <path class="cls-2" d="M184.02,74.58c1.67.45,2.59,1.34,2.31,1.77-.28.43-1.49.38-3.09-.43-1.6-.8-2.27-1.73-2.27-1.73,0,0,1.34-.08,3.06.39Z"/>
    <path class="cls-2" d="M188.21,77.17c-.71,1.69-.61,3.04-.1,3.09.51.05,1.24-.99,1.64-2.86.4-1.86.11-3.03.11-3.03,0,0-.92,1.07-1.65,2.8Z"/>
    <path class="cls-2" d="M185.87,78.39c1.64.54,2.51,1.47,2.21,1.89-.3.41-1.51.3-3.07-.59-1.56-.88-2.18-1.85-2.18-1.85,0,0,1.35,0,3.03.55Z"/>
    <path class="cls-2" d="M189.92,81.19c-.8,1.65-.77,3-.27,3.08.51.08,1.29-.93,1.79-2.77.5-1.84.27-3.02.27-3.02,0,0-.97,1.02-1.79,2.71Z"/>
    <path class="cls-2" d="M187.51,82.29c1.61.63,2.43,1.6,2.11,2-.32.4-1.52.22-3.03-.75-1.51-.96-2.08-1.96-2.08-1.96,0,0,1.35.06,3,.71Z"/>
    <path class="cls-2" d="M191.41,85.3c-.89,1.61-.93,2.96-.43,3.06.5.1,1.34-.86,1.93-2.67.59-1.81.43-3.01.43-3.01,0,0-1.02.97-1.93,2.61Z"/>
    <path class="cls-2" d="M188.95,86.27c1.58.71,2.35,1.73,2,2.11-.34.38-1.53.14-2.99-.9-1.46-1.04-1.97-2.06-1.97-2.06,0,0,1.34.13,2.96.86Z"/>
    <path class="cls-2" d="M192.69,89.48c-.97,1.56-1.08,2.91-.59,3.03s1.38-.79,2.07-2.56c.69-1.78.58-2.98.58-2.98,0,0-1.07.91-2.06,2.51Z"/>
    <path class="cls-2" d="M190.19,90.32c1.54.79,2.25,1.85,1.89,2.21-.36.36-1.54.06-2.94-1.06s-1.86-2.17-1.86-2.17c0,0,1.33.2,2.91,1.02Z"/>
    <path class="cls-2" d="M193.75,93.72c-1.05,1.51-1.23,2.84-.74,3,.49.16,1.42-.71,2.2-2.45.78-1.74.74-2.95.74-2.95,0,0-1.12.85-2.19,2.4Z"/>
    <path class="cls-2" d="M191.2,94.42c1.5.87,2.15,1.96,1.77,2.3s-1.54-.02-2.88-1.21c-1.34-1.19-1.74-2.26-1.74-2.26,0,0,1.32.27,2.85,1.17Z"/>
    <path class="cls-2" d="M194.58,98.01c-1.13,1.45-1.38,2.78-.9,2.96.48.18,1.46-.64,2.32-2.33.87-1.7.89-2.9.89-2.9,0,0-1.16.8-2.32,2.28Z"/>
    <path class="cls-2" d="M192,98.58c1.45.95,2.05,2.07,1.65,2.39-.4.32-1.53-.1-2.81-1.36-1.28-1.26-1.62-2.35-1.62-2.35,0,0,1.3.34,2.79,1.31Z"/>
    <path class="cls-2" d="M195.19,102.34c-1.2,1.39-1.52,2.7-1.05,2.91.47.21,1.49-.56,2.44-2.21.96-1.65,1.04-2.85,1.04-2.85,0,0-1.2.73-2.43,2.15Z"/>
    <path class="cls-2" d="M192.59,102.77c1.4,1.02,1.93,2.18,1.52,2.48s-1.53-.18-2.73-1.51c-1.21-1.32-1.5-2.43-1.5-2.43,0,0,1.28.41,2.71,1.46Z"/>
    <path class="cls-2" d="M195.57,106.7c-1.27,1.32-1.66,2.62-1.2,2.85.46.23,1.51-.48,2.56-2.08s1.19-2.79,1.19-2.79c0,0-1.24.67-2.54,2.02Z"/>
    <path class="cls-2" d="M192.95,106.99c1.34,1.09,1.82,2.28,1.39,2.55-.43.28-1.52-.26-2.65-1.65-1.14-1.38-1.37-2.5-1.37-2.5,0,0,1.26.48,2.63,1.6Z"/>
  </g>
  <path class="cls-2" d="M121.16,226.41l-1.9-1.9c.8-1.3,1.2-2.8,1.2-4.5,0-4.8-3.8-8.6-8.6-8.6s-8.6,3.9-8.6,8.6,3.8,8.6,8.6,8.6c1.9,0,3.6-.6,5-1.7l1.8,1.7,2.5-2.2ZM111.96,225.21c-2.9,0-5.3-2.3-5.3-5.3s2.3-5.3,5.3-5.3,5.3,2.3,5.3,5.3c0,.7-.1,1.3-.4,2l-.1-.1h-4.9l2.7,2.7c-.9.4-1.6.7-2.6.7Z"/>
  <g>
    <path class="cls-2" d="M32.63,187.57l-1.39-1.48,7.31-6.83,1.38,1.48-7.31,6.83Z"/>
    <path class="cls-2" d="M27.65,182.09l-1.26-1.63,2.39-6.05c.24-.59.68-1.41.68-1.41l-.02-.02s-.79.68-1.34,1.11l-4.16,3.21-1.22-1.58,7.93-6.12,1.2,1.55-2.29,6.08c-.22.58-.66,1.41-.66,1.41l.02.02s.8-.69,1.35-1.11l4.09-3.16,1.22,1.58-7.92,6.12Z"/>
    <path class="cls-2" d="M19.91,171.57l-4.13-6.91,1.46-.88,1.55,2.58,7.12-4.26,1.04,1.74-7.13,4.26,1.55,2.58-1.47.88Z"/>
    <path class="cls-2" d="M13.49,160.21l-3.03-6.71,1.56-.7,2.19,4.86,2.04-.92-1.92-4.26,1.52-.69,1.92,4.26,2.46-1.11-2.21-4.9,1.54-.7,3.04,6.75-9.13,4.11Z"/>
    <path class="cls-2" d="M8.59,148.59l-1.38-4.38c-.58-1.84.1-3.41,1.69-3.91,1.12-.35,2.14-.1,2.86,1.02h.04c-.02-.97.34-1.59,1.46-2.07,1.31-.56,2.35-.83,2.39-1.21l.09-.03.58,1.85c-.03.27-1.09.64-2.09,1.04-1.02.41-1.42,1.18-1.04,2.38l.49,1.56,3.83-1.21.61,1.94-9.55,3.01ZM12.19,145.32l-.65-2.06c-.33-1.05-1.05-1.4-1.81-1.16-.77.24-1.19.92-.87,1.95l.67,2.11,2.66-.84Z"/>
    <path class="cls-2" d="M4.94,135.97l-.38-2.02,4.89-4.3c.48-.42,1.25-.94,1.25-.94v-.03s-1.01.25-1.7.37l-5.16.96-.37-1.97,9.84-1.83.36,1.93-4.82,4.37c-.46.41-1.23.96-1.23.96v.03s1.03-.25,1.72-.37l5.08-.94.37,1.97-9.85,1.83Z"/>
    <path class="cls-2" d="M2.63,119.76l-.13-2.1,9.77-4.14.13,2.11-2.08.8.22,3.61,2.17.52.13,2.06-10.21-2.86ZM8.96,119.67l-.16-2.64-2.82,1.07c-.52.2-1.51.5-1.51.5v.03s1.02.19,1.57.32l2.93.71Z"/>
    <path class="cls-2" d="M2.27,111.24l.33-8.05,1.71.07-.12,3.01,8.3.34-.08,2.03-8.3-.34-.12,3.01-1.71-.07Z"/>
    <path class="cls-2" d="M3.15,98.42l.26-2.01,9.93,1.3-.26,2.01-9.93-1.3Z"/>
    <path class="cls-2" d="M9,92.64c-2.92-.68-4.66-3.01-3.99-5.89.67-2.88,3.26-4.19,6.18-3.51,2.92.68,4.65,2.99,3.98,5.87s-3.25,4.21-6.17,3.53ZM10.72,85.26c-1.95-.45-3.67.07-4.08,1.86-.42,1.79.89,3.05,2.84,3.51,1.94.45,3.66-.11,4.08-1.9.42-1.79-.9-3.01-2.83-3.46Z"/>
    <path class="cls-2" d="M7.85,77.16l.72-1.93,6.4-1.17c.62-.11,1.56-.17,1.56-.17v-.03s-.98-.31-1.64-.55l-4.92-1.83.7-1.88,9.38,3.5-.69,1.84-6.37,1.27c-.61.12-1.55.18-1.55.18v.03s.99.31,1.65.56l4.84,1.8-.7,1.88-9.38-3.5Z"/>
    <path class="cls-2" d="M14.21,62.07l.97-1.86,10.51,1.49-.98,1.88-2.2-.39-1.67,3.2,1.58,1.57-.95,1.83-7.27-7.71ZM19.69,65.25l1.22-2.35-2.97-.54c-.55-.1-1.55-.35-1.55-.35v.02s.76.69,1.16,1.08l2.14,2.13Z"/>
    <path class="cls-2" d="M19.33,53.01l1.14-1.68,6.9,4.65,2.63-3.9,1.41.95-3.76,5.58-8.3-5.59Z"/>
    <path class="cls-2" d="M29.86,38.97l5.06-5.36,1.24,1.17-3.66,3.88,1.63,1.54,3.21-3.4,1.21,1.14-3.21,3.4,1.96,1.86,3.69-3.91,1.23,1.16-5.08,5.39-7.28-6.87Z"/>
    <path class="cls-2" d="M38.17,30.5l1.63-1.37,5.08,3.3c.57.38,1.36.94,1.36.94l.02-.02s-.43-.88-.7-1.5l-2.4-5.56,1.57-1.33,3.87,9.83-1.41,1.19-9.03-5.48Z"/>
    <path class="cls-2" d="M48.59,22.12l6.14-4.07.95,1.42-4.45,2.95,1.24,1.87,3.9-2.59.92,1.39-3.9,2.59,1.5,2.25,4.48-2.97.94,1.41-6.17,4.1-5.54-8.34Z"/>
    <path class="cls-2" d="M59.3,15.38l1.84-.93,5.49,3.49c.53.34,1.25.94,1.25.94h.03s-.52-.91-.83-1.54l-2.36-4.69,1.79-.9,4.5,8.94-1.75.88-5.54-3.4c-.53-.33-1.26-.92-1.26-.92h-.02s.52.93.84,1.55l2.33,4.62-1.79.9-4.5-8.94Z"/>
    <path class="cls-2" d="M71.09,9.78l7.57-2.74.58,1.61-2.83,1.02,2.82,7.81-1.91.69-2.82-7.81-2.83,1.02-.58-1.61Z"/>
    <path class="cls-2" d="M89.16,4.26l3.85-.68c2.63-.46,4.71,1.36,5.22,4.27.28,1.6,0,3.1-.89,4.15-.62.74-1.51,1.25-2.75,1.47l-3.68.65-1.74-9.86ZM94.14,11.77c1.88-.33,2.4-1.6,2.06-3.56-.35-1.96-1.44-3.17-3.14-2.87l-1.6.28,1.13,6.43,1.54-.27Z"/>
    <path class="cls-2" d="M102.4,2.28l7.35-.42.1,1.71-5.33.3.13,2.24,4.67-.26.09,1.66-4.67.26.15,2.7,5.37-.3.1,1.69-7.39.42-.57-9.99Z"/>
    <path class="cls-2" d="M114.07,6.86c.17-2.96,2.15-5.12,5.1-4.94,2.46.15,3.82,1.7,3.92,3.61l-2.01-.12c-.12-1.02-.84-1.72-2.01-1.79-1.84-.11-2.81,1.38-2.93,3.36-.12,2.04.86,3.57,2.53,3.67,1.19.07,2.07-.59,2.26-1.63l1.98.12c-.11.88-.54,1.71-1.24,2.3-.72.6-1.71.96-3.09.88-2.81-.17-4.68-2.45-4.5-5.45Z"/>
    <path class="cls-2" d="M127.02,7.83c.55-2.95,2.81-4.79,5.71-4.24,2.9.55,4.32,3.08,3.77,6.02-.55,2.95-2.79,4.78-5.7,4.23-2.9-.55-4.34-3.07-3.79-6.01ZM134.47,9.23c.37-1.97-.22-3.66-2.03-4-1.8-.34-3.01,1.01-3.38,2.98-.37,1.96.27,3.66,2.07,3.99,1.8.34,2.97-1.02,3.34-2.98Z"/>
    <path class="cls-2" d="M142.43,6.01l4.37,1.41c1.84.59,2.72,2.06,2.21,3.64-.36,1.12-1.16,1.8-2.49,1.74v.04c.79.54,1.08,1.19.82,2.39-.3,1.39-.69,2.4-.4,2.65l-.03.09-1.85-.6c-.21-.18.11-1.26.36-2.31.25-1.06-.14-1.84-1.34-2.23l-1.56-.5-1.24,3.83-1.93-.62,3.08-9.53ZM143,10.85l2.05.66c1.05.34,1.75-.04,2-.8.25-.77-.06-1.51-1.08-1.84l-2.11-.68-.86,2.65Z"/>
    <path class="cls-2" d="M157.37,11.55l1.91.88-1,10.57-1.92-.89.28-2.21-3.28-1.52-1.49,1.66-1.87-.86,7.37-7.62ZM154.45,17.17l2.4,1.11.4-2.99c.07-.55.28-1.57.28-1.57h-.03s-.65.8-1.03,1.21l-2.02,2.24Z"/>
    <path class="cls-2" d="M165.07,15.31l6.91,4.12-.88,1.47-2.58-1.54-4.25,7.13-1.74-1.04,4.25-7.13-2.59-1.54.88-1.47Z"/>
    <path class="cls-2" d="M175.92,22.19l1.64,1.19-5.88,8.1-1.64-1.19,5.88-8.1Z"/>
    <path class="cls-2" d="M181.82,26.61l1.54,1.36-1.19,6.4c-.12.62-.4,1.51-.4,1.51l.02.02s.64-.82,1.11-1.34l3.47-3.94,1.5,1.32-6.62,7.52-1.47-1.3,1.09-6.41c.11-.61.38-1.51.38-1.51l-.02-.02s-.65.83-1.11,1.35l-3.42,3.88-1.5-1.32,6.62-7.52Z"/>
    <path class="cls-2" d="M190.16,47.07l-.02-.02c-1.32.25-2.24-.19-3.03-1.08-1-1.13-1.37-2.38-1.23-3.6.15-1.23.8-2.44,1.93-3.44,1.25-1.1,2.73-1.62,4.15-1.47,1.09.12,2.1.65,2.99,1.66,1.67,1.89,1.58,3.89.32,5.43l-1.31-1.49c.58-.81.61-1.83-.24-2.79-1.25-1.42-3.05-1.08-4.54.23-1.53,1.35-1.94,3.15-.8,4.44,1.03,1.17,2.57,1.16,3.4.43l.04-.04-1.59-1.81,1.18-1.04,2.79,3.16-3.99,3.52-1.01-1.15.96-.94Z"/>
    <path class="cls-2" d="M204.33,51.63l2.29,3.76c.6.99.77,1.91.56,2.73-.2.78-.7,1.47-1.49,1.95-1.62.98-3.35.58-4.44-1.22l-1.28-2.11-3.1,1.88-1.09-1.79,8.56-5.2ZM201.37,55.88l1.09,1.8c.55.91,1.35,1.08,2.12.61.8-.49.95-1.27.43-2.13l-1.11-1.82-2.54,1.54Z"/>
    <path class="cls-2" d="M210.75,62.84l1.9,4.18c.8,1.76.32,3.39-1.2,4.08-1.07.49-2.11.36-2.96-.67l-.04.02c.14.95-.15,1.6-1.2,2.22-1.23.71-2.23,1.11-2.23,1.49l-.09.04-.81-1.77c0-.28,1.01-.76,1.95-1.29.96-.53,1.26-1.35.74-2.49l-.68-1.49-3.65,1.66-.84-1.85,9.1-4.15ZM207.57,66.52l.89,1.96c.46,1.01,1.21,1.27,1.93.93.74-.34,1.07-1.06.62-2.04l-.92-2.01-2.53,1.15Z"/>
    <path class="cls-2" d="M210.99,76c2.86-.89,5.54.24,6.42,3.06.88,2.82-.7,5.26-3.56,6.15s-5.52-.23-6.4-3.05c-.88-2.82.68-5.27,3.54-6.16ZM213.23,83.23c1.91-.59,3.13-1.91,2.58-3.66-.54-1.75-2.31-2.19-4.22-1.59-1.9.59-3.1,1.95-2.56,3.7.54,1.75,2.29,2.15,4.19,1.56Z"/>
    <path class="cls-2" d="M219.78,88.72l1.28,7.05-1.69.31-.92-5.05-2.37.43.78,4.28-1.71.31-.78-4.28-4.08.74-.36-2,9.85-1.79Z"/>
    <path class="cls-2" d="M221.68,100.85l.49,7.35-1.7.11-.35-5.32-2.24.15.31,4.67-1.66.11-.31-4.67-2.7.18.36,5.37-1.69.11-.49-7.39,9.99-.66Z"/>
    <path class="cls-2" d="M215.33,112.6l-.09,1.99c-1.21.08-1.72.75-1.78,2.17-.05,1.03.27,1.96,1.19,2,.98.05,1.22-.9,1.64-2.4.49-1.77,1.04-3.38,3.12-3.29,1.97.09,2.92,1.75,2.81,3.97-.11,2.25-1.28,3.65-3.3,3.71l.09-1.94c1.01-.07,1.55-.82,1.6-1.86.05-1.09-.38-1.83-1.09-1.86-.81-.04-1.08.65-1.47,2.12-.54,2.03-1.11,3.69-3.27,3.59-2.03-.1-3.08-1.78-2.98-4.04.13-2.71,1.4-4.19,3.52-4.16Z"/>
    <path class="cls-2" d="M214.53,124.79l-.33,1.96c-1.21-.06-1.79.54-2.03,1.94-.17,1.02.04,1.98.95,2.13.97.16,1.32-.74,1.91-2.19.7-1.7,1.44-3.24,3.49-2.89,1.95.33,2.69,2.08,2.32,4.28-.37,2.22-1.7,3.48-3.72,3.3l.32-1.92c1.01.06,1.64-.63,1.81-1.66.18-1.08-.16-1.86-.86-1.98-.8-.13-1.15.52-1.71,1.93-.78,1.96-1.54,3.53-3.67,3.17-2-.33-2.85-2.14-2.48-4.36.45-2.68,1.89-4,3.99-3.72Z"/>
    <path class="cls-2" d="M218.81,138.9l-.52,1.97-9.68-2.55.52-1.96,9.68,2.55Z"/>
    <path class="cls-2" d="M212.26,143.88c2.81,1.05,4.24,3.58,3.21,6.35s-3.77,3.73-6.58,2.69c-2.81-1.05-4.23-3.56-3.2-6.33s3.76-3.75,6.57-2.71ZM209.61,150.98c1.88.7,3.64.4,4.29-1.32.64-1.72-.49-3.14-2.36-3.84-1.86-.69-3.65-.36-4.28,1.36-.64,1.72.5,3.1,2.36,3.79Z"/>
    <path class="cls-2" d="M211.45,159.38l-.96,1.82-6.5.35c-.63.03-1.57-.03-1.57-.03v.02s.93.43,1.55.76l4.64,2.45-.93,1.77-8.86-4.67.91-1.73,6.49-.45c.62-.04,1.56.01,1.56.01v-.02s-.94-.44-1.56-.77l-4.57-2.41.93-1.77,8.86,4.67Z"/>
    <path class="cls-2" d="M203.22,173.52l-1.2,1.73-10.24-2.81,1.21-1.74,2.13.66,2.06-2.97-1.37-1.75,1.17-1.69,6.24,8.57ZM198.19,169.67l-1.51,2.18,2.88.91c.53.17,1.5.54,1.5.54l.02-.02s-.68-.78-1.03-1.22l-1.86-2.38Z"/>
    <path class="cls-2" d="M197,181.87l-1.34,1.53-6.25-5.48-3.1,3.54-1.27-1.12,4.44-5.06,7.53,6.59Z"/>
  </g>
  <rect class="cls-1" x="21.89" y="93.92" width="180.8" height="35.7"/>
  <g>
    <path class="cls-2" d="M74.54,92.19v.39c-1.01,0-1.87.28-2.57.85-.7.57-1.06,1.51-1.06,2.82v25.66c0,1.3.37,2.25,1.12,2.83.75.59,1.58.88,2.5.88v.37h-10.72v-.37c.98,0,1.82-.29,2.54-.86.71-.57,1.07-1.53,1.07-2.86v-25.66c0-1.41-.36-2.37-1.07-2.89-.71-.52-1.56-.78-2.54-.78v-.39h10.72Z"/>
    <path class="cls-2" d="M77.92,92.58v-.39h20.15v5.32h-.32c0-2.85-1.9-4.27-5.69-4.27h-7.04v15.35h6.2c1.22,0,2.32-.2,3.28-.6.96-.4,1.52-1.31,1.65-2.73h.34v7.67h-.34c-.14-.87-.4-1.54-.78-2.01-.38-.47-.76-.78-1.14-.93s-.71-.23-1-.23c-.55-.09-1.12-.14-1.72-.14h-6.49v12c0,.9.17,1.68.52,2.34.34.66,1.14.99,2.4.99h5.03c1.21,0,2.2-.17,2.98-.53.78-.35,1.4-.84,1.85-1.47.45-.63.83-1.38,1.14-2.27h.32l-1.17,5.3h-20.15v-.37h.46c.72,0,1.42-.29,2.11-.87.69-.58,1.03-1.53,1.03-2.85v-25.47c0-1.04-.23-1.94-.7-2.71s-1.28-1.15-2.44-1.15h-.46Z"/>
    <path class="cls-2" d="M101.97,92.58v-.39h13.01c1.82,0,3.5.16,5.04.47,1.54.31,2.92.73,4.13,1.25,1.22.52,2.27,1.09,3.16,1.71.89.62,1.64,1.25,2.25,1.89,1.07,1.07,1.98,2.26,2.73,3.57.75,1.31,1.31,2.69,1.69,4.14.37,1.45.56,2.95.56,4.5s-.18,3.01-.55,4.41c-.37,1.39-.89,2.68-1.58,3.87s-1.51,2.26-2.47,3.22c-.96.96-2.07,1.84-3.34,2.62-1.09.64-2.33,1.16-3.74,1.56-1.41.4-3.31.6-5.71.6h-15.17v-.37h.46c1.06,0,1.84-.4,2.36-1.19.52-.79.78-1.64.78-2.52v-25.52c0-.86-.14-1.58-.42-2.16s-.66-1-1.14-1.26c-.47-.26-1-.39-1.58-.39h-.46ZM109.06,93.8v26.78c0,1.32.21,2.28.63,2.9.42.62,1.07,1.02,1.96,1.2s2.19.28,3.9.28c2.45,0,4.51-.24,6.2-.72,1.68-.48,3.31-1.56,4.89-3.22,1.16-1.24,2.1-2.75,2.8-4.54s1.06-3.96,1.06-6.5c0-2-.28-3.99-.85-5.96-.57-1.97-1.43-3.71-2.59-5.24-1.3-1.73-2.97-3.08-5.01-4.06-2.04-.98-4.5-1.47-7.38-1.47-1.48,0-3.35.18-5.6.55Z"/>
    <path class="cls-2" d="M138.71,92.58v-.39h11.08c1.85,0,3.48.25,4.9.76s2.59,1.19,3.53,2.07c.94.87,1.64,1.86,2.11,2.95s.7,2.25.7,3.45-.22,2.31-.65,3.41c-.44,1.09-1.12,2.07-2.05,2.92s-2.16,1.53-3.67,2.03-3.26.76-5.23.76c-.63,0-1.84-.09-3.63-.28v11.66c0,2.4,1.22,3.64,3.67,3.72v.37h-10.76v-.37c1.06-.03,1.92-.33,2.6-.91.68-.57,1.02-1.51,1.02-2.81v-25.57c0-.78-.12-1.43-.37-1.95-.25-.52-.53-.89-.86-1.11s-.7-.39-1.1-.49c-.41-.11-.69-.18-.84-.21h-.46ZM145.8,93.38v15.93c1.18.21,2.34.32,3.49.32,2.19,0,4.04-.56,5.57-1.69,1.52-1.12,2.28-3.21,2.28-6.25,0-2.51-.67-4.57-2.01-6.19-1.34-1.61-3.37-2.42-6.09-2.42-1.06,0-2.13.1-3.24.3Z"/>
  </g>
</svg>