<?xml version="1.0" encoding="UTF-8"?>
<svg id="IEWP" xmlns="http://www.w3.org/2000/svg" viewBox="0 0 222 229">
  <defs>
    <style>
      .cls-1 {
        fill: none;
      }

      .cls-1, .cls-2 {
        stroke-width: 0px;
      }

      .cls-2 {
        fill: #faf0b6;
      }
    </style>
  </defs>
  <g>
    <path class="cls-2" d="M132.75,32.94v.31c3.38.95,6.7,2.12,9.96,3.51,9.74,4.16,18.48,10.1,25.98,17.65,7.5,7.55,13.37,16.33,17.46,26.11,4.23,10.12,6.36,20.85,6.32,31.91-.04,11.03-2.24,21.73-6.53,31.8-4.14,9.72-10.06,18.45-17.58,25.94-7.52,7.49-16.27,13.37-26.01,17.48-10.08,4.25-20.78,6.41-31.8,6.41h-.31c-11.06-.04-21.78-2.25-31.87-6.56-9.74-4.16-18.48-10.1-25.98-17.65-7.5-7.55-13.37-16.33-17.46-26.11-4.23-10.12-6.36-20.85-6.32-31.91.04-11.03,2.24-21.73,6.53-31.8,4.14-9.72,10.06-18.45,17.58-25.94,7.52-7.49,16.27-13.37,26.01-17.48,3.14-1.33,6.35-2.45,9.6-3.36v-.3c-34.51,9.66-59.88,41.28-60.02,78.89-.17,45.41,36.51,82.36,81.92,82.53.11,0,.2,0,.31,0,45.27,0,82.05-36.62,82.22-81.92.14-37.82-25.28-69.77-60.02-79.49Z"/>
    <path class="cls-2" d="M27.05,111.39c1.34,1.25,1.8,2.53,1.35,2.78s-1.54-.4-2.66-1.94c-1.12-1.54-1.33-2.73-1.33-2.73,0,0,1.27.6,2.64,1.89Z"/>
    <path class="cls-2" d="M29.69,111.55c-1.28,1.16-1.7,2.37-1.25,2.62.44.25,1.5-.34,2.56-1.78,1.06-1.44,1.24-2.57,1.24-2.57,0,0-1.23.54-2.55,1.73Z"/>
    <path class="cls-2" d="M27.13,115.76c1.4,1.18,1.93,2.43,1.5,2.71s-1.56-.32-2.76-1.8c-1.2-1.48-1.48-2.65-1.48-2.65,0,0,1.3.54,2.74,1.75Z"/>
    <path class="cls-2" d="M29.77,115.78c-1.22,1.23-1.57,2.45-1.11,2.68.46.23,1.48-.42,2.47-1.92s1.1-2.63,1.1-2.63c0,0-1.2.61-2.45,1.87Z"/>
    <path class="cls-2" d="M27.43,120.13c1.46,1.11,2.05,2.32,1.63,2.62s-1.57-.24-2.85-1.65c-1.28-1.41-1.61-2.57-1.61-2.57,0,0,1.33.47,2.83,1.6Z"/>
    <path class="cls-2" d="M30.07,120.01c-1.15,1.29-1.44,2.53-.97,2.74.47.21,1.46-.5,2.36-2.04.91-1.54.96-2.69.96-2.69,0,0-1.17.67-2.35,1.99Z"/>
    <path class="cls-2" d="M27.97,124.46c1.52,1.03,2.17,2.21,1.77,2.53-.4.32-1.58-.16-2.93-1.5-1.35-1.34-1.74-2.49-1.74-2.49,0,0,1.35.4,2.91,1.45Z"/>
    <path class="cls-2" d="M30.6,124.21c-1.08,1.35-1.31,2.6-.83,2.79.48.18,1.43-.57,2.25-2.16.82-1.59.82-2.73.82-2.73,0,0-1.13.73-2.24,2.11Z"/>
    <path class="cls-2" d="M28.73,128.77c1.57.95,2.28,2.1,1.9,2.44-.38.34-1.59-.07-3.01-1.35-1.42-1.27-1.87-2.39-1.87-2.39,0,0,1.37.33,2.98,1.3Z"/>
    <path class="cls-2" d="M31.34,128.37c-1.01,1.4-1.17,2.67-.68,2.83.49.16,1.4-.65,2.14-2.28.74-1.63.67-2.77.67-2.77,0,0-1.09.79-2.13,2.23Z"/>
    <path class="cls-2" d="M29.71,133.03c1.62.87,2.39,1.97,2.02,2.34-.36.36-1.59,0-3.07-1.19-1.48-1.2-1.99-2.29-1.99-2.29,0,0,1.38.25,3.04,1.14Z"/>
    <path class="cls-2" d="M32.3,132.5c-.94,1.46-1.03,2.73-.53,2.86.5.13,1.36-.72,2.01-2.39.65-1.67.53-2.81.53-2.81,0,0-1.05.84-2.01,2.33Z"/>
    <path class="cls-2" d="M30.91,137.23c1.66.78,2.49,1.85,2.14,2.23-.35.38-1.59.09-3.13-1.02-1.54-1.12-2.11-2.18-2.11-2.18,0,0,1.4.18,3.1.98Z"/>
    <path class="cls-2" d="M33.47,136.56c-.86,1.5-.88,2.78-.38,2.88.5.11,1.32-.79,1.89-2.49.57-1.7.38-2.83.38-2.83,0,0-1.01.9-1.89,2.44Z"/>
    <path class="cls-2" d="M32.34,141.36c1.7.69,2.58,1.71,2.26,2.11-.32.4-1.58.18-3.18-.86-1.6-1.03-2.22-2.07-2.22-2.07,0,0,1.4.11,3.15.82Z"/>
    <path class="cls-2" d="M34.85,140.56c-.78,1.55-.74,2.82-.23,2.9s1.28-.86,1.75-2.58c.48-1.73.23-2.85.23-2.85,0,0-.96.95-1.76,2.53Z"/>
    <path class="cls-2" d="M33.97,145.41c1.73.6,2.67,1.58,2.37,1.99-.3.41-1.57.26-3.22-.69-1.65-.95-2.33-1.95-2.33-1.95,0,0,1.41.03,3.18.65Z"/>
    <path class="cls-2" d="M36.45,144.49c-.7,1.58-.59,2.85-.08,2.9.51.05,1.23-.92,1.61-2.67.38-1.75.08-2.85.08-2.85,0,0-.91,1-1.62,2.62Z"/>
    <path class="cls-2" d="M35.82,149.38c1.76.51,2.75,1.43,2.47,1.86-.28.43-1.55.34-3.25-.52-1.7-.86-2.43-1.82-2.43-1.82,0,0,1.41-.04,3.21.48Z"/>
    <path class="cls-2" d="M38.24,148.32c-.61,1.62-.44,2.88.07,2.9s1.18-.99,1.47-2.75c.29-1.77-.07-2.85-.07-2.85,0,0-.85,1.04-1.48,2.7Z"/>
    <path class="cls-2" d="M37.87,153.24c1.79.42,2.82,1.29,2.56,1.73-.26.44-1.53.42-3.28-.35-1.74-.77-2.52-1.7-2.52-1.7,0,0,1.4-.11,3.23.31Z"/>
    <path class="cls-2" d="M40.23,152.05c-.53,1.65-.29,2.9.23,2.9.51,0,1.13-1.05,1.33-2.83.2-1.78-.22-2.85-.22-2.85,0,0-.8,1.09-1.34,2.78Z"/>
    <path class="cls-2" d="M40.12,156.98c1.81.32,2.88,1.14,2.65,1.6s-1.51.5-3.29-.18c-1.78-.68-2.6-1.56-2.6-1.56,0,0,1.4-.19,3.25.14Z"/>
    <path class="cls-2" d="M42.42,155.68c-.44,1.67-.13,2.91.38,2.88.51-.03,1.07-1.1,1.18-2.89s-.36-2.83-.36-2.83c0,0-.74,1.13-1.19,2.84Z"/>
    <path class="cls-2" d="M42.57,160.61c1.82.23,2.94.99,2.73,1.45-.21.47-1.48.58-3.29,0s-2.68-1.42-2.68-1.42c0,0,1.38-.26,3.25-.03Z"/>
    <path class="cls-2" d="M44.79,159.18c-.35,1.69.02,2.91.53,2.86.51-.06,1.01-1.16,1.02-2.95.01-1.79-.51-2.81-.51-2.81,0,0-.68,1.16-1.04,2.9Z"/>
    <path class="cls-2" d="M45.2,164.1c1.83.13,2.99.83,2.8,1.31-.19.48-1.45.65-3.29.17-1.84-.49-2.75-1.28-2.75-1.28,0,0,1.37-.33,3.24-.2Z"/>
    <path class="cls-2" d="M47.35,162.56c-.26,1.71.17,2.91.68,2.83.51-.08.95-1.21.87-3-.08-1.79-.66-2.78-.66-2.78,0,0-.62,1.2-.89,2.95Z"/>
    <path class="cls-2" d="M48.01,167.45c1.84.04,3.03.67,2.86,1.16s-1.41.73-3.28.34c-1.87-.39-2.82-1.13-2.82-1.13,0,0,1.35-.4,3.23-.37Z"/>
    <path class="cls-2" d="M50.07,165.8c-.17,1.72.32,2.89.82,2.79s.88-1.26.71-3.04c-.17-1.78-.8-2.74-.8-2.74,0,0-.55,1.23-.73,2.99Z"/>
    <path class="cls-2" d="M50.99,170.64c1.83-.06,3.06.52,2.92,1.01-.14.49-1.37.8-3.25.51s-2.87-.99-2.87-.99c0,0,1.33-.47,3.21-.53Z"/>
    <path class="cls-2" d="M52.96,168.89c-.08,1.73.47,2.87.97,2.74.49-.13.82-1.3.55-3.07-.27-1.77-.94-2.69-.94-2.69,0,0-.49,1.26-.57,3.03Z"/>
    <path class="cls-2" d="M54.13,173.68c1.83-.16,3.08.35,2.97.86-.11.5-1.33.87-3.22.68-1.9-.19-2.92-.83-2.92-.83,0,0,1.3-.54,3.17-.7Z"/>
    <path class="cls-2" d="M56.01,171.83c0,1.73.62,2.84,1.11,2.68.49-.16.75-1.34.39-3.1-.36-1.75-1.08-2.64-1.08-2.64,0,0-.42,1.28-.41,3.05Z"/>
    <path class="cls-2" d="M57.43,176.55c1.82-.25,3.09.19,3.01.7-.08.51-1.28.94-3.18.85-1.9-.09-2.96-.68-2.96-.68,0,0,1.27-.61,3.13-.87Z"/>
    <path class="cls-2" d="M59.21,174.6c.1,1.73.77,2.81,1.25,2.62.48-.19.68-1.38.23-3.11-.45-1.73-1.22-2.58-1.22-2.58,0,0-.35,1.3-.25,3.07Z"/>
    <path class="cls-2" d="M60.88,179.24c1.8-.35,3.1.03,3.04.54-.06.51-1.23,1.01-3.13,1.01-1.91,0-2.99-.52-2.99-.52,0,0,1.24-.67,3.08-1.03Z"/>
    <path class="cls-2" d="M62.55,177.2c.19,1.72.92,2.76,1.39,2.55.47-.21.6-1.41.06-3.12-.54-1.71-1.35-2.51-1.35-2.51,0,0-.29,1.32-.09,3.08Z"/>
    <path class="cls-2" d="M64.46,181.74c1.78-.44,3.1-.13,3.07.38-.03.51-1.17,1.07-3.08,1.17-1.9.1-3.01-.37-3.01-.37,0,0,1.2-.74,3.02-1.19Z"/>
    <path class="cls-2" d="M66.02,179.62c.28,1.71,1.06,2.71,1.52,2.48.46-.23.53-1.44-.1-3.12-.63-1.68-1.48-2.44-1.48-2.44,0,0-.22,1.33.07,3.08Z"/>
    <path class="cls-2" d="M68.16,184.06c1.76-.53,3.09-.29,3.08.22s-1.12,1.13-3.01,1.33c-1.89.2-3.03-.21-3.03-.21,0,0,1.16-.8,2.96-1.35Z"/>
    <path class="cls-2" d="M69.62,181.86c.37,1.69,1.2,2.65,1.64,2.4.44-.26.45-1.47-.26-3.11-.72-1.64-1.61-2.36-1.61-2.36,0,0-.15,1.34.23,3.07Z"/>
    <path class="cls-2" d="M71.99,186.18c1.73-.62,3.07-.45,3.09.06s-1.06,1.19-2.94,1.49c-1.88.3-3.04-.05-3.04-.05,0,0,1.12-.86,2.88-1.5Z"/>
    <path class="cls-2" d="M73.32,183.9c.45,1.67,1.34,2.59,1.77,2.31.43-.28.38-1.49-.43-3.09-.8-1.6-1.73-2.27-1.73-2.27,0,0-.08,1.34.39,3.06Z"/>
    <path class="cls-2" d="M75.91,188.1c1.69-.71,3.04-.61,3.09-.1.05.51-.99,1.24-2.86,1.64-1.86.4-3.03.11-3.03.11,0,0,1.07-.92,2.8-1.65Z"/>
    <path class="cls-2" d="M77.13,185.75c.54,1.64,1.47,2.51,1.89,2.21s.3-1.51-.59-3.07c-.88-1.56-1.85-2.18-1.85-2.18,0,0,0,1.35.55,3.03Z"/>
    <path class="cls-2" d="M79.94,189.8c1.65-.8,3-.77,3.08-.27.08.51-.93,1.29-2.77,1.79-1.84.5-3.02.27-3.02.27,0,0,1.02-.97,2.71-1.79Z"/>
    <path class="cls-2" d="M81.03,187.4c.63,1.61,1.6,2.43,2,2.11.4-.32.22-1.52-.75-3.03-.96-1.51-1.96-2.08-1.96-2.08,0,0,.06,1.35.71,3Z"/>
    <path class="cls-2" d="M84.05,191.3c1.61-.89,2.96-.93,3.06-.43.1.5-.86,1.34-2.67,1.93-1.81.59-3.01.43-3.01.43,0,0,.97-1.02,2.61-1.93Z"/>
    <path class="cls-2" d="M85.01,188.84c.71,1.58,1.73,2.35,2.11,2s.14-1.53-.9-2.99c-1.04-1.46-2.06-1.97-2.06-1.97,0,0,.13,1.34.86,2.96Z"/>
    <path class="cls-2" d="M88.23,192.58c1.56-.97,2.91-1.08,3.03-.59.13.5-.79,1.38-2.56,2.07-1.78.69-2.98.58-2.98.58,0,0,.91-1.07,2.51-2.06Z"/>
    <path class="cls-2" d="M89.06,190.07c.79,1.54,1.85,2.25,2.21,1.89.36-.36.06-1.54-1.06-2.94-1.12-1.4-2.17-1.86-2.17-1.86,0,0,.2,1.33,1.02,2.91Z"/>
    <path class="cls-2" d="M92.47,193.64c1.51-1.05,2.84-1.23,3-.74.16.49-.71,1.42-2.45,2.2-1.74.78-2.95.74-2.95.74,0,0,.85-1.12,2.4-2.19Z"/>
    <path class="cls-2" d="M93.17,191.09c.87,1.5,1.96,2.15,2.3,1.77s-.02-1.54-1.21-2.88c-1.19-1.34-2.26-1.74-2.26-1.74,0,0,.27,1.32,1.17,2.85Z"/>
    <path class="cls-2" d="M96.76,194.47c1.45-1.13,2.78-1.38,2.96-.9.18.48-.64,1.46-2.33,2.32-1.7.87-2.9.89-2.9.89,0,0,.8-1.16,2.28-2.32Z"/>
    <path class="cls-2" d="M97.33,191.89c.95,1.45,2.07,2.05,2.39,1.65.32-.4-.1-1.53-1.36-2.81-1.26-1.28-2.35-1.62-2.35-1.62,0,0,.34,1.3,1.31,2.79Z"/>
    <path class="cls-2" d="M101.09,195.08c1.39-1.2,2.7-1.52,2.91-1.05.21.47-.56,1.49-2.21,2.44-1.65.96-2.85,1.04-2.85,1.04,0,0,.73-1.2,2.15-2.43Z"/>
    <path class="cls-2" d="M101.52,192.47c1.02,1.4,2.18,1.93,2.48,1.52.3-.42-.18-1.53-1.51-2.73s-2.43-1.5-2.43-1.5c0,0,.41,1.28,1.46,2.71Z"/>
    <path class="cls-2" d="M105.44,195.46c1.32-1.27,2.62-1.66,2.85-1.2.23.46-.48,1.51-2.08,2.56s-2.79,1.19-2.79,1.19c0,0,.67-1.24,2.02-2.54Z"/>
    <path class="cls-2" d="M105.74,192.84c1.09,1.34,2.28,1.82,2.55,1.39.28-.43-.26-1.52-1.65-2.65-1.38-1.14-2.5-1.37-2.5-1.37,0,0,.48,1.26,1.6,2.63Z"/>
    <path class="cls-2" d="M89.64,31.3c-.87,1.62-1.97,2.39-2.34,2.02-.36-.36,0-1.59,1.19-3.07,1.2-1.48,2.29-1.99,2.29-1.99,0,0-.25,1.38-1.14,3.04Z"/>
    <path class="cls-2" d="M90.17,33.88c-1.46-.94-2.73-1.03-2.86-.53-.13.5.72,1.36,2.39,2.01,1.67.65,2.81.53,2.81.53,0,0-.84-1.05-2.33-2.01Z"/>
    <path class="cls-2" d="M85.44,32.5c-.78,1.66-1.85,2.49-2.23,2.14-.38-.35-.09-1.59,1.02-3.13,1.12-1.54,2.18-2.11,2.18-2.11,0,0-.18,1.4-.98,3.1Z"/>
    <path class="cls-2" d="M86.1,35.06c-1.5-.86-2.78-.88-2.88-.38-.11.5.79,1.32,2.49,1.89,1.7.57,2.83.38,2.83.38,0,0-.9-1.01-2.44-1.89Z"/>
    <path class="cls-2" d="M81.3,33.92c-.69,1.7-1.71,2.58-2.11,2.26-.4-.32-.18-1.58.86-3.18,1.03-1.6,2.07-2.22,2.07-2.22,0,0-.11,1.4-.82,3.15Z"/>
    <path class="cls-2" d="M82.1,36.44c-1.55-.78-2.82-.74-2.9-.23-.08.51.86,1.28,2.58,1.75,1.73.48,2.85.23,2.85.23,0,0-.95-.96-2.53-1.76Z"/>
    <path class="cls-2" d="M77.25,35.56c-.6,1.73-1.58,2.67-1.99,2.37-.41-.3-.26-1.57.69-3.22.95-1.65,1.95-2.33,1.95-2.33,0,0-.03,1.41-.65,3.18Z"/>
    <path class="cls-2" d="M78.18,38.03c-1.58-.7-2.85-.59-2.9-.08-.05.51.92,1.23,2.67,1.61,1.75.38,2.85.08,2.85.08,0,0-1-.91-2.62-1.62Z"/>
    <path class="cls-2" d="M73.29,37.41c-.51,1.76-1.43,2.75-1.86,2.47-.43-.28-.34-1.55.52-3.25.86-1.7,1.82-2.43,1.82-2.43,0,0,.04,1.41-.48,3.21Z"/>
    <path class="cls-2" d="M74.35,39.83c-1.62-.61-2.88-.44-2.9.07-.03.51.99,1.18,2.75,1.47,1.77.29,2.85-.07,2.85-.07,0,0-1.04-.85-2.7-1.48Z"/>
    <path class="cls-2" d="M69.43,39.46c-.42,1.79-1.29,2.82-1.73,2.56-.44-.26-.42-1.53.35-3.28.77-1.74,1.7-2.52,1.7-2.52,0,0,.11,1.4-.31,3.23Z"/>
    <path class="cls-2" d="M70.61,41.82c-1.65-.53-2.9-.29-2.9.23,0,.51,1.05,1.13,2.83,1.33,1.78.2,2.85-.22,2.85-.22,0,0-1.09-.8-2.78-1.34Z"/>
    <path class="cls-2" d="M65.68,41.71c-.32,1.81-1.14,2.88-1.6,2.65s-.5-1.51.18-3.29c.68-1.78,1.56-2.6,1.56-2.6,0,0,.19,1.4-.14,3.25Z"/>
    <path class="cls-2" d="M66.99,44.01c-1.67-.44-2.91-.13-2.88.38.03.51,1.1,1.07,2.89,1.18,1.79.11,2.83-.36,2.83-.36,0,0-1.13-.74-2.84-1.19Z"/>
    <path class="cls-2" d="M62.06,44.15c-.23,1.82-.99,2.94-1.45,2.73-.47-.21-.58-1.48,0-3.29.58-1.81,1.42-2.68,1.42-2.68,0,0,.26,1.38.03,3.25Z"/>
    <path class="cls-2" d="M63.48,46.38c-1.69-.35-2.91.02-2.86.53s1.16,1.01,2.95,1.02,2.81-.51,2.81-.51c0,0-1.16-.68-2.9-1.04Z"/>
    <path class="cls-2" d="M58.57,46.78c-.13,1.83-.83,2.99-1.31,2.8-.48-.19-.65-1.45-.17-3.29.49-1.84,1.28-2.75,1.28-2.75,0,0,.33,1.37.2,3.24Z"/>
    <path class="cls-2" d="M60.1,48.93c-1.71-.26-2.91.17-2.83.68.08.51,1.21.95,3,.87s2.78-.66,2.78-.66c0,0-1.2-.62-2.95-.89Z"/>
    <path class="cls-2" d="M55.22,49.59c-.04,1.84-.67,3.03-1.16,2.86-.49-.16-.73-1.41-.34-3.28.39-1.87,1.13-2.82,1.13-2.82,0,0,.4,1.35.37,3.23Z"/>
    <path class="cls-2" d="M56.87,51.66c-1.72-.17-2.89.32-2.79.82s1.26.88,3.04.71c1.78-.17,2.74-.8,2.74-.8,0,0-1.23-.55-2.99-.73Z"/>
    <path class="cls-2" d="M52.02,52.58c.06,1.83-.52,3.06-1.01,2.92s-.8-1.37-.51-3.25c.29-1.88.99-2.87.99-2.87,0,0,.47,1.33.53,3.21Z"/>
    <path class="cls-2" d="M53.78,54.55c-1.73-.08-2.87.47-2.74.97s1.3.82,3.07.55c1.77-.27,2.69-.94,2.69-.94,0,0-1.26-.49-3.03-.57Z"/>
    <path class="cls-2" d="M48.99,55.72c.16,1.83-.35,3.08-.86,2.97-.5-.11-.87-1.33-.68-3.22.19-1.9.83-2.92.83-2.92,0,0,.54,1.3.7,3.17Z"/>
    <path class="cls-2" d="M50.84,57.6c-1.73,0-2.84.62-2.68,1.11.16.49,1.34.75,3.1.39s2.64-1.08,2.64-1.08c0,0-1.28-.42-3.05-.41Z"/>
    <path class="cls-2" d="M46.12,59.02c.25,1.82-.19,3.09-.7,3.01-.51-.08-.94-1.28-.85-3.18.09-1.9.68-2.96.68-2.96,0,0,.61,1.27.87,3.13Z"/>
    <path class="cls-2" d="M48.07,60.8c-1.73.1-2.81.77-2.62,1.25.19.48,1.38.68,3.11.23,1.73-.45,2.58-1.22,2.58-1.22,0,0-1.3-.35-3.07-.25Z"/>
    <path class="cls-2" d="M43.43,62.46c.35,1.8-.03,3.1-.54,3.04-.51-.06-1.01-1.23-1.01-3.13s.52-2.99.52-2.99c0,0,.67,1.24,1.03,3.08Z"/>
    <path class="cls-2" d="M45.47,64.14c-1.72.19-2.76.92-2.55,1.39.21.47,1.41.6,3.12.06,1.71-.54,2.51-1.35,2.51-1.35,0,0-1.32-.29-3.08-.09Z"/>
    <path class="cls-2" d="M40.92,66.04c.44,1.78.13,3.1-.38,3.07s-1.07-1.17-1.17-3.08c-.1-1.9.37-3.01.37-3.01,0,0,.74,1.2,1.19,3.02Z"/>
    <path class="cls-2" d="M43.05,67.61c-1.71.28-2.71,1.06-2.48,1.52.23.46,1.44.53,3.12-.1,1.68-.63,2.44-1.48,2.44-1.48,0,0-1.33-.22-3.08.07Z"/>
    <path class="cls-2" d="M38.6,69.75c.53,1.76.29,3.09-.22,3.08-.51,0-1.13-1.12-1.33-3.01-.2-1.89.21-3.03.21-3.03,0,0,.8,1.16,1.35,2.96Z"/>
    <path class="cls-2" d="M40.81,71.2c-1.69.37-2.65,1.2-2.4,1.64s1.47.45,3.11-.26c1.64-.72,2.36-1.61,2.36-1.61,0,0-1.34-.15-3.07.23Z"/>
    <path class="cls-2" d="M36.49,73.57c.62,1.73.45,3.07-.06,3.09-.51.02-1.19-1.06-1.49-2.94-.3-1.88.05-3.04.05-3.04,0,0,.86,1.12,1.5,2.88Z"/>
    <path class="cls-2" d="M38.76,74.91c-1.67.45-2.59,1.34-2.31,1.77.28.43,1.49.38,3.09-.43,1.6-.8,2.27-1.73,2.27-1.73,0,0-1.34-.08-3.06.39Z"/>
    <path class="cls-2" d="M34.57,77.5c.71,1.69.61,3.04.1,3.09-.51.05-1.24-.99-1.64-2.86-.4-1.86-.11-3.03-.11-3.03,0,0,.92,1.07,1.65,2.8Z"/>
    <path class="cls-2" d="M36.91,78.72c-1.64.54-2.51,1.47-2.21,1.89s1.51.3,3.07-.59c1.56-.88,2.18-1.85,2.18-1.85,0,0-1.35,0-3.03.55Z"/>
    <path class="cls-2" d="M32.86,81.52c.8,1.65.77,3,.27,3.08s-1.29-.93-1.79-2.77c-.5-1.84-.27-3.02-.27-3.02,0,0,.97,1.02,1.79,2.71Z"/>
    <path class="cls-2" d="M35.27,82.62c-1.61.63-2.43,1.6-2.11,2,.32.4,1.52.22,3.03-.75,1.51-.96,2.08-1.96,2.08-1.96,0,0-1.35.06-3,.71Z"/>
    <path class="cls-2" d="M31.37,85.63c.89,1.61.93,2.96.43,3.06-.5.1-1.34-.86-1.93-2.67-.59-1.81-.43-3.01-.43-3.01,0,0,1.02.97,1.93,2.61Z"/>
    <path class="cls-2" d="M33.82,86.6c-1.58.71-2.35,1.73-2,2.11.34.38,1.53.14,2.99-.9,1.46-1.04,1.97-2.06,1.97-2.06,0,0-1.34.13-2.96.86Z"/>
    <path class="cls-2" d="M30.09,89.81c.97,1.56,1.08,2.91.59,3.03-.5.13-1.38-.79-2.07-2.56-.69-1.78-.58-2.98-.58-2.98,0,0,1.07.91,2.06,2.51Z"/>
    <path class="cls-2" d="M32.59,90.65c-1.54.79-2.25,1.85-1.89,2.21.36.36,1.54.06,2.94-1.06,1.4-1.12,1.86-2.17,1.86-2.17,0,0-1.33.2-2.91,1.02Z"/>
    <path class="cls-2" d="M29.03,94.05c1.05,1.51,1.23,2.84.74,3-.49.16-1.42-.71-2.2-2.45-.78-1.74-.74-2.95-.74-2.95,0,0,1.12.85,2.19,2.4Z"/>
    <path class="cls-2" d="M31.58,94.75c-1.5.87-2.15,1.96-1.77,2.3.38.34,1.54-.02,2.88-1.21,1.34-1.19,1.74-2.26,1.74-2.26,0,0-1.32.27-2.85,1.17Z"/>
    <path class="cls-2" d="M28.2,98.34c1.13,1.45,1.38,2.78.9,2.96-.48.18-1.46-.64-2.32-2.33-.87-1.7-.89-2.9-.89-2.9,0,0,1.16.8,2.32,2.28Z"/>
    <path class="cls-2" d="M30.77,98.91c-1.45.95-2.05,2.07-1.65,2.39.4.32,1.53-.1,2.81-1.36,1.28-1.26,1.62-2.35,1.62-2.35,0,0-1.3.34-2.79,1.31Z"/>
    <path class="cls-2" d="M27.59,102.67c1.2,1.39,1.52,2.7,1.05,2.91-.47.21-1.49-.56-2.44-2.21-.96-1.65-1.04-2.85-1.04-2.85,0,0,1.2.73,2.43,2.15Z"/>
    <path class="cls-2" d="M30.19,103.1c-1.4,1.02-1.93,2.18-1.52,2.48.42.3,1.53-.18,2.73-1.51,1.21-1.32,1.5-2.43,1.5-2.43,0,0-1.28.41-2.71,1.46Z"/>
    <path class="cls-2" d="M27.21,107.03c1.27,1.32,1.66,2.62,1.2,2.85-.46.23-1.51-.48-2.56-2.08-1.04-1.6-1.19-2.79-1.19-2.79,0,0,1.24.67,2.54,2.02Z"/>
    <path class="cls-2" d="M29.83,107.32c-1.34,1.09-1.82,2.28-1.39,2.55.43.28,1.52-.26,2.65-1.65,1.14-1.38,1.37-2.5,1.37-2.5,0,0-1.26.48-2.63,1.6Z"/>
    <path class="cls-2" d="M193.92,111.39c-1.34,1.25-1.8,2.53-1.35,2.78s1.54-.4,2.66-1.94c1.12-1.54,1.33-2.73,1.33-2.73,0,0-1.27.6-2.64,1.89Z"/>
    <path class="cls-2" d="M191.29,111.55c1.28,1.16,1.7,2.37,1.25,2.62-.44.25-1.5-.34-2.56-1.78-1.06-1.44-1.24-2.57-1.24-2.57,0,0,1.23.54,2.55,1.73Z"/>
    <path class="cls-2" d="M193.85,115.76c-1.4,1.18-1.93,2.43-1.5,2.71.43.28,1.56-.32,2.76-1.8,1.2-1.48,1.48-2.65,1.48-2.65,0,0-1.3.54-2.74,1.75Z"/>
    <path class="cls-2" d="M191.21,115.78c1.22,1.23,1.57,2.45,1.11,2.68-.46.23-1.48-.42-2.47-1.92-.99-1.49-1.1-2.63-1.1-2.63,0,0,1.2.61,2.45,1.87Z"/>
    <path class="cls-2" d="M193.54,120.13c-1.46,1.11-2.05,2.32-1.63,2.62s1.57-.24,2.85-1.65c1.28-1.41,1.61-2.57,1.61-2.57,0,0-1.33.47-2.83,1.6Z"/>
    <path class="cls-2" d="M190.91,120.01c1.15,1.29,1.44,2.53.97,2.74-.47.21-1.46-.5-2.36-2.04-.91-1.54-.96-2.69-.96-2.69,0,0,1.17.67,2.35,1.99Z"/>
    <path class="cls-2" d="M193.01,124.46c-1.52,1.03-2.17,2.21-1.77,2.53.4.32,1.58-.16,2.93-1.5,1.35-1.34,1.74-2.49,1.74-2.49,0,0-1.35.4-2.91,1.45Z"/>
    <path class="cls-2" d="M190.38,124.21c1.08,1.35,1.31,2.6.83,2.79s-1.43-.57-2.25-2.16c-.82-1.59-.82-2.73-.82-2.73,0,0,1.13.73,2.24,2.11Z"/>
    <path class="cls-2" d="M192.25,128.77c-1.57.95-2.28,2.1-1.9,2.44.38.34,1.59-.07,3.01-1.35,1.42-1.27,1.87-2.39,1.87-2.39,0,0-1.37.33-2.98,1.3Z"/>
    <path class="cls-2" d="M189.64,128.37c1.01,1.4,1.17,2.67.68,2.83-.49.16-1.4-.65-2.14-2.28-.74-1.63-.67-2.77-.67-2.77,0,0,1.09.79,2.13,2.23Z"/>
    <path class="cls-2" d="M191.27,133.03c-1.62.87-2.39,1.97-2.02,2.34s1.59,0,3.07-1.19c1.48-1.2,1.99-2.29,1.99-2.29,0,0-1.38.25-3.04,1.14Z"/>
    <path class="cls-2" d="M188.68,132.5c.94,1.46,1.03,2.73.53,2.86-.5.13-1.36-.72-2.01-2.39-.65-1.67-.53-2.81-.53-2.81,0,0,1.05.84,2.01,2.33Z"/>
    <path class="cls-2" d="M190.06,137.23c-1.66.78-2.49,1.85-2.14,2.23.35.38,1.59.09,3.13-1.02,1.54-1.12,2.11-2.18,2.11-2.18,0,0-1.4.18-3.1.98Z"/>
    <path class="cls-2" d="M187.51,136.56c.86,1.5.88,2.78.38,2.88-.5.11-1.32-.79-1.89-2.49-.57-1.7-.38-2.83-.38-2.83,0,0,1.01.9,1.89,2.44Z"/>
    <path class="cls-2" d="M188.64,141.36c-1.7.69-2.58,1.71-2.26,2.11.32.4,1.58.18,3.18-.86,1.6-1.03,2.22-2.07,2.22-2.07,0,0-1.4.11-3.15.82Z"/>
    <path class="cls-2" d="M186.12,140.56c.78,1.55.74,2.82.23,2.9s-1.28-.86-1.75-2.58c-.48-1.73-.23-2.85-.23-2.85,0,0,.96.95,1.76,2.53Z"/>
    <path class="cls-2" d="M187,145.41c-1.73.6-2.67,1.58-2.37,1.99.3.41,1.57.26,3.22-.69,1.65-.95,2.33-1.95,2.33-1.95,0,0-1.41.03-3.18.65Z"/>
    <path class="cls-2" d="M184.53,144.49c.7,1.58.59,2.85.08,2.9-.51.05-1.23-.92-1.61-2.67-.38-1.75-.08-2.85-.08-2.85,0,0,.91,1,1.62,2.62Z"/>
    <path class="cls-2" d="M185.16,149.38c-1.76.51-2.75,1.43-2.47,1.86.28.43,1.55.34,3.25-.52,1.7-.86,2.43-1.82,2.43-1.82,0,0-1.41-.04-3.21.48Z"/>
    <path class="cls-2" d="M182.74,148.32c.61,1.62.44,2.88-.07,2.9-.51.03-1.18-.99-1.47-2.75-.29-1.77.07-2.85.07-2.85,0,0,.85,1.04,1.48,2.7Z"/>
    <path class="cls-2" d="M183.1,153.24c-1.79.42-2.82,1.29-2.56,1.73.26.44,1.53.42,3.28-.35,1.74-.77,2.52-1.7,2.52-1.7,0,0-1.4-.11-3.23.31Z"/>
    <path class="cls-2" d="M180.74,152.05c.53,1.65.29,2.9-.23,2.9-.51,0-1.13-1.05-1.33-2.83-.2-1.78.22-2.85.22-2.85,0,0,.8,1.09,1.34,2.78Z"/>
    <path class="cls-2" d="M180.85,156.98c-1.81.32-2.88,1.14-2.65,1.6s1.51.5,3.29-.18c1.78-.68,2.6-1.56,2.6-1.56,0,0-1.4-.19-3.25.14Z"/>
    <path class="cls-2" d="M178.56,155.68c.44,1.67.13,2.91-.38,2.88-.51-.03-1.07-1.1-1.18-2.89-.11-1.79.36-2.83.36-2.83,0,0,.74,1.13,1.19,2.84Z"/>
    <path class="cls-2" d="M178.41,160.61c-1.82.23-2.94.99-2.73,1.45.21.47,1.48.58,3.29,0,1.81-.58,2.68-1.42,2.68-1.42,0,0-1.38-.26-3.25-.03Z"/>
    <path class="cls-2" d="M176.18,159.18c.35,1.69-.02,2.91-.53,2.86-.51-.06-1.01-1.16-1.02-2.95-.01-1.79.51-2.81.51-2.81,0,0,.68,1.16,1.04,2.9Z"/>
    <path class="cls-2" d="M175.78,164.1c-1.83.13-2.99.83-2.8,1.31.19.48,1.45.65,3.29.17,1.84-.49,2.75-1.28,2.75-1.28,0,0-1.37-.33-3.24-.2Z"/>
    <path class="cls-2" d="M173.63,162.56c.26,1.71-.17,2.91-.68,2.83-.51-.08-.95-1.21-.87-3,.08-1.79.66-2.78.66-2.78,0,0,.62,1.2.89,2.95Z"/>
    <path class="cls-2" d="M172.97,167.45c-1.84.04-3.03.67-2.86,1.16.16.49,1.41.73,3.28.34,1.87-.39,2.82-1.13,2.82-1.13,0,0-1.35-.4-3.23-.37Z"/>
    <path class="cls-2" d="M170.91,165.8c.17,1.72-.32,2.89-.82,2.79s-.88-1.26-.71-3.04c.17-1.78.8-2.74.8-2.74,0,0,.55,1.23.73,2.99Z"/>
    <path class="cls-2" d="M169.99,170.64c-1.83-.06-3.06.52-2.92,1.01.14.49,1.37.8,3.25.51s2.87-.99,2.87-.99c0,0-1.33-.47-3.21-.53Z"/>
    <path class="cls-2" d="M168.01,168.89c.08,1.73-.47,2.87-.97,2.74-.49-.13-.82-1.3-.55-3.07.27-1.77.94-2.69.94-2.69,0,0,.49,1.26.57,3.03Z"/>
    <path class="cls-2" d="M166.84,173.68c-1.83-.16-3.08.35-2.97.86.11.5,1.33.87,3.22.68,1.9-.19,2.92-.83,2.92-.83,0,0-1.3-.54-3.17-.7Z"/>
    <path class="cls-2" d="M164.96,171.83c0,1.73-.62,2.84-1.11,2.68-.49-.16-.75-1.34-.39-3.1.36-1.75,1.08-2.64,1.08-2.64,0,0,.42,1.28.41,3.05Z"/>
    <path class="cls-2" d="M163.55,176.55c-1.82-.25-3.09.19-3.01.7.08.51,1.28.94,3.18.85,1.9-.09,2.96-.68,2.96-.68,0,0-1.27-.61-3.13-.87Z"/>
    <path class="cls-2" d="M161.76,174.6c-.1,1.73-.77,2.81-1.25,2.62-.48-.19-.68-1.38-.23-3.11.45-1.73,1.22-2.58,1.22-2.58,0,0,.35,1.3.25,3.07Z"/>
    <path class="cls-2" d="M160.1,179.24c-1.8-.35-3.1.03-3.04.54.06.51,1.23,1.01,3.13,1.01,1.91,0,2.99-.52,2.99-.52,0,0-1.24-.67-3.08-1.03Z"/>
    <path class="cls-2" d="M158.42,177.2c-.19,1.72-.92,2.76-1.39,2.55-.47-.21-.6-1.41-.06-3.12.54-1.71,1.35-2.51,1.35-2.51,0,0,.29,1.32.09,3.08Z"/>
    <path class="cls-2" d="M156.52,181.74c-1.78-.44-3.1-.13-3.07.38s1.17,1.07,3.08,1.17c1.9.1,3.01-.37,3.01-.37,0,0-1.2-.74-3.02-1.19Z"/>
    <path class="cls-2" d="M154.95,179.62c-.28,1.71-1.06,2.71-1.52,2.48-.46-.23-.53-1.44.1-3.12.63-1.68,1.48-2.44,1.48-2.44,0,0,.22,1.33-.07,3.08Z"/>
    <path class="cls-2" d="M152.81,184.06c-1.76-.53-3.09-.29-3.08.22s1.12,1.13,3.01,1.33c1.89.2,3.03-.21,3.03-.21,0,0-1.16-.8-2.96-1.35Z"/>
    <path class="cls-2" d="M151.36,181.86c-.37,1.69-1.2,2.65-1.64,2.4-.44-.26-.45-1.47.26-3.11.72-1.64,1.61-2.36,1.61-2.36,0,0,.15,1.34-.23,3.07Z"/>
    <path class="cls-2" d="M148.99,186.18c-1.73-.62-3.07-.45-3.09.06-.02.51,1.06,1.19,2.94,1.49,1.88.3,3.04-.05,3.04-.05,0,0-1.12-.86-2.88-1.5Z"/>
    <path class="cls-2" d="M147.65,183.9c-.45,1.67-1.34,2.59-1.77,2.31-.43-.28-.38-1.49.43-3.09.8-1.6,1.73-2.27,1.73-2.27,0,0,.08,1.34-.39,3.06Z"/>
    <path class="cls-2" d="M145.06,188.1c-1.69-.71-3.04-.61-3.09-.1s.99,1.24,2.86,1.64c1.86.4,3.03.11,3.03.11,0,0-1.07-.92-2.8-1.65Z"/>
    <path class="cls-2" d="M143.85,185.75c-.54,1.64-1.47,2.51-1.89,2.21-.41-.3-.3-1.51.59-3.07.88-1.56,1.85-2.18,1.85-2.18,0,0,0,1.35-.55,3.03Z"/>
    <path class="cls-2" d="M141.04,189.8c-1.65-.8-3-.77-3.08-.27-.08.51.93,1.29,2.77,1.79s3.02.27,3.02.27c0,0-1.02-.97-2.71-1.79Z"/>
    <path class="cls-2" d="M139.95,187.4c-.63,1.61-1.6,2.43-2,2.11s-.22-1.52.75-3.03c.96-1.51,1.96-2.08,1.96-2.08,0,0-.06,1.35-.71,3Z"/>
    <path class="cls-2" d="M136.93,191.3c-1.61-.89-2.96-.93-3.06-.43s.86,1.34,2.67,1.93c1.81.59,3.01.43,3.01.43,0,0-.97-1.02-2.61-1.93Z"/>
    <path class="cls-2" d="M135.97,188.84c-.71,1.58-1.73,2.35-2.11,2s-.14-1.53.9-2.99c1.04-1.46,2.06-1.97,2.06-1.97,0,0-.13,1.34-.86,2.96Z"/>
    <path class="cls-2" d="M132.75,192.58c-1.56-.97-2.91-1.08-3.03-.59-.13.5.79,1.38,2.56,2.07,1.78.69,2.98.58,2.98.58,0,0-.91-1.07-2.51-2.06Z"/>
    <path class="cls-2" d="M131.92,190.07c-.79,1.54-1.85,2.25-2.21,1.89-.36-.36-.06-1.54,1.06-2.94,1.12-1.4,2.17-1.86,2.17-1.86,0,0-.2,1.33-1.02,2.91Z"/>
    <path class="cls-2" d="M128.51,193.64c-1.51-1.05-2.84-1.23-3-.74-.16.49.71,1.42,2.45,2.2,1.74.78,2.95.74,2.95.74,0,0-.85-1.12-2.4-2.19Z"/>
    <path class="cls-2" d="M127.81,191.09c-.87,1.5-1.96,2.15-2.3,1.77-.34-.38.02-1.54,1.21-2.88,1.19-1.34,2.26-1.74,2.26-1.74,0,0-.27,1.32-1.17,2.85Z"/>
    <path class="cls-2" d="M124.22,194.47c-1.45-1.13-2.78-1.38-2.96-.9-.18.48.64,1.46,2.33,2.32s2.9.89,2.9.89c0,0-.8-1.16-2.28-2.32Z"/>
    <path class="cls-2" d="M123.65,191.89c-.95,1.45-2.07,2.05-2.39,1.65-.32-.4.1-1.53,1.36-2.81,1.26-1.28,2.35-1.62,2.35-1.62,0,0-.34,1.3-1.31,2.79Z"/>
    <path class="cls-2" d="M119.89,195.08c-1.39-1.2-2.7-1.52-2.91-1.05-.21.47.56,1.49,2.21,2.44,1.65.96,2.85,1.04,2.85,1.04,0,0-.73-1.2-2.15-2.43Z"/>
    <path class="cls-2" d="M119.46,192.47c-1.02,1.4-2.18,1.93-2.48,1.52-.3-.42.18-1.53,1.51-2.73,1.32-1.21,2.43-1.5,2.43-1.5,0,0-.41,1.28-1.46,2.71Z"/>
    <path class="cls-2" d="M115.54,195.46c-1.32-1.27-2.62-1.66-2.85-1.2-.23.46.48,1.51,2.08,2.56,1.6,1.04,2.79,1.19,2.79,1.19,0,0-.67-1.24-2.02-2.54Z"/>
    <path class="cls-2" d="M115.24,192.84c-1.09,1.34-2.28,1.82-2.55,1.39-.28-.43.26-1.52,1.65-2.65,1.38-1.14,2.5-1.37,2.5-1.37,0,0-.48,1.26-1.6,2.63Z"/>
    <path class="cls-2" d="M131.34,31.3c.87,1.62,1.97,2.39,2.34,2.02.36-.36,0-1.59-1.19-3.07-1.2-1.48-2.29-1.99-2.29-1.99,0,0,.25,1.38,1.14,3.04Z"/>
    <path class="cls-2" d="M130.81,33.88c1.46-.94,2.73-1.03,2.86-.53.13.5-.72,1.36-2.39,2.01-1.67.65-2.81.53-2.81.53,0,0,.84-1.05,2.33-2.01Z"/>
    <path class="cls-2" d="M135.54,32.5c.78,1.66,1.85,2.49,2.23,2.14.38-.35.09-1.59-1.02-3.13-1.12-1.54-2.18-2.11-2.18-2.11,0,0,.18,1.4.98,3.1Z"/>
    <path class="cls-2" d="M134.88,35.06c1.5-.86,2.78-.88,2.88-.38s-.79,1.32-2.49,1.89c-1.7.57-2.83.38-2.83.38,0,0,.9-1.01,2.44-1.89Z"/>
    <path class="cls-2" d="M139.67,33.92c.69,1.7,1.71,2.58,2.11,2.26.4-.32.18-1.58-.86-3.18-1.03-1.6-2.07-2.22-2.07-2.22,0,0,.11,1.4.82,3.15Z"/>
    <path class="cls-2" d="M138.88,36.44c1.55-.78,2.82-.74,2.9-.23.08.51-.86,1.28-2.58,1.75-1.73.48-2.85.23-2.85.23,0,0,.95-.96,2.53-1.76Z"/>
    <path class="cls-2" d="M143.73,35.56c.6,1.73,1.58,2.67,1.99,2.37.41-.3.26-1.57-.69-3.22-.95-1.65-1.95-2.33-1.95-2.33,0,0,.03,1.41.65,3.18Z"/>
    <path class="cls-2" d="M142.8,38.03c1.58-.7,2.85-.59,2.9-.08.05.51-.92,1.23-2.67,1.61-1.75.38-2.85.08-2.85.08,0,0,1-.91,2.62-1.62Z"/>
    <path class="cls-2" d="M147.69,37.41c.51,1.76,1.43,2.75,1.86,2.47.43-.28.34-1.55-.52-3.25-.86-1.7-1.82-2.43-1.82-2.43,0,0-.04,1.41.48,3.21Z"/>
    <path class="cls-2" d="M146.63,39.83c1.62-.61,2.88-.44,2.9.07.03.51-.99,1.18-2.75,1.47-1.77.29-2.85-.07-2.85-.07,0,0,1.04-.85,2.7-1.48Z"/>
    <path class="cls-2" d="M151.55,39.46c.42,1.79,1.29,2.82,1.73,2.56.44-.26.42-1.53-.35-3.28-.77-1.74-1.7-2.52-1.7-2.52,0,0-.11,1.4.31,3.23Z"/>
    <path class="cls-2" d="M150.37,41.82c1.65-.53,2.9-.29,2.9.23,0,.51-1.05,1.13-2.83,1.33-1.78.2-2.85-.22-2.85-.22,0,0,1.09-.8,2.78-1.34Z"/>
    <path class="cls-2" d="M155.29,41.71c.32,1.81,1.14,2.88,1.6,2.65.46-.24.5-1.51-.18-3.29-.68-1.78-1.56-2.6-1.56-2.6,0,0-.19,1.4.14,3.25Z"/>
    <path class="cls-2" d="M153.99,44.01c1.67-.44,2.91-.13,2.88.38-.03.51-1.1,1.07-2.89,1.18-1.79.11-2.83-.36-2.83-.36,0,0,1.13-.74,2.84-1.19Z"/>
    <path class="cls-2" d="M158.92,44.15c.23,1.82.99,2.94,1.45,2.73s.58-1.48,0-3.29-1.42-2.68-1.42-2.68c0,0-.26,1.38-.03,3.25Z"/>
    <path class="cls-2" d="M157.5,46.38c1.69-.35,2.91.02,2.86.53s-1.16,1.01-2.95,1.02-2.81-.51-2.81-.51c0,0,1.16-.68,2.9-1.04Z"/>
    <path class="cls-2" d="M162.41,46.78c.13,1.83.83,2.99,1.31,2.8.48-.19.65-1.45.17-3.29-.49-1.84-1.28-2.75-1.28-2.75,0,0-.33,1.37-.2,3.24Z"/>
    <path class="cls-2" d="M160.87,48.93c1.71-.26,2.91.17,2.83.68-.08.51-1.21.95-3,.87s-2.78-.66-2.78-.66c0,0,1.2-.62,2.95-.89Z"/>
    <path class="cls-2" d="M165.76,49.59c.04,1.84.67,3.03,1.16,2.86s.73-1.41.34-3.28c-.39-1.87-1.13-2.82-1.13-2.82,0,0-.4,1.35-.37,3.23Z"/>
    <path class="cls-2" d="M164.11,51.66c1.72-.17,2.89.32,2.79.82s-1.26.88-3.04.71c-1.78-.17-2.74-.8-2.74-.8,0,0,1.23-.55,2.99-.73Z"/>
    <path class="cls-2" d="M168.95,52.58c-.06,1.83.52,3.06,1.01,2.92.49-.14.8-1.37.51-3.25-.29-1.88-.99-2.87-.99-2.87,0,0-.47,1.33-.53,3.21Z"/>
    <path class="cls-2" d="M167.2,54.55c1.73-.08,2.87.47,2.74.97-.13.49-1.3.82-3.07.55-1.77-.27-2.69-.94-2.69-.94,0,0,1.26-.49,3.03-.57Z"/>
    <path class="cls-2" d="M171.99,55.72c-.16,1.83.35,3.08.86,2.97.5-.11.87-1.33.68-3.22-.19-1.9-.83-2.92-.83-2.92,0,0-.54,1.3-.7,3.17Z"/>
    <path class="cls-2" d="M170.14,57.6c1.73,0,2.84.62,2.68,1.11-.16.49-1.34.75-3.1.39s-2.64-1.08-2.64-1.08c0,0,1.28-.42,3.05-.41Z"/>
    <path class="cls-2" d="M174.86,59.02c-.25,1.82.19,3.09.7,3.01s.94-1.28.85-3.18c-.09-1.9-.68-2.96-.68-2.96,0,0-.61,1.27-.87,3.13Z"/>
    <path class="cls-2" d="M172.91,60.8c1.73.1,2.81.77,2.62,1.25-.19.48-1.38.68-3.11.23s-2.58-1.22-2.58-1.22c0,0,1.3-.35,3.07-.25Z"/>
    <path class="cls-2" d="M177.55,62.46c-.35,1.8.03,3.1.54,3.04s1.01-1.23,1.01-3.13-.52-2.99-.52-2.99c0,0-.67,1.24-1.03,3.08Z"/>
    <path class="cls-2" d="M175.51,64.14c1.72.19,2.76.92,2.55,1.39-.21.47-1.41.6-3.12.06-1.71-.54-2.51-1.35-2.51-1.35,0,0,1.32-.29,3.08-.09Z"/>
    <path class="cls-2" d="M180.06,66.04c-.44,1.78-.13,3.1.38,3.07s1.07-1.17,1.17-3.08c.1-1.9-.37-3.01-.37-3.01,0,0-.74,1.2-1.19,3.02Z"/>
    <path class="cls-2" d="M177.93,67.61c1.71.28,2.71,1.06,2.48,1.52-.23.46-1.44.53-3.12-.1-1.68-.63-2.44-1.48-2.44-1.48,0,0,1.33-.22,3.08.07Z"/>
    <path class="cls-2" d="M182.37,69.75c-.53,1.76-.29,3.09.22,3.08.51,0,1.13-1.12,1.33-3.01.2-1.89-.21-3.03-.21-3.03,0,0-.8,1.16-1.35,2.96Z"/>
    <path class="cls-2" d="M180.17,71.2c1.69.37,2.65,1.2,2.4,1.64s-1.47.45-3.11-.26c-1.64-.72-2.36-1.61-2.36-1.61,0,0,1.34-.15,3.07.23Z"/>
    <path class="cls-2" d="M184.49,73.57c-.62,1.73-.45,3.07.06,3.09s1.19-1.06,1.49-2.94c.3-1.88-.05-3.04-.05-3.04,0,0-.86,1.12-1.5,2.88Z"/>
    <path class="cls-2" d="M182.22,74.91c1.67.45,2.59,1.34,2.31,1.77-.28.43-1.49.38-3.09-.43-1.6-.8-2.27-1.73-2.27-1.73,0,0,1.34-.08,3.06.39Z"/>
    <path class="cls-2" d="M186.41,77.5c-.71,1.69-.61,3.04-.1,3.09.51.05,1.24-.99,1.64-2.86.4-1.86.11-3.03.11-3.03,0,0-.92,1.07-1.65,2.8Z"/>
    <path class="cls-2" d="M184.06,78.72c1.64.54,2.51,1.47,2.21,1.89-.3.41-1.51.3-3.07-.59s-2.18-1.85-2.18-1.85c0,0,1.35,0,3.03.55Z"/>
    <path class="cls-2" d="M188.12,81.52c-.8,1.65-.77,3-.27,3.08.51.08,1.29-.93,1.79-2.77.5-1.84.27-3.02.27-3.02,0,0-.97,1.02-1.79,2.71Z"/>
    <path class="cls-2" d="M185.71,82.62c1.61.63,2.43,1.6,2.11,2-.32.4-1.52.22-3.03-.75-1.51-.96-2.08-1.96-2.08-1.96,0,0,1.35.06,3,.71Z"/>
    <path class="cls-2" d="M189.61,85.63c-.89,1.61-.93,2.96-.43,3.06.5.1,1.34-.86,1.93-2.67.59-1.81.43-3.01.43-3.01,0,0-1.02.97-1.93,2.61Z"/>
    <path class="cls-2" d="M187.15,86.6c1.58.71,2.35,1.73,2,2.11-.34.38-1.53.14-2.99-.9-1.46-1.04-1.97-2.06-1.97-2.06,0,0,1.34.13,2.96.86Z"/>
    <path class="cls-2" d="M190.89,89.81c-.97,1.56-1.08,2.91-.59,3.03s1.38-.79,2.07-2.56c.69-1.78.58-2.98.58-2.98,0,0-1.07.91-2.06,2.51Z"/>
    <path class="cls-2" d="M188.38,90.65c1.54.79,2.25,1.85,1.89,2.21-.36.36-1.54.06-2.94-1.06-1.4-1.12-1.86-2.17-1.86-2.17,0,0,1.33.2,2.91,1.02Z"/>
    <path class="cls-2" d="M191.95,94.05c-1.05,1.51-1.23,2.84-.74,3,.49.16,1.42-.71,2.2-2.45.78-1.74.74-2.95.74-2.95,0,0-1.12.85-2.19,2.4Z"/>
    <path class="cls-2" d="M189.4,94.75c1.5.87,2.15,1.96,1.77,2.3s-1.54-.02-2.88-1.21c-1.34-1.19-1.74-2.26-1.74-2.26,0,0,1.32.27,2.85,1.17Z"/>
    <path class="cls-2" d="M192.78,98.34c-1.13,1.45-1.38,2.78-.9,2.96.48.18,1.46-.64,2.32-2.33.87-1.7.89-2.9.89-2.9,0,0-1.16.8-2.32,2.28Z"/>
    <path class="cls-2" d="M190.2,98.91c1.45.95,2.05,2.07,1.65,2.39-.4.32-1.53-.1-2.81-1.36-1.28-1.26-1.62-2.35-1.62-2.35,0,0,1.3.34,2.79,1.31Z"/>
    <path class="cls-2" d="M193.39,102.67c-1.2,1.39-1.52,2.7-1.05,2.91.47.21,1.49-.56,2.44-2.21.96-1.65,1.04-2.85,1.04-2.85,0,0-1.2.73-2.43,2.15Z"/>
    <path class="cls-2" d="M190.79,103.1c1.4,1.02,1.93,2.18,1.52,2.48s-1.53-.18-2.73-1.51c-1.21-1.32-1.5-2.43-1.5-2.43,0,0,1.28.41,2.71,1.46Z"/>
    <path class="cls-2" d="M193.77,107.03c-1.27,1.32-1.66,2.62-1.2,2.85.46.23,1.51-.48,2.56-2.08,1.04-1.6,1.19-2.79,1.19-2.79,0,0-1.24.67-2.54,2.02Z"/>
    <path class="cls-2" d="M191.15,107.32c1.34,1.09,1.82,2.28,1.39,2.55-.43.28-1.52-.26-2.65-1.65-1.14-1.38-1.37-2.5-1.37-2.5,0,0,1.26.48,2.63,1.6Z"/>
  </g>
  <path class="cls-2" d="M119.72,226.74l-1.9-1.9c.8-1.3,1.2-2.8,1.2-4.5,0-4.8-3.8-8.6-8.6-8.6s-8.6,3.9-8.6,8.6,3.8,8.6,8.6,8.6c1.9,0,3.6-.6,5-1.7l1.8,1.7,2.5-2.2ZM110.52,225.54c-2.9,0-5.3-2.3-5.3-5.3s2.3-5.3,5.3-5.3,5.3,2.3,5.3,5.3c0,.7-.1,1.3-.4,2l-.1-.1h-4.9l2.7,2.7c-.9.4-1.6.7-2.6.7Z"/>
  <g>
    <path class="cls-2" d="M31.04,188.14l-1.39-1.48,7.3-6.86,1.39,1.48-7.3,6.86Z"/>
    <path class="cls-2" d="M26.08,182.69l-1.26-1.62,2.37-6.06c.23-.59.68-1.41.68-1.41l-.02-.02s-.78.68-1.34,1.11l-4.14,3.22-1.23-1.58,7.9-6.14,1.2,1.55-2.27,6.09c-.22.58-.66,1.41-.66,1.41l.02.02s.79-.69,1.35-1.12l4.08-3.17,1.23,1.58-7.9,6.14Z"/>
    <path class="cls-2" d="M18.29,172.18l-4.15-6.9,1.46-.88,1.55,2.58,7.12-4.28,1.05,1.74-7.12,4.28,1.55,2.58-1.46.88Z"/>
    <path class="cls-2" d="M11.83,160.85l-3.05-6.71,1.56-.71,2.21,4.86,2.04-.93-1.94-4.26,1.52-.69,1.94,4.26,2.46-1.12-2.23-4.9,1.54-.7,3.07,6.74-9.12,4.15Z"/>
    <path class="cls-2" d="M6.89,149.22l-1.4-4.37c-.59-1.84.09-3.41,1.67-3.91,1.12-.36,2.14-.11,2.87,1.01h.04c-.03-.97.33-1.59,1.46-2.08,1.3-.56,2.35-.84,2.39-1.22l.09-.03.59,1.85c-.03.27-1.09.64-2.09,1.05-1.01.41-1.41,1.19-1.03,2.39l.5,1.56,3.83-1.22.62,1.93-9.53,3.04ZM10.49,145.94l-.65-2.05c-.34-1.05-1.05-1.4-1.81-1.16-.77.25-1.19.92-.86,1.95l.67,2.11,2.65-.85Z"/>
    <path class="cls-2" d="M3.21,136.61l-.38-2.02,4.87-4.31c.48-.42,1.25-.95,1.25-.95v-.03s-1.01.25-1.7.38l-5.16.98-.37-1.97,9.83-1.86.36,1.93-4.8,4.38c-.46.42-1.23.96-1.23.96v.03s1.03-.25,1.71-.38l5.08-.96.37,1.97-9.83,1.86Z"/>
    <path class="cls-2" d="M.85,120.45l-.14-2.1,9.76-4.18.14,2.11-2.08.81.24,3.61,2.17.52.13,2.05-10.22-2.83ZM7.19,120.33l-.17-2.64-2.82,1.08c-.52.2-1.51.51-1.51.51v.03s1.03.19,1.57.32l2.94.71Z"/>
    <path class="cls-2" d="M.47,111.87l.31-8.05,1.71.07-.12,3.01,8.3.32-.08,2.03-8.3-.32-.12,3.01-1.71-.06Z"/>
    <path class="cls-2" d="M1.31,99.07l.26-2.01,9.93,1.27-.26,2.01-9.93-1.27Z"/>
    <path class="cls-2" d="M7.15,93.27c-2.92-.67-4.67-3-4-5.88.66-2.88,3.25-4.19,6.17-3.52,2.92.67,4.66,2.98,3.99,5.86-.66,2.88-3.24,4.21-6.16,3.54ZM8.85,85.89c-1.95-.45-3.67.08-4.08,1.86-.41,1.79.89,3.05,2.84,3.5,1.94.45,3.66-.12,4.07-1.91.41-1.79-.9-3.01-2.84-3.46Z"/>
    <path class="cls-2" d="M5.94,77.8l.71-1.93,6.39-1.19c.62-.11,1.56-.17,1.56-.17v-.03s-.98-.31-1.64-.55l-4.92-1.82.69-1.88,9.39,3.47-.68,1.84-6.37,1.28c-.61.12-1.55.19-1.55.19v.03s.99.31,1.65.55l4.84,1.79-.7,1.88-9.39-3.47Z"/>
    <path class="cls-2" d="M12.27,62.7l.96-1.86,10.51,1.46-.97,1.88-2.2-.38-1.66,3.21,1.59,1.56-.94,1.83-7.29-7.7ZM17.75,65.87l1.22-2.35-2.97-.53c-.55-.1-1.55-.35-1.55-.35v.03s.77.69,1.16,1.08l2.15,2.12Z"/>
    <path class="cls-2" d="M17.35,53.62l1.13-1.69,6.91,4.63,2.62-3.91,1.41.94-3.75,5.59-8.31-5.57Z"/>
    <path class="cls-2" d="M27.83,39.59l1.38-1.49,6.08,5.66,3.2-3.44,1.24,1.15-4.59,4.93-7.33-6.82Z"/>
    <path class="cls-2" d="M38.2,29.3l1.59-1.37,9.19,5.3-1.61,1.38-1.9-1.18-2.74,2.35.88,2.04-1.56,1.34-3.87-9.87ZM42.09,34.3l2.01-1.72-2.56-1.61c-.47-.29-1.31-.9-1.31-.9l-.02.02s.46.93.68,1.44l1.2,2.77Z"/>
    <path class="cls-2" d="M46.37,22.74l1.71-1.14,5.87,2.81c.57.28,1.36.78,1.36.78l.02-.02s-.62-.83-1.01-1.42l-2.9-4.38,1.67-1.11,5.54,8.34-1.63,1.08-5.91-2.72c-.56-.26-1.36-.76-1.36-.76l-.02.02s.63.84,1.02,1.43l2.86,4.31-1.67,1.11-5.54-8.34Z"/>
    <path class="cls-2" d="M57.89,15.51l3.5-1.74c2.39-1.19,4.9-.04,6.21,2.61.73,1.45.88,2.97.33,4.23-.39.88-1.1,1.63-2.22,2.19l-3.34,1.67-4.47-8.96ZM64.8,21.29c1.7-.85,1.85-2.22.96-4-.89-1.78-2.28-2.63-3.82-1.86l-1.45.73,2.92,5.84,1.4-.7Z"/>
    <path class="cls-2" d="M71.95,16.49l1.87-.67c.54,1.09,1.34,1.31,2.69.83.98-.35,1.71-1,1.4-1.87-.33-.92-1.29-.79-2.85-.61-1.82.22-3.53.32-4.23-1.64-.66-1.86.51-3.36,2.61-4.11,2.12-.76,3.87-.2,4.69,1.64l-1.83.65c-.44-.91-1.35-1.12-2.33-.78-1.03.37-1.55,1.04-1.31,1.71.27.77,1.01.75,2.52.56,2.09-.27,3.83-.37,4.56,1.66.68,1.91-.48,3.53-2.6,4.29-2.56.91-4.41.29-5.19-1.67Z"/>
    <path class="cls-2" d="M83.08,10.78c-.65-2.9.66-5.52,3.54-6.16,2.41-.54,4.15.58,4.77,2.39l-1.97.44c-.4-.94-1.28-1.42-2.43-1.16-1.8.4-2.33,2.1-1.89,4.04.45,2,1.81,3.2,3.45,2.83,1.16-.26,1.83-1.14,1.72-2.19l1.94-.43c.14.87-.04,1.79-.56,2.55-.53.78-1.38,1.4-2.73,1.7-2.75.61-5.18-1.07-5.83-4Z"/>
    <path class="cls-2" d="M98.17,2.9l2.09-.21,4.52,9.6-2.1.21-.88-2.05-3.6.37-.44,2.18-2.05.21,2.46-10.31ZM98.52,9.23l2.63-.27-1.18-2.78c-.22-.51-.56-1.49-.56-1.49h-.03s-.15,1.03-.26,1.58l-.6,2.96Z"/>
    <path class="cls-2" d="M108.59,2.18l4.4.07c1.16.02,2.03.37,2.6.98.55.58.87,1.37.86,2.3-.03,1.89-1.3,3.14-3.4,3.11l-2.46-.04-.06,3.63-2.1-.03.16-10.01ZM110.62,6.95l2.1.03c1.06.02,1.63-.56,1.65-1.47.01-.94-.56-1.48-1.57-1.5l-2.13-.03-.05,2.97Z"/>
    <path class="cls-2" d="M121.45,2.7l7.3.96-.22,1.69-5.29-.7-.29,2.22,4.64.61-.22,1.65-4.64-.61-.35,2.68,5.33.71-.22,1.68-7.35-.97,1.31-9.93Z"/>
    <path class="cls-2" d="M139.6,6.06l3.73,1.17c2.55.8,3.55,3.37,2.67,6.19-.49,1.55-1.43,2.75-2.7,3.28-.89.37-1.92.41-3.12.04l-3.57-1.12,2.99-9.55ZM140.57,15.02c1.82.57,2.87-.32,3.46-2.22.59-1.9.18-3.48-1.46-3.99l-1.55-.49-1.95,6.23,1.5.47Z"/>
    <path class="cls-2" d="M152.29,10.4l6.72,3.03-.7,1.56-4.86-2.19-.92,2.04,4.26,1.92-.68,1.52-4.27-1.92-1.11,2.46,4.9,2.21-.7,1.54-6.75-3.04,4.11-9.13Z"/>
    <path class="cls-2" d="M159.67,21.54l1.71,1.02c-.5,1.1-.15,1.87,1.07,2.6.89.53,1.86.69,2.33-.11.5-.84-.21-1.5-1.34-2.58-1.33-1.27-2.49-2.52-1.42-4.31,1.01-1.69,2.92-1.74,4.83-.6,1.93,1.16,2.61,2.85,1.71,4.66l-1.67-1c.42-.92,0-1.76-.88-2.29-.94-.56-1.79-.53-2.15.08-.42.7.06,1.26,1.17,2.3,1.54,1.44,2.72,2.72,1.62,4.57-1.04,1.74-3.03,1.87-4.96.72-2.33-1.39-3.03-3.22-2.01-5.07Z"/>
    <path class="cls-2" d="M174.38,22.71l1.64,1.2-5.9,8.09-1.64-1.2,5.91-8.09Z"/>
    <path class="cls-2" d="M179.97,38.47l-.02-.02c-1.28.4-2.25.08-3.13-.71-1.13-1.01-1.64-2.2-1.66-3.43,0-1.24.5-2.52,1.51-3.65,1.11-1.24,2.52-1.94,3.94-1.96,1.1-.01,2.17.39,3.17,1.29,1.88,1.68,2.03,3.67.97,5.35l-1.48-1.32c.48-.87.39-1.89-.57-2.74-1.41-1.26-3.15-.71-4.48.77-1.36,1.53-1.55,3.36-.27,4.51,1.16,1.03,2.7.85,3.43.02l.04-.04-1.8-1.6,1.04-1.17,3.15,2.8-3.54,3.97-1.14-1.01.84-1.05Z"/>
    <path class="cls-2" d="M190.72,36.95l1.35,1.55-2.02,6.18c-.2.6-.6,1.45-.6,1.45l.02.02s.74-.72,1.27-1.18l3.96-3.45,1.32,1.51-7.54,6.58-1.29-1.48,1.92-6.21c.19-.59.57-1.45.57-1.45l-.02-.02s-.75.73-1.28,1.19l-3.89,3.39-1.32-1.51,7.54-6.58Z"/>
    <path class="cls-2" d="M202.7,52.24l2.27,3.76c.6.99.76,1.91.55,2.73-.2.78-.7,1.47-1.49,1.95-1.62.98-3.35.57-4.44-1.23l-1.27-2.11-3.1,1.87-1.08-1.8,8.57-5.17ZM199.74,56.49l1.08,1.8c.55.91,1.34,1.09,2.12.62.8-.48.95-1.26.43-2.12l-1.1-1.82-2.54,1.53Z"/>
    <path class="cls-2" d="M209.09,63.44l1.89,4.18c.8,1.76.31,3.39-1.21,4.08-1.07.48-2.11.36-2.96-.67l-.04.02c.14.95-.15,1.6-1.21,2.22-1.23.71-2.23,1.1-2.23,1.49l-.09.04-.8-1.77c0-.28,1.01-.76,1.95-1.28.96-.53,1.27-1.34.75-2.49l-.67-1.49-3.66,1.66-.83-1.85,9.12-4.13ZM205.9,67.12l.89,1.96c.46,1.01,1.2,1.27,1.93.94.74-.33,1.07-1.05.63-2.04l-.91-2.01-2.54,1.15Z"/>
    <path class="cls-2" d="M209.3,76.63c2.86-.88,5.54.26,6.41,3.08.87,2.82-.71,5.26-3.57,6.14-2.86.88-5.53-.25-6.4-3.07-.87-2.82.69-5.27,3.56-6.15ZM211.53,83.87c1.91-.59,3.13-1.9,2.59-3.66-.54-1.75-2.3-2.19-4.21-1.6-1.9.58-3.11,1.94-2.57,3.69.54,1.75,2.29,2.15,4.19,1.57Z"/>
    <path class="cls-2" d="M218.06,89.39l1.26,7.06-1.7.3-.9-5.06-2.37.42.76,4.29-1.71.3-.76-4.29-4.08.73-.35-2,9.86-1.75Z"/>
    <path class="cls-2" d="M219.91,101.48l.47,7.35-1.7.11-.34-5.33-2.24.14.3,4.67-1.66.11-.3-4.67-2.7.17.34,5.37-1.69.11-.48-7.39,9.99-.64Z"/>
    <path class="cls-2" d="M213.53,113.22l-.1,1.99c-1.21.08-1.72.74-1.79,2.17-.05,1.03.27,1.96,1.19,2.01.98.05,1.22-.89,1.65-2.4.5-1.77,1.05-3.38,3.14-3.28,1.97.1,2.91,1.76,2.8,3.98-.11,2.25-1.29,3.65-3.31,3.7l.1-1.94c1.01-.06,1.56-.82,1.61-1.85.05-1.09-.37-1.83-1.08-1.86-.81-.04-1.08.65-1.48,2.11-.55,2.03-1.12,3.69-3.28,3.58-2.03-.1-3.08-1.79-2.96-4.05.14-2.71,1.42-4.19,3.53-4.15Z"/>
    <path class="cls-2" d="M212.68,125.44l-.33,1.96c-1.21-.06-1.8.53-2.04,1.94-.17,1.02.03,1.98.94,2.13.97.17,1.32-.74,1.92-2.19.7-1.7,1.45-3.23,3.5-2.88,1.95.33,2.68,2.09,2.31,4.29-.38,2.22-1.72,3.47-3.73,3.29l.33-1.92c1.01.06,1.64-.63,1.82-1.65.18-1.08-.15-1.86-.86-1.98-.8-.14-1.15.51-1.72,1.92-.79,1.95-1.56,3.53-3.68,3.17-2-.34-2.84-2.15-2.46-4.37.46-2.68,1.9-3.99,4-3.71Z"/>
    <path class="cls-2" d="M216.92,139.56l-.52,1.96-9.67-2.58.52-1.96,9.67,2.58Z"/>
    <path class="cls-2" d="M210.36,144.52c2.8,1.05,4.23,3.59,3.19,6.36-1.04,2.76-3.78,3.72-6.58,2.67-2.8-1.05-4.22-3.57-3.18-6.34,1.04-2.76,3.77-3.74,6.57-2.69ZM207.7,151.6c1.88.7,3.64.41,4.29-1.3s-.48-3.14-2.35-3.84c-1.86-.7-3.64-.37-4.29,1.35s.5,3.1,2.35,3.8Z"/>
    <path class="cls-2" d="M209.5,160l-.96,1.82-6.5.33c-.63.03-1.57-.04-1.57-.04v.02s.93.44,1.55.76l4.64,2.46-.94,1.77-8.85-4.69.92-1.73,6.49-.43c.62-.03,1.56.02,1.56.02v-.02s-.94-.44-1.56-.77l-4.57-2.42.94-1.77,8.85,4.69Z"/>
    <path class="cls-2" d="M201.22,174.15l-1.2,1.72-10.23-2.85,1.21-1.73,2.13.67,2.07-2.96-1.37-1.76,1.18-1.69,6.21,8.6ZM196.2,170.28l-1.52,2.17,2.88.92c.53.17,1.5.55,1.5.55l.02-.02s-.68-.78-1.02-1.23l-1.85-2.39Z"/>
    <path class="cls-2" d="M194.98,182.45l-1.34,1.52-6.24-5.5-3.11,3.53-1.27-1.12,4.45-5.05,7.51,6.62Z"/>
  </g>
  <path id="SVGID_1_" class="cls-1" d="M10.25,112.1C10.25,56.6,55.25,11.5,110.85,11.5s100.6,45,100.6,100.6-45,100.6-100.6,100.6c-55.6-.1-100.6-45.1-100.6-100.6Z"/>
  <rect class="cls-1" x="20.45" y="94.25" width="180.8" height="35.7"/>
  <g>
    <path class="cls-2" d="M73.02,92.52v.39c-1.01,0-1.87.28-2.57.85-.7.57-1.06,1.51-1.06,2.82v25.66c0,1.3.37,2.25,1.12,2.83.75.59,1.58.88,2.5.88v.37h-10.72v-.37c.98,0,1.82-.29,2.54-.86.71-.57,1.07-1.53,1.07-2.86v-25.66c0-1.41-.36-2.37-1.07-2.89-.71-.52-1.56-.78-2.54-.78v-.39h10.72Z"/>
    <path class="cls-2" d="M76.49,125.96h.46c.83,0,1.56-.33,2.19-.98s.95-1.56.95-2.74v-25.52c0-1.41-.36-2.39-1.07-2.94-.71-.55-1.56-.84-2.54-.87v-.39h10.81v.39c-.95.03-1.79.31-2.52.85s-1.1,1.52-1.1,2.96v24.67c0,1.47.37,2.49,1.1,3.05.73.57,1.94.85,3.6.85h2.92c1.27,0,2.28-.15,3.04-.46.76-.31,1.36-.77,1.8-1.4.44-.63.89-1.51,1.35-2.66h.39l-1.29,5.55h-20.1v-.37Z"/>
    <path class="cls-2" d="M99.99,92.91v-.39h13.01c1.82,0,3.5.16,5.04.47,1.54.31,2.92.73,4.13,1.25,1.22.52,2.27,1.09,3.16,1.71.89.62,1.64,1.25,2.25,1.89,1.07,1.07,1.98,2.26,2.73,3.57.75,1.31,1.31,2.69,1.69,4.14.37,1.45.56,2.95.56,4.5s-.18,3.01-.55,4.41c-.37,1.39-.89,2.68-1.58,3.87s-1.51,2.26-2.47,3.22c-.96.96-2.07,1.84-3.34,2.62-1.09.64-2.33,1.16-3.74,1.56-1.41.4-3.31.6-5.71.6h-15.17v-.37h.46c1.06,0,1.84-.4,2.36-1.19.52-.79.78-1.64.78-2.52v-25.52c0-.86-.14-1.58-.42-2.16-.28-.58-.66-1-1.14-1.26-.47-.26-1-.39-1.58-.39h-.46ZM107.08,94.13v26.78c0,1.32.21,2.28.63,2.9.42.62,1.07,1.02,1.96,1.2s2.19.28,3.9.28c2.45,0,4.51-.24,6.2-.72,1.68-.48,3.31-1.56,4.89-3.22,1.16-1.24,2.1-2.75,2.8-4.54s1.06-3.96,1.06-6.49c0-2-.28-3.99-.85-5.96-.57-1.97-1.43-3.71-2.59-5.24-1.3-1.73-2.97-3.08-5.01-4.06-2.04-.98-4.5-1.47-7.38-1.47-1.48,0-3.35.18-5.6.55Z"/>
    <path class="cls-2" d="M136.73,92.91v-.39h11.08c1.85,0,3.48.25,4.9.76s2.59,1.19,3.53,2.07c.94.87,1.64,1.86,2.11,2.95.47,1.09.7,2.25.7,3.45s-.22,2.31-.65,3.41c-.44,1.09-1.12,2.07-2.05,2.92-.93.85-2.16,1.53-3.67,2.03s-3.26.76-5.23.76c-.63,0-1.84-.09-3.63-.28v11.66c0,2.4,1.22,3.64,3.67,3.72v.37h-10.76v-.37c1.06-.03,1.92-.33,2.6-.91.68-.57,1.02-1.51,1.02-2.81v-25.57c0-.78-.12-1.43-.37-1.95s-.53-.89-.86-1.11-.7-.39-1.1-.49-.69-.18-.84-.21h-.46ZM143.82,93.71v15.93c1.18.21,2.34.32,3.49.32,2.19,0,4.04-.56,5.57-1.69,1.52-1.12,2.28-3.21,2.28-6.25,0-2.51-.67-4.57-2.01-6.18-1.34-1.61-3.37-2.42-6.09-2.42-1.06,0-2.13.1-3.24.3Z"/>
  </g>
</svg>