<?xml version="1.0" encoding="UTF-8"?>
<svg id="IEWP" xmlns="http://www.w3.org/2000/svg" viewBox="0 0 222 229">
  <defs>
    <style>
      .cls-1 {
        fill: none;
      }

      .cls-1, .cls-2 {
        stroke-width: 0px;
      }

      .cls-2 {
        fill: #faf0b6;
      }
    </style>
  </defs>
  <g>
    <path class="cls-2" d="M131.75,32.94v.31c3.38.95,6.7,2.12,9.96,3.51,9.74,4.16,18.48,10.1,25.98,17.65,7.5,7.55,13.37,16.33,17.46,26.11,4.23,10.12,6.36,20.85,6.32,31.91-.04,11.03-2.24,21.73-6.53,31.8-4.14,9.72-10.06,18.45-17.58,25.94-7.52,7.49-16.27,13.37-26.01,17.48-10.08,4.25-20.78,6.41-31.8,6.41h-.31c-11.06-.04-21.78-2.25-31.87-6.56-9.74-4.16-18.48-10.1-25.98-17.65-7.5-7.55-13.37-16.33-17.46-26.11-4.23-10.12-6.36-20.85-6.32-31.91.04-11.03,2.24-21.73,6.53-31.8,4.14-9.72,10.06-18.45,17.58-25.94,7.52-7.49,16.27-13.37,26.01-17.48,3.14-1.33,6.35-2.45,9.6-3.36v-.3c-34.51,9.66-59.88,41.28-60.02,78.89-.17,45.41,36.51,82.36,81.92,82.53.11,0,.2,0,.31,0,45.27,0,82.05-36.62,82.22-81.92.14-37.82-25.28-69.77-60.02-79.49Z"/>
    <path class="cls-2" d="M26.05,111.39c1.34,1.25,1.8,2.53,1.35,2.78s-1.54-.4-2.66-1.94c-1.12-1.54-1.33-2.73-1.33-2.73,0,0,1.27.6,2.64,1.89Z"/>
    <path class="cls-2" d="M28.69,111.55c-1.28,1.16-1.7,2.37-1.25,2.62.44.25,1.5-.34,2.56-1.78,1.06-1.44,1.24-2.57,1.24-2.57,0,0-1.23.54-2.55,1.73Z"/>
    <path class="cls-2" d="M26.13,115.76c1.4,1.18,1.93,2.43,1.5,2.71s-1.56-.32-2.76-1.8c-1.2-1.48-1.48-2.65-1.48-2.65,0,0,1.3.54,2.74,1.75Z"/>
    <path class="cls-2" d="M28.77,115.78c-1.22,1.23-1.57,2.45-1.11,2.68.46.23,1.48-.42,2.47-1.92s1.1-2.63,1.1-2.63c0,0-1.2.61-2.45,1.87Z"/>
    <path class="cls-2" d="M26.43,120.13c1.46,1.11,2.05,2.32,1.63,2.62s-1.57-.24-2.85-1.65c-1.28-1.41-1.61-2.57-1.61-2.57,0,0,1.33.47,2.83,1.6Z"/>
    <path class="cls-2" d="M29.07,120.01c-1.15,1.29-1.44,2.53-.97,2.74.47.21,1.46-.5,2.36-2.04.91-1.54.96-2.69.96-2.69,0,0-1.17.67-2.35,1.99Z"/>
    <path class="cls-2" d="M26.97,124.46c1.52,1.03,2.17,2.21,1.77,2.53-.4.32-1.58-.16-2.93-1.5-1.35-1.34-1.74-2.49-1.74-2.49,0,0,1.35.4,2.91,1.45Z"/>
    <path class="cls-2" d="M29.6,124.21c-1.08,1.35-1.31,2.6-.83,2.79.48.18,1.43-.57,2.25-2.16.82-1.59.82-2.73.82-2.73,0,0-1.13.73-2.24,2.11Z"/>
    <path class="cls-2" d="M27.73,128.77c1.57.95,2.28,2.1,1.9,2.44-.38.34-1.59-.07-3.01-1.35-1.42-1.27-1.87-2.39-1.87-2.39,0,0,1.37.33,2.98,1.3Z"/>
    <path class="cls-2" d="M30.34,128.37c-1.01,1.4-1.17,2.67-.68,2.83.49.16,1.4-.65,2.14-2.28.74-1.63.67-2.77.67-2.77,0,0-1.09.79-2.13,2.23Z"/>
    <path class="cls-2" d="M28.71,133.03c1.62.87,2.39,1.97,2.02,2.34-.36.36-1.59,0-3.07-1.19-1.48-1.2-1.99-2.29-1.99-2.29,0,0,1.38.25,3.04,1.14Z"/>
    <path class="cls-2" d="M31.3,132.5c-.94,1.46-1.03,2.73-.53,2.86.5.13,1.36-.72,2.01-2.39.65-1.67.53-2.81.53-2.81,0,0-1.05.84-2.01,2.33Z"/>
    <path class="cls-2" d="M29.91,137.23c1.66.78,2.49,1.85,2.14,2.23-.35.38-1.59.09-3.13-1.02-1.54-1.12-2.11-2.18-2.11-2.18,0,0,1.4.18,3.1.98Z"/>
    <path class="cls-2" d="M32.47,136.56c-.86,1.5-.88,2.78-.38,2.88.5.11,1.32-.79,1.89-2.49.57-1.7.38-2.83.38-2.83,0,0-1.01.9-1.89,2.44Z"/>
    <path class="cls-2" d="M31.34,141.36c1.7.69,2.58,1.71,2.26,2.11-.32.4-1.58.18-3.18-.86-1.6-1.03-2.22-2.07-2.22-2.07,0,0,1.4.11,3.15.82Z"/>
    <path class="cls-2" d="M33.85,140.56c-.78,1.55-.74,2.82-.23,2.9s1.28-.86,1.75-2.58c.48-1.73.23-2.85.23-2.85,0,0-.96.95-1.76,2.53Z"/>
    <path class="cls-2" d="M32.97,145.41c1.73.6,2.67,1.58,2.37,1.99-.3.41-1.57.26-3.22-.69-1.65-.95-2.33-1.95-2.33-1.95,0,0,1.41.03,3.18.65Z"/>
    <path class="cls-2" d="M35.45,144.49c-.7,1.58-.59,2.85-.08,2.9.51.05,1.23-.92,1.61-2.67.38-1.75.08-2.85.08-2.85,0,0-.91,1-1.62,2.62Z"/>
    <path class="cls-2" d="M34.82,149.38c1.76.51,2.75,1.43,2.47,1.86-.28.43-1.55.34-3.25-.52-1.7-.86-2.43-1.82-2.43-1.82,0,0,1.41-.04,3.21.48Z"/>
    <path class="cls-2" d="M37.24,148.32c-.61,1.62-.44,2.88.07,2.9s1.18-.99,1.47-2.75c.29-1.77-.07-2.85-.07-2.85,0,0-.85,1.04-1.48,2.7Z"/>
    <path class="cls-2" d="M36.87,153.24c1.79.42,2.82,1.29,2.56,1.73-.26.44-1.53.42-3.28-.35-1.74-.77-2.52-1.7-2.52-1.7,0,0,1.4-.11,3.23.31Z"/>
    <path class="cls-2" d="M39.23,152.05c-.53,1.65-.29,2.9.23,2.9.51,0,1.13-1.05,1.33-2.83.2-1.78-.22-2.85-.22-2.85,0,0-.8,1.09-1.34,2.78Z"/>
    <path class="cls-2" d="M39.12,156.98c1.81.32,2.88,1.14,2.65,1.6s-1.51.5-3.29-.18c-1.78-.68-2.6-1.56-2.6-1.56,0,0,1.4-.19,3.25.14Z"/>
    <path class="cls-2" d="M41.42,155.68c-.44,1.67-.13,2.91.38,2.88.51-.03,1.07-1.1,1.18-2.89s-.36-2.83-.36-2.83c0,0-.74,1.13-1.19,2.84Z"/>
    <path class="cls-2" d="M41.57,160.61c1.82.23,2.94.99,2.73,1.45-.21.47-1.48.58-3.29,0s-2.68-1.42-2.68-1.42c0,0,1.38-.26,3.25-.03Z"/>
    <path class="cls-2" d="M43.79,159.18c-.35,1.69.02,2.91.53,2.86.51-.06,1.01-1.16,1.02-2.95.01-1.79-.51-2.81-.51-2.81,0,0-.68,1.16-1.04,2.9Z"/>
    <path class="cls-2" d="M44.2,164.1c1.83.13,2.99.83,2.8,1.31-.19.48-1.45.65-3.29.17-1.84-.49-2.75-1.28-2.75-1.28,0,0,1.37-.33,3.24-.2Z"/>
    <path class="cls-2" d="M46.35,162.56c-.26,1.71.17,2.91.68,2.83.51-.08.95-1.21.87-3-.08-1.79-.66-2.78-.66-2.78,0,0-.62,1.2-.89,2.95Z"/>
    <path class="cls-2" d="M47.01,167.45c1.84.04,3.03.67,2.86,1.16s-1.41.73-3.28.34c-1.87-.39-2.82-1.13-2.82-1.13,0,0,1.35-.4,3.23-.37Z"/>
    <path class="cls-2" d="M49.07,165.8c-.17,1.72.32,2.89.82,2.79s.88-1.26.71-3.04c-.17-1.78-.8-2.74-.8-2.74,0,0-.55,1.23-.73,2.99Z"/>
    <path class="cls-2" d="M49.99,170.64c1.83-.06,3.06.52,2.92,1.01-.14.49-1.37.8-3.25.51s-2.87-.99-2.87-.99c0,0,1.33-.47,3.21-.53Z"/>
    <path class="cls-2" d="M51.96,168.89c-.08,1.73.47,2.87.97,2.74.49-.13.82-1.3.55-3.07-.27-1.77-.94-2.69-.94-2.69,0,0-.49,1.26-.57,3.03Z"/>
    <path class="cls-2" d="M53.13,173.68c1.83-.16,3.08.35,2.97.86-.11.5-1.33.87-3.22.68-1.9-.19-2.92-.83-2.92-.83,0,0,1.3-.54,3.17-.7Z"/>
    <path class="cls-2" d="M55.01,171.83c0,1.73.62,2.84,1.11,2.68.49-.16.75-1.34.39-3.1-.36-1.75-1.08-2.64-1.08-2.64,0,0-.42,1.28-.41,3.05Z"/>
    <path class="cls-2" d="M56.43,176.55c1.82-.25,3.09.19,3.01.7-.08.51-1.28.94-3.18.85-1.9-.09-2.96-.68-2.96-.68,0,0,1.27-.61,3.13-.87Z"/>
    <path class="cls-2" d="M58.21,174.6c.1,1.73.77,2.81,1.25,2.62.48-.19.68-1.38.23-3.11-.45-1.73-1.22-2.58-1.22-2.58,0,0-.35,1.3-.25,3.07Z"/>
    <path class="cls-2" d="M59.88,179.24c1.8-.35,3.1.03,3.04.54-.06.51-1.23,1.01-3.13,1.01-1.91,0-2.99-.52-2.99-.52,0,0,1.24-.67,3.08-1.03Z"/>
    <path class="cls-2" d="M61.55,177.2c.19,1.72.92,2.76,1.39,2.55.47-.21.6-1.41.06-3.12-.54-1.71-1.35-2.51-1.35-2.51,0,0-.29,1.32-.09,3.08Z"/>
    <path class="cls-2" d="M63.46,181.74c1.78-.44,3.1-.13,3.07.38-.03.51-1.17,1.07-3.08,1.17-1.9.1-3.01-.37-3.01-.37,0,0,1.2-.74,3.02-1.19Z"/>
    <path class="cls-2" d="M65.02,179.62c.28,1.71,1.06,2.71,1.52,2.48.46-.23.53-1.44-.1-3.12-.63-1.68-1.48-2.44-1.48-2.44,0,0-.22,1.33.07,3.08Z"/>
    <path class="cls-2" d="M67.16,184.06c1.76-.53,3.09-.29,3.08.22s-1.12,1.13-3.01,1.33c-1.89.2-3.03-.21-3.03-.21,0,0,1.16-.8,2.96-1.35Z"/>
    <path class="cls-2" d="M68.62,181.86c.37,1.69,1.2,2.65,1.64,2.4.44-.26.45-1.47-.26-3.11-.72-1.64-1.61-2.36-1.61-2.36,0,0-.15,1.34.23,3.07Z"/>
    <path class="cls-2" d="M70.99,186.18c1.73-.62,3.07-.45,3.09.06s-1.06,1.19-2.94,1.49c-1.88.3-3.04-.05-3.04-.05,0,0,1.12-.86,2.88-1.5Z"/>
    <path class="cls-2" d="M72.32,183.9c.45,1.67,1.34,2.59,1.77,2.31.43-.28.38-1.49-.43-3.09-.8-1.6-1.73-2.27-1.73-2.27,0,0-.08,1.34.39,3.06Z"/>
    <path class="cls-2" d="M74.91,188.1c1.69-.71,3.04-.61,3.09-.1.05.51-.99,1.24-2.86,1.64-1.86.4-3.03.11-3.03.11,0,0,1.07-.92,2.8-1.65Z"/>
    <path class="cls-2" d="M76.13,185.75c.54,1.64,1.47,2.51,1.89,2.21s.3-1.51-.59-3.07c-.88-1.56-1.85-2.18-1.85-2.18,0,0,0,1.35.55,3.03Z"/>
    <path class="cls-2" d="M78.94,189.8c1.65-.8,3-.77,3.08-.27.08.51-.93,1.29-2.77,1.79-1.84.5-3.02.27-3.02.27,0,0,1.02-.97,2.71-1.79Z"/>
    <path class="cls-2" d="M80.03,187.4c.63,1.61,1.6,2.43,2,2.11.4-.32.22-1.52-.75-3.03-.96-1.51-1.96-2.08-1.96-2.08,0,0,.06,1.35.71,3Z"/>
    <path class="cls-2" d="M83.05,191.3c1.61-.89,2.96-.93,3.06-.43.1.5-.86,1.34-2.67,1.93-1.81.59-3.01.43-3.01.43,0,0,.97-1.02,2.61-1.93Z"/>
    <path class="cls-2" d="M84.01,188.84c.71,1.58,1.73,2.35,2.11,2s.14-1.53-.9-2.99c-1.04-1.46-2.06-1.97-2.06-1.97,0,0,.13,1.34.86,2.96Z"/>
    <path class="cls-2" d="M87.23,192.58c1.56-.97,2.91-1.08,3.03-.59.13.5-.79,1.38-2.56,2.07-1.78.69-2.98.58-2.98.58,0,0,.91-1.07,2.51-2.06Z"/>
    <path class="cls-2" d="M88.06,190.07c.79,1.54,1.85,2.25,2.21,1.89.36-.36.06-1.54-1.06-2.94-1.12-1.4-2.17-1.86-2.17-1.86,0,0,.2,1.33,1.02,2.91Z"/>
    <path class="cls-2" d="M91.47,193.64c1.51-1.05,2.84-1.23,3-.74.16.49-.71,1.42-2.45,2.2-1.74.78-2.95.74-2.95.74,0,0,.85-1.12,2.4-2.19Z"/>
    <path class="cls-2" d="M92.17,191.09c.87,1.5,1.96,2.15,2.3,1.77s-.02-1.54-1.21-2.88c-1.19-1.34-2.26-1.74-2.26-1.74,0,0,.27,1.32,1.17,2.85Z"/>
    <path class="cls-2" d="M95.76,194.47c1.45-1.13,2.78-1.38,2.96-.9.18.48-.64,1.46-2.33,2.32-1.7.87-2.9.89-2.9.89,0,0,.8-1.16,2.28-2.32Z"/>
    <path class="cls-2" d="M96.33,191.89c.95,1.45,2.07,2.05,2.39,1.65.32-.4-.1-1.53-1.36-2.81-1.26-1.28-2.35-1.62-2.35-1.62,0,0,.34,1.3,1.31,2.79Z"/>
    <path class="cls-2" d="M100.09,195.08c1.39-1.2,2.7-1.52,2.91-1.05.21.47-.56,1.49-2.21,2.44-1.65.96-2.85,1.04-2.85,1.04,0,0,.73-1.2,2.15-2.43Z"/>
    <path class="cls-2" d="M100.52,192.47c1.02,1.4,2.18,1.93,2.48,1.52.3-.42-.18-1.53-1.51-2.73s-2.43-1.5-2.43-1.5c0,0,.41,1.28,1.46,2.71Z"/>
    <path class="cls-2" d="M104.44,195.46c1.32-1.27,2.62-1.66,2.85-1.2.23.46-.48,1.51-2.08,2.56s-2.79,1.19-2.79,1.19c0,0,.67-1.24,2.02-2.54Z"/>
    <path class="cls-2" d="M104.74,192.84c1.09,1.34,2.28,1.82,2.55,1.39.28-.43-.26-1.52-1.65-2.65-1.38-1.14-2.5-1.37-2.5-1.37,0,0,.48,1.26,1.6,2.63Z"/>
    <path class="cls-2" d="M88.64,31.3c-.87,1.62-1.97,2.39-2.34,2.02-.36-.36,0-1.59,1.19-3.07,1.2-1.48,2.29-1.99,2.29-1.99,0,0-.25,1.38-1.14,3.04Z"/>
    <path class="cls-2" d="M89.17,33.88c-1.46-.94-2.73-1.03-2.86-.53-.13.5.72,1.36,2.39,2.01,1.67.65,2.81.53,2.81.53,0,0-.84-1.05-2.33-2.01Z"/>
    <path class="cls-2" d="M84.44,32.5c-.78,1.66-1.85,2.49-2.23,2.14-.38-.35-.09-1.59,1.02-3.13,1.12-1.54,2.18-2.11,2.18-2.11,0,0-.18,1.4-.98,3.1Z"/>
    <path class="cls-2" d="M85.1,35.06c-1.5-.86-2.78-.88-2.88-.38-.11.5.79,1.32,2.49,1.89,1.7.57,2.83.38,2.83.38,0,0-.9-1.01-2.44-1.89Z"/>
    <path class="cls-2" d="M80.3,33.92c-.69,1.7-1.71,2.58-2.11,2.26-.4-.32-.18-1.58.86-3.18,1.03-1.6,2.07-2.22,2.07-2.22,0,0-.11,1.4-.82,3.15Z"/>
    <path class="cls-2" d="M81.1,36.44c-1.55-.78-2.82-.74-2.9-.23-.08.51.86,1.28,2.58,1.75,1.73.48,2.85.23,2.85.23,0,0-.95-.96-2.53-1.76Z"/>
    <path class="cls-2" d="M76.25,35.56c-.6,1.73-1.58,2.67-1.99,2.37-.41-.3-.26-1.57.69-3.22.95-1.65,1.95-2.33,1.95-2.33,0,0-.03,1.41-.65,3.18Z"/>
    <path class="cls-2" d="M77.18,38.03c-1.58-.7-2.85-.59-2.9-.08-.05.51.92,1.23,2.67,1.61,1.75.38,2.85.08,2.85.08,0,0-1-.91-2.62-1.62Z"/>
    <path class="cls-2" d="M72.29,37.41c-.51,1.76-1.43,2.75-1.86,2.47-.43-.28-.34-1.55.52-3.25.86-1.7,1.82-2.43,1.82-2.43,0,0,.04,1.41-.48,3.21Z"/>
    <path class="cls-2" d="M73.35,39.83c-1.62-.61-2.88-.44-2.9.07-.03.51.99,1.18,2.75,1.47,1.77.29,2.85-.07,2.85-.07,0,0-1.04-.85-2.7-1.48Z"/>
    <path class="cls-2" d="M68.43,39.46c-.42,1.79-1.29,2.82-1.73,2.56-.44-.26-.42-1.53.35-3.28.77-1.74,1.7-2.52,1.7-2.52,0,0,.11,1.4-.31,3.23Z"/>
    <path class="cls-2" d="M69.61,41.82c-1.65-.53-2.9-.29-2.9.23,0,.51,1.05,1.13,2.83,1.33,1.78.2,2.85-.22,2.85-.22,0,0-1.09-.8-2.78-1.34Z"/>
    <path class="cls-2" d="M64.68,41.71c-.32,1.81-1.14,2.88-1.6,2.65s-.5-1.51.18-3.29c.68-1.78,1.56-2.6,1.56-2.6,0,0,.19,1.4-.14,3.25Z"/>
    <path class="cls-2" d="M65.99,44.01c-1.67-.44-2.91-.13-2.88.38.03.51,1.1,1.07,2.89,1.18,1.79.11,2.83-.36,2.83-.36,0,0-1.13-.74-2.84-1.19Z"/>
    <path class="cls-2" d="M61.06,44.15c-.23,1.82-.99,2.94-1.45,2.73-.47-.21-.58-1.48,0-3.29.58-1.81,1.42-2.68,1.42-2.68,0,0,.26,1.38.03,3.25Z"/>
    <path class="cls-2" d="M62.48,46.38c-1.69-.35-2.91.02-2.86.53s1.16,1.01,2.95,1.02,2.81-.51,2.81-.51c0,0-1.16-.68-2.9-1.04Z"/>
    <path class="cls-2" d="M57.57,46.78c-.13,1.83-.83,2.99-1.31,2.8-.48-.19-.65-1.45-.17-3.29.49-1.84,1.28-2.75,1.28-2.75,0,0,.33,1.37.2,3.24Z"/>
    <path class="cls-2" d="M59.1,48.93c-1.71-.26-2.91.17-2.83.68.08.51,1.21.95,3,.87s2.78-.66,2.78-.66c0,0-1.2-.62-2.95-.89Z"/>
    <path class="cls-2" d="M54.22,49.59c-.04,1.84-.67,3.03-1.16,2.86-.49-.16-.73-1.41-.34-3.28.39-1.87,1.13-2.82,1.13-2.82,0,0,.4,1.35.37,3.23Z"/>
    <path class="cls-2" d="M55.87,51.66c-1.72-.17-2.89.32-2.79.82s1.26.88,3.04.71c1.78-.17,2.74-.8,2.74-.8,0,0-1.23-.55-2.99-.73Z"/>
    <path class="cls-2" d="M51.02,52.58c.06,1.83-.52,3.06-1.01,2.92s-.8-1.37-.51-3.25c.29-1.88.99-2.87.99-2.87,0,0,.47,1.33.53,3.21Z"/>
    <path class="cls-2" d="M52.78,54.55c-1.73-.08-2.87.47-2.74.97s1.3.82,3.07.55c1.77-.27,2.69-.94,2.69-.94,0,0-1.26-.49-3.03-.57Z"/>
    <path class="cls-2" d="M47.99,55.72c.16,1.83-.35,3.08-.86,2.97-.5-.11-.87-1.33-.68-3.22.19-1.9.83-2.92.83-2.92,0,0,.54,1.3.7,3.17Z"/>
    <path class="cls-2" d="M49.84,57.6c-1.73,0-2.84.62-2.68,1.11.16.49,1.34.75,3.1.39s2.64-1.08,2.64-1.08c0,0-1.28-.42-3.05-.41Z"/>
    <path class="cls-2" d="M45.12,59.02c.25,1.82-.19,3.09-.7,3.01-.51-.08-.94-1.28-.85-3.18.09-1.9.68-2.96.68-2.96,0,0,.61,1.27.87,3.13Z"/>
    <path class="cls-2" d="M47.07,60.8c-1.73.1-2.81.77-2.62,1.25.19.48,1.38.68,3.11.23,1.73-.45,2.58-1.22,2.58-1.22,0,0-1.3-.35-3.07-.25Z"/>
    <path class="cls-2" d="M42.43,62.46c.35,1.8-.03,3.1-.54,3.04-.51-.06-1.01-1.23-1.01-3.13s.52-2.99.52-2.99c0,0,.67,1.24,1.03,3.08Z"/>
    <path class="cls-2" d="M44.47,64.14c-1.72.19-2.76.92-2.55,1.39.21.47,1.41.6,3.12.06,1.71-.54,2.51-1.35,2.51-1.35,0,0-1.32-.29-3.08-.09Z"/>
    <path class="cls-2" d="M39.92,66.04c.44,1.78.13,3.1-.38,3.07s-1.07-1.17-1.17-3.08c-.1-1.9.37-3.01.37-3.01,0,0,.74,1.2,1.19,3.02Z"/>
    <path class="cls-2" d="M42.05,67.61c-1.71.28-2.71,1.06-2.48,1.52.23.46,1.44.53,3.12-.1,1.68-.63,2.44-1.48,2.44-1.48,0,0-1.33-.22-3.08.07Z"/>
    <path class="cls-2" d="M37.6,69.75c.53,1.76.29,3.09-.22,3.08-.51,0-1.13-1.12-1.33-3.01-.2-1.89.21-3.03.21-3.03,0,0,.8,1.16,1.35,2.96Z"/>
    <path class="cls-2" d="M39.81,71.2c-1.69.37-2.65,1.2-2.4,1.64s1.47.45,3.11-.26c1.64-.72,2.36-1.61,2.36-1.61,0,0-1.34-.15-3.07.23Z"/>
    <path class="cls-2" d="M35.49,73.57c.62,1.73.45,3.07-.06,3.09-.51.02-1.19-1.06-1.49-2.94-.3-1.88.05-3.04.05-3.04,0,0,.86,1.12,1.5,2.88Z"/>
    <path class="cls-2" d="M37.76,74.91c-1.67.45-2.59,1.34-2.31,1.77.28.43,1.49.38,3.09-.43,1.6-.8,2.27-1.73,2.27-1.73,0,0-1.34-.08-3.06.39Z"/>
    <path class="cls-2" d="M33.57,77.5c.71,1.69.61,3.04.1,3.09-.51.05-1.24-.99-1.64-2.86-.4-1.86-.11-3.03-.11-3.03,0,0,.92,1.07,1.65,2.8Z"/>
    <path class="cls-2" d="M35.91,78.72c-1.64.54-2.51,1.47-2.21,1.89s1.51.3,3.07-.59c1.56-.88,2.18-1.85,2.18-1.85,0,0-1.35,0-3.03.55Z"/>
    <path class="cls-2" d="M31.86,81.52c.8,1.65.77,3,.27,3.08s-1.29-.93-1.79-2.77c-.5-1.84-.27-3.02-.27-3.02,0,0,.97,1.02,1.79,2.71Z"/>
    <path class="cls-2" d="M34.27,82.62c-1.61.63-2.43,1.6-2.11,2,.32.4,1.52.22,3.03-.75,1.51-.96,2.08-1.96,2.08-1.96,0,0-1.35.06-3,.71Z"/>
    <path class="cls-2" d="M30.37,85.63c.89,1.61.93,2.96.43,3.06-.5.1-1.34-.86-1.93-2.67-.59-1.81-.43-3.01-.43-3.01,0,0,1.02.97,1.93,2.61Z"/>
    <path class="cls-2" d="M32.82,86.6c-1.58.71-2.35,1.73-2,2.11.34.38,1.53.14,2.99-.9,1.46-1.04,1.97-2.06,1.97-2.06,0,0-1.34.13-2.96.86Z"/>
    <path class="cls-2" d="M29.09,89.81c.97,1.56,1.08,2.91.59,3.03-.5.13-1.38-.79-2.07-2.56-.69-1.78-.58-2.98-.58-2.98,0,0,1.07.91,2.06,2.51Z"/>
    <path class="cls-2" d="M31.59,90.65c-1.54.79-2.25,1.85-1.89,2.21.36.36,1.54.06,2.94-1.06,1.4-1.12,1.86-2.17,1.86-2.17,0,0-1.33.2-2.91,1.02Z"/>
    <path class="cls-2" d="M28.03,94.05c1.05,1.51,1.23,2.84.74,3-.49.16-1.42-.71-2.2-2.45-.78-1.74-.74-2.95-.74-2.95,0,0,1.12.85,2.19,2.4Z"/>
    <path class="cls-2" d="M30.58,94.75c-1.5.87-2.15,1.96-1.77,2.3.38.34,1.54-.02,2.88-1.21,1.34-1.19,1.74-2.26,1.74-2.26,0,0-1.32.27-2.85,1.17Z"/>
    <path class="cls-2" d="M27.2,98.34c1.13,1.45,1.38,2.78.9,2.96-.48.18-1.46-.64-2.32-2.33-.87-1.7-.89-2.9-.89-2.9,0,0,1.16.8,2.32,2.28Z"/>
    <path class="cls-2" d="M29.77,98.91c-1.45.95-2.05,2.07-1.65,2.39.4.32,1.53-.1,2.81-1.36,1.28-1.26,1.62-2.35,1.62-2.35,0,0-1.3.34-2.79,1.31Z"/>
    <path class="cls-2" d="M26.59,102.67c1.2,1.39,1.52,2.7,1.05,2.91-.47.21-1.49-.56-2.44-2.21-.96-1.65-1.04-2.85-1.04-2.85,0,0,1.2.73,2.43,2.15Z"/>
    <path class="cls-2" d="M29.19,103.1c-1.4,1.02-1.93,2.18-1.52,2.48.42.3,1.53-.18,2.73-1.51,1.21-1.32,1.5-2.43,1.5-2.43,0,0-1.28.41-2.71,1.46Z"/>
    <path class="cls-2" d="M26.21,107.03c1.27,1.32,1.66,2.62,1.2,2.85-.46.23-1.51-.48-2.56-2.08-1.04-1.6-1.19-2.79-1.19-2.79,0,0,1.24.67,2.54,2.02Z"/>
    <path class="cls-2" d="M28.83,107.32c-1.34,1.09-1.82,2.28-1.39,2.55.43.28,1.52-.26,2.65-1.65,1.14-1.38,1.37-2.5,1.37-2.5,0,0-1.26.48-2.63,1.6Z"/>
    <path class="cls-2" d="M192.92,111.39c-1.34,1.25-1.8,2.53-1.35,2.78s1.54-.4,2.66-1.94c1.12-1.54,1.33-2.73,1.33-2.73,0,0-1.27.6-2.64,1.89Z"/>
    <path class="cls-2" d="M190.29,111.55c1.28,1.16,1.7,2.37,1.25,2.62-.44.25-1.5-.34-2.56-1.78-1.06-1.44-1.24-2.57-1.24-2.57,0,0,1.23.54,2.55,1.73Z"/>
    <path class="cls-2" d="M192.85,115.76c-1.4,1.18-1.93,2.43-1.5,2.71.43.28,1.56-.32,2.76-1.8,1.2-1.48,1.48-2.65,1.48-2.65,0,0-1.3.54-2.74,1.75Z"/>
    <path class="cls-2" d="M190.21,115.78c1.22,1.23,1.57,2.45,1.11,2.68-.46.23-1.48-.42-2.47-1.92-.99-1.49-1.1-2.63-1.1-2.63,0,0,1.2.61,2.45,1.87Z"/>
    <path class="cls-2" d="M192.54,120.13c-1.46,1.11-2.05,2.32-1.63,2.62s1.57-.24,2.85-1.65c1.28-1.41,1.61-2.57,1.61-2.57,0,0-1.33.47-2.83,1.6Z"/>
    <path class="cls-2" d="M189.91,120.01c1.15,1.29,1.44,2.53.97,2.74-.47.21-1.46-.5-2.36-2.04-.91-1.54-.96-2.69-.96-2.69,0,0,1.17.67,2.35,1.99Z"/>
    <path class="cls-2" d="M192.01,124.46c-1.52,1.03-2.17,2.21-1.77,2.53.4.32,1.58-.16,2.93-1.5,1.35-1.34,1.74-2.49,1.74-2.49,0,0-1.35.4-2.91,1.45Z"/>
    <path class="cls-2" d="M189.38,124.21c1.08,1.35,1.31,2.6.83,2.79s-1.43-.57-2.25-2.16c-.82-1.59-.82-2.73-.82-2.73,0,0,1.13.73,2.24,2.11Z"/>
    <path class="cls-2" d="M191.25,128.77c-1.57.95-2.28,2.1-1.9,2.44.38.34,1.59-.07,3.01-1.35,1.42-1.27,1.87-2.39,1.87-2.39,0,0-1.37.33-2.98,1.3Z"/>
    <path class="cls-2" d="M188.64,128.37c1.01,1.4,1.17,2.67.68,2.83-.49.16-1.4-.65-2.14-2.28-.74-1.63-.67-2.77-.67-2.77,0,0,1.09.79,2.13,2.23Z"/>
    <path class="cls-2" d="M190.27,133.03c-1.62.87-2.39,1.97-2.02,2.34s1.59,0,3.07-1.19c1.48-1.2,1.99-2.29,1.99-2.29,0,0-1.38.25-3.04,1.14Z"/>
    <path class="cls-2" d="M187.68,132.5c.94,1.46,1.03,2.73.53,2.86-.5.13-1.36-.72-2.01-2.39-.65-1.67-.53-2.81-.53-2.81,0,0,1.05.84,2.01,2.33Z"/>
    <path class="cls-2" d="M189.06,137.23c-1.66.78-2.49,1.85-2.14,2.23.35.38,1.59.09,3.13-1.02,1.54-1.12,2.11-2.18,2.11-2.18,0,0-1.4.18-3.1.98Z"/>
    <path class="cls-2" d="M186.51,136.56c.86,1.5.88,2.78.38,2.88-.5.11-1.32-.79-1.89-2.49-.57-1.7-.38-2.83-.38-2.83,0,0,1.01.9,1.89,2.44Z"/>
    <path class="cls-2" d="M187.64,141.36c-1.7.69-2.58,1.71-2.26,2.11.32.4,1.58.18,3.18-.86,1.6-1.03,2.22-2.07,2.22-2.07,0,0-1.4.11-3.15.82Z"/>
    <path class="cls-2" d="M185.12,140.56c.78,1.55.74,2.82.23,2.9s-1.28-.86-1.75-2.58c-.48-1.73-.23-2.85-.23-2.85,0,0,.96.95,1.76,2.53Z"/>
    <path class="cls-2" d="M186,145.41c-1.73.6-2.67,1.58-2.37,1.99.3.41,1.57.26,3.22-.69,1.65-.95,2.33-1.95,2.33-1.95,0,0-1.41.03-3.18.65Z"/>
    <path class="cls-2" d="M183.53,144.49c.7,1.58.59,2.85.08,2.9-.51.05-1.23-.92-1.61-2.67-.38-1.75-.08-2.85-.08-2.85,0,0,.91,1,1.62,2.62Z"/>
    <path class="cls-2" d="M184.16,149.38c-1.76.51-2.75,1.43-2.47,1.86.28.43,1.55.34,3.25-.52,1.7-.86,2.43-1.82,2.43-1.82,0,0-1.41-.04-3.21.48Z"/>
    <path class="cls-2" d="M181.74,148.32c.61,1.62.44,2.88-.07,2.9-.51.03-1.18-.99-1.47-2.75-.29-1.77.07-2.85.07-2.85,0,0,.85,1.04,1.48,2.7Z"/>
    <path class="cls-2" d="M182.1,153.24c-1.79.42-2.82,1.29-2.56,1.73.26.44,1.53.42,3.28-.35,1.74-.77,2.52-1.7,2.52-1.7,0,0-1.4-.11-3.23.31Z"/>
    <path class="cls-2" d="M179.74,152.05c.53,1.65.29,2.9-.23,2.9-.51,0-1.13-1.05-1.33-2.83-.2-1.78.22-2.85.22-2.85,0,0,.8,1.09,1.34,2.78Z"/>
    <path class="cls-2" d="M179.85,156.98c-1.81.32-2.88,1.14-2.65,1.6s1.51.5,3.29-.18c1.78-.68,2.6-1.56,2.6-1.56,0,0-1.4-.19-3.25.14Z"/>
    <path class="cls-2" d="M177.56,155.68c.44,1.67.13,2.91-.38,2.88-.51-.03-1.07-1.1-1.18-2.89-.11-1.79.36-2.83.36-2.83,0,0,.74,1.13,1.19,2.84Z"/>
    <path class="cls-2" d="M177.41,160.61c-1.82.23-2.94.99-2.73,1.45.21.47,1.48.58,3.29,0,1.81-.58,2.68-1.42,2.68-1.42,0,0-1.38-.26-3.25-.03Z"/>
    <path class="cls-2" d="M175.18,159.18c.35,1.69-.02,2.91-.53,2.86-.51-.06-1.01-1.16-1.02-2.95-.01-1.79.51-2.81.51-2.81,0,0,.68,1.16,1.04,2.9Z"/>
    <path class="cls-2" d="M174.78,164.1c-1.83.13-2.99.83-2.8,1.31.19.48,1.45.65,3.29.17,1.84-.49,2.75-1.28,2.75-1.28,0,0-1.37-.33-3.24-.2Z"/>
    <path class="cls-2" d="M172.63,162.56c.26,1.71-.17,2.91-.68,2.83-.51-.08-.95-1.21-.87-3,.08-1.79.66-2.78.66-2.78,0,0,.62,1.2.89,2.95Z"/>
    <path class="cls-2" d="M171.97,167.45c-1.84.04-3.03.67-2.86,1.16.16.49,1.41.73,3.28.34,1.87-.39,2.82-1.13,2.82-1.13,0,0-1.35-.4-3.23-.37Z"/>
    <path class="cls-2" d="M169.91,165.8c.17,1.72-.32,2.89-.82,2.79s-.88-1.26-.71-3.04c.17-1.78.8-2.74.8-2.74,0,0,.55,1.23.73,2.99Z"/>
    <path class="cls-2" d="M168.99,170.64c-1.83-.06-3.06.52-2.92,1.01.14.49,1.37.8,3.25.51s2.87-.99,2.87-.99c0,0-1.33-.47-3.21-.53Z"/>
    <path class="cls-2" d="M167.01,168.89c.08,1.73-.47,2.87-.97,2.74-.49-.13-.82-1.3-.55-3.07.27-1.77.94-2.69.94-2.69,0,0,.49,1.26.57,3.03Z"/>
    <path class="cls-2" d="M165.84,173.68c-1.83-.16-3.08.35-2.97.86.11.5,1.33.87,3.22.68,1.9-.19,2.92-.83,2.92-.83,0,0-1.3-.54-3.17-.7Z"/>
    <path class="cls-2" d="M163.96,171.83c0,1.73-.62,2.84-1.11,2.68-.49-.16-.75-1.34-.39-3.1.36-1.75,1.08-2.64,1.08-2.64,0,0,.42,1.28.41,3.05Z"/>
    <path class="cls-2" d="M162.55,176.55c-1.82-.25-3.09.19-3.01.7.08.51,1.28.94,3.18.85,1.9-.09,2.96-.68,2.96-.68,0,0-1.27-.61-3.13-.87Z"/>
    <path class="cls-2" d="M160.76,174.6c-.1,1.73-.77,2.81-1.25,2.62-.48-.19-.68-1.38-.23-3.11.45-1.73,1.22-2.58,1.22-2.58,0,0,.35,1.3.25,3.07Z"/>
    <path class="cls-2" d="M159.1,179.24c-1.8-.35-3.1.03-3.04.54.06.51,1.23,1.01,3.13,1.01,1.91,0,2.99-.52,2.99-.52,0,0-1.24-.67-3.08-1.03Z"/>
    <path class="cls-2" d="M157.42,177.2c-.19,1.72-.92,2.76-1.39,2.55-.47-.21-.6-1.41-.06-3.12.54-1.71,1.35-2.51,1.35-2.51,0,0,.29,1.32.09,3.08Z"/>
    <path class="cls-2" d="M155.52,181.74c-1.78-.44-3.1-.13-3.07.38s1.17,1.07,3.08,1.17c1.9.1,3.01-.37,3.01-.37,0,0-1.2-.74-3.02-1.19Z"/>
    <path class="cls-2" d="M153.95,179.62c-.28,1.71-1.06,2.71-1.52,2.48-.46-.23-.53-1.44.1-3.12.63-1.68,1.48-2.44,1.48-2.44,0,0,.22,1.33-.07,3.08Z"/>
    <path class="cls-2" d="M151.81,184.06c-1.76-.53-3.09-.29-3.08.22s1.12,1.13,3.01,1.33c1.89.2,3.03-.21,3.03-.21,0,0-1.16-.8-2.96-1.35Z"/>
    <path class="cls-2" d="M150.36,181.86c-.37,1.69-1.2,2.65-1.64,2.4-.44-.26-.45-1.47.26-3.11.72-1.64,1.61-2.36,1.61-2.36,0,0,.15,1.34-.23,3.07Z"/>
    <path class="cls-2" d="M147.99,186.18c-1.73-.62-3.07-.45-3.09.06-.02.51,1.06,1.19,2.94,1.49,1.88.3,3.04-.05,3.04-.05,0,0-1.12-.86-2.88-1.5Z"/>
    <path class="cls-2" d="M146.65,183.9c-.45,1.67-1.34,2.59-1.77,2.31-.43-.28-.38-1.49.43-3.09.8-1.6,1.73-2.27,1.73-2.27,0,0,.08,1.34-.39,3.06Z"/>
    <path class="cls-2" d="M144.06,188.1c-1.69-.71-3.04-.61-3.09-.1s.99,1.24,2.86,1.64c1.86.4,3.03.11,3.03.11,0,0-1.07-.92-2.8-1.65Z"/>
    <path class="cls-2" d="M142.85,185.75c-.54,1.64-1.47,2.51-1.89,2.21-.41-.3-.3-1.51.59-3.07.88-1.56,1.85-2.18,1.85-2.18,0,0,0,1.35-.55,3.03Z"/>
    <path class="cls-2" d="M140.04,189.8c-1.65-.8-3-.77-3.08-.27-.08.51.93,1.29,2.77,1.79s3.02.27,3.02.27c0,0-1.02-.97-2.71-1.79Z"/>
    <path class="cls-2" d="M138.95,187.4c-.63,1.61-1.6,2.43-2,2.11s-.22-1.52.75-3.03c.96-1.51,1.96-2.08,1.96-2.08,0,0-.06,1.35-.71,3Z"/>
    <path class="cls-2" d="M135.93,191.3c-1.61-.89-2.96-.93-3.06-.43s.86,1.34,2.67,1.93c1.81.59,3.01.43,3.01.43,0,0-.97-1.02-2.61-1.93Z"/>
    <path class="cls-2" d="M134.97,188.84c-.71,1.58-1.73,2.35-2.11,2s-.14-1.53.9-2.99c1.04-1.46,2.06-1.97,2.06-1.97,0,0-.13,1.34-.86,2.96Z"/>
    <path class="cls-2" d="M131.75,192.58c-1.56-.97-2.91-1.08-3.03-.59-.13.5.79,1.38,2.56,2.07,1.78.69,2.98.58,2.98.58,0,0-.91-1.07-2.51-2.06Z"/>
    <path class="cls-2" d="M130.92,190.07c-.79,1.54-1.85,2.25-2.21,1.89-.36-.36-.06-1.54,1.06-2.94,1.12-1.4,2.17-1.86,2.17-1.86,0,0-.2,1.33-1.02,2.91Z"/>
    <path class="cls-2" d="M127.51,193.64c-1.51-1.05-2.84-1.23-3-.74-.16.49.71,1.42,2.45,2.2,1.74.78,2.95.74,2.95.74,0,0-.85-1.12-2.4-2.19Z"/>
    <path class="cls-2" d="M126.81,191.09c-.87,1.5-1.96,2.15-2.3,1.77-.34-.38.02-1.54,1.21-2.88,1.19-1.34,2.26-1.74,2.26-1.74,0,0-.27,1.32-1.17,2.85Z"/>
    <path class="cls-2" d="M123.22,194.47c-1.45-1.13-2.78-1.38-2.96-.9-.18.48.64,1.46,2.33,2.32s2.9.89,2.9.89c0,0-.8-1.16-2.28-2.32Z"/>
    <path class="cls-2" d="M122.65,191.89c-.95,1.45-2.07,2.05-2.39,1.65-.32-.4.1-1.53,1.36-2.81,1.26-1.28,2.35-1.62,2.35-1.62,0,0-.34,1.3-1.31,2.79Z"/>
    <path class="cls-2" d="M118.89,195.08c-1.39-1.2-2.7-1.52-2.91-1.05-.21.47.56,1.49,2.21,2.44,1.65.96,2.85,1.04,2.85,1.04,0,0-.73-1.2-2.15-2.43Z"/>
    <path class="cls-2" d="M118.46,192.47c-1.02,1.4-2.18,1.93-2.48,1.52-.3-.42.18-1.53,1.51-2.73,1.32-1.21,2.43-1.5,2.43-1.5,0,0-.41,1.28-1.46,2.71Z"/>
    <path class="cls-2" d="M114.54,195.46c-1.32-1.27-2.62-1.66-2.85-1.2-.23.46.48,1.51,2.08,2.56,1.6,1.04,2.79,1.19,2.79,1.19,0,0-.67-1.24-2.02-2.54Z"/>
    <path class="cls-2" d="M114.24,192.84c-1.09,1.34-2.28,1.82-2.55,1.39-.28-.43.26-1.52,1.65-2.65,1.38-1.14,2.5-1.37,2.5-1.37,0,0-.48,1.26-1.6,2.63Z"/>
    <path class="cls-2" d="M130.34,31.3c.87,1.62,1.97,2.39,2.34,2.02.36-.36,0-1.59-1.19-3.07-1.2-1.48-2.29-1.99-2.29-1.99,0,0,.25,1.38,1.14,3.04Z"/>
    <path class="cls-2" d="M129.81,33.88c1.46-.94,2.73-1.03,2.86-.53.13.5-.72,1.36-2.39,2.01-1.67.65-2.81.53-2.81.53,0,0,.84-1.05,2.33-2.01Z"/>
    <path class="cls-2" d="M134.54,32.5c.78,1.66,1.85,2.49,2.23,2.14.38-.35.09-1.59-1.02-3.13-1.12-1.54-2.18-2.11-2.18-2.11,0,0,.18,1.4.98,3.1Z"/>
    <path class="cls-2" d="M133.88,35.06c1.5-.86,2.78-.88,2.88-.38s-.79,1.32-2.49,1.89c-1.7.57-2.83.38-2.83.38,0,0,.9-1.01,2.44-1.89Z"/>
    <path class="cls-2" d="M138.67,33.92c.69,1.7,1.71,2.58,2.11,2.26.4-.32.18-1.58-.86-3.18-1.03-1.6-2.07-2.22-2.07-2.22,0,0,.11,1.4.82,3.15Z"/>
    <path class="cls-2" d="M137.88,36.44c1.55-.78,2.82-.74,2.9-.23.08.51-.86,1.28-2.58,1.75-1.73.48-2.85.23-2.85.23,0,0,.95-.96,2.53-1.76Z"/>
    <path class="cls-2" d="M142.73,35.56c.6,1.73,1.58,2.67,1.99,2.37.41-.3.26-1.57-.69-3.22-.95-1.65-1.95-2.33-1.95-2.33,0,0,.03,1.41.65,3.18Z"/>
    <path class="cls-2" d="M141.8,38.03c1.58-.7,2.85-.59,2.9-.08.05.51-.92,1.23-2.67,1.61-1.75.38-2.85.08-2.85.08,0,0,1-.91,2.62-1.62Z"/>
    <path class="cls-2" d="M146.69,37.41c.51,1.76,1.43,2.75,1.86,2.47.43-.28.34-1.55-.52-3.25-.86-1.7-1.82-2.43-1.82-2.43,0,0-.04,1.41.48,3.21Z"/>
    <path class="cls-2" d="M145.63,39.83c1.62-.61,2.88-.44,2.9.07.03.51-.99,1.18-2.75,1.47-1.77.29-2.85-.07-2.85-.07,0,0,1.04-.85,2.7-1.48Z"/>
    <path class="cls-2" d="M150.55,39.46c.42,1.79,1.29,2.82,1.73,2.56.44-.26.42-1.53-.35-3.28-.77-1.74-1.7-2.52-1.7-2.52,0,0-.11,1.4.31,3.23Z"/>
    <path class="cls-2" d="M149.37,41.82c1.65-.53,2.9-.29,2.9.23,0,.51-1.05,1.13-2.83,1.33-1.78.2-2.85-.22-2.85-.22,0,0,1.09-.8,2.78-1.34Z"/>
    <path class="cls-2" d="M154.29,41.71c.32,1.81,1.14,2.88,1.6,2.65.46-.24.5-1.51-.18-3.29-.68-1.78-1.56-2.6-1.56-2.6,0,0-.19,1.4.14,3.25Z"/>
    <path class="cls-2" d="M152.99,44.01c1.67-.44,2.91-.13,2.88.38-.03.51-1.1,1.07-2.89,1.18-1.79.11-2.83-.36-2.83-.36,0,0,1.13-.74,2.84-1.19Z"/>
    <path class="cls-2" d="M157.92,44.15c.23,1.82.99,2.94,1.45,2.73s.58-1.48,0-3.29-1.42-2.68-1.42-2.68c0,0-.26,1.38-.03,3.25Z"/>
    <path class="cls-2" d="M156.5,46.38c1.69-.35,2.91.02,2.86.53s-1.16,1.01-2.95,1.02-2.81-.51-2.81-.51c0,0,1.16-.68,2.9-1.04Z"/>
    <path class="cls-2" d="M161.41,46.78c.13,1.83.83,2.99,1.31,2.8.48-.19.65-1.45.17-3.29-.49-1.84-1.28-2.75-1.28-2.75,0,0-.33,1.37-.2,3.24Z"/>
    <path class="cls-2" d="M159.87,48.93c1.71-.26,2.91.17,2.83.68-.08.51-1.21.95-3,.87s-2.78-.66-2.78-.66c0,0,1.2-.62,2.95-.89Z"/>
    <path class="cls-2" d="M164.76,49.59c.04,1.84.67,3.03,1.16,2.86s.73-1.41.34-3.28c-.39-1.87-1.13-2.82-1.13-2.82,0,0-.4,1.35-.37,3.23Z"/>
    <path class="cls-2" d="M163.11,51.66c1.72-.17,2.89.32,2.79.82s-1.26.88-3.04.71c-1.78-.17-2.74-.8-2.74-.8,0,0,1.23-.55,2.99-.73Z"/>
    <path class="cls-2" d="M167.95,52.58c-.06,1.83.52,3.06,1.01,2.92.49-.14.8-1.37.51-3.25-.29-1.88-.99-2.87-.99-2.87,0,0-.47,1.33-.53,3.21Z"/>
    <path class="cls-2" d="M166.2,54.55c1.73-.08,2.87.47,2.74.97-.13.49-1.3.82-3.07.55-1.77-.27-2.69-.94-2.69-.94,0,0,1.26-.49,3.03-.57Z"/>
    <path class="cls-2" d="M170.99,55.72c-.16,1.83.35,3.08.86,2.97.5-.11.87-1.33.68-3.22-.19-1.9-.83-2.92-.83-2.92,0,0-.54,1.3-.7,3.17Z"/>
    <path class="cls-2" d="M169.14,57.6c1.73,0,2.84.62,2.68,1.11-.16.49-1.34.75-3.1.39s-2.64-1.08-2.64-1.08c0,0,1.28-.42,3.05-.41Z"/>
    <path class="cls-2" d="M173.86,59.02c-.25,1.82.19,3.09.7,3.01s.94-1.28.85-3.18c-.09-1.9-.68-2.96-.68-2.96,0,0-.61,1.27-.87,3.13Z"/>
    <path class="cls-2" d="M171.91,60.8c1.73.1,2.81.77,2.62,1.25-.19.48-1.38.68-3.11.23s-2.58-1.22-2.58-1.22c0,0,1.3-.35,3.07-.25Z"/>
    <path class="cls-2" d="M176.55,62.46c-.35,1.8.03,3.1.54,3.04s1.01-1.23,1.01-3.13-.52-2.99-.52-2.99c0,0-.67,1.24-1.03,3.08Z"/>
    <path class="cls-2" d="M174.51,64.14c1.72.19,2.76.92,2.55,1.39-.21.47-1.41.6-3.12.06-1.71-.54-2.51-1.35-2.51-1.35,0,0,1.32-.29,3.08-.09Z"/>
    <path class="cls-2" d="M179.06,66.04c-.44,1.78-.13,3.1.38,3.07s1.07-1.17,1.17-3.08c.1-1.9-.37-3.01-.37-3.01,0,0-.74,1.2-1.19,3.02Z"/>
    <path class="cls-2" d="M176.93,67.61c1.71.28,2.71,1.06,2.48,1.52-.23.46-1.44.53-3.12-.1-1.68-.63-2.44-1.48-2.44-1.48,0,0,1.33-.22,3.08.07Z"/>
    <path class="cls-2" d="M181.37,69.75c-.53,1.76-.29,3.09.22,3.08.51,0,1.13-1.12,1.33-3.01.2-1.89-.21-3.03-.21-3.03,0,0-.8,1.16-1.35,2.96Z"/>
    <path class="cls-2" d="M179.17,71.2c1.69.37,2.65,1.2,2.4,1.64s-1.47.45-3.11-.26c-1.64-.72-2.36-1.61-2.36-1.61,0,0,1.34-.15,3.07.23Z"/>
    <path class="cls-2" d="M183.49,73.57c-.62,1.73-.45,3.07.06,3.09s1.19-1.06,1.49-2.94c.3-1.88-.05-3.04-.05-3.04,0,0-.86,1.12-1.5,2.88Z"/>
    <path class="cls-2" d="M181.22,74.91c1.67.45,2.59,1.34,2.31,1.77-.28.43-1.49.38-3.09-.43-1.6-.8-2.27-1.73-2.27-1.73,0,0,1.34-.08,3.06.39Z"/>
    <path class="cls-2" d="M185.41,77.5c-.71,1.69-.61,3.04-.1,3.09.51.05,1.24-.99,1.64-2.86.4-1.86.11-3.03.11-3.03,0,0-.92,1.07-1.65,2.8Z"/>
    <path class="cls-2" d="M183.06,78.72c1.64.54,2.51,1.47,2.21,1.89-.3.41-1.51.3-3.07-.59s-2.18-1.85-2.18-1.85c0,0,1.35,0,3.03.55Z"/>
    <path class="cls-2" d="M187.12,81.52c-.8,1.65-.77,3-.27,3.08.51.08,1.29-.93,1.79-2.77.5-1.84.27-3.02.27-3.02,0,0-.97,1.02-1.79,2.71Z"/>
    <path class="cls-2" d="M184.71,82.62c1.61.63,2.43,1.6,2.11,2-.32.4-1.52.22-3.03-.75-1.51-.96-2.08-1.96-2.08-1.96,0,0,1.35.06,3,.71Z"/>
    <path class="cls-2" d="M188.61,85.63c-.89,1.61-.93,2.96-.43,3.06.5.1,1.34-.86,1.93-2.67.59-1.81.43-3.01.43-3.01,0,0-1.02.97-1.93,2.61Z"/>
    <path class="cls-2" d="M186.15,86.6c1.58.71,2.35,1.73,2,2.11-.34.38-1.53.14-2.99-.9-1.46-1.04-1.97-2.06-1.97-2.06,0,0,1.34.13,2.96.86Z"/>
    <path class="cls-2" d="M189.89,89.81c-.97,1.56-1.08,2.91-.59,3.03s1.38-.79,2.07-2.56c.69-1.78.58-2.98.58-2.98,0,0-1.07.91-2.06,2.51Z"/>
    <path class="cls-2" d="M187.38,90.65c1.54.79,2.25,1.85,1.89,2.21-.36.36-1.54.06-2.94-1.06-1.4-1.12-1.86-2.17-1.86-2.17,0,0,1.33.2,2.91,1.02Z"/>
    <path class="cls-2" d="M190.95,94.05c-1.05,1.51-1.23,2.84-.74,3,.49.16,1.42-.71,2.2-2.45.78-1.74.74-2.95.74-2.95,0,0-1.12.85-2.19,2.4Z"/>
    <path class="cls-2" d="M188.4,94.75c1.5.87,2.15,1.96,1.77,2.3s-1.54-.02-2.88-1.21c-1.34-1.19-1.74-2.26-1.74-2.26,0,0,1.32.27,2.85,1.17Z"/>
    <path class="cls-2" d="M191.78,98.34c-1.13,1.45-1.38,2.78-.9,2.96.48.18,1.46-.64,2.32-2.33.87-1.7.89-2.9.89-2.9,0,0-1.16.8-2.32,2.28Z"/>
    <path class="cls-2" d="M189.2,98.91c1.45.95,2.05,2.07,1.65,2.39-.4.32-1.53-.1-2.81-1.36-1.28-1.26-1.62-2.35-1.62-2.35,0,0,1.3.34,2.79,1.31Z"/>
    <path class="cls-2" d="M192.39,102.67c-1.2,1.39-1.52,2.7-1.05,2.91.47.21,1.49-.56,2.44-2.21.96-1.65,1.04-2.85,1.04-2.85,0,0-1.2.73-2.43,2.15Z"/>
    <path class="cls-2" d="M189.79,103.1c1.4,1.02,1.93,2.18,1.52,2.48s-1.53-.18-2.73-1.51c-1.21-1.32-1.5-2.43-1.5-2.43,0,0,1.28.41,2.71,1.46Z"/>
    <path class="cls-2" d="M192.77,107.03c-1.27,1.32-1.66,2.62-1.2,2.85.46.23,1.51-.48,2.56-2.08,1.04-1.6,1.19-2.79,1.19-2.79,0,0-1.24.67-2.54,2.02Z"/>
    <path class="cls-2" d="M190.15,107.32c1.34,1.09,1.82,2.28,1.39,2.55-.43.28-1.52-.26-2.65-1.65-1.14-1.38-1.37-2.5-1.37-2.5,0,0,1.26.48,2.63,1.6Z"/>
  </g>
  <path class="cls-2" d="M118.72,226.74l-1.9-1.9c.8-1.3,1.2-2.8,1.2-4.5,0-4.8-3.8-8.6-8.6-8.6s-8.6,3.9-8.6,8.6,3.8,8.6,8.6,8.6c1.9,0,3.6-.6,5-1.7l1.8,1.7,2.5-2.2ZM109.52,225.54c-2.9,0-5.3-2.3-5.3-5.3s2.3-5.3,5.3-5.3,5.3,2.3,5.3,5.3c0,.7-.1,1.3-.4,2l-.1-.1h-4.9l2.7,2.7c-.9.4-1.6.7-2.6.7Z"/>
  <g>
    <path class="cls-2" d="M42.98,199.67l-1.6-1.24,6.13-7.91,1.6,1.24-6.13,7.91Z"/>
    <path class="cls-2" d="M37.22,195.07l-1.5-1.41,1.39-6.36c.14-.62.45-1.5.45-1.5l-.02-.02s-.67.79-1.15,1.31l-3.59,3.83-1.46-1.37,6.85-7.3,1.43,1.34-1.29,6.37c-.13.61-.43,1.5-.43,1.5l.02.02s.68-.8,1.16-1.32l3.54-3.77,1.46,1.37-6.85,7.3Z"/>
    <path class="cls-2" d="M27.9,185.92l-5.18-6.16,1.31-1.1,1.94,2.3,6.35-5.34,1.3,1.55-6.35,5.34,1.94,2.3-1.31,1.1Z"/>
    <path class="cls-2" d="M19.75,175.76l-4.07-6.14,1.42-.94,2.94,4.45,1.87-1.24-2.58-3.9,1.39-.92,2.58,3.9,2.25-1.49-2.97-4.48,1.41-.94,4.09,6.17-8.34,5.53Z"/>
    <path class="cls-2" d="M13.02,165.05l-2.07-4.1c-.87-1.73-.45-3.38,1.03-4.13,1.05-.53,2.09-.45,2.99.54l.04-.02c-.18-.95.08-1.61,1.11-2.27,1.2-.76,2.19-1.2,2.17-1.58l.09-.04.88,1.74c.01.28-.97.81-1.9,1.37-.94.57-1.21,1.39-.64,2.52l.74,1.46,3.58-1.81.92,1.81-8.93,4.51ZM16.06,161.24l-.97-1.92c-.5-.99-1.26-1.22-1.97-.86-.72.37-1.03,1.1-.54,2.06l1,1.97,2.49-1.26Z"/>
    <path class="cls-2" d="M7.39,153.19l-.7-1.94,4.13-5.03c.4-.49,1.08-1.13,1.08-1.13v-.03s-.96.4-1.62.64l-4.94,1.78-.68-1.88,9.42-3.39.66,1.84-4.05,5.09c-.39.48-1.06,1.14-1.06,1.14v.03s.98-.41,1.64-.65l4.86-1.75.68,1.88-9.42,3.39Z"/>
    <path class="cls-2" d="M2.51,137.57l-.46-2.05,8.98-5.65.47,2.06-1.93,1.12.8,3.52,2.22.17.45,2.01-10.53-1.19ZM8.74,136.46l-.58-2.58-2.61,1.51c-.48.28-1.41.73-1.41.73v.03s1.04.02,1.6.07l3.01.24Z"/>
    <path class="cls-2" d="M.79,129.16l-.95-7.99,1.7-.2.35,2.99,8.24-.98.24,2.01-8.24.98.35,2.99-1.7.2Z"/>
    <path class="cls-2" d="M-.36,116.46l-.08-2.03,10-.39.08,2.03-10,.39Z"/>
    <path class="cls-2" d="M4.49,109.77c-2.99-.2-5.08-2.23-4.88-5.17.2-2.95,2.55-4.66,5.54-4.45,2.99.2,5.07,2.21,4.87,5.16-.2,2.95-2.53,4.67-5.52,4.47ZM5,102.21c-2-.14-3.61.65-3.73,2.48-.12,1.83,1.36,2.87,3.36,3.01,1.98.13,3.6-.7,3.72-2.53s-1.37-2.83-3.35-2.96Z"/>
    <path class="cls-2" d="M.84,94.69l.4-2.02,6.13-2.19c.6-.21,1.51-.42,1.51-.42v-.03s-1.02-.15-1.71-.28l-5.15-1.01.39-1.96,9.82,1.94-.38,1.92-6.09,2.28c-.58.21-1.5.43-1.5.43v.03s1.04.15,1.72.28l5.07,1-.39,1.96-9.82-1.94Z"/>
    <path class="cls-2" d="M4.69,78.77l.66-2,10.61-.22-.66,2.01-2.23-.03-1.13,3.43,1.82,1.29-.65,1.96-8.42-6.45ZM10.62,81.03l.83-2.51-3.02-.05c-.56,0-1.59-.1-1.59-.1v.03s.87.56,1.32.88l2.46,1.75Z"/>
    <path class="cls-2" d="M8.29,69l.85-1.84,7.55,3.48,1.97-4.27,1.54.71-2.82,6.11-9.09-4.19Z"/>
    <path class="cls-2" d="M21.92,57.68l1.12-1.64c1.07.56,1.85.26,2.66-.92.58-.86.79-1.81.03-2.33-.81-.55-1.51.12-2.66,1.19-1.34,1.25-2.66,2.34-4.38,1.16-1.63-1.11-1.57-3.02-.31-4.86,1.27-1.86,3-2.44,4.75-1.43l-1.09,1.61c-.9-.48-1.75-.11-2.34.75-.61.9-.63,1.75-.05,2.15.67.46,1.26.01,2.37-1.03,1.53-1.45,2.88-2.56,4.66-1.34,1.68,1.14,1.69,3.14.42,5-1.53,2.24-3.39,2.84-5.18,1.71Z"/>
    <path class="cls-2" d="M23.38,43.66l5.24-6.11,1.3,1.11-1.96,2.29,6.31,5.4-1.32,1.54-6.31-5.4-1.96,2.29-1.3-1.11Z"/>
    <path class="cls-2" d="M33.16,33.02l1.53-1.44,9.44,4.85-1.54,1.45-1.95-1.08-2.63,2.48.98,2-1.5,1.41-4.34-9.67ZM37.29,37.82l1.92-1.82-2.63-1.48c-.49-.27-1.35-.84-1.35-.84l-.02.02s.51.91.75,1.41l1.33,2.71Z"/>
    <path class="cls-2" d="M51.52,29.04l-.02.02c.13,1.33-.38,2.22-1.33,2.93-1.21.9-2.48,1.16-3.69.92-1.21-.25-2.36-1-3.26-2.21-.99-1.34-1.39-2.86-1.12-4.26.21-1.08.82-2.04,1.9-2.84,2.02-1.5,4.01-1.25,5.43.13l-1.6,1.19c-.75-.64-1.77-.76-2.8,0-1.52,1.13-1.34,2.95-.15,4.54,1.22,1.64,2.98,2.2,4.36,1.18,1.25-.93,1.38-2.47.72-3.36l-.03-.04-1.93,1.44-.94-1.26,3.38-2.51,3.17,4.27-1.23.91-.86-1.04Z"/>
    <path class="cls-2" d="M52.1,18.36l1.74-1.05,5.15,8.58-1.74,1.04-5.15-8.58Z"/>
    <path class="cls-2" d="M58.5,14.64l1.86-.89,5.41,3.61c.53.35,1.23.96,1.23.96h.02s-.5-.92-.8-1.55l-2.26-4.74,1.81-.86,4.31,9.04-1.77.84-5.46-3.52c-.52-.34-1.24-.94-1.24-.94h-.03s.5.94.8,1.57l2.22,4.66-1.81.86-4.31-9.04Z"/>
    <path class="cls-2" d="M80.57,15.03h-.03c-.29,1.31-1.06,1.99-2.19,2.36-1.44.47-2.72.32-3.79-.29-1.07-.62-1.92-1.7-2.4-3.13-.52-1.58-.42-3.15.28-4.39.54-.96,1.42-1.68,2.7-2.09,2.39-.79,4.2.08,5.11,1.84l-1.89.62c-.51-.85-1.44-1.28-2.66-.88-1.8.59-2.2,2.37-1.58,4.26.64,1.94,2.13,3.03,3.76,2.49,1.48-.48,2.09-1.91,1.74-2.96l-.02-.05-2.29.75-.49-1.49,4-1.31,1.66,5.05-1.45.48-.48-1.26Z"/>
    <path class="cls-2" d="M93.14,3.43l2.08-.29,4.87,9.43-2.09.29-.96-2.01-3.58.5-.36,2.2-2.04.28,2.08-10.39ZM93.71,9.74l2.62-.36-1.28-2.73c-.24-.5-.61-1.47-.61-1.47h-.03s-.11,1.04-.2,1.59l-.49,2.98Z"/>
    <path class="cls-2" d="M103.63,2.27h2.06s3.37,5.55,3.37,5.55c.33.54.71,1.39.71,1.39h.03s-.06-1.04-.07-1.73l-.03-5.25h2s.06,9.99.06,9.99h-1.96s-3.45-5.49-3.45-5.49c-.33-.53-.72-1.38-.72-1.38h-.03s.06,1.05.07,1.75l.03,5.16h-2s-.06-9.99-.06-9.99Z"/>
    <path class="cls-2" d="M117.17,2.42l3.88.41c2.66.28,4.15,2.61,3.84,5.54-.17,1.62-.86,2.98-2,3.75-.8.54-1.8.78-3.05.65l-3.72-.39,1.05-9.95ZM119.88,11.01c1.89.2,2.75-.88,2.96-2.85.21-1.98-.51-3.45-2.22-3.63l-1.62-.17-.68,6.49,1.56.16Z"/>
    <path class="cls-2" d="M136.17,5.43l4.41,1.27c1.86.53,2.79,1.96,2.33,3.57-.32,1.13-1.1,1.84-2.43,1.82v.04c.8.51,1.11,1.15.9,2.36-.25,1.4-.61,2.42-.31,2.66l-.03.09-1.87-.54c-.21-.18.07-1.26.29-2.32.22-1.07-.2-1.83-1.41-2.18l-1.57-.45-1.11,3.86-1.95-.56,2.76-9.62ZM136.9,10.24l2.07.59c1.06.3,1.75-.1,1.97-.86.22-.78-.11-1.5-1.15-1.8l-2.13-.61-.77,2.68Z"/>
    <path class="cls-2" d="M148.65,9.36l6.79,2.85-.66,1.58-4.92-2.06-.87,2.07,4.31,1.81-.64,1.54-4.31-1.81-1.05,2.49,4.96,2.08-.66,1.56-6.83-2.86,3.87-9.23Z"/>
    <path class="cls-2" d="M160.19,14.54l3.4,1.93c2.32,1.32,2.76,4.04,1.3,6.61-.8,1.41-1.98,2.38-3.33,2.63-.95.17-1.96,0-3.06-.63l-3.25-1.84,4.94-8.7ZM159.25,23.5c1.65.94,2.87.3,3.85-1.43.98-1.73.91-3.36-.59-4.21l-1.41-.8-3.22,5.67,1.36.77Z"/>
    <path class="cls-2" d="M171.66,21.45l5.93,4.36-1.01,1.38-4.29-3.16-1.33,1.8,3.76,2.77-.99,1.34-3.76-2.77-1.6,2.17,4.33,3.18-1,1.36-5.96-4.38,5.93-8.06Z"/>
    <path class="cls-2" d="M176.54,33.87l1.46,1.35c-.72.98-.54,1.79.51,2.76.76.71,1.67,1.06,2.3.38.67-.72.1-1.51-.78-2.8-1.03-1.52-1.91-2.98-.49-4.51,1.34-1.45,3.22-1.1,4.85.42,1.65,1.54,1.96,3.34.7,4.92l-1.42-1.33c.6-.81.37-1.72-.38-2.42-.8-.74-1.64-.89-2.12-.37-.55.59-.2,1.25.66,2.49,1.2,1.73,2.1,3.23.63,4.81-1.38,1.49-3.35,1.2-5-.33-1.99-1.85-2.29-3.78-.91-5.37Z"/>
    <path class="cls-2" d="M190.69,38.1l1.35,1.51-7.45,6.67-1.35-1.51,7.45-6.67Z"/>
    <path class="cls-2" d="M192.87,54.65l-.02-.02c-1.33.13-2.21-.39-2.92-1.35-.9-1.22-1.15-2.49-.91-3.7.26-1.21,1.01-2.36,2.23-3.25,1.34-.99,2.87-1.37,4.27-1.1,1.08.22,2.04.83,2.83,1.92,1.49,2.03,1.23,4.01-.16,5.43l-1.18-1.6c.65-.75.77-1.76,0-2.8-1.12-1.52-2.94-1.35-4.54-.18-1.65,1.21-2.22,2.97-1.2,4.35.92,1.25,2.46,1.39,3.35.74l.05-.03-1.42-1.94,1.26-.93,2.49,3.4-4.29,3.15-.9-1.23,1.04-.85Z"/>
    <path class="cls-2" d="M203.72,55.43l1,1.8-3.28,5.62c-.32.55-.89,1.29-.89,1.29v.02s.89-.55,1.51-.89l4.59-2.54.97,1.75-8.76,4.85-.95-1.72,3.19-5.67c.31-.54.87-1.3.87-1.3v-.02s-.91.56-1.52.9l-4.52,2.5-.97-1.75,8.76-4.85Z"/>
    <path class="cls-2" d="M212.22,72.9l1.43,4.16c.38,1.1.34,2.03-.04,2.78-.36.72-.99,1.29-1.87,1.59-1.79.61-3.4-.15-4.08-2.14l-.8-2.33-3.43,1.18-.68-1.99,9.46-3.25ZM208.42,76.42l.68,1.99c.35,1.01,1.08,1.34,1.94,1.05.89-.3,1.2-1.03.87-1.99l-.69-2.01-2.81.96Z"/>
    <path class="cls-2" d="M216.11,85.23l.96,4.49c.41,1.89-.42,3.38-2.05,3.73-1.15.25-2.14-.1-2.75-1.28h-.04c-.07.97-.49,1.54-1.65,1.92-1.35.43-2.42.6-2.5.98l-.1.02-.41-1.9c.06-.27,1.15-.53,2.18-.84,1.05-.31,1.52-1.04,1.26-2.27l-.34-1.6-3.93.84-.43-1.98,9.78-2.1ZM212.21,88.14l.45,2.11c.23,1.08.91,1.49,1.69,1.33.79-.17,1.27-.8,1.05-1.86l-.46-2.16-2.72.58Z"/>
    <path class="cls-2" d="M213.52,98.13c2.99-.26,5.37,1.42,5.62,4.36.26,2.94-1.8,4.99-4.78,5.25s-5.35-1.4-5.61-4.35c-.26-2.94,1.79-5.01,4.77-5.27ZM214.18,105.68c2-.17,3.47-1.2,3.31-3.03-.16-1.83-1.79-2.63-3.79-2.45-1.98.17-3.45,1.24-3.29,3.07.16,1.83,1.79,2.59,3.77,2.41Z"/>
    <path class="cls-2" d="M219.41,112.42l-.24,7.16-1.72-.06.17-5.13-2.41-.08-.14,4.35-1.74-.06.14-4.35-4.14-.14.07-2.03,10,.33Z"/>
    <path class="cls-2" d="M218.73,124.64l-1.06,7.29-1.69-.25.77-5.28-2.22-.32-.67,4.63-1.65-.24.67-4.63-2.67-.39-.78,5.32-1.68-.24,1.07-7.33,9.91,1.44Z"/>
    <path class="cls-2" d="M210.04,134.8l-.51,1.92c-1.2-.18-1.84.36-2.21,1.75-.27,1-.15,1.97.74,2.21.95.25,1.38-.62,2.11-2,.86-1.63,1.74-3.09,3.75-2.55,1.91.51,2.48,2.33,1.9,4.48-.58,2.18-2.03,3.3-4.01,2.93l.5-1.88c1,.15,1.69-.47,1.96-1.48.28-1.06.02-1.87-.67-2.05-.78-.21-1.2.41-1.89,1.76-.96,1.87-1.87,3.37-3.96,2.81-1.96-.52-2.64-2.4-2.05-4.58.7-2.63,2.26-3.8,4.32-3.33Z"/>
    <path class="cls-2" d="M206.65,146.54l-.74,1.85c-1.17-.32-1.87.14-2.4,1.47-.39.96-.39,1.94.47,2.29.91.37,1.45-.45,2.34-1.73,1.04-1.51,2.1-2.86,4.03-2.08,1.83.74,2.18,2.61,1.35,4.68-.84,2.09-2.41,3.03-4.34,2.42l.72-1.81c.98.27,1.74-.27,2.12-1.23.41-1.01.24-1.85-.42-2.12-.75-.3-1.24.26-2.09,1.52-1.18,1.74-2.26,3.12-4.26,2.32-1.89-.75-2.33-2.7-1.49-4.79,1.01-2.52,2.7-3.5,4.69-2.78Z"/>
    <path class="cls-2" d="M207.8,161.26l-.93,1.81-8.91-4.57.93-1.81,8.91,4.56Z"/>
    <path class="cls-2" d="M200.35,164.73c2.52,1.62,3.38,4.4,1.78,6.89-1.6,2.48-4.48,2.85-7,1.22-2.52-1.62-3.37-4.38-1.77-6.87,1.6-2.48,4.47-2.86,6.99-1.24ZM196.25,171.1c1.68,1.08,3.47,1.17,4.47-.37.99-1.54.19-3.17-1.49-4.26-1.67-1.08-3.49-1.13-4.48.41-.99,1.54-.17,3.14,1.5,4.21Z"/>
    <path class="cls-2" d="M196.26,179.68l-1.32,1.58-6.42-1.04c-.63-.11-1.52-.37-1.52-.37l-.02.02s.83.62,1.37,1.07l4.02,3.38-1.29,1.53-7.67-6.44,1.26-1.5,6.43.94c.62.09,1.52.34,1.52.34l.02-.02s-.84-.63-1.38-1.08l-3.96-3.32,1.29-1.53,7.67,6.44Z"/>
    <path class="cls-2" d="M185.24,191.75l-1.54,1.43-9.41-4.91,1.55-1.44,1.94,1.1,2.64-2.47-.97-2.01,1.5-1.41,4.29,9.7ZM181.13,186.93l-1.93,1.81,2.62,1.5c.49.28,1.35.85,1.35.85l.02-.02s-.5-.91-.74-1.41l-1.32-2.72Z"/>
    <path class="cls-2" d="M177.4,198.6l-1.63,1.21-4.96-6.68-3.78,2.8-1.01-1.36,5.41-4.02,5.97,8.04Z"/>
  </g>
  <path id="SVGID_1_" class="cls-1" d="M9.25,112.1C9.25,56.6,54.25,11.5,109.85,11.5s100.6,45,100.6,100.6-45,100.6-100.6,100.6c-55.6-.1-100.6-45.1-100.6-100.6Z"/>
  <rect class="cls-1" x="19.45" y="94.25" width="180.8" height="35.7"/>
  <g>
    <path class="cls-2" d="M76.28,90.75v.39c-1.01,0-1.87.28-2.57.85-.7.57-1.06,1.51-1.06,2.82v25.66c0,1.3.37,2.25,1.12,2.83.75.59,1.58.88,2.5.88v.37h-10.72v-.37c.98,0,1.82-.29,2.54-.86.71-.57,1.07-1.53,1.07-2.86v-25.66c0-1.41-.36-2.37-1.07-2.89-.71-.52-1.56-.78-2.54-.78v-.39h10.72Z"/>
    <path class="cls-2" d="M97.08,97.25h-.37c-.21-1.64-.93-3.07-2.15-4.3-1.22-1.23-2.82-1.85-4.81-1.85-1.3,0-2.46.31-3.46.92-1.01.61-1.79,1.45-2.34,2.5-.55,1.06-.83,2.26-.83,3.63,0,1.05.16,1.99.49,2.81.33.82.81,1.54,1.46,2.17.64.63,1.4,1.21,2.27,1.76s2.05,1.23,3.53,2.05c2.48,1.36,4.41,2.72,5.78,4.07,1.38,1.35,2.07,3.21,2.07,5.57,0,1.44-.37,2.83-1.11,4.17-.74,1.34-1.86,2.44-3.36,3.29-1.5.86-3.36,1.29-5.58,1.29-1.39,0-2.62-.15-3.7-.45-1.07-.3-2.16-.71-3.26-1.25-.46-.15-.77-.23-.94-.23-.32,0-.53.11-.63.34s-.23.73-.4,1.49h-.39v-8.47h.39c.55,2.48,1.62,4.35,3.21,5.62,1.59,1.27,3.53,1.9,5.81,1.9,1.71,0,3.09-.32,4.12-.96,1.03-.64,1.75-1.42,2.15-2.34s.6-1.84.6-2.75c0-1.9-.58-3.45-1.73-4.65-1.16-1.2-2.91-2.43-5.27-3.68-1.62-.89-2.82-1.58-3.6-2.07-.78-.49-1.57-1.12-2.38-1.9-.8-.78-1.44-1.7-1.92-2.77-.47-1.06-.71-2.28-.71-3.66,0-1.59.42-3.11,1.26-4.57.84-1.45,2.03-2.62,3.58-3.5,1.54-.88,3.3-1.32,5.25-1.32,1.48,0,3.01.25,4.57.76.24.12.57.18.99.18.5,0,.85-.34,1.03-1.03h.37v7.23Z"/>
    <path class="cls-2" d="M102.12,91.24h-.46v-.48h11.7c1.88,0,3.48.29,4.79.87,1.31.58,2.33,1.32,3.05,2.21.73.9,1.25,1.84,1.56,2.83.31.99.47,1.97.47,2.94,0,1.22-.26,2.4-.77,3.52-.51,1.12-1.3,2.09-2.36,2.9-1.06.81-2.39,1.36-3.98,1.65v.09c2.02.98,3.89,2.92,5.6,5.83l3.05,5.16c1.38,2.31,2.48,3.77,3.32,4.38.83.61,1.66.96,2.47,1.03v.37h-6.15c-.26-.34-.51-.66-.73-.98-.23-.31-.47-.65-.73-1-.15-.23-.38-.58-.68-1.04-.3-.47-.48-.73-.54-.79l-4.04-6.68c-.81-1.36-1.64-2.47-2.49-3.32-.85-.85-1.64-1.46-2.38-1.83s-1.4-.6-1.98-.69-1.28-.14-2.08-.14v12.37c0,2.4,1.22,3.64,3.67,3.72v.37h-10.76v-.37c.67-.03,1.27-.16,1.79-.38.52-.22.95-.6,1.3-1.15.34-.54.52-1.27.52-2.19v-25.57c0-1.35-.33-2.29-.99-2.85-.66-.55-1.38-.83-2.16-.83ZM108.76,107.21h1.93c2.02,0,3.67-.29,4.97-.87,1.29-.58,2.23-1.41,2.81-2.49.58-1.08.87-2.4.87-3.96,0-1.3-.26-2.57-.78-3.82-.52-1.25-1.4-2.29-2.65-3.14-1.25-.85-2.93-1.27-5.04-1.27-.86,0-1.56.07-2.11.21v15.35Z"/>
    <path class="cls-2" d="M132.67,91.15v-.39h11.08c1.85,0,3.48.25,4.9.76,1.42.5,2.59,1.19,3.53,2.07.94.87,1.64,1.86,2.11,2.95.47,1.09.7,2.25.7,3.45s-.22,2.31-.65,3.41c-.44,1.09-1.12,2.07-2.05,2.92-.93.85-2.16,1.53-3.67,2.03-1.52.5-3.26.76-5.23.76-.63,0-1.84-.09-3.63-.28v11.66c0,2.4,1.22,3.64,3.67,3.72v.37h-10.76v-.37c1.06-.03,1.92-.33,2.6-.91.68-.57,1.02-1.51,1.02-2.81v-25.57c0-.78-.12-1.43-.37-1.95-.25-.52-.53-.89-.86-1.11-.33-.22-.7-.39-1.1-.49-.41-.11-.69-.18-.84-.21h-.46ZM139.76,91.95v15.93c1.18.21,2.34.32,3.49.32,2.19,0,4.04-.56,5.57-1.69,1.52-1.12,2.28-3.21,2.28-6.25,0-2.51-.67-4.57-2.01-6.19-1.34-1.61-3.37-2.42-6.09-2.42-1.06,0-2.13.1-3.24.3Z"/>
  </g>
</svg>