<svg viewBox="0 0 48 48" fill="none" xmlns="http://www.w3.org/2000/svg">
<path d="M24 4C13.158 4 4 13.158 4 24C4 34.842 13.158 44 24 44C34.842 44 44 34.842 44 24C44 13.158 34.842 4 24 4ZM28.226 30H19.972L16.526 23.812L20.404 18H27.876L31.618 24.124L28.226 30ZM8 24C8 22.094 8.372 20.26 9.016 18.546L15.392 30H9.22C8.41879 28.1009 8.00405 26.0612 8 24ZM32.566 18H38.778C39.5808 19.8987 39.9962 21.9386 40 24C40 25.688 39.714 27.32 39.206 28.864L32.566 18ZM36.376 14H23.07L26.88 8.286C30.652 9.004 34.004 11.092 36.376 14ZM22.186 8.118L18.264 14H18V14.394L14.34 19.884L11.3 14.428C13.9 11.022 17.798 8.638 22.186 8.118ZM11.624 34H25.918L22.5 39.922C18.168 39.496 14.282 37.26 11.624 34ZM27.28 39.64L33.994 28.01L37.082 33.062C34.774 36.346 31.28 38.77 27.28 39.64Z" fill="#BCBCCB"/>
</svg>
