<svg viewBox="0 0 48 48" fill="none" xmlns="http://www.w3.org/2000/svg">
<path d="M43.9992 15.998C43.9988 15.641 43.9029 15.2907 43.7214 14.9833C43.5399 14.676 43.2795 14.4227 42.9672 14.25L24.9232 4.24999C24.6267 4.08664 24.2937 4.00098 23.9552 4.00098C23.6166 4.00098 23.2836 4.08664 22.9872 4.24999L5.03115 14.17C4.71922 14.3427 4.45914 14.5957 4.27784 14.9027C4.09654 15.2097 4.00061 15.5597 4 15.9162C3.99939 16.2728 4.09411 16.623 4.27436 16.9307C4.4546 17.2383 4.71382 17.4922 5.02515 17.666L23.0692 27.746C23.3662 27.9129 23.7012 28.0007 24.0419 28.0011C24.3826 28.0014 24.7178 27.9143 25.0152 27.748L42.9712 17.748C43.2831 17.5745 43.5429 17.3208 43.7236 17.0131C43.9044 16.7054 43.9995 16.3549 43.9992 15.998ZM24.0452 23.708L10.1192 15.93L23.9532 8.28599L37.8812 16.004L24.0452 23.708Z" fill="#BCBCCB"/>
<path d="M41.0291 22.252L23.9991 31.712L6.9691 22.252L5.0271 25.748L23.0271 35.748C23.3241 35.9129 23.6583 35.9995 23.9981 35.9995C24.3379 35.9995 24.6721 35.9129 24.9691 35.748L42.9691 25.748L41.0291 22.252Z" fill="#BCBCCB"/>
<path d="M41.0291 30.252L23.9991 39.712L6.9691 30.252L5.0271 33.748L23.0271 43.748C23.3241 43.9129 23.6583 43.9995 23.9981 43.9995C24.3379 43.9995 24.6721 43.9129 24.9691 43.748L42.9691 33.748L41.0291 30.252Z" fill="#BCBCCB"/>
</svg>
