<svg viewBox="0 0 48 48" fill="none" xmlns="http://www.w3.org/2000/svg">
<path d="M36.8067 5.99592C35.2927 4.48792 32.6527 4.49392 31.1507 6.00592L27.5827 9.58792L23.1707 13.9999H13.9987C13.5883 13.9996 13.1879 14.1258 12.8518 14.3613C12.5158 14.5968 12.2605 14.9301 12.1207 15.3159L4.12069 37.3159C3.85469 38.0459 4.03669 38.8639 4.58469 39.4139L8.58469 43.4139C8.85359 43.6835 9.19406 43.8705 9.56585 43.9527C9.93763 44.0349 10.3252 44.009 10.6827 43.8779L32.6827 35.8779C33.0685 35.7381 33.4018 35.4828 33.6373 35.1468C33.8728 34.8107 33.999 34.4103 33.9987 33.9999V24.8279L38.4147 20.4119L41.9987 16.8179C42.7547 16.0619 43.1707 15.0559 43.1687 13.9879C43.1687 12.9179 42.7507 11.9119 41.9927 11.1579L36.8067 5.99592ZM30.5847 22.5859C30.3986 22.7713 30.251 22.9917 30.1505 23.2344C30.0499 23.4771 29.9983 23.7372 29.9987 23.9999V32.5999L11.5007 39.3259L20.8427 29.9839C20.8947 29.9859 20.9467 29.9999 20.9987 29.9999C21.592 29.9999 22.1721 29.824 22.6654 29.4943C23.1587 29.1647 23.5433 28.6961 23.7703 28.148C23.9974 27.5998 24.0568 26.9966 23.941 26.4146C23.8253 25.8327 23.5396 25.2982 23.12 24.8786C22.7005 24.459 22.1659 24.1733 21.584 24.0576C21.002 23.9418 20.3988 24.0012 19.8506 24.2283C19.3025 24.4553 18.8339 24.8399 18.5043 25.3332C18.1746 25.8266 17.9987 26.4066 17.9987 26.9999C17.9987 27.0519 18.0127 27.1039 18.0147 27.1559L8.67269 36.4979L15.3987 17.9999H23.9987C24.5307 17.9999 25.0387 17.7899 25.4127 17.4139L28.9987 13.8279L34.1707 18.9999L30.5847 22.5859ZM36.9967 16.1699L31.8247 10.9979L33.9827 8.82992L39.1687 13.9919L36.9967 16.1699Z" fill="#BCBCCB"/>
</svg>
