<svg viewBox="0 0 48 48" fill="none" xmlns="http://www.w3.org/2000/svg">
<path d="M36 30C35.634 30 35.284 30.044 34.936 30.108L17.892 13.064C17.956 12.718 18 12.364 18 12C18 8.692 15.308 6 12 6C8.692 6 6 8.692 6 12C6 14.604 7.678 16.802 10 17.63V30.368C8.8337 30.7794 7.82321 31.5415 7.10708 32.5498C6.39096 33.5581 6.00426 34.7633 6 36C6 39.308 8.692 42 12 42C13.2367 41.9965 14.4419 41.6101 15.45 40.8938C16.4582 40.1775 17.2197 39.1666 17.63 38H30.368C30.7785 39.1665 31.5402 40.1772 32.5482 40.8934C33.5563 41.6097 34.7614 41.9962 35.998 42C39.306 42 41.998 39.308 41.998 36C41.998 32.692 39.308 30 36 30ZM14 30.368V17.632C14.658 17.396 15.258 17.05 15.788 16.616L31.386 32.214C30.9456 32.7462 30.6018 33.3513 30.37 34.002H17.63C17.3329 33.1646 16.853 32.404 16.225 31.7754C15.5971 31.1468 14.837 30.666 14 30.368ZM12 10C12.3961 9.9996 12.7835 10.1167 13.113 10.3366C13.4425 10.5564 13.6994 10.869 13.8512 11.2349C14.003 11.6008 14.0428 12.0035 13.9656 12.3921C13.8884 12.7806 13.6977 13.1375 13.4176 13.4176C13.1375 13.6977 12.7806 13.8884 12.3921 13.9656C12.0035 14.0428 11.6008 14.003 11.2349 13.8512C10.869 13.6994 10.5564 13.4425 10.3366 13.113C10.1167 12.7835 9.9996 12.3961 10 12C10 10.898 10.896 10 12 10ZM12 38C11.485 37.977 10.9988 37.7562 10.6426 37.3836C10.2863 37.0111 10.0875 36.5155 10.0875 36C10.0875 35.4845 10.2863 34.9889 10.6426 34.6164C10.9988 34.2438 11.485 34.023 12 34C12.515 34.023 13.0012 34.2438 13.3574 34.6164C13.7137 34.9889 13.9125 35.4845 13.9125 36C13.9125 36.5155 13.7137 37.0111 13.3574 37.3836C13.0012 37.7562 12.515 37.977 12 38ZM36 38C35.485 37.977 34.9988 37.7562 34.6426 37.3836C34.2863 37.0111 34.0875 36.5155 34.0875 36C34.0875 35.4845 34.2863 34.9889 34.6426 34.6164C34.9988 34.2438 35.485 34.023 36 34C36.515 34.023 37.0012 34.2438 37.3574 34.6164C37.7137 34.9889 37.9125 35.4845 37.9125 36C37.9125 36.5155 37.7137 37.0111 37.3574 37.3836C37.0012 37.7562 36.515 37.977 36 38Z" fill="#BCBCCB"/>
</svg>
