<svg viewBox="0 0 152 157" xmlns="http://www.w3.org/2000/svg">
<g clip-path="url(#clip0_7305_29722)">
<path d="M91.3219 21.6133V21.8266C93.6412 22.4804 95.9193 23.2856 98.1562 24.2422C104.84 27.1051 110.837 31.193 115.983 36.3888C121.129 41.5847 125.157 47.627 127.964 54.3576C130.866 61.3221 132.328 68.7065 132.3 76.3179C132.273 83.9087 130.763 91.2724 127.82 98.2025C124.979 104.892 120.917 110.9 115.757 116.054C110.597 121.209 104.593 125.255 97.9092 128.084C90.9925 131.009 83.6505 132.495 76.0888 132.495H75.8761C68.287 132.468 60.9312 130.947 54.0076 127.981C47.3243 125.118 41.3271 121.03 36.1808 115.834C31.0344 110.638 27.0066 104.596 24.2001 97.8653C21.2976 90.9007 19.836 83.5164 19.8635 75.905C19.8909 68.3142 21.4005 60.9505 24.3442 54.0204C27.185 47.3311 31.2472 41.3232 36.4072 36.1686C41.5672 31.014 47.5713 26.9674 54.2547 24.139C56.4092 23.2237 58.6119 22.4529 60.8419 21.8266V21.6202C37.162 28.2681 19.7537 50.0288 19.6576 75.9119C19.541 107.163 44.7099 132.592 75.8692 132.709C75.9447 132.709 76.0065 132.709 76.0819 132.709C107.145 132.709 132.383 107.507 132.499 76.3317C132.595 50.3041 115.153 28.3163 91.315 21.627L91.3219 21.6133Z" fill="#FAF0B6"/>
<path d="M18.793 75.6093C19.7124 76.4695 20.0281 77.3504 19.7193 77.5225C19.4105 77.6945 18.6626 77.2472 17.8941 76.1874C17.1255 75.1275 16.9814 74.3086 16.9814 74.3086C16.9814 74.3086 17.8529 74.7215 18.793 75.6093Z" fill="#FAF0B6"/>
<path d="M20.6046 75.7189C19.7263 76.5172 19.4381 77.3499 19.7469 77.522C20.0488 77.694 20.7761 77.288 21.5035 76.297C22.2308 75.306 22.3543 74.5283 22.3543 74.5283C22.3543 74.5283 21.5103 74.8999 20.6046 75.7189Z" fill="#FAF0B6"/>
<path d="M18.8479 78.6164C19.8085 79.4285 20.1722 80.2887 19.8772 80.4814C19.5821 80.6741 18.8067 80.2612 17.9833 79.2427C17.1599 78.2241 16.9678 77.4189 16.9678 77.4189C16.9678 77.4189 17.8598 77.7906 18.8479 78.6233V78.6164Z" fill="#FAF0B6"/>
<path d="M20.6598 78.6307C19.8227 79.4772 19.5825 80.3167 19.8982 80.475C20.2138 80.6333 20.9137 80.186 21.593 79.1537C22.2723 78.1214 22.3478 77.3438 22.3478 77.3438C22.3478 77.3438 21.5244 77.7635 20.6667 78.6307H20.6598Z" fill="#FAF0B6"/>
<path d="M19.0542 81.6167C20.056 82.3806 20.4608 83.2133 20.1727 83.4198C19.8845 83.6263 19.0954 83.2546 18.217 82.2843C17.3387 81.3139 17.1123 80.5156 17.1123 80.5156C17.1123 80.5156 18.0249 80.8391 19.0542 81.6167Z" fill="#FAF0B6"/>
<path d="M20.865 81.5345C20.0759 82.4223 19.8769 83.2757 20.1994 83.4202C20.5219 83.5647 21.2012 83.0761 21.8187 82.0163C22.4432 80.9565 22.4775 80.165 22.4775 80.165C22.4775 80.165 21.6747 80.6261 20.865 81.5345Z" fill="#FAF0B6"/>
<path d="M19.4245 84.6034C20.4675 85.3122 20.9135 86.1243 20.639 86.3445C20.3645 86.5648 19.5549 86.2344 18.6285 85.3122C17.7022 84.3901 17.4346 83.5986 17.4346 83.5986C17.4346 83.5986 18.3609 83.8739 19.4313 84.5965L19.4245 84.6034Z" fill="#FAF0B6"/>
<path d="M21.2291 84.4247C20.488 85.3538 20.3302 86.214 20.6596 86.3448C20.9889 86.4686 21.6408 85.9525 22.2035 84.8583C22.7661 83.764 22.7661 82.9795 22.7661 82.9795C22.7661 82.9795 21.9907 83.4819 21.2291 84.4316V84.4247Z" fill="#FAF0B6"/>
<path d="M19.9462 87.5626C21.0235 88.2164 21.5107 89.0078 21.2499 89.2418C20.9892 89.4758 20.1589 89.1936 19.1845 88.3128C18.2101 87.4387 17.9014 86.668 17.9014 86.668C17.9014 86.668 18.8414 86.8951 19.9462 87.5626Z" fill="#FAF0B6"/>
<path d="M21.7368 87.2944C21.0438 88.2579 20.934 89.1319 21.2702 89.242C21.6065 89.3521 22.2309 88.7947 22.7387 87.6729C23.2464 86.5511 23.1984 85.7666 23.1984 85.7666C23.1984 85.7666 22.4505 86.3103 21.7368 87.3013V87.2944Z" fill="#FAF0B6"/>
<path d="M20.6182 90.4945C21.7298 91.0932 22.2582 91.8502 22.0043 92.1049C21.7573 92.3526 20.9133 92.1049 19.8977 91.2859C18.8822 90.4601 18.5322 89.71 18.5322 89.71C18.5322 89.71 19.4791 89.882 20.6182 90.4945Z" fill="#FAF0B6"/>
<path d="M22.395 90.1299C21.75 91.1347 21.6882 92.0087 22.0313 92.0981C22.3744 92.1876 22.9645 91.6026 23.4105 90.4534C23.8565 89.3041 23.7742 88.5195 23.7742 88.5195C23.7742 88.5195 23.0537 89.0976 22.395 90.123V90.1299Z" fill="#FAF0B6"/>
<path d="M21.4416 93.3853C22.5807 93.9221 23.1502 94.6585 22.91 94.92C22.6699 95.1815 21.819 94.9819 20.7623 94.218C19.7056 93.4473 19.3145 92.7178 19.3145 92.7178C19.3145 92.7178 20.2751 92.8416 21.4416 93.3922V93.3853Z" fill="#FAF0B6"/>
<path d="M23.1979 92.9312C22.6078 93.9634 22.5941 94.8443 22.9372 94.9132C23.2803 94.9889 23.8429 94.3695 24.2341 93.1995C24.6252 92.0296 24.4948 91.252 24.4948 91.252C24.4948 91.252 23.8018 91.8713 23.1979 92.9312Z" fill="#FAF0B6"/>
<path d="M22.4231 96.2274C23.5897 96.7023 24.1935 97.4042 23.9739 97.6795C23.7543 97.9548 22.8898 97.8034 21.7919 97.0877C20.694 96.3788 20.2686 95.6631 20.2686 95.6631C20.2686 95.6631 21.2292 95.7388 22.43 96.2274H22.4231Z" fill="#FAF0B6"/>
<path d="M24.1451 95.6835C23.6099 96.7502 23.6373 97.6242 23.9873 97.6793C24.3372 97.7343 24.8656 97.0874 25.1881 95.9037C25.5174 94.7132 25.3459 93.9424 25.3459 93.9424C25.3459 93.9424 24.6872 94.5962 24.1382 95.6835H24.1451Z" fill="#FAF0B6"/>
<path d="M23.5414 99.0216C24.7285 99.4345 25.3735 100.109 25.1677 100.391C24.9618 100.673 24.0904 100.57 22.9582 99.9162C21.826 99.2624 21.3594 98.5742 21.3594 98.5742C21.3594 98.5742 22.3269 98.5949 23.5414 99.0216Z" fill="#FAF0B6"/>
<path d="M25.2431 98.3812C24.7628 99.4685 24.8383 100.343 25.1882 100.377C25.5382 100.411 26.0322 99.7438 26.293 98.5395C26.5537 97.3351 26.3479 96.5781 26.3479 96.5781C26.3479 96.5781 25.7235 97.2663 25.2363 98.3812H25.2431Z" fill="#FAF0B6"/>
<path d="M24.811 101.747C26.0187 102.098 26.698 102.731 26.5059 103.027C26.3138 103.323 25.4423 103.261 24.2758 102.669C23.1093 102.077 22.6084 101.417 22.6084 101.417C22.6084 101.417 23.5759 101.389 24.811 101.747Z" fill="#FAF0B6"/>
<path d="M26.4715 101.017C26.053 102.132 26.1696 102.999 26.5196 103.013C26.8695 103.027 27.3293 102.332 27.5283 101.121C27.7272 99.9024 27.4802 99.1592 27.4802 99.1592C27.4802 99.1592 26.897 99.8749 26.4647 101.017H26.4715Z" fill="#FAF0B6"/>
<path d="M26.2174 104.403C27.4456 104.692 28.1524 105.291 27.974 105.594C27.7956 105.896 26.9241 105.883 25.7233 105.353C24.5294 104.823 23.9941 104.183 23.9941 104.183C23.9941 104.183 24.9548 104.107 26.2105 104.396L26.2174 104.403Z" fill="#FAF0B6"/>
<path d="M27.8372 103.591C27.4735 104.726 27.6382 105.587 27.995 105.587C28.345 105.587 28.7704 104.864 28.9076 103.639C29.0449 102.414 28.7567 101.678 28.7567 101.678C28.7567 101.678 28.2077 102.428 27.8372 103.591Z" fill="#FAF0B6"/>
<path d="M27.7613 106.983C29.0033 107.204 29.7375 107.768 29.5797 108.085C29.4218 108.401 28.5435 108.429 27.3221 107.961C26.1007 107.493 25.5381 106.887 25.5381 106.887C25.5381 106.887 26.4987 106.756 27.7682 106.983H27.7613Z" fill="#FAF0B6"/>
<path d="M29.3397 106.082C29.0377 107.232 29.2505 108.085 29.6004 108.064C29.9504 108.044 30.3346 107.307 30.4101 106.076C30.4856 104.844 30.1631 104.128 30.1631 104.128C30.1631 104.128 29.6553 104.906 29.3465 106.082H29.3397Z" fill="#FAF0B6"/>
<path d="M29.4429 109.476C30.6918 109.634 31.4603 110.157 31.3162 110.473C31.1721 110.797 30.3007 110.873 29.0587 110.473C27.8167 110.074 27.2197 109.496 27.2197 109.496C27.2197 109.496 28.1667 109.317 29.4498 109.476H29.4429Z" fill="#FAF0B6"/>
<path d="M30.9654 108.498C30.7253 109.661 30.9791 110.5 31.3291 110.466C31.679 110.425 32.0221 109.668 32.029 108.436C32.0359 107.204 31.679 106.502 31.679 106.502C31.679 106.502 31.2124 107.3 30.9654 108.498Z" fill="#FAF0B6"/>
<path d="M31.2467 111.877C32.5024 111.967 33.2983 112.449 33.1679 112.779C33.0376 113.109 32.173 113.226 30.9104 112.896C29.6479 112.559 29.0234 112.015 29.0234 112.015C29.0234 112.015 29.9635 111.788 31.2467 111.877Z" fill="#FAF0B6"/>
<path d="M32.7226 110.817C32.5442 111.994 32.8392 112.82 33.1892 112.765C33.5391 112.71 33.8411 111.932 33.7862 110.7C33.7313 109.468 33.3333 108.787 33.3333 108.787C33.3333 108.787 32.9079 109.613 32.7226 110.817Z" fill="#FAF0B6"/>
<path d="M33.1754 114.183C34.4379 114.21 35.2545 114.644 35.1378 114.981C35.0212 115.318 34.1703 115.483 32.8872 115.215C31.604 114.947 30.9521 114.437 30.9521 114.437C30.9521 114.437 31.8785 114.162 33.1685 114.183H33.1754Z" fill="#FAF0B6"/>
<path d="M34.589 113.047C34.4724 114.231 34.8086 115.036 35.1517 114.967C35.4948 114.898 35.7555 114.1 35.6389 112.875C35.5222 111.65 35.0899 110.989 35.0899 110.989C35.0899 110.989 34.7125 111.836 34.589 113.047Z" fill="#FAF0B6"/>
<path d="M35.2202 116.385C36.4759 116.344 37.3199 116.743 37.2238 117.08C37.1277 117.417 36.2838 117.63 34.9937 117.431C33.7037 117.231 33.0244 116.75 33.0244 116.75C33.0244 116.75 33.937 116.426 35.227 116.385H35.2202Z" fill="#FAF0B6"/>
<path d="M36.5718 115.173C36.5169 116.364 36.8943 117.148 37.2374 117.059C37.5736 116.969 37.8 116.164 37.6147 114.946C37.4295 113.728 36.9697 113.095 36.9697 113.095C36.9697 113.095 36.6335 113.962 36.5786 115.18L36.5718 115.173Z" fill="#FAF0B6"/>
<path d="M37.3744 118.47C38.6301 118.36 39.4878 118.711 39.4123 119.062C39.3369 119.406 38.4997 119.66 37.2029 119.53C35.8991 119.399 35.1992 118.958 35.1992 118.958C35.1992 118.958 36.0912 118.587 37.3744 118.477V118.47Z" fill="#FAF0B6"/>
<path d="M38.665 117.197C38.665 118.387 39.0905 119.151 39.4267 119.041C39.7629 118.931 39.9413 118.119 39.6943 116.908C39.4473 115.703 38.9532 115.091 38.9532 115.091C38.9532 115.091 38.665 115.972 38.6719 117.19L38.665 117.197Z" fill="#FAF0B6"/>
<path d="M39.6389 120.445C40.8878 120.273 41.7592 120.576 41.7043 120.927C41.6494 121.278 40.826 121.574 39.5223 121.512C38.2186 121.45 37.4912 121.044 37.4912 121.044C37.4912 121.044 38.3627 120.624 39.6389 120.445Z" fill="#FAF0B6"/>
<path d="M40.86 119.103C40.9286 120.294 41.3883 121.037 41.7177 120.906C42.047 120.775 42.1843 119.956 41.8755 118.766C41.5667 117.575 41.0384 116.99 41.0384 116.99C41.0384 116.99 40.7982 117.885 40.8668 119.103H40.86Z" fill="#FAF0B6"/>
<path d="M42.006 122.296C43.2411 122.056 44.1331 122.317 44.092 122.668C44.0508 123.019 43.248 123.363 41.9442 123.363C40.6336 123.363 39.8926 123.005 39.8926 123.005C39.8926 123.005 40.7434 122.544 42.006 122.296Z" fill="#FAF0B6"/>
<path d="M43.1527 120.892C43.2831 122.076 43.784 122.792 44.1065 122.647C44.429 122.502 44.5182 121.677 44.1477 120.5C43.7772 119.323 43.2214 118.772 43.2214 118.772C43.2214 118.772 43.0224 119.681 43.1596 120.892H43.1527Z" fill="#FAF0B6"/>
<path d="M44.4629 124.024C45.6843 123.721 46.59 123.934 46.5694 124.285C46.5489 124.636 45.7666 125.022 44.456 125.09C43.1523 125.159 42.3906 124.836 42.3906 124.836C42.3906 124.836 43.214 124.326 44.4629 124.017V124.024Z" fill="#FAF0B6"/>
<path d="M45.5335 122.558C45.7256 123.735 46.2609 124.423 46.5765 124.265C46.8921 124.107 46.9402 123.274 46.5079 122.118C46.0756 120.962 45.4923 120.438 45.4923 120.438C45.4923 120.438 45.3414 121.354 45.5404 122.558H45.5335Z" fill="#FAF0B6"/>
<path d="M47.0018 125.614C48.2095 125.249 49.1221 125.414 49.1152 125.765C49.1083 126.116 48.3467 126.543 47.0498 126.68C45.7529 126.818 44.9707 126.536 44.9707 126.536C44.9707 126.536 45.7667 125.985 47.0018 125.607V125.614Z" fill="#FAF0B6"/>
<path d="M48.0031 124.099C48.2569 125.262 48.8265 125.923 49.1284 125.751C49.4303 125.572 49.4372 124.739 48.95 123.61C48.4559 122.482 47.8452 121.986 47.8452 121.986C47.8452 121.986 47.7423 122.909 48.0031 124.099Z" fill="#FAF0B6"/>
<path d="M49.6295 127.073C50.8166 126.646 51.7361 126.763 51.7498 127.114C51.7635 127.465 51.0225 127.933 49.7325 128.139C48.4424 128.346 47.6465 128.105 47.6465 128.105C47.6465 128.105 48.415 127.513 49.6227 127.073H49.6295Z" fill="#FAF0B6"/>
<path d="M50.5426 125.51C50.8514 126.659 51.4621 127.293 51.7572 127.1C52.0522 126.907 52.0179 126.074 51.4621 124.973C50.9132 123.872 50.275 123.411 50.275 123.411C50.275 123.411 50.2201 124.333 50.5426 125.517V125.51Z" fill="#FAF0B6"/>
<path d="M52.3197 128.393C53.4794 127.905 54.4057 127.973 54.44 128.324C54.4743 128.675 53.7607 129.178 52.4776 129.453C51.2013 129.728 50.3984 129.529 50.3984 129.529C50.3984 129.529 51.1326 128.896 52.3197 128.393Z" fill="#FAF0B6"/>
<path d="M53.1567 126.784C53.5272 127.912 54.1654 128.511 54.4536 128.304C54.7418 128.098 54.6594 127.265 54.0487 126.192C53.4449 125.118 52.7793 124.691 52.7793 124.691C52.7793 124.691 52.7793 125.62 53.1567 126.777V126.784Z" fill="#FAF0B6"/>
<path d="M55.0851 129.571C56.2173 129.02 57.1437 129.041 57.1985 129.385C57.2534 129.736 56.5604 130.273 55.2978 130.617C54.0353 130.961 53.2256 130.803 53.2256 130.803C53.2256 130.803 53.9255 130.135 55.0851 129.571Z" fill="#FAF0B6"/>
<path d="M55.8329 127.912C56.2652 129.02 56.9308 129.585 57.2052 129.364C57.4797 129.144 57.3562 128.318 56.6906 127.279C56.0319 126.24 55.3457 125.848 55.3457 125.848C55.3457 125.848 55.3869 126.777 55.8329 127.912Z" fill="#FAF0B6"/>
<path d="M57.9052 130.596C59.01 129.984 59.9363 129.956 60.0049 130.3C60.0735 130.644 59.4148 131.222 58.1728 131.628C56.9308 132.034 56.1074 131.924 56.1074 131.924C56.1074 131.924 56.773 131.222 57.8983 130.596H57.9052Z" fill="#FAF0B6"/>
<path d="M58.5637 128.903C59.0509 129.991 59.7508 130.521 60.0116 130.28C60.2723 130.039 60.1076 129.227 59.394 128.222C58.6804 127.217 57.9805 126.866 57.9805 126.866C57.9805 126.866 58.0697 127.788 58.5706 128.903H58.5637Z" fill="#FAF0B6"/>
<path d="M60.7731 131.477C61.8435 130.809 62.7699 130.734 62.8522 131.071C62.9414 131.415 62.3101 132.02 61.0956 132.495C59.8742 132.97 59.0508 132.894 59.0508 132.894C59.0508 132.894 59.6752 132.158 60.7731 131.477Z" fill="#FAF0B6"/>
<path d="M61.3425 129.757C61.8846 130.816 62.6119 131.305 62.8589 131.057C63.1059 130.809 62.9001 129.997 62.1316 129.034C61.3631 128.07 60.6426 127.754 60.6426 127.754C60.6426 127.754 60.7798 128.669 61.3425 129.757Z" fill="#FAF0B6"/>
<path d="M63.683 132.207C64.7191 131.484 65.6317 131.36 65.7415 131.697C65.8513 132.035 65.2543 132.675 64.0604 133.211C62.8664 133.748 62.0361 133.721 62.0361 133.721C62.0361 133.721 62.6194 132.95 63.683 132.213V132.207Z" fill="#FAF0B6"/>
<path d="M64.1632 130.452C64.7602 131.484 65.5081 131.931 65.7414 131.67C65.9747 131.408 65.7277 130.61 64.9111 129.688C64.0946 128.766 63.3604 128.49 63.3604 128.49C63.3604 128.49 63.5456 129.399 64.1632 130.452Z" fill="#FAF0B6"/>
<path d="M66.626 132.778C67.6209 132 68.5336 131.828 68.6571 132.158C68.7806 132.489 68.2179 133.163 67.0583 133.755C65.8918 134.354 65.0684 134.368 65.0684 134.368C65.0684 134.368 65.6173 133.569 66.6328 132.771L66.626 132.778Z" fill="#FAF0B6"/>
<path d="M67.0171 131.002C67.6689 132 68.4375 132.413 68.657 132.138C68.8766 131.862 68.5884 131.085 67.7238 130.204C66.8593 129.323 66.1113 129.089 66.1113 129.089C66.1113 129.089 66.3446 129.984 67.0102 131.009L67.0171 131.002Z" fill="#FAF0B6"/>
<path d="M69.5973 133.197C70.5511 132.372 71.45 132.151 71.5941 132.475C71.7382 132.798 71.2099 133.5 70.0777 134.154C68.9455 134.815 68.1221 134.87 68.1221 134.87C68.1221 134.87 68.623 134.044 69.5973 133.197Z" fill="#FAF0B6"/>
<path d="M69.8924 131.408C70.5923 132.371 71.3883 132.736 71.5942 132.454C71.8 132.165 71.4706 131.401 70.558 130.575C69.6454 129.749 68.8906 129.543 68.8906 129.543C68.8906 129.543 69.172 130.424 69.8924 131.408Z" fill="#FAF0B6"/>
<path d="M72.5824 133.459C73.4881 132.585 74.3801 132.316 74.538 132.633C74.6958 132.95 74.2086 133.672 73.1107 134.395C72.0128 135.117 71.1963 135.214 71.1963 135.214C71.1963 135.214 71.656 134.36 72.5824 133.466V133.459Z" fill="#FAF0B6"/>
<path d="M72.7883 131.656C73.5362 132.578 74.3528 132.908 74.5381 132.612C74.7302 132.316 74.3597 131.566 73.4059 130.789C72.4589 130.004 71.6904 129.846 71.6904 129.846C71.6904 129.846 72.0198 130.713 72.7883 131.656Z" fill="#FAF0B6"/>
<path d="M61.7411 20.4847C61.1441 21.5996 60.3893 22.1295 60.1354 21.8748C59.8884 21.6271 60.1354 20.7806 60.952 19.7621C61.7754 18.7436 62.5233 18.3926 62.5233 18.3926C62.5233 18.3926 62.3518 19.3423 61.7411 20.4847Z" fill="#FAF0B6"/>
<path d="M62.1042 22.2668C61.1024 21.6199 60.2309 21.5579 60.1417 21.902C60.0525 22.2461 60.6358 22.838 61.7817 23.2853C62.9276 23.7326 63.7098 23.65 63.7098 23.65C63.7098 23.65 63.1335 22.9274 62.111 22.2668H62.1042Z" fill="#FAF0B6"/>
<path d="M58.8586 21.3102C58.3234 22.4526 57.5891 23.0238 57.3284 22.7829C57.0677 22.542 57.2666 21.6887 58.0283 20.6288C58.7968 19.569 59.5242 19.1768 59.5242 19.1768C59.5242 19.1768 59.4007 20.1402 58.8517 21.3102H58.8586Z" fill="#FAF0B6"/>
<path d="M59.3115 23.0724C58.2822 22.4806 57.4039 22.4668 57.3353 22.8109C57.2598 23.155 57.8774 23.7193 59.0439 24.1116C60.2104 24.5039 60.9857 24.3731 60.9857 24.3731C60.9857 24.3731 60.3682 23.678 59.3115 23.0724Z" fill="#FAF0B6"/>
<path d="M56.0178 22.2947C55.5443 23.4647 54.8444 24.0703 54.5699 23.85C54.2955 23.6298 54.4464 22.7627 55.16 21.6616C55.8668 20.5605 56.5804 20.1338 56.5804 20.1338C56.5804 20.1338 56.505 21.0973 56.0178 22.3016V22.2947Z" fill="#FAF0B6"/>
<path d="M56.5674 24.0223C55.5038 23.4855 54.6324 23.513 54.5775 23.864C54.5226 24.215 55.1676 24.7449 56.3478 25.0683C57.5349 25.3987 58.3034 25.2266 58.3034 25.2266C58.3034 25.2266 57.6515 24.5659 56.5674 24.0154V24.0223Z" fill="#FAF0B6"/>
<path d="M53.2393 23.416C52.8276 24.6066 52.1551 25.2535 51.8738 25.047C51.5925 24.8406 51.6954 23.9666 52.3472 22.831C52.9991 21.6955 53.6853 21.2275 53.6853 21.2275C53.6853 21.2275 53.6647 22.1979 53.2393 23.416Z" fill="#FAF0B6"/>
<path d="M53.8769 25.123C52.7928 24.6413 51.9213 24.717 51.887 25.068C51.8527 25.419 52.5183 25.9145 53.7191 26.176C54.9199 26.4375 55.6747 26.231 55.6747 26.231C55.6747 26.231 54.9885 25.6048 53.8769 25.1162V25.123Z" fill="#FAF0B6"/>
<path d="M50.5219 24.6896C50.172 25.9008 49.5407 26.5821 49.2456 26.3894C48.9506 26.1967 49.0123 25.3227 49.6024 24.1528C50.1925 22.9828 50.8513 22.4805 50.8513 22.4805C50.8513 22.4805 50.8787 23.4508 50.5219 24.6896Z" fill="#FAF0B6"/>
<path d="M51.2491 26.3551C50.1375 25.9353 49.273 26.0523 49.2592 26.4033C49.2386 26.7543 49.9385 27.2154 51.1462 27.415C52.3607 27.6145 53.1018 27.3668 53.1018 27.3668C53.1018 27.3668 52.3882 26.7818 51.2491 26.3483V26.3551Z" fill="#FAF0B6"/>
<path d="M47.873 26.1008C47.5848 27.3327 46.9879 28.0416 46.6859 27.8626C46.384 27.6837 46.3978 26.8097 46.9261 25.6053C47.4545 24.4079 48.0926 23.8711 48.0926 23.8711C48.0926 23.8711 48.1681 24.8346 47.8799 26.094L47.873 26.1008Z" fill="#FAF0B6"/>
<path d="M48.6833 27.7245C47.5511 27.3598 46.6934 27.5249 46.6934 27.8828C46.6934 28.2338 47.4138 28.6604 48.6352 28.7981C49.8566 28.9357 50.5908 28.6467 50.5908 28.6467C50.5908 28.6467 49.8429 28.0961 48.6833 27.7245Z" fill="#FAF0B6"/>
<path d="M45.3003 27.6487C45.0807 28.8943 44.5181 29.6307 44.2024 29.4724C43.8868 29.3141 43.8593 28.4332 44.3259 27.2083C44.7925 25.9833 45.3964 25.4189 45.3964 25.4189C45.3964 25.4189 45.5267 26.3824 45.3003 27.6556V27.6487Z" fill="#FAF0B6"/>
<path d="M46.1992 29.2317C45.0533 28.9289 44.2024 29.1422 44.223 29.4932C44.2436 29.8442 44.9778 30.2296 46.2061 30.3053C47.4343 30.381 48.148 30.0575 48.148 30.0575C48.148 30.0575 47.3726 29.5483 46.1992 29.2386V29.2317Z" fill="#FAF0B6"/>
<path d="M42.8157 29.3352C42.6579 30.5877 42.1364 31.3585 41.8207 31.214C41.4982 31.0695 41.4227 30.1955 41.8207 28.9498C42.2187 27.7042 42.7951 27.1055 42.7951 27.1055C42.7951 27.1055 42.9735 28.0552 42.8157 29.3421V29.3352Z" fill="#FAF0B6"/>
<path d="M43.7906 30.8622C42.631 30.6213 41.7939 30.8759 41.8282 31.2269C41.8625 31.5779 42.6241 31.922 43.8524 31.9289C45.0806 31.9358 45.7805 31.5779 45.7805 31.5779C45.7805 31.5779 44.9846 31.1099 43.7906 30.8622Z" fill="#FAF0B6"/>
<path d="M40.4208 31.1448C40.3316 32.4042 39.8513 33.2025 39.5219 33.0717C39.1926 32.941 39.0759 32.0739 39.4053 30.8076C39.7415 29.5413 40.2836 28.915 40.2836 28.915C40.2836 28.915 40.51 29.8579 40.4208 31.1448Z" fill="#FAF0B6"/>
<path d="M41.4777 32.6241C40.3043 32.4452 39.4809 32.7411 39.5358 33.0921C39.5907 33.4431 40.3661 33.7459 41.5943 33.6908C42.8226 33.6358 43.5019 33.2366 43.5019 33.2366C43.5019 33.2366 42.6785 32.8099 41.4777 32.6241Z" fill="#FAF0B6"/>
<path d="M38.1225 33.0784C38.0951 34.3447 37.6628 35.1636 37.3266 35.0466C36.9904 34.9365 36.8257 34.0763 37.0933 32.7893C37.3609 31.5024 37.8687 30.8486 37.8687 30.8486C37.8687 30.8486 38.1431 31.7777 38.1225 33.0715V33.0784Z" fill="#FAF0B6"/>
<path d="M39.2545 34.4963C38.0742 34.3793 37.2714 34.7165 37.34 35.0606C37.4086 35.4047 38.2046 35.6662 39.426 35.5493C40.6474 35.4323 41.3061 34.9987 41.3061 34.9987C41.3061 34.9987 40.4621 34.6202 39.2545 34.4963Z" fill="#FAF0B6"/>
<path d="M35.9265 35.13C35.9676 36.3894 35.5696 37.2358 35.2334 37.1395C34.8972 37.0431 34.6845 36.1967 34.8835 34.9029C35.0825 33.609 35.5628 32.9277 35.5628 32.9277C35.5628 32.9277 35.8853 33.843 35.9265 35.1368V35.13Z" fill="#FAF0B6"/>
<path d="M37.1341 36.4849C35.947 36.4298 35.1648 36.8083 35.254 37.1524C35.3432 37.4965 36.146 37.7167 37.3605 37.5309C38.5751 37.3451 39.2064 36.884 39.2064 36.884C39.2064 36.884 38.3418 36.5468 37.1272 36.4917L37.1341 36.4849Z" fill="#FAF0B6"/>
<path d="M33.8473 37.29C33.9571 38.5494 33.6072 39.4096 33.2572 39.3339C32.9141 39.2582 32.6603 38.4186 32.7906 37.1179C32.921 35.8104 33.3602 35.1084 33.3602 35.1084C33.3602 35.1084 33.7307 36.0031 33.8405 37.29H33.8473Z" fill="#FAF0B6"/>
<path d="M35.117 38.584C33.9299 38.584 33.1683 39.0107 33.2781 39.3479C33.3879 39.6851 34.1975 39.864 35.4052 39.6163C36.6129 39.3685 37.2167 38.873 37.2167 38.873C37.2167 38.873 36.3384 38.584 35.1239 38.5909L35.117 38.584Z" fill="#FAF0B6"/>
<path d="M31.8784 39.5613C32.05 40.8138 31.7481 41.6878 31.3981 41.6327C31.0482 41.5777 30.7531 40.7519 30.8149 39.4443C30.8766 38.1367 31.2815 37.4072 31.2815 37.4072C31.2815 37.4072 31.7 38.2812 31.8784 39.5613Z" fill="#FAF0B6"/>
<path d="M33.2169 40.7867C32.0298 40.8556 31.2887 41.3166 31.4191 41.647C31.5495 41.9773 32.366 42.115 33.5531 41.8053C34.7402 41.4956 35.3235 40.9657 35.3235 40.9657C35.3235 40.9657 34.4314 40.7248 33.2169 40.7936V40.7867Z" fill="#FAF0B6"/>
<path d="M30.0323 41.936C30.2725 43.1748 30.0117 44.0694 29.6618 44.0282C29.3118 43.9869 28.9688 43.1817 28.9688 41.8741C28.9688 40.5665 29.3256 39.8164 29.3256 39.8164C29.3256 39.8164 29.7853 40.6698 30.0323 41.936Z" fill="#FAF0B6"/>
<path d="M31.4322 43.0855C30.252 43.2162 29.5384 43.7186 29.6825 44.0421C29.8266 44.3655 30.65 44.455 31.8233 44.0834C32.9967 43.7117 33.5456 43.1543 33.5456 43.1543C33.5456 43.1543 32.6399 42.9547 31.4322 43.0924V43.0855Z" fill="#FAF0B6"/>
<path d="M28.3105 44.3996C28.6124 45.6246 28.3997 46.533 28.0497 46.5124C27.6998 46.4917 27.3155 45.7072 27.2469 44.3928C27.1783 43.0852 27.5008 42.3213 27.5008 42.3213C27.5008 42.3213 28.0085 43.1471 28.3173 44.3996H28.3105Z" fill="#FAF0B6"/>
<path d="M29.772 45.4732C28.5986 45.6659 27.9125 46.2027 28.0703 46.5193C28.2281 46.8359 29.0584 46.884 30.2112 46.4505C31.3639 46.0169 31.8854 45.432 31.8854 45.432C31.8854 45.432 30.9728 45.2806 29.772 45.4801V45.4732Z" fill="#FAF0B6"/>
<path d="M26.7185 46.9462C27.0822 48.1575 26.9175 49.0728 26.5675 49.0659C26.2176 49.0659 25.7921 48.2951 25.6549 46.9944C25.5177 45.6937 25.799 44.9092 25.799 44.9092C25.799 44.9092 26.348 45.7075 26.7253 46.9462H26.7185Z" fill="#FAF0B6"/>
<path d="M28.2343 47.9508C27.0747 48.2055 26.416 48.7767 26.5875 49.0795C26.759 49.3823 27.5962 49.3892 28.7215 48.9005C29.8468 48.405 30.3409 47.7926 30.3409 47.7926C30.3409 47.7926 29.4214 47.6893 28.2343 47.9508Z" fill="#FAF0B6"/>
<path d="M25.271 49.5817C25.6964 50.7722 25.5797 51.6944 25.2298 51.7082C24.8798 51.7219 24.4132 50.9787 24.2074 49.6849C24.0015 48.3911 24.2417 47.5928 24.2417 47.5928C24.2417 47.5928 24.8318 48.3635 25.271 49.5748V49.5817Z" fill="#FAF0B6"/>
<path d="M26.8282 50.4966C25.6823 50.8062 25.051 51.4187 25.2431 51.7147C25.4352 52.0106 26.2655 51.9762 27.3634 51.4187C28.4613 50.8682 28.921 50.2282 28.921 50.2282C28.921 50.2282 28.0015 50.1731 26.8213 50.4966H26.8282Z" fill="#FAF0B6"/>
<path d="M23.9529 52.2795C24.4401 53.4425 24.3714 54.3716 24.0215 54.406C23.6715 54.4404 23.1706 53.7247 22.8962 52.4378C22.6217 51.1577 22.8207 50.3525 22.8207 50.3525C22.8207 50.3525 23.452 51.0889 23.9529 52.2795Z" fill="#FAF0B6"/>
<path d="M25.5586 53.1187C24.4333 53.4904 23.8363 54.1304 24.0421 54.4194C24.248 54.7085 25.0783 54.6259 26.1487 54.0134C27.2191 53.4078 27.6446 52.7402 27.6446 52.7402C27.6446 52.7402 26.7182 52.7402 25.5654 53.1187H25.5586Z" fill="#FAF0B6"/>
<path d="M22.7801 55.0525C23.3291 56.188 23.3085 57.1171 22.9654 57.1721C22.6223 57.2272 22.0802 56.5321 21.7371 55.2659C21.394 53.9996 21.5519 53.1875 21.5519 53.1875C21.5519 53.1875 22.2175 53.8895 22.7801 55.0525Z" fill="#FAF0B6"/>
<path d="M24.4332 55.8031C23.3285 56.2366 22.7658 56.9042 22.9854 57.1795C23.205 57.4547 24.0284 57.3309 25.0645 56.6633C26.1006 56.0026 26.4918 55.3145 26.4918 55.3145C26.4918 55.3145 25.5654 55.3557 24.4332 55.8031Z" fill="#FAF0B6"/>
<path d="M21.7568 57.8744C22.3675 58.9824 22.395 59.9114 22.0519 59.9802C21.7088 60.0491 21.1324 59.3884 20.7276 58.1428C20.3227 56.8971 20.4325 56.0713 20.4325 56.0713C20.4325 56.0713 21.1324 56.7388 21.7568 57.8675V57.8744Z" fill="#FAF0B6"/>
<path d="M23.4383 58.542C22.3541 59.0306 21.8258 59.7326 22.0659 59.9941C22.2992 60.2556 23.1158 60.0904 24.1176 59.3747C25.1194 58.659 25.4694 57.957 25.4694 57.957C25.4694 57.957 24.5499 58.0465 23.4383 58.5489V58.542Z" fill="#FAF0B6"/>
<path d="M20.8789 60.7508C21.5445 61.8244 21.6199 62.7535 21.2837 62.836C20.9406 62.9255 20.3368 62.2924 19.8633 61.0743C19.3899 59.8493 19.4653 59.0234 19.4653 59.0234C19.4653 59.0234 20.1996 59.6497 20.8789 60.7508Z" fill="#FAF0B6"/>
<path d="M22.5944 61.3289C21.5377 61.8726 21.0505 62.6021 21.2975 62.8498C21.5445 63.0976 22.3542 62.8911 23.3149 62.1203C24.2755 61.3496 24.5912 60.627 24.5912 60.627C24.5912 60.627 23.6785 60.7646 22.5944 61.3289Z" fill="#FAF0B6"/>
<path d="M20.1514 63.6761C20.8719 64.7153 20.9954 65.6306 20.6592 65.7407C20.323 65.8508 19.6848 65.252 19.1496 64.0546C18.6144 62.8571 18.6418 62.0244 18.6418 62.0244C18.6418 62.0244 19.4104 62.6094 20.1446 63.6761H20.1514Z" fill="#FAF0B6"/>
<path d="M21.9017 64.1577C20.8725 64.7565 20.4265 65.5066 20.6872 65.7406C20.9479 65.9746 21.7439 65.7268 22.6634 64.9079C23.5829 64.0889 23.8573 63.3525 23.8573 63.3525C23.8573 63.3525 22.9516 63.5384 21.9017 64.1577Z" fill="#FAF0B6"/>
<path d="M19.5821 66.6286C20.3575 67.6265 20.5291 68.5418 20.1997 68.6657C19.8703 68.7895 19.1979 68.2252 18.6078 67.0622C18.0108 65.8922 17.9971 65.0664 17.9971 65.0664C17.9971 65.0664 18.793 65.617 19.589 66.6355L19.5821 66.6286Z" fill="#FAF0B6"/>
<path d="M21.3453 67.0139C20.3503 67.6677 19.9386 68.4384 20.2131 68.6587C20.4875 68.8789 21.2629 68.5899 22.1412 67.7227C23.0195 66.8556 23.2528 66.1055 23.2528 66.1055C23.2528 66.1055 22.3608 66.3395 21.3384 67.007L21.3453 67.0139Z" fill="#FAF0B6"/>
<path d="M19.1635 69.6007C19.9869 70.5573 20.2065 71.4588 19.884 71.6034C19.5615 71.7479 18.8616 71.218 18.2097 70.0824C17.551 68.9469 17.4961 68.1211 17.4961 68.1211C17.4961 68.1211 18.3195 68.6235 19.1635 69.6007Z" fill="#FAF0B6"/>
<path d="M20.948 69.9042C19.9874 70.6061 19.6237 71.4044 19.905 71.6109C20.1932 71.8174 20.9549 71.487 21.7783 70.5717C22.6086 69.6633 22.8076 68.8994 22.8076 68.8994C22.8076 68.8994 21.9293 69.1816 20.948 69.9042Z" fill="#FAF0B6"/>
<path d="M18.9031 72.6021C19.7745 73.5105 20.0421 74.4051 19.7265 74.5634C19.4108 74.7217 18.6904 74.2331 17.9699 73.132C17.2562 72.0309 17.1533 71.2119 17.1533 71.2119C17.1533 71.2119 18.0042 71.673 18.8962 72.6021H18.9031Z" fill="#FAF0B6"/>
<path d="M20.7004 72.8013C19.7809 73.5514 19.4516 74.3704 19.7466 74.5562C20.0417 74.7489 20.7896 74.3773 21.565 73.4207C22.3472 72.471 22.5051 71.7002 22.5051 71.7002C22.5051 71.7002 21.6405 72.0305 20.7004 72.8013Z" fill="#FAF0B6"/>
<path d="M133.295 75.6093C132.376 76.4695 132.06 77.3504 132.369 77.5225C132.678 77.6945 133.425 77.2472 134.194 76.1874C134.962 75.1275 135.107 74.3086 135.107 74.3086C135.107 74.3086 134.235 74.7215 133.295 75.6093Z" fill="#FAF0B6"/>
<path d="M131.491 75.7189C132.369 76.5172 132.657 77.3499 132.349 77.522C132.047 77.694 131.319 77.288 130.592 76.297C129.865 75.306 129.741 74.5283 129.741 74.5283C129.741 74.5283 130.585 74.8999 131.491 75.7189Z" fill="#FAF0B6"/>
<path d="M133.247 78.6164C132.287 79.4285 131.923 80.2887 132.218 80.4814C132.513 80.6741 133.288 80.2612 134.112 79.2427C134.935 78.2241 135.127 77.4189 135.127 77.4189C135.127 77.4189 134.235 77.7906 133.247 78.6233V78.6164Z" fill="#FAF0B6"/>
<path d="M131.436 78.6307C132.273 79.4772 132.513 80.3167 132.198 80.475C131.882 80.6333 131.182 80.186 130.503 79.1537C129.824 78.1283 129.748 77.3438 129.748 77.3438C129.748 77.3438 130.571 77.7635 131.429 78.6307H131.436Z" fill="#FAF0B6"/>
<path d="M133.034 81.6167C132.033 82.3806 131.628 83.2133 131.916 83.4198C132.204 83.6263 132.993 83.2546 133.872 82.2843C134.75 81.3139 134.976 80.5156 134.976 80.5156C134.976 80.5156 134.064 80.8391 133.034 81.6167Z" fill="#FAF0B6"/>
<path d="M131.23 81.5345C132.019 82.4223 132.218 83.2757 131.895 83.4202C131.573 83.5647 130.893 83.0761 130.276 82.0163C129.652 80.9565 129.617 80.165 129.617 80.165C129.617 80.165 130.42 80.6261 131.23 81.5345Z" fill="#FAF0B6"/>
<path d="M132.671 84.6034C131.628 85.3122 131.182 86.1243 131.456 86.3445C131.731 86.5648 132.54 86.2344 133.467 85.3122C134.393 84.3901 134.661 83.5986 134.661 83.5986C134.661 83.5986 133.734 83.8739 132.664 84.5965L132.671 84.6034Z" fill="#FAF0B6"/>
<path d="M130.866 84.4247C131.607 85.3538 131.765 86.214 131.436 86.3448C131.106 86.4755 130.454 85.9525 129.892 84.8583C129.329 83.764 129.329 82.9795 129.329 82.9795C129.329 82.9795 130.104 83.4819 130.866 84.4316V84.4247Z" fill="#FAF0B6"/>
<path d="M132.149 87.5626C131.072 88.2164 130.585 89.0078 130.845 89.2418C131.106 89.4758 131.936 89.1936 132.911 88.3128C133.885 87.4387 134.194 86.668 134.194 86.668C134.194 86.668 133.254 86.8951 132.149 87.5626Z" fill="#FAF0B6"/>
<path d="M130.358 87.2944C131.051 88.2579 131.161 89.1319 130.825 89.242C130.489 89.3521 129.864 88.7947 129.356 87.6729C128.849 86.5511 128.897 85.7666 128.897 85.7666C128.897 85.7666 129.645 86.3103 130.358 87.3013V87.2944Z" fill="#FAF0B6"/>
<path d="M131.477 90.4945C130.365 91.0932 129.837 91.8502 130.091 92.1049C130.345 92.3595 131.182 92.1049 132.198 91.2859C133.213 90.4601 133.563 89.71 133.563 89.71C133.563 89.71 132.616 89.882 131.477 90.4945Z" fill="#FAF0B6"/>
<path d="M129.7 90.1299C130.345 91.1347 130.406 92.0087 130.063 92.0981C129.72 92.1876 129.13 91.6026 128.684 90.4534C128.238 89.3041 128.32 88.5195 128.32 88.5195C128.32 88.5195 129.041 89.0976 129.7 90.123V90.1299Z" fill="#FAF0B6"/>
<path d="M130.647 93.3853C129.508 93.9221 128.938 94.6585 129.178 94.92C129.418 95.1815 130.269 94.9819 131.326 94.218C132.383 93.4473 132.774 92.7178 132.774 92.7178C132.774 92.7178 131.813 92.8416 130.647 93.3922V93.3853Z" fill="#FAF0B6"/>
<path d="M128.897 92.9312C129.487 93.9634 129.501 94.8443 129.158 94.9132C128.814 94.9889 128.252 94.3695 127.861 93.1995C127.47 92.0296 127.6 91.252 127.6 91.252C127.6 91.252 128.293 91.8713 128.897 92.9312Z" fill="#FAF0B6"/>
<path d="M129.672 96.2274C128.506 96.7023 127.902 97.4042 128.122 97.6795C128.341 97.9548 129.206 97.8034 130.304 97.0877C131.402 96.3788 131.827 95.6631 131.827 95.6631C131.827 95.6631 130.866 95.7388 129.666 96.2274H129.672Z" fill="#FAF0B6"/>
<path d="M127.943 95.6835C128.478 96.7502 128.451 97.6242 128.101 97.6793C127.751 97.7343 127.222 97.0874 126.9 95.9037C126.57 94.7132 126.742 93.9424 126.742 93.9424C126.742 93.9424 127.401 94.5962 127.95 95.6835H127.943Z" fill="#FAF0B6"/>
<path d="M128.547 99.0216C127.36 99.4345 126.715 100.109 126.921 100.391C127.127 100.673 127.998 100.57 129.13 99.9162C130.262 99.2624 130.729 98.5742 130.729 98.5742C130.729 98.5742 129.761 98.5949 128.547 99.0216Z" fill="#FAF0B6"/>
<path d="M126.852 98.3812C127.332 99.4685 127.257 100.343 126.907 100.377C126.557 100.411 126.063 99.7438 125.802 98.5395C125.541 97.3351 125.747 96.5781 125.747 96.5781C125.747 96.5781 126.372 97.2663 126.859 98.3812H126.852Z" fill="#FAF0B6"/>
<path d="M127.285 101.747C126.077 102.098 125.398 102.731 125.59 103.027C125.782 103.323 126.653 103.261 127.82 102.669C128.986 102.077 129.487 101.417 129.487 101.417C129.487 101.417 128.52 101.389 127.285 101.747Z" fill="#FAF0B6"/>
<path d="M125.623 101.017C126.042 102.132 125.925 102.999 125.575 103.013C125.225 103.034 124.766 102.332 124.567 101.121C124.368 99.9024 124.615 99.1592 124.615 99.1592C124.615 99.1592 125.198 99.8749 125.63 101.017H125.623Z" fill="#FAF0B6"/>
<path d="M125.871 104.403C124.643 104.692 123.936 105.291 124.114 105.594C124.293 105.896 125.164 105.883 126.365 105.353C127.559 104.823 128.094 104.183 128.094 104.183C128.094 104.183 127.133 104.107 125.878 104.396L125.871 104.403Z" fill="#FAF0B6"/>
<path d="M124.251 103.591C124.615 104.726 124.45 105.587 124.093 105.587C123.743 105.587 123.318 104.864 123.181 103.639C123.043 102.414 123.332 101.678 123.332 101.678C123.332 101.678 123.881 102.428 124.251 103.591Z" fill="#FAF0B6"/>
<path d="M124.327 106.983C123.085 107.204 122.351 107.768 122.509 108.085C122.666 108.401 123.545 108.429 124.766 107.961C125.987 107.493 126.55 106.887 126.55 106.887C126.55 106.887 125.589 106.756 124.32 106.983H124.327Z" fill="#FAF0B6"/>
<path d="M122.756 106.082C123.058 107.232 122.845 108.085 122.495 108.064C122.145 108.044 121.761 107.307 121.685 106.076C121.61 104.844 121.932 104.128 121.932 104.128C121.932 104.128 122.44 104.906 122.749 106.082H122.756Z" fill="#FAF0B6"/>
<path d="M122.652 109.476C121.403 109.634 120.635 110.157 120.779 110.473C120.923 110.797 121.795 110.873 123.037 110.473C124.279 110.074 124.875 109.496 124.875 109.496C124.875 109.496 123.929 109.317 122.645 109.476H122.652Z" fill="#FAF0B6"/>
<path d="M121.122 108.498C121.362 109.661 121.109 110.5 120.759 110.466C120.409 110.425 120.066 109.668 120.059 108.436C120.052 107.204 120.409 106.502 120.409 106.502C120.409 106.502 120.875 107.3 121.122 108.498Z" fill="#FAF0B6"/>
<path d="M120.848 111.877C119.593 111.967 118.797 112.449 118.927 112.779C119.057 113.109 119.922 113.226 121.185 112.896C122.447 112.559 123.072 112.015 123.072 112.015C123.072 112.015 122.131 111.788 120.848 111.877Z" fill="#FAF0B6"/>
<path d="M119.373 110.817C119.551 111.994 119.256 112.82 118.906 112.765C118.556 112.71 118.254 111.932 118.309 110.7C118.364 109.468 118.762 108.787 118.762 108.787C118.762 108.787 119.188 109.613 119.373 110.817Z" fill="#FAF0B6"/>
<path d="M118.92 114.183C117.657 114.21 116.841 114.644 116.957 114.981C117.067 115.318 117.925 115.483 119.208 115.215C120.491 114.947 121.143 114.437 121.143 114.437C121.143 114.437 120.217 114.162 118.927 114.183H118.92Z" fill="#FAF0B6"/>
<path d="M117.507 113.047C117.623 114.231 117.287 115.036 116.944 114.967C116.601 114.898 116.34 114.1 116.457 112.875C116.574 111.65 117.006 110.989 117.006 110.989C117.006 110.989 117.383 111.836 117.507 113.047Z" fill="#FAF0B6"/>
<path d="M116.875 116.385C115.62 116.344 114.776 116.743 114.872 117.08C114.968 117.417 115.812 117.63 117.102 117.431C118.392 117.231 119.071 116.75 119.071 116.75C119.071 116.75 118.158 116.426 116.868 116.385H116.875Z" fill="#FAF0B6"/>
<path d="M115.517 115.173C115.572 116.364 115.194 117.148 114.851 117.059C114.515 116.969 114.288 116.164 114.474 114.946C114.659 113.728 115.119 113.095 115.119 113.095C115.119 113.095 115.455 113.962 115.51 115.18L115.517 115.173Z" fill="#FAF0B6"/>
<path d="M114.713 118.47C113.458 118.36 112.6 118.711 112.676 119.062C112.751 119.406 113.588 119.66 114.885 119.53C116.189 119.399 116.889 118.958 116.889 118.958C116.889 118.958 115.997 118.587 114.713 118.477V118.47Z" fill="#FAF0B6"/>
<path d="M113.424 117.197C113.424 118.387 112.998 119.151 112.662 119.041C112.326 118.931 112.148 118.119 112.395 116.908C112.642 115.703 113.136 115.091 113.136 115.091C113.136 115.091 113.424 115.972 113.417 117.19L113.424 117.197Z" fill="#FAF0B6"/>
<path d="M112.457 120.445C111.208 120.273 110.336 120.576 110.391 120.927C110.446 121.278 111.269 121.574 112.573 121.512C113.877 121.45 114.604 121.044 114.604 121.044C114.604 121.044 113.733 120.624 112.457 120.445Z" fill="#FAF0B6"/>
<path d="M111.227 119.103C111.159 120.294 110.699 121.037 110.37 120.906C110.04 120.775 109.903 119.956 110.212 118.766C110.521 117.575 111.049 116.99 111.049 116.99C111.049 116.99 111.289 117.885 111.221 119.103H111.227Z" fill="#FAF0B6"/>
<path d="M110.088 122.296C108.853 122.056 107.961 122.317 108.002 122.668C108.044 123.019 108.846 123.363 110.15 123.363C111.461 123.363 112.202 123.005 112.202 123.005C112.202 123.005 111.351 122.544 110.088 122.296Z" fill="#FAF0B6"/>
<path d="M108.943 120.892C108.812 122.076 108.311 122.792 107.989 122.647C107.666 122.502 107.577 121.677 107.948 120.5C108.318 119.323 108.874 118.772 108.874 118.772C108.874 118.772 109.073 119.681 108.936 120.892H108.943Z" fill="#FAF0B6"/>
<path d="M107.632 124.024C106.411 123.721 105.505 123.934 105.526 124.285C105.546 124.636 106.329 125.022 107.639 125.09C108.943 125.159 109.705 124.836 109.705 124.836C109.705 124.836 108.881 124.326 107.632 124.017V124.024Z" fill="#FAF0B6"/>
<path d="M106.555 122.558C106.363 123.735 105.827 124.423 105.512 124.265C105.196 124.107 105.148 123.274 105.58 122.118C106.013 120.962 106.596 120.438 106.596 120.438C106.596 120.438 106.747 121.354 106.548 122.558H106.555Z" fill="#FAF0B6"/>
<path d="M105.086 125.614C103.878 125.249 102.966 125.414 102.973 125.765C102.98 126.116 103.741 126.543 105.038 126.68C106.335 126.818 107.117 126.536 107.117 126.536C107.117 126.536 106.321 125.985 105.086 125.607V125.614Z" fill="#FAF0B6"/>
<path d="M104.091 124.099C103.838 125.262 103.268 125.923 102.966 125.751C102.664 125.572 102.657 124.739 103.145 123.61C103.639 122.482 104.249 121.986 104.249 121.986C104.249 121.986 104.352 122.909 104.091 124.099Z" fill="#FAF0B6"/>
<path d="M102.465 127.073C101.278 126.646 100.359 126.763 100.345 127.114C100.331 127.465 101.072 127.933 102.362 128.139C103.652 128.346 104.448 128.105 104.448 128.105C104.448 128.105 103.68 127.513 102.472 127.073H102.465Z" fill="#FAF0B6"/>
<path d="M101.546 125.51C101.237 126.659 100.626 127.293 100.331 127.1C100.036 126.907 100.07 126.074 100.626 124.973C101.175 123.872 101.813 123.411 101.813 123.411C101.813 123.411 101.868 124.333 101.546 125.517V125.51Z" fill="#FAF0B6"/>
<path d="M99.7689 128.393C98.6093 127.905 97.683 127.973 97.6486 128.324C97.6143 128.675 98.328 129.178 99.6111 129.453C100.887 129.728 101.69 129.529 101.69 129.529C101.69 129.529 100.956 128.896 99.7689 128.393Z" fill="#FAF0B6"/>
<path d="M98.938 126.784C98.5675 127.912 97.9294 128.511 97.6412 128.304C97.3598 128.098 97.4353 127.265 98.046 126.192C98.6498 125.118 99.3154 124.691 99.3154 124.691C99.3154 124.691 99.3154 125.62 98.938 126.777V126.784Z" fill="#FAF0B6"/>
<path d="M97.01 129.571C95.8778 129.02 94.9515 129.041 94.8966 129.385C94.8417 129.736 95.5347 130.273 96.7973 130.617C98.0599 130.961 98.8695 130.803 98.8695 130.803C98.8695 130.803 98.1696 130.135 97.01 129.571Z" fill="#FAF0B6"/>
<path d="M96.2628 127.912C95.8305 129.02 95.1649 129.585 94.8905 129.364C94.616 129.144 94.7395 128.318 95.4051 127.279C96.0638 126.24 96.75 125.848 96.75 125.848C96.75 125.848 96.7088 126.777 96.2628 127.912Z" fill="#FAF0B6"/>
<path d="M94.1905 130.596C93.0858 129.984 92.1594 129.956 92.0908 130.3C92.0222 130.644 92.6809 131.222 93.9229 131.628C95.1649 132.034 95.9883 131.924 95.9883 131.924C95.9883 131.924 95.3227 131.222 94.1974 130.596H94.1905Z" fill="#FAF0B6"/>
<path d="M93.5312 128.903C93.044 129.991 92.3441 130.521 92.0833 130.28C91.8226 130.039 91.9873 129.227 92.7009 128.222C93.4145 127.217 94.1144 126.866 94.1144 126.866C94.1144 126.866 94.0252 127.788 93.5243 128.903H93.5312Z" fill="#FAF0B6"/>
<path d="M91.3218 131.477C90.2514 130.809 89.325 130.734 89.2427 131.071C89.1535 131.415 89.7848 132.02 90.9993 132.495C92.2207 132.97 93.0441 132.894 93.0441 132.894C93.0441 132.894 92.4197 132.158 91.3218 131.477Z" fill="#FAF0B6"/>
<path d="M90.7521 129.757C90.21 130.816 89.4827 131.305 89.2357 131.057C88.9886 130.809 89.1945 129.997 89.963 129.034C90.7315 128.07 91.452 127.754 91.452 127.754C91.452 127.754 91.3148 128.669 90.7521 129.757Z" fill="#FAF0B6"/>
<path d="M88.4122 132.207C87.3761 131.484 86.4635 131.36 86.3537 131.697C86.2439 132.035 86.8408 132.675 88.0348 133.211C89.2287 133.748 90.059 133.721 90.059 133.721C90.059 133.721 89.4758 132.95 88.4122 132.213V132.207Z" fill="#FAF0B6"/>
<path d="M87.9325 130.452C87.3355 131.484 86.5876 131.931 86.3543 131.67C86.121 131.408 86.368 130.61 87.1845 129.688C88.0011 128.766 88.7353 128.49 88.7353 128.49C88.7353 128.49 88.55 129.399 87.9325 130.452Z" fill="#FAF0B6"/>
<path d="M85.4687 132.778C84.4738 132 83.5611 131.828 83.4376 132.158C83.3141 132.489 83.8768 133.163 85.0364 133.755C86.1961 134.347 87.0263 134.368 87.0263 134.368C87.0263 134.368 86.4774 133.569 85.4619 132.771L85.4687 132.778Z" fill="#FAF0B6"/>
<path d="M85.0777 131.002C84.4258 132 83.6573 132.413 83.4377 132.138C83.2181 131.862 83.5063 131.085 84.3709 130.204C85.2355 129.323 85.9834 129.089 85.9834 129.089C85.9834 129.089 85.7501 129.984 85.0845 131.009L85.0777 131.002Z" fill="#FAF0B6"/>
<path d="M82.4976 133.197C81.5438 132.372 80.6449 132.151 80.5008 132.475C80.3567 132.798 80.885 133.5 82.0172 134.154C83.1494 134.815 83.9728 134.87 83.9728 134.87C83.9728 134.87 83.4719 134.044 82.4976 133.197Z" fill="#FAF0B6"/>
<path d="M82.2022 131.408C81.5023 132.371 80.7063 132.736 80.5004 132.454C80.2946 132.165 80.624 131.401 81.5366 130.575C82.4423 129.743 83.204 129.543 83.204 129.543C83.204 129.543 82.9227 130.424 82.2022 131.408Z" fill="#FAF0B6"/>
<path d="M79.5129 133.459C78.6072 132.585 77.7152 132.316 77.5573 132.633C77.3995 132.95 77.8867 133.672 78.9846 134.395C80.0825 135.11 80.899 135.214 80.899 135.214C80.899 135.214 80.4393 134.36 79.5129 133.466V133.459Z" fill="#FAF0B6"/>
<path d="M79.3067 131.656C78.5587 132.578 77.7422 132.908 77.5569 132.612C77.3648 132.316 77.7353 131.566 78.6891 130.789C79.636 130.004 80.4045 129.846 80.4045 129.846C80.4045 129.846 80.0752 130.713 79.3067 131.656Z" fill="#FAF0B6"/>
<path d="M90.3545 20.4847C90.9515 21.5996 91.7063 22.1295 91.9602 21.8748C92.2072 21.6271 91.9602 20.7806 91.1436 19.7621C90.3202 18.7436 89.5723 18.3926 89.5723 18.3926C89.5723 18.3926 89.7438 19.3423 90.3545 20.4847Z" fill="#FAF0B6"/>
<path d="M89.9904 22.2668C90.9922 21.6199 91.8637 21.5579 91.9529 21.902C92.0421 22.2461 91.4588 22.838 90.3129 23.2853C89.167 23.7326 88.3848 23.65 88.3848 23.65C88.3848 23.65 88.9612 22.9274 89.9836 22.2668H89.9904Z" fill="#FAF0B6"/>
<path d="M93.2359 21.3102C93.7711 22.4526 94.5053 23.0238 94.7661 22.7829C95.0268 22.542 94.8278 21.6887 94.0662 20.6288C93.2977 19.569 92.5703 19.1768 92.5703 19.1768C92.5703 19.1768 92.6938 20.1402 93.2428 21.3102H93.2359Z" fill="#FAF0B6"/>
<path d="M92.7836 23.0724C93.8129 22.4806 94.6912 22.4668 94.7598 22.8109C94.8284 23.155 94.2178 23.7193 93.0513 24.1116C91.8848 24.5039 91.1094 24.3731 91.1094 24.3731C91.1094 24.3731 91.7269 23.678 92.7836 23.0724Z" fill="#FAF0B6"/>
<path d="M96.0705 22.2947C96.5439 23.4647 97.2438 24.0703 97.5183 23.85C97.7928 23.6298 97.6418 22.7627 96.9282 21.6616C96.2214 20.5605 95.5078 20.1338 95.5078 20.1338C95.5078 20.1338 95.5833 21.0973 96.0705 22.3016V22.2947Z" fill="#FAF0B6"/>
<path d="M95.528 24.0223C96.5916 23.4855 97.463 23.513 97.5179 23.864C97.5728 24.215 96.9278 24.7449 95.7476 25.0683C94.5605 25.3987 93.792 25.2266 93.792 25.2266C93.792 25.2266 94.4439 24.5659 95.528 24.0154V24.0223Z" fill="#FAF0B6"/>
<path d="M98.8562 23.416C99.2679 24.6066 99.9403 25.2535 100.222 25.047C100.503 24.8406 100.4 23.9666 99.7482 22.831C99.0963 21.6955 98.4102 21.2275 98.4102 21.2275C98.4102 21.2275 98.4307 22.1979 98.8562 23.416Z" fill="#FAF0B6"/>
<path d="M98.2177 25.123C99.3019 24.6413 100.173 24.717 100.208 25.068C100.242 25.419 99.5763 25.9145 98.3755 26.176C97.1747 26.4375 96.4199 26.231 96.4199 26.231C96.4199 26.231 97.1061 25.6048 98.2177 25.1162V25.123Z" fill="#FAF0B6"/>
<path d="M101.573 24.6896C101.923 25.9008 102.554 26.5821 102.849 26.3894C103.144 26.1967 103.083 25.3227 102.492 24.1528C101.902 22.9828 101.244 22.4805 101.244 22.4805C101.244 22.4805 101.216 23.4508 101.573 24.6896Z" fill="#FAF0B6"/>
<path d="M100.846 26.3551C101.957 25.9353 102.822 26.0523 102.836 26.4033C102.856 26.7543 102.156 27.2154 100.949 27.415C99.7342 27.6145 98.9932 27.3668 98.9932 27.3668C98.9932 27.3668 99.7068 26.7818 100.846 26.3483V26.3551Z" fill="#FAF0B6"/>
<path d="M104.222 26.1008C104.51 27.3327 105.107 28.0416 105.409 27.8626C105.711 27.6837 105.697 26.8097 105.169 25.6053C104.64 24.4079 104.002 23.8711 104.002 23.8711C104.002 23.8711 103.927 24.8346 104.215 26.094L104.222 26.1008Z" fill="#FAF0B6"/>
<path d="M103.412 27.7245C104.545 27.3598 105.402 27.5249 105.402 27.8828C105.402 28.2338 104.682 28.6604 103.46 28.7981C102.239 28.9357 101.505 28.6467 101.505 28.6467C101.505 28.6467 102.253 28.0961 103.412 27.7245Z" fill="#FAF0B6"/>
<path d="M106.789 27.6487C107.008 28.8943 107.571 29.6307 107.887 29.4724C108.202 29.3072 108.23 28.4332 107.763 27.2083C107.296 25.9833 106.693 25.4189 106.693 25.4189C106.693 25.4189 106.562 26.3824 106.789 27.6556V27.6487Z" fill="#FAF0B6"/>
<path d="M105.896 29.2317C107.042 28.9289 107.893 29.1422 107.872 29.4932C107.852 29.8442 107.117 30.2296 105.889 30.3053C104.661 30.381 103.947 30.0575 103.947 30.0575C103.947 30.0575 104.723 29.5483 105.896 29.2386V29.2317Z" fill="#FAF0B6"/>
<path d="M109.279 29.3352C109.437 30.5877 109.958 31.3585 110.274 31.214C110.59 31.0695 110.672 30.1955 110.274 28.9498C109.876 27.7042 109.3 27.1055 109.3 27.1055C109.3 27.1055 109.121 28.0552 109.279 29.3421V29.3352Z" fill="#FAF0B6"/>
<path d="M108.304 30.8622C109.464 30.6213 110.301 30.8759 110.267 31.2269C110.233 31.5779 109.471 31.922 108.243 31.9289C107.014 31.9358 106.314 31.5779 106.314 31.5779C106.314 31.5779 107.11 31.1099 108.304 30.8622Z" fill="#FAF0B6"/>
<path d="M111.674 31.1448C111.763 32.4042 112.244 33.2025 112.573 33.0717C112.902 32.941 113.019 32.0739 112.69 30.8076C112.353 29.5413 111.811 28.915 111.811 28.915C111.811 28.915 111.585 29.8579 111.674 31.1448Z" fill="#FAF0B6"/>
<path d="M110.617 32.6241C111.79 32.4452 112.614 32.7411 112.559 33.0921C112.504 33.4431 111.729 33.7459 110.5 33.6908C109.272 33.6358 108.593 33.2366 108.593 33.2366C108.593 33.2366 109.416 32.8099 110.617 32.6241Z" fill="#FAF0B6"/>
<path d="M113.973 33.0784C114 34.3447 114.433 35.1636 114.769 35.0466C115.105 34.9296 115.27 34.0763 115.002 32.7893C114.734 31.5024 114.227 30.8486 114.227 30.8486C114.227 30.8486 113.952 31.7777 113.973 33.0715V33.0784Z" fill="#FAF0B6"/>
<path d="M112.841 34.4963C114.021 34.3793 114.824 34.7165 114.755 35.0606C114.687 35.4047 113.891 35.6662 112.669 35.5493C111.448 35.4323 110.789 34.9987 110.789 34.9987C110.789 34.9987 111.633 34.6202 112.841 34.4963Z" fill="#FAF0B6"/>
<path d="M116.161 35.13C116.12 36.3894 116.518 37.2358 116.854 37.1395C117.19 37.0431 117.403 36.1967 117.204 34.9029C117.005 33.609 116.525 32.9277 116.525 32.9277C116.525 32.9277 116.202 33.843 116.161 35.1368V35.13Z" fill="#FAF0B6"/>
<path d="M114.961 36.4849C116.148 36.4298 116.93 36.8083 116.841 37.1524C116.752 37.4896 115.949 37.7167 114.734 37.5309C113.52 37.3451 112.889 36.884 112.889 36.884C112.889 36.884 113.753 36.5468 114.968 36.4917L114.961 36.4849Z" fill="#FAF0B6"/>
<path d="M118.247 37.29C118.137 38.5494 118.487 39.4096 118.837 39.3339C119.18 39.2582 119.434 38.4186 119.304 37.1179C119.173 35.8104 118.734 35.1084 118.734 35.1084C118.734 35.1084 118.364 36.0031 118.254 37.29H118.247Z" fill="#FAF0B6"/>
<path d="M116.978 38.584C118.165 38.584 118.926 39.0107 118.817 39.3479C118.707 39.6851 117.897 39.864 116.689 39.6163C115.482 39.3685 114.878 38.873 114.878 38.873C114.878 38.873 115.756 38.584 116.971 38.5909L116.978 38.584Z" fill="#FAF0B6"/>
<path d="M120.217 39.5613C120.045 40.8138 120.347 41.6878 120.697 41.6327C121.047 41.5777 121.342 40.7519 121.28 39.4443C121.218 38.1367 120.813 37.4072 120.813 37.4072C120.813 37.4072 120.395 38.2812 120.217 39.5613Z" fill="#FAF0B6"/>
<path d="M118.879 40.7867C120.066 40.8556 120.807 41.3166 120.677 41.647C120.546 41.9773 119.73 42.115 118.543 41.8053C117.356 41.4956 116.772 40.9657 116.772 40.9657C116.772 40.9657 117.664 40.7248 118.879 40.7936V40.7867Z" fill="#FAF0B6"/>
<path d="M122.063 41.936C121.823 43.1748 122.083 44.0694 122.433 44.0282C122.783 43.9869 123.126 43.1817 123.126 41.8741C123.126 40.5665 122.77 39.8164 122.77 39.8164C122.77 39.8164 122.31 40.6698 122.063 41.936Z" fill="#FAF0B6"/>
<path d="M120.663 43.0855C121.843 43.2162 122.557 43.7186 122.413 44.0421C122.269 44.3655 121.445 44.455 120.272 44.0834C119.099 43.7117 118.55 43.1543 118.55 43.1543C118.55 43.1543 119.456 42.9547 120.663 43.0924V43.0855Z" fill="#FAF0B6"/>
<path d="M123.785 44.3996C123.483 45.6246 123.696 46.533 124.046 46.5124C124.396 46.4917 124.78 45.7072 124.849 44.3928C124.917 43.0852 124.595 42.3213 124.595 42.3213C124.595 42.3213 124.087 43.1471 123.778 44.3996H123.785Z" fill="#FAF0B6"/>
<path d="M122.323 45.4732C123.497 45.6659 124.183 46.2027 124.025 46.5193C123.867 46.8359 123.037 46.884 121.884 46.4505C120.731 46.0169 120.21 45.432 120.21 45.432C120.21 45.432 121.123 45.2806 122.323 45.4801V45.4732Z" fill="#FAF0B6"/>
<path d="M125.37 46.9462C125.006 48.1575 125.171 49.0728 125.521 49.0659C125.871 49.0659 126.296 48.2951 126.433 46.9944C126.571 45.6937 126.289 44.9092 126.289 44.9092C126.289 44.9092 125.74 45.7075 125.363 46.9462H125.37Z" fill="#FAF0B6"/>
<path d="M123.86 47.9508C125.02 48.2055 125.679 48.7767 125.507 49.0795C125.336 49.3823 124.499 49.3892 123.373 48.9005C122.248 48.405 121.754 47.7926 121.754 47.7926C121.754 47.7926 122.673 47.6893 123.86 47.9508Z" fill="#FAF0B6"/>
<path d="M126.825 49.5817C126.399 50.7722 126.516 51.6944 126.866 51.7082C127.216 51.7219 127.683 50.9787 127.888 49.6849C128.094 48.3911 127.854 47.5928 127.854 47.5928C127.854 47.5928 127.264 48.3635 126.825 49.5748V49.5817Z" fill="#FAF0B6"/>
<path d="M125.267 50.4966C126.413 50.8062 127.044 51.4187 126.852 51.7147C126.66 52.0106 125.829 51.9762 124.731 51.4187C123.634 50.8682 123.174 50.2282 123.174 50.2282C123.174 50.2282 124.093 50.1731 125.274 50.4966H125.267Z" fill="#FAF0B6"/>
<path d="M128.142 52.2795C127.655 53.4425 127.724 54.3716 128.074 54.406C128.424 54.4404 128.924 53.7247 129.199 52.4378C129.473 51.1577 129.274 50.3525 129.274 50.3525C129.274 50.3525 128.643 51.0889 128.142 52.2795Z" fill="#FAF0B6"/>
<path d="M126.536 53.1187C127.661 53.4904 128.258 54.1304 128.053 54.4194C127.847 54.7016 127.017 54.6259 125.946 54.0134C124.876 53.4009 124.45 52.7402 124.45 52.7402C124.45 52.7402 125.377 52.7402 126.529 53.1187H126.536Z" fill="#FAF0B6"/>
<path d="M129.316 55.0525C128.767 56.188 128.787 57.1171 129.13 57.1721C129.48 57.2272 130.016 56.5321 130.359 55.2659C130.702 53.9996 130.544 53.1875 130.544 53.1875C130.544 53.1875 129.878 53.8895 129.316 55.0525Z" fill="#FAF0B6"/>
<path d="M127.662 55.8031C128.767 56.2366 129.329 56.9042 129.11 57.1795C128.89 57.4547 128.067 57.3309 127.031 56.6633C125.995 56.0026 125.604 55.3145 125.604 55.3145C125.604 55.3145 126.53 55.3557 127.662 55.8031Z" fill="#FAF0B6"/>
<path d="M130.338 57.8744C129.727 58.9824 129.7 59.9114 130.043 59.9802C130.386 60.0491 130.962 59.3884 131.367 58.1428C131.772 56.8971 131.662 56.0713 131.662 56.0713C131.662 56.0713 130.962 56.7388 130.338 57.8675V57.8744Z" fill="#FAF0B6"/>
<path d="M128.65 58.542C129.734 59.0306 130.263 59.7326 130.023 59.9941C129.789 60.2556 128.973 60.0904 127.971 59.3747C126.969 58.659 126.619 57.957 126.619 57.957C126.619 57.957 127.539 58.0465 128.65 58.5489V58.542Z" fill="#FAF0B6"/>
<path d="M131.216 60.7508C130.551 61.8244 130.475 62.7535 130.811 62.836C131.148 62.9186 131.758 62.2924 132.232 61.0743C132.705 59.8493 132.63 59.0234 132.63 59.0234C132.63 59.0234 131.896 59.6497 131.216 60.7508Z" fill="#FAF0B6"/>
<path d="M129.494 61.3289C130.551 61.8726 131.038 62.6021 130.791 62.8498C130.544 63.0976 129.734 62.8911 128.773 62.1203C127.813 61.3496 127.497 60.627 127.497 60.627C127.497 60.627 128.41 60.7646 129.494 61.3289Z" fill="#FAF0B6"/>
<path d="M131.944 63.6761C131.223 64.7153 131.1 65.6306 131.436 65.7407C131.772 65.8508 132.41 65.252 132.946 64.0546C133.481 62.8571 133.453 62.0244 133.453 62.0244C133.453 62.0244 132.685 62.6094 131.951 63.6761H131.944Z" fill="#FAF0B6"/>
<path d="M130.194 64.1577C131.223 64.7565 131.669 65.5066 131.408 65.7406C131.148 65.9746 130.352 65.7268 129.432 64.9079C128.513 64.0889 128.238 63.3525 128.238 63.3525C128.238 63.3525 129.144 63.5384 130.194 64.1577Z" fill="#FAF0B6"/>
<path d="M132.513 66.6286C131.737 67.6265 131.566 68.5418 131.895 68.6657C132.225 68.7895 132.897 68.2252 133.487 67.0622C134.084 65.8922 134.098 65.0664 134.098 65.0664C134.098 65.0664 133.302 65.617 132.506 66.6355L132.513 66.6286Z" fill="#FAF0B6"/>
<path d="M130.743 67.0139C131.737 67.6677 132.149 68.4384 131.875 68.6587C131.6 68.8789 130.825 68.5899 129.947 67.7227C129.068 66.8556 128.835 66.1055 128.835 66.1055C128.835 66.1055 129.727 66.3395 130.749 67.007L130.743 67.0139Z" fill="#FAF0B6"/>
<path d="M132.931 69.6007C132.108 70.5573 131.888 71.4588 132.211 71.6034C132.533 71.7479 133.233 71.218 133.885 70.0824C134.544 68.9469 134.599 68.1211 134.599 68.1211C134.599 68.1211 133.775 68.6235 132.931 69.6007Z" fill="#FAF0B6"/>
<path d="M131.148 69.9042C132.108 70.6061 132.472 71.4044 132.191 71.6109C131.909 71.8174 131.141 71.487 130.317 70.5717C129.487 69.6633 129.288 68.8994 129.288 68.8994C129.288 68.8994 130.166 69.1816 131.148 69.9042Z" fill="#FAF0B6"/>
<path d="M133.192 72.6021C132.321 73.5105 132.053 74.4051 132.369 74.5634C132.685 74.7217 133.405 74.2331 134.126 73.132C134.839 72.0309 134.942 71.2119 134.942 71.2119C134.942 71.2119 134.091 71.673 133.199 72.6021H133.192Z" fill="#FAF0B6"/>
<path d="M131.394 72.8013C132.314 73.5514 132.643 74.3704 132.348 74.5562C132.053 74.7489 131.305 74.3773 130.53 73.4207C129.748 72.471 129.59 71.7002 129.59 71.7002C129.59 71.7002 130.454 72.0305 131.394 72.8013Z" fill="#FAF0B6"/>
<path d="M82.3812 154.986L81.0775 153.678C81.6264 152.784 81.9009 151.751 81.9009 150.582C81.9009 147.278 79.2934 144.663 75.9997 144.663C72.7061 144.663 70.0986 147.347 70.0986 150.582C70.0986 153.816 72.7061 156.5 75.9997 156.5C77.3035 156.5 78.47 156.087 79.4306 155.33L80.6658 156.5L82.3812 154.986ZM76.0684 154.16C74.0785 154.16 72.4316 152.577 72.4316 150.513C72.4316 148.448 74.0098 146.865 76.0684 146.865C78.1269 146.865 79.7051 148.448 79.7051 150.513C79.7051 150.994 79.6365 151.407 79.4306 151.889L79.362 151.82H75.9997L77.8524 153.678C77.2349 153.954 76.7545 154.16 76.0684 154.16Z" fill="#FAF0B6"/>
<path d="M36.2837 140.424L35.1035 139.674L38.7814 133.852L39.9548 134.602L36.2769 140.424H36.2837Z" fill="#FAF0B6"/>
<path d="M32.0565 137.636L30.938 136.769L31.4801 132.33C31.535 131.897 31.686 131.27 31.686 131.27L31.6722 131.257C31.6722 131.257 31.2674 131.842 30.9723 132.227L28.7697 135.083L27.6855 134.243L31.8918 128.8L32.9554 129.626L32.4819 134.071C32.4339 134.498 32.2898 135.124 32.2898 135.124L32.3035 135.138C32.3035 135.138 32.7152 134.546 33.0103 134.161L35.1786 131.353L36.2628 132.193L32.0565 137.636Z" fill="#FAF0B6"/>
<path d="M25.0851 131.966L21.1465 128.085L21.9699 127.245L23.4452 128.697L27.4387 124.623L28.4337 125.6L24.4401 129.674L25.9154 131.126L25.092 131.966H25.0851Z" fill="#FAF0B6"/>
<path d="M18.8821 125.538L15.7051 121.601L16.6177 120.865L18.9164 123.721L20.1103 122.751L18.093 120.252L18.9781 119.53L20.9955 122.028L22.4365 120.858L20.1172 117.981L21.0229 117.252L24.2137 121.209L18.8752 125.538H18.8821Z" fill="#FAF0B6"/>
<path d="M13.5921 118.649L11.911 115.979C11.2042 114.857 11.3826 113.694 12.3502 113.082C13.0295 112.648 13.75 112.641 14.4293 113.261L14.4567 113.247C14.2714 112.614 14.4087 112.139 15.0674 111.616C15.8359 111.017 16.4809 110.652 16.4466 110.391L16.5015 110.356L17.2151 111.492C17.2426 111.678 16.6044 112.104 16.0075 112.552C15.4036 112.999 15.2733 113.584 15.733 114.32L16.3368 115.27L18.6698 113.797L19.4109 114.981L13.599 118.656L13.5921 118.649ZM15.4174 115.848L14.6283 114.596C14.2234 113.949 13.6882 113.846 13.2285 114.135C12.755 114.431 12.5972 114.954 12.9952 115.58L13.8048 116.867L15.4242 115.841L15.4174 115.848Z" fill="#FAF0B6"/>
<path d="M8.97375 110.886L8.36992 109.606L10.8539 105.89C11.1009 105.532 11.5195 105.043 11.5195 105.043V105.03C11.5195 105.03 10.8882 105.367 10.449 105.573L7.19656 107.115L6.60645 105.869L12.8163 102.924L13.3927 104.142L10.9637 107.893C10.7304 108.25 10.3118 108.746 10.3118 108.746V108.767C10.3118 108.767 10.9568 108.423 11.3891 108.216L14.5935 106.695L15.1768 107.941L8.96689 110.886H8.97375Z" fill="#FAF0B6"/>
<path d="M4.61694 100.516L4.16406 99.1392L9.93481 94.6797L10.3877 96.063L9.1457 96.9576L9.92108 99.3181L11.4513 99.2906L11.8904 100.639L4.61694 100.516ZM8.80262 99.3456L8.23309 97.6183L6.54509 98.8226C6.23632 99.0497 5.62562 99.4213 5.62562 99.4213V99.442C5.62562 99.442 6.33924 99.3869 6.7235 99.3869L8.79575 99.3525L8.80262 99.3456Z" fill="#FAF0B6"/>
<path d="M2.89404 94.8719L1.72754 89.4558L2.87345 89.208L3.30575 91.2313L8.8775 90.027L9.17255 91.3965L3.60766 92.6008L4.03995 94.6241L2.89404 94.8719Z" fill="#FAF0B6"/>
<path d="M1.26822 86.1868L1.09668 84.7967L7.91727 83.9502L8.08882 85.3335L1.27509 86.1799L1.26822 86.1868Z" fill="#FAF0B6"/>
<path d="M4.21159 81.349C2.15992 81.4316 0.581718 80.1997 0.499377 78.1696C0.417035 76.1394 1.89231 74.7974 3.95084 74.7217C6.00251 74.6391 7.56699 75.8641 7.64934 77.8943C7.73168 79.9245 6.26326 81.2733 4.21159 81.3559V81.349ZM4.00574 76.1394C2.63339 76.1944 1.5904 76.8482 1.63843 78.1145C1.68646 79.3808 2.77748 79.9795 4.14984 79.9245C5.50846 79.8694 6.55145 79.1881 6.50342 77.9218C6.45539 76.6624 5.36437 76.0843 4.00574 76.1394Z" fill="#FAF0B6"/>
<path d="M0.705104 71.2391L0.842339 69.8283L4.88392 67.9289C5.2819 67.7431 5.88574 67.5435 5.88574 67.5435V67.5228C5.88574 67.5228 5.17897 67.4884 4.69865 67.4403L1.10995 67.0824L1.24718 65.7129L8.0815 66.3942L7.95113 67.7362L3.94386 69.6975C3.5596 69.8834 2.9489 70.0898 2.9489 70.0898V70.1105C2.9489 70.1105 3.66939 70.1449 4.14285 70.193L7.6698 70.544L7.53256 71.9135L0.698242 71.2322L0.705104 71.2391Z" fill="#FAF0B6"/>
<path d="M2.2969 60.0835L2.61254 58.6726L9.84484 57.8262L9.52234 59.2439L7.99903 59.3746L7.45009 61.7971L8.77441 62.561L8.45877 63.9442L2.29004 60.0835H2.2969ZM6.48944 61.2396L6.88742 59.4641L4.82203 59.6292C4.43777 59.6636 3.73101 59.6705 3.73101 59.6705V59.6912C3.73101 59.6912 4.36229 60.0146 4.69166 60.2073L6.48944 61.2465V61.2396Z" fill="#FAF0B6"/>
<path d="M4.11523 53.1533L4.57497 51.832L9.96146 53.7245L11.0319 50.6689L12.1298 51.0543L10.5996 55.4313L4.11523 53.1533Z" fill="#FAF0B6"/>
<path d="M8.67188 41.9361L9.96875 39.5825C10.8539 37.9721 12.7203 37.6487 14.4975 38.6328C15.4719 39.1765 16.1512 39.9748 16.3296 40.9038C16.4531 41.5576 16.3433 42.2527 15.9248 43.0166L14.6828 45.267L8.67188 41.9361ZM14.8269 42.5211C15.4582 41.3718 15.0053 40.5391 13.8113 39.8784C12.6174 39.2178 11.4989 39.2797 10.9225 40.3189L10.3805 41.2961L14.2985 43.4708L14.82 42.528L14.8269 42.5211Z" fill="#FAF0B6"/>
<path d="M13.3311 33.9943L16.2748 29.8789L17.2285 30.5671L15.0945 33.547L16.3434 34.4485L18.2166 31.8334L19.143 32.5009L17.2697 35.1161L18.7793 36.2034L20.927 33.196L21.874 33.8773L18.9097 38.0203L13.3311 34.0012V33.9943Z" fill="#FAF0B6"/>
<path d="M21.8323 30.5333L22.7518 29.5216C23.4242 30.0102 23.9869 29.8795 24.6456 29.15C25.1259 28.6201 25.3592 27.9938 24.8926 27.5603C24.3986 27.1061 23.8565 27.4983 22.9714 28.1108C21.9352 28.8334 20.9403 29.4459 19.8836 28.4825C18.8817 27.5672 19.1082 26.2734 20.1374 25.1447C21.1804 23.9954 22.4155 23.7683 23.5066 24.6286L22.6077 25.6196C22.045 25.2066 21.4275 25.3718 20.9471 25.9017C20.4394 26.4592 20.3433 27.0372 20.707 27.3676C21.1187 27.7461 21.5647 27.4983 22.4087 26.8927C23.5889 26.0531 24.6113 25.4269 25.7023 26.4248C26.7316 27.3676 26.5532 28.7233 25.5102 29.8726C24.2545 31.2559 22.937 31.483 21.8254 30.5333H21.8323Z" fill="#FAF0B6"/>
<path d="M24.6113 20.767L25.6406 19.8242L30.2791 24.91L29.2499 25.8528L24.6113 20.767Z" fill="#FAF0B6"/>
<path d="M35.9683 19.1435L35.9546 19.1573C36.0507 20.0726 35.7007 20.685 35.0489 21.1737C34.2186 21.7999 33.3471 21.9857 32.5237 21.8275C31.6866 21.6623 30.8975 21.1461 30.2731 20.3134C29.5869 19.3981 29.3056 18.3521 29.484 17.3886C29.6212 16.6453 30.0398 15.9847 30.7808 15.4272C32.1601 14.3881 33.5256 14.5532 34.5068 15.4961L33.4158 16.315C32.8943 15.8746 32.2012 15.7989 31.4945 16.3288C30.4583 17.1133 30.5887 18.359 31.4053 19.4532C32.2493 20.5749 33.4569 20.9534 34.4039 20.2446C35.2547 19.6046 35.3371 18.5379 34.8842 17.9323L34.8636 17.9047L33.5393 18.9026L32.8943 18.0424L35.2067 16.3012L37.3956 19.2261L36.5585 19.8592L35.9683 19.1504V19.1435Z" fill="#FAF0B6"/>
<path d="M36.4209 11.6766L37.6492 10.9746L41.5329 13.1838C41.9103 13.404 42.425 13.7825 42.425 13.7825H42.4387C42.4387 13.7825 42.0544 13.17 41.8143 12.7502L40.0371 9.60514L41.231 8.92383L44.6207 14.9111L43.4542 15.5787L39.543 13.4315C39.1725 13.225 38.6441 12.8465 38.6441 12.8465H38.6304C38.6304 12.8465 39.0215 13.4659 39.2548 13.8857L41.0046 16.9757L39.8106 17.657L36.4141 11.6697L36.4209 11.6766Z" fill="#FAF0B6"/>
<path d="M50.1377 5.04912L51.4963 4.56738L56.0663 10.2519L54.7008 10.7336L53.7813 9.50862L51.4414 10.3345L51.5032 11.8691L50.172 12.344L50.1377 5.04912ZM51.4003 9.21958L53.1157 8.61397L51.8737 6.94854C51.6404 6.63885 51.2562 6.04012 51.2562 6.04012H51.2356C51.2356 6.04012 51.3042 6.75584 51.3179 7.14123L51.4003 9.21958Z" fill="#FAF0B6"/>
<path d="M56.9922 2.86045L58.3715 2.55765L61.4318 5.81969C61.7269 6.13626 62.1043 6.65929 62.1043 6.65929H62.1248C62.1248 6.65929 61.9327 5.96421 61.8298 5.49624L61.0544 1.97268L62.3924 1.67676L63.8677 8.40042L62.5571 8.68946L59.4488 5.48248C59.1537 5.17279 58.7626 4.65664 58.7626 4.65664H58.742C58.742 4.65664 58.9341 5.3586 59.037 5.82657L59.7987 9.29507L58.4607 9.591L56.9785 2.86733L56.9922 2.86045Z" fill="#FAF0B6"/>
<path d="M66.1533 1.07785L68.8225 0.823217C70.6478 0.651169 71.9652 2.01379 72.1574 4.03709C72.2603 5.15196 71.9858 6.16361 71.3202 6.83804C70.8536 7.30601 70.2155 7.60882 69.3578 7.6914L66.8052 7.93227L66.1533 1.07785ZM69.1451 6.50082C70.4419 6.37695 70.8742 5.53047 70.7438 4.16784C70.6135 2.80522 69.9342 1.91057 68.7539 2.02756L67.6423 2.13079L68.0678 6.59717L69.1382 6.49394L69.1451 6.50082Z" fill="#FAF0B6"/>
<path d="M79.3546 0.5L82.0238 0.71334C83.8559 0.857861 84.9126 2.43383 84.7548 4.45712C84.6656 5.572 84.2196 6.5217 83.4511 7.07226C82.909 7.45765 82.2297 7.64346 81.3651 7.57464L78.8057 7.37507L79.3477 0.506882L79.3546 0.5ZM81.3651 6.36342C82.6688 6.46665 83.2384 5.70963 83.3481 4.34701C83.4579 2.98438 82.9364 1.9865 81.7562 1.89015L80.6446 1.80069L80.2947 6.27395L81.3651 6.35654V6.36342Z" fill="#FAF0B6"/>
<path d="M88.4806 1.4707L93.4348 2.4617L93.2084 3.61099L89.6197 2.89527L89.3178 4.40929L92.4605 5.04243L92.234 6.16419L89.0913 5.53105L88.7277 7.35477L92.3438 8.07737L92.1174 9.21978L87.1357 8.22189L88.4806 1.4707Z" fill="#FAF0B6"/>
<path d="M95.4524 6.53579C96.0837 4.59508 97.7717 3.50085 99.6999 4.13399C101.306 4.65702 101.944 5.93018 101.676 7.22399L100.359 6.79731C100.455 6.10223 100.098 5.5035 99.3293 5.25575C98.1217 4.86348 97.2228 5.68243 96.7973 6.98312C96.3651 8.31822 96.7425 9.5088 97.8403 9.86666C98.6157 10.1213 99.3156 9.83225 99.6244 9.17158L100.921 9.59826C100.695 10.1626 100.269 10.6443 99.6999 10.9127C99.1166 11.188 98.3961 11.2568 97.4904 10.9609C95.6514 10.3622 94.8074 8.51091 95.4456 6.54268L95.4524 6.53579Z" fill="#FAF0B6"/>
<path d="M103.893 9.46767C104.778 7.60954 106.596 6.77683 108.422 7.65083C110.254 8.52484 110.748 10.4587 109.863 12.3168C108.977 14.1749 107.173 15.0008 105.348 14.1267C103.515 13.2527 103.008 11.3258 103.893 9.46078V9.46767ZM108.579 11.7043C109.17 10.4587 109.073 9.23368 107.934 8.69001C106.795 8.14633 105.759 8.83453 105.169 10.0802C104.586 11.312 104.703 12.5577 105.842 13.1013C106.974 13.645 107.989 12.9431 108.579 11.7112V11.7043Z" fill="#FAF0B6"/>
<path d="M114.405 10.9395L117.06 12.6393C118.179 13.3551 118.508 14.4837 117.89 15.4472C117.458 16.1285 116.806 16.4451 115.935 16.1698L115.921 16.1973C116.353 16.6928 116.436 17.1814 116.058 17.9316C115.619 18.8056 115.187 19.4112 115.331 19.6245L115.297 19.6796L114.171 18.957C114.068 18.7987 114.466 18.138 114.816 17.4842C115.173 16.8167 115.043 16.2317 114.315 15.7637L113.368 15.1581L111.879 17.4911L110.706 16.741L114.405 10.9326V10.9395ZM113.945 14.2566L115.194 15.0549C115.832 15.4678 116.36 15.3371 116.655 14.8691C116.957 14.4011 116.882 13.8574 116.257 13.4583L114.981 12.6393L113.952 14.2566H113.945Z" fill="#FAF0B6"/>
<path d="M123.359 17.2227L124.471 18.138L121.973 24.9993L120.855 24.0771L121.424 22.6525L119.51 21.0697L118.234 21.9161L117.143 21.0146L123.352 17.2227H123.359ZM120.45 20.4572L121.85 21.6133L122.632 19.6864C122.776 19.3285 123.092 18.6885 123.092 18.6885L123.078 18.6747C123.078 18.6747 122.508 19.1014 122.186 19.3079L120.457 20.4503L120.45 20.4572Z" fill="#FAF0B6"/>
<path d="M127.813 21.0635L131.69 25.0068L130.853 25.8327L129.405 24.3599L125.349 28.3721L124.368 27.3742L128.423 23.362L126.976 21.8893L127.813 21.0635Z" fill="#FAF0B6"/>
<path d="M133.83 27.5322L134.716 28.6127L129.418 32.9896L128.533 31.9091L133.83 27.5322Z" fill="#FAF0B6"/>
<path d="M136.993 31.5029L137.782 32.6797L135.888 36.7332C135.703 37.1255 135.36 37.6692 135.36 37.6692L135.374 37.6829C135.374 37.6829 135.943 37.2494 136.341 36.981L139.326 34.9577L140.095 36.1001L134.399 39.954L133.645 38.8391L135.477 34.7581C135.655 34.3727 135.991 33.8153 135.991 33.8153L135.978 33.8015C135.978 33.8015 135.401 34.2351 135.003 34.5103L132.066 36.4992L131.298 35.3568L136.993 31.5029Z" fill="#FAF0B6"/>
<path d="M138.976 46.5467V46.5329C138.05 46.4641 137.515 46.0168 137.144 45.2873C136.677 44.3582 136.65 43.4705 136.952 42.6791C137.261 41.8876 137.906 41.1926 138.832 40.7246C139.854 40.2084 140.925 40.119 141.838 40.4631C142.544 40.7315 143.121 41.2614 143.532 42.0872C144.308 43.6356 143.91 44.9501 142.805 45.7553L142.194 44.5372C142.716 44.1036 142.915 43.4292 142.517 42.6378C141.934 41.4747 140.685 41.3852 139.463 42.0046C138.215 42.6378 137.624 43.7664 138.16 44.8193C138.64 45.7759 139.669 46.0443 140.342 45.7002L140.376 45.6796L139.635 44.2L140.596 43.7113L141.899 46.299L138.64 47.9437L138.166 47.0078L138.969 46.5467H138.976Z" fill="#FAF0B6"/>
<path d="M147.595 52.0869L148.453 54.9842C148.679 55.7481 148.631 56.3881 148.35 56.8974C148.082 57.3791 147.629 57.7508 147.026 57.9366C145.784 58.3082 144.699 57.737 144.295 56.3468L143.814 54.7227L141.433 55.4315L141.021 54.0483L147.602 52.0869H147.595ZM144.892 54.3924L145.303 55.7756C145.509 56.4776 146.003 56.7322 146.607 56.5533C147.225 56.3675 147.458 55.8789 147.266 55.2113L146.847 53.8074L144.898 54.3855L144.892 54.3924Z" fill="#FAF0B6"/>
<path d="M149.907 60.6553L150.443 63.7728C150.669 65.0872 150.058 66.092 148.933 66.2847C148.137 66.4223 147.465 66.1539 147.08 65.3212H147.053C146.977 65.9819 146.675 66.3673 145.866 66.5944C144.926 66.8559 144.191 66.9454 144.123 67.2L144.054 67.2138L143.828 65.8924C143.876 65.7066 144.631 65.5552 145.351 65.3763C146.078 65.1905 146.422 64.7019 146.277 63.8485L146.085 62.7336L143.368 63.2016L143.135 61.8252L149.907 60.6553ZM147.156 62.5478L147.41 64.0068C147.54 64.7569 147.993 65.0597 148.528 64.9703C149.077 64.8739 149.427 64.4541 149.297 63.7246L149.036 62.2244L147.149 62.5478H147.156Z" fill="#FAF0B6"/>
<path d="M147.767 69.4711C149.818 69.3748 151.403 70.5929 151.493 72.6231C151.589 74.6533 150.12 76.0021 148.069 76.0985C146.017 76.1948 144.439 74.9836 144.35 72.9534C144.26 70.9232 145.715 69.5675 147.767 69.4711ZM148 74.6739C149.372 74.612 150.409 73.9444 150.354 72.685C150.299 71.4256 149.201 70.8269 147.829 70.8888C146.463 70.9508 145.434 71.6458 145.489 72.9052C145.544 74.1646 146.641 74.7358 148 74.667V74.6739Z" fill="#FAF0B6"/>
<path d="M151.403 79.4565L151.039 84.3771L149.859 84.2877L150.12 80.7641L148.473 80.6402L148.254 83.627L147.066 83.5375L147.286 80.5508L144.452 80.3374L144.555 78.9473L151.403 79.4565Z" fill="#FAF0B6"/>
<path d="M150.58 87.8591L149.64 92.8348L148.487 92.6146L149.166 89.0084L147.657 88.7194L147.06 91.8782L145.934 91.6649L146.531 88.506L144.713 88.1619L144.027 91.7956L142.888 91.5823L143.835 86.5791L150.58 87.8591Z" fill="#FAF0B6"/>
<path d="M144.328 94.583L143.924 95.8906C143.107 95.7323 142.654 96.0901 142.359 97.0261C142.146 97.7074 142.201 98.3818 142.805 98.5676C143.45 98.7672 143.773 98.1822 144.315 97.2532C144.946 96.159 145.598 95.1817 146.963 95.6084C148.253 96.0144 148.596 97.2807 148.137 98.7466C147.677 100.226 146.648 100.956 145.303 100.639L145.701 99.3591C146.387 99.4898 146.874 99.0838 147.087 98.4025C147.313 97.6867 147.156 97.1224 146.689 96.971C146.154 96.8059 145.859 97.2188 145.344 98.1203C144.63 99.3797 143.965 100.384 142.551 99.9372C141.22 99.5174 140.815 98.2098 141.275 96.7302C141.831 94.9477 142.936 94.1838 144.335 94.5692L144.328 94.583Z" fill="#FAF0B6"/>
<path d="M141.673 102.566L141.111 103.812C140.315 103.557 139.828 103.853 139.423 104.755C139.128 105.409 139.1 106.076 139.684 106.338C140.294 106.613 140.685 106.069 141.337 105.216C142.099 104.204 142.854 103.31 144.164 103.902C145.399 104.459 145.585 105.76 144.96 107.157C144.322 108.574 143.224 109.173 141.914 108.698L142.463 107.473C143.121 107.687 143.663 107.336 143.952 106.689C144.26 106.001 144.171 105.422 143.725 105.223C143.217 104.996 142.867 105.367 142.25 106.207C141.392 107.37 140.61 108.285 139.258 107.68C137.989 107.109 137.742 105.76 138.373 104.342C139.141 102.635 140.329 102.009 141.667 102.566H141.673Z" fill="#FAF0B6"/>
<path d="M142.044 112.703L141.357 113.921L135.381 110.529L136.067 109.311L142.044 112.703Z" fill="#FAF0B6"/>
<path d="M136.828 114.885C138.51 116.069 139.017 118.009 137.851 119.675C136.684 121.34 134.701 121.506 133.02 120.315C131.339 119.131 130.831 117.204 131.998 115.539C133.164 113.873 135.147 113.695 136.828 114.885ZM133.837 119.145C134.962 119.936 136.183 120.047 136.911 119.014C137.638 117.982 137.13 116.84 136.012 116.048C134.9 115.264 133.651 115.174 132.931 116.206C132.211 117.239 132.725 118.36 133.844 119.145H133.837Z" fill="#FAF0B6"/>
<path d="M133.59 125.056L132.636 126.102L128.265 125.201C127.84 125.111 127.229 124.905 127.229 124.905L127.215 124.919C127.215 124.919 127.764 125.373 128.121 125.696L130.783 128.133L129.857 129.151L124.786 124.506L125.692 123.508L130.07 124.341C130.488 124.423 131.099 124.623 131.099 124.623L131.113 124.609C131.113 124.609 130.557 124.148 130.2 123.825L127.586 121.43L128.512 120.411L133.583 125.056H133.59Z" fill="#FAF0B6"/>
<path d="M125.699 133.04L124.608 133.982L118.295 130.342L119.393 129.392L120.697 130.204L122.577 128.58L121.966 127.176L123.036 126.254L125.699 133.04ZM123.023 129.605L121.643 130.789L123.4 131.89C123.723 132.09 124.299 132.51 124.299 132.51L124.313 132.496C124.313 132.496 123.997 131.856 123.846 131.505L123.023 129.599V129.605Z" fill="#FAF0B6"/>
<path d="M120.134 137.52L118.982 138.304L115.777 133.569L113.108 135.386L112.456 134.423L116.278 131.821L120.134 137.526V137.52Z" fill="#FAF0B6"/>
<path d="M45.8148 62.6163V62.8847C45.1218 62.8847 44.5317 63.0773 44.0513 63.4696C43.571 63.8619 43.324 64.5088 43.324 65.4103V83.0694C43.324 83.9641 43.5779 84.6178 44.0925 85.017C44.6071 85.423 45.1767 85.6226 45.808 85.6226V85.8772H38.4521V85.6226C39.1246 85.6226 39.701 85.423 40.195 85.0308C40.6822 84.6385 40.9292 83.9778 40.9292 83.0625V65.4034C40.9292 64.4331 40.6822 63.7724 40.195 63.4146C39.7078 63.0567 39.1246 62.8778 38.4521 62.8778V62.6094H45.808L45.8148 62.6163Z" fill="#FAF0B6"/>
<path d="M48.1895 62.8846V62.6162H57.1166C58.3655 62.6162 59.5182 62.7263 60.5749 62.9397C61.6317 63.153 62.5786 63.442 63.4088 63.7999C64.246 64.1578 64.9665 64.55 65.5772 64.9767C66.1879 65.4034 66.7025 65.837 67.1211 66.2774C67.8553 67.0138 68.4797 67.8327 68.9943 68.7343C69.509 69.6358 69.8932 70.5855 70.154 71.5834C70.4079 72.5813 70.5382 73.6136 70.5382 74.6803C70.5382 75.747 70.4147 76.7517 70.1608 77.7152C69.9069 78.6718 69.5501 79.5596 69.0767 80.3785C68.6032 81.1975 68.0405 81.9338 67.3818 82.5945C66.7231 83.2552 65.9614 83.8608 65.09 84.3976C64.342 84.838 63.4912 85.1959 62.5237 85.4712C61.5562 85.7464 60.2524 85.8841 58.6056 85.8841H48.1963V85.6294H48.512C49.2393 85.6294 49.7745 85.3542 50.1313 84.8105C50.4881 84.2668 50.6666 83.6819 50.6666 83.0762V65.5135C50.6666 64.9217 50.5705 64.4262 50.3784 64.027C50.1862 63.6279 49.9255 63.3388 49.5961 63.1599C49.2736 62.981 48.9099 62.8915 48.512 62.8915H48.1963L48.1895 62.8846ZM53.0544 63.7242V82.1541C53.0544 83.0625 53.1985 83.7231 53.4867 84.1498C53.7749 84.5765 54.2209 84.8518 54.8316 84.9757C55.4423 85.0995 56.3344 85.1684 57.5077 85.1684C59.1889 85.1684 60.6024 85.0032 61.762 84.6729C62.9148 84.3425 64.0333 83.5993 65.1174 82.4569C65.9134 81.6035 66.5584 80.5643 67.0387 79.3325C67.519 78.1006 67.7661 76.6072 67.7661 74.8661C67.7661 73.4897 67.5739 72.1202 67.1828 70.7644C66.7917 69.4087 66.2016 68.2112 65.4056 67.1583C64.5136 65.9677 63.3677 65.0387 61.9679 64.3642C60.5681 63.6898 58.8801 63.3526 56.9039 63.3526C55.8884 63.3526 54.6052 63.4765 53.0613 63.7311L53.0544 63.7242Z" fill="#FAF0B6"/>
<path d="M73.3721 62.8846V62.6162H82.2992C83.5481 62.6162 84.7008 62.7263 85.7576 62.9397C86.8143 63.153 87.7612 63.442 88.5915 63.7999C89.4286 64.1578 90.1491 64.55 90.7598 64.9767C91.3705 65.4034 91.8851 65.837 92.3037 66.2774C93.0379 67.0138 93.6623 67.8327 94.1769 68.7343C94.6916 69.6358 95.0758 70.5855 95.3366 71.5834C95.5905 72.5813 95.7208 73.6136 95.7208 74.6803C95.7208 75.747 95.5973 76.7517 95.3434 77.7152C95.0896 78.6718 94.7327 79.5596 94.2593 80.3785C93.7858 81.1975 93.2232 81.9338 92.5644 82.5945C91.9057 83.2552 91.144 83.8608 90.2726 84.3976C89.5247 84.838 88.6738 85.1959 87.7063 85.4712C86.7388 85.7464 85.4351 85.8841 83.7882 85.8841H73.3789V85.6294H73.6946C74.4219 85.6294 74.9571 85.3542 75.314 84.8105C75.6708 84.2668 75.8492 83.6819 75.8492 83.0762V65.5135C75.8492 64.9217 75.7531 64.4262 75.561 64.027C75.3688 63.6279 75.1081 63.3388 74.7787 63.1599C74.4562 62.981 74.0926 62.8915 73.6946 62.8915H73.3789L73.3721 62.8846ZM78.2371 63.7242V82.1541C78.2371 83.0625 78.3812 83.7231 78.6694 84.1498C78.9575 84.5765 79.4036 84.8518 80.0143 84.9757C80.625 85.0995 81.517 85.1684 82.6903 85.1684C84.3715 85.1684 85.785 85.0032 86.9446 84.6729C88.0974 84.3425 89.2159 83.5993 90.3 82.4569C91.096 81.6035 91.741 80.5643 92.2213 79.3325C92.7017 78.1006 92.9487 76.6072 92.9487 74.8661C92.9487 73.4897 92.7566 72.1202 92.3654 70.7644C91.9743 69.4087 91.3842 68.2112 90.5882 67.1583C89.6962 65.9677 88.5503 65.0387 87.1505 64.3642C85.7507 63.6898 84.0627 63.3526 82.0865 63.3526C81.071 63.3526 79.7878 63.4765 78.2439 63.7311L78.2371 63.7242Z" fill="#FAF0B6"/>
<path d="M98.5821 62.8846V62.6162H106.185C107.454 62.6162 108.573 62.7883 109.547 63.1392C110.522 63.4902 111.324 63.9582 111.969 64.5638C112.614 65.1625 113.095 65.8438 113.417 66.594C113.74 67.3441 113.898 68.1424 113.898 68.9682C113.898 69.7941 113.747 70.558 113.452 71.315C113.15 72.0651 112.683 72.7396 112.045 73.3245C111.407 73.9095 110.563 74.3775 109.527 74.7216C108.49 75.0657 107.29 75.2446 105.938 75.2446C105.506 75.2446 104.675 75.1826 103.447 75.0519V83.0762C103.447 84.7279 104.284 85.5813 105.965 85.6363V85.891H98.5821V85.6363C99.3094 85.6157 99.8995 85.4092 100.366 85.0101C100.833 84.6178 101.066 83.9709 101.066 83.0762V65.4791C101.066 64.9423 100.984 64.495 100.812 64.1371C100.641 63.7793 100.448 63.5246 100.222 63.3732C99.9956 63.2218 99.7417 63.1048 99.4672 63.036C99.1928 62.9672 98.9938 62.9121 98.8908 62.8915H98.5752L98.5821 62.8846ZM103.447 63.442V74.405C104.257 74.5495 105.053 74.6252 105.842 74.6252C107.345 74.6252 108.614 74.2398 109.664 73.4622C110.707 72.6914 111.228 71.2531 111.228 69.1609C111.228 67.4336 110.769 66.0159 109.849 64.9079C108.93 63.7999 107.537 63.2425 105.67 63.2425C104.943 63.2425 104.209 63.3113 103.447 63.4489V63.442Z" fill="#FAF0B6"/>
</g>
<defs>
<clipPath id="clip0_7305_29722">
<rect width="151" height="156" transform="translate(0.5 0.5)"/>
</clipPath>
</defs>
</svg>
