<?xml version="1.0" encoding="utf-8"?>
<!-- Generator: Adobe Illustrator 16.0.3, SVG Export Plug-In . SVG Version: 6.00 Build 0)  -->
<!DOCTYPE svg PUBLIC "-//W3C//DTD SVG 1.1//EN" "http://www.w3.org/Graphics/SVG/1.1/DTD/svg11.dtd">
<svg version="1.1" id="Layer_1" xmlns="http://www.w3.org/2000/svg" xmlns:xlink="http://www.w3.org/1999/xlink" x="0px" y="0px"
	 width="472.756px" height="137.652px" viewBox="0 0 472.756 137.652" enable-background="new 0 0 472.756 137.652"
	 xml:space="preserve">
<path fill="#FFFFFF" d="M0.613,13.413c0.909-0.884,2.901-0.761,4.434-0.877c0.63-0.05,1.347,0.335,1.941,0.667
	c12.416,7.016,26.022,10.101,39.947,11.021c0.903,0.053,2.017-0.019,2.64,0.467c1.132,0.883,2.796,2.196,2.708,3.234
	c-0.088,1.074-2.021,2.903-3.105,2.885c-2.26-0.033-4.533-0.163-6.804-0.372c-2.276-0.202-4.542-0.501-6.768-0.91
	c-3.182-0.565-6.358-1.227-9.54-1.92c2.68,1.945,5.358,3.891,8.034,5.832c5.84,4.152,11.716,8.225,17.451,12.418
	c12.088,8.474,23.435,17.783,36.27,25.076l8.261,4.731l8.377,4.521c5.551,3.081,11.25,5.876,16.912,8.746
	c2.815,1.463,5.698,2.794,8.571,4.142l8.619,4.048l8.736,3.792l4.368,1.895c1.464,0.614,2.946,1.181,4.419,1.775l8.85,3.519
	l8.954,3.25l4.482,1.613l4.53,1.469c3.026,0.96,6.03,1.997,9.076,2.897c12.168,3.66,24.534,6.657,37.032,8.98
	c12.495,2.341,25.169,3.752,37.879,4.286c12.709,0.521,25.472,0.078,38.108-1.495c12.635-1.567,25.138-4.271,37.283-8.141
	c12.125-3.924,23.861-9.042,35.021-15.201c6.34-3.583,12.512-7.486,18.319-11.881c5.817-4.376,11.384-9.072,16.653-14.066
	c10.496-10.041,19.883-21.124,28.278-32.824c5.664-7.922,10.874-15.989,15.935-23.881c5.026-7.927,9.998-15.562,14.979-23.108
	c1.955,2.864,1.52,7.461-0.18,12.474c-1.684,5.029-4.616,10.478-7.432,15.373c-2.309,4.031-4.75,7.98-7.265,11.886
	c-2.562,3.874-5.163,7.73-7.942,11.46c-5.496,7.509-11.453,14.699-17.854,21.499c-12.78,13.608-27.37,25.674-43.454,35.367
	c-25.697,15.621-55.014,25.06-84.714,28.229l-2.783,0.319l-2.793,0.211l-5.582,0.418c-3.724,0.226-7.451,0.273-11.175,0.416
	c-3.723-0.035-7.447-0.036-11.165-0.127c-3.71-0.206-7.427-0.327-11.129-0.608c-14.808-1.127-29.474-3.422-43.868-6.699
	c-14.391-3.292-28.514-7.519-42.37-12.396c-13.883-4.822-27.409-10.518-40.712-16.621l-9.939-4.656l-9.807-4.914
	c-1.629-0.83-3.279-1.618-4.891-2.479l-4.829-2.586l-9.653-5.183c-12.716-7.168-25.337-14.504-37.604-22.378
	c-2.494-1.581-4.858-3.136-7.107-4.67c-2.247-1.535-4.322-3.134-6.327-4.666c-3.99-3.097-7.603-6.078-10.871-9.097
	c-3.241-3.057-6.194-6.07-8.968-9.088c-1.388-1.51-2.729-3.019-4.041-4.532c-0.171-0.203-0.335-0.409-0.505-0.612l-0.668,1.13
	c0.99,1.238,6.511,7.879,11.818,14.634c5.345,6.685,10.589,13.345,10.479,14.831c-0.112,1.643-0.919,4.251-1.987,4.559
	c-1.683,0.483-4.004-0.296-5.772-1.151c-1.11-0.536-1.653-2.209-2.51-3.321l-4.398-5.698l-4.294-5.78
	c-2.847-3.854-5.677-7.688-8.409-11.578C7.105,28.601,3.66,23.128,0.437,17.586C-0.192,16.506-0.148,14.146,0.613,13.413z"/>
</svg>
