<svg viewBox="0 0 20 32" fill="currentColor" xmlns="http://www.w3.org/2000/svg">
<path d="M13.039,15.162c-0.105-0.074-0.206-0.144-0.311-0.218c0.077-0.147,0.166-0.287,0.225-0.438 c0.346-0.886,0.21-1.697-0.431-2.393c-0.249-0.268-0.575-0.47-0.874-0.695c-0.439-0.33-0.889-0.648-1.332-0.971 c-0.443-0.318-0.882-0.633-1.321-0.956C8.646,9.235,8.285,8.99,7.99,8.672c-0.528-0.571-0.877-1.235-1.018-2 C6.914,6.357,6.879,6.035,6.887,5.716c0.027-0.87,0.323-1.654,0.839-2.357c0.622-0.847,1.231-1.697,1.849-2.544 c0.108-0.151,0.221-0.303,0.33-0.455c0.046-0.07,0.097-0.093,0.171-0.031c0.069,0.058,0.146,0.108,0.197,0.147 c-0.063,0.19-0.147,0.369-0.183,0.552c-0.093,0.528,0.097,0.955,0.524,1.27c0.598,0.447,1.208,0.886,1.814,1.325 c0.578,0.419,1.164,0.835,1.743,1.262c0.411,0.299,0.831,0.59,1.208,0.928c0.676,0.598,1.072,1.363,1.234,2.245 c0.191,1.037,0.012,2.02-0.547,2.917c-0.237,0.38-0.517,0.734-0.777,1.099c-0.334,0.462-0.672,0.924-1.006,1.386 c-0.399,0.548-0.792,1.099-1.191,1.651c-0.012,0.015-0.027,0.031-0.043,0.054L13.039,15.162z"/>
<path d="M10.023,19.235c-0.136-0.101-0.268-0.19-0.388-0.28c0.039-0.127,0.093-0.248,0.105-0.369 c0.027-0.291-0.097-0.516-0.334-0.687c-0.812-0.587-1.62-1.172-2.431-1.763c-0.233-0.17-0.47-0.334-0.684-0.528 C5.876,15.231,5.6,14.766,5.476,14.21c-0.059-0.249-0.085-0.489-0.082-0.742c0.008-0.575,0.187-1.095,0.517-1.561 c0.342-0.486,0.699-0.963,1.048-1.445c0.163-0.222,0.322-0.443,0.485-0.676c0.136,0.097,0.268,0.19,0.396,0.283 c-0.031,0.109-0.078,0.206-0.097,0.307c-0.055,0.307,0.062,0.547,0.307,0.726c0.56,0.412,1.119,0.815,1.682,1.224 c0.404,0.299,0.823,0.583,1.224,0.893c0.784,0.606,1.157,1.414,1.126,2.404c-0.023,0.605-0.244,1.134-0.602,1.618 c-0.346,0.463-0.68,0.937-1.018,1.402c-0.141,0.194-0.283,0.389-0.432,0.591H10.023z"/>
<path d="M11.693,28.009c0.117,0.054,0.238,0.108,0.35,0.167c0.51,0.252,0.852,0.641,0.937,1.212 c0.089,0.586,0.004,1.134-0.415,1.589c-0.287,0.314-0.656,0.484-1.061,0.594c-0.35,0.089-0.703,0.132-1.064,0.132 c-1.111,0-2.217,0-3.328,0c-0.109,0-0.136-0.031-0.136-0.136c0-2.257,0-4.514,0-6.77c0-0.035-0.011-0.074,0-0.105 c0.012-0.03,0.043-0.069,0.074-0.073c0.066-0.012,0.136-0.004,0.206-0.004h2.991c0.399,0,0.791,0.043,1.164,0.187 c0.606,0.236,1.037,0.641,1.158,1.305c0.097,0.563,0,1.092-0.42,1.515c-0.14,0.14-0.307,0.253-0.47,0.381L11.693,28.009z M8.494,28.77v1.457c0,0.144-0.035,0.147,0.148,0.147c0.551,0,1.103,0.008,1.65-0.004c0.214-0.004,0.431-0.031,0.637-0.081 c0.327-0.078,0.524-0.315,0.552-0.618c0.035-0.372-0.098-0.637-0.439-0.765c-0.197-0.078-0.423-0.117-0.637-0.125 c-0.512-0.016-1.025-0.008-1.538-0.008H8.498L8.494,28.77z M8.494,27.484c0.59,0,1.169,0.008,1.749-0.004 c0.189-0.004,0.372-0.07,0.543-0.167c0.404-0.233,0.412-0.956-0.02-1.188c-0.197-0.105-0.404-0.151-0.621-0.155 c-0.536-0.008-1.068,0-1.6,0c-0.016,0-0.031,0.004-0.047,0.008v1.511L8.494,27.484z"/>
<path d="M18.41,28.005c0.051,0.022,0.082,0.038,0.117,0.05c0.368,0.164,0.714,0.361,0.947,0.707 c0.162,0.241,0.244,0.514,0.26,0.805c0.016,0.307,0,0.613-0.116,0.904c-0.183,0.455-0.521,0.758-0.96,0.951 c-0.462,0.207-0.951,0.28-1.456,0.28c-1.118,0-2.237,0-3.359,0.004c-0.093,0-0.128-0.023-0.128-0.124 c0.004-2.288,0.004-4.576,0-6.863c0-0.081,0.027-0.101,0.101-0.101c1.126,0,2.249-0.008,3.368,0.004 c0.512,0.008,1.002,0.124,1.433,0.423c0.458,0.322,0.698,0.758,0.718,1.324c0.023,0.567-0.154,1.049-0.609,1.406 c-0.098,0.074-0.201,0.141-0.322,0.226L18.41,28.005z M16.255,28.77c-0.304,0-0.606,0-0.909-0.004c-0.108,0-0.136,0.035-0.132,0.141 c0.004,0.438,0,0.877,0,1.316c0,0.147,0,0.147,0.144,0.147c0.57,0,1.146,0.004,1.717,0c0.236,0,0.478-0.023,0.703-0.12 c0.291-0.125,0.431-0.354,0.442-0.664c0.008-0.314-0.136-0.549-0.423-0.68c-0.206-0.098-0.428-0.129-0.648-0.133 c-0.296-0.004-0.595,0-0.89,0L16.255,28.77z M16.127,25.966c-0.265,0-0.529,0.004-0.793,0c-0.097,0-0.12,0.03-0.12,0.12 c0.004,0.424,0,0.843,0,1.266c0,0.148,0,0.152,0.147,0.152c0.524,0,1.045,0.008,1.569-0.02c0.183-0.008,0.376-0.074,0.548-0.151 c0.248-0.116,0.346-0.346,0.346-0.61c0-0.264-0.105-0.47-0.342-0.605c-0.188-0.105-0.393-0.144-0.603-0.151 C16.627,25.958,16.379,25.966,16.127,25.966z"/>
<path d="M4.945,28.001c0.124,0.058,0.229,0.101,0.33,0.151c0.435,0.217,0.788,0.524,0.92,1.01 c0.155,0.563,0.12,1.115-0.202,1.615c-0.252,0.389-0.633,0.603-1.064,0.746c-0.427,0.14-0.87,0.183-1.313,0.183 c-1.076,0-2.147,0-3.223,0c-0.109,0-0.132-0.039-0.132-0.14c0.004-2.276,0.004-4.557,0-6.828c0-0.09,0.023-0.12,0.117-0.12 c1.099,0.004,2.194,0,3.293,0.004c0.497,0.004,0.975,0.101,1.406,0.372c0.517,0.326,0.789,0.793,0.804,1.414 c0.015,0.668-0.264,1.166-0.824,1.519C5.026,27.946,4.995,27.97,4.945,28.001z M2.793,28.77c-0.311,0-0.621,0-0.932,0 c-0.078,0-0.112,0.016-0.108,0.105c0.003,0.47,0,0.939,0,1.41c0,0.062,0.015,0.085,0.078,0.085c0.594,0,1.185,0.007,1.779-0.004 c0.221-0.008,0.442-0.043,0.656-0.101c0.295-0.078,0.462-0.319,0.481-0.66c0.016-0.288-0.093-0.541-0.38-0.684 c-0.21-0.105-0.435-0.141-0.665-0.148c-0.303-0.008-0.609,0-0.909,0V28.77z M1.76,27.5c0.458,0,0.905,0.004,1.348,0 c0.268,0,0.54-0.008,0.792-0.109c0.295-0.116,0.462-0.346,0.458-0.656c-0.004-0.291-0.101-0.531-0.431-0.656 c-0.167-0.063-0.35-0.101-0.528-0.104c-0.509-0.012-1.014,0-1.522-0.008c-0.089,0-0.121,0.026-0.121,0.12 c0.004,0.447,0,0.89,0,1.336c0,0.027,0.004,0.055,0.004,0.086V27.5z"/>
<path d="M3.527,21.398c0.12-0.389,0.233-0.762,0.35-1.142c0-0.008,0.003-0.012,0.003-0.02 c0.06-0.185,0.186-0.27,0.377-0.257c0.074,0.004,0.144,0.008,0.221,0.008c3.787,0,7.574,0,11.364,0c0.112,0,0.175,0.023,0.206,0.141 c0.12,0.419,0.248,0.838,0.381,1.27c-0.043,0.004-0.082,0.008-0.117,0.008c-0.994,0-1.988,0-2.982,0 c-0.09,0-0.121,0.031-0.145,0.109c-0.174,0.582-0.361,1.168-0.531,1.755c-0.027,0.093-0.074,0.128-0.176,0.128 c-1.666-0.004-3.332-0.004-5.001,0c-0.101,0-0.14-0.035-0.167-0.124c-0.179-0.595-0.365-1.185-0.544-1.778 c-0.016-0.066-0.042-0.09-0.12-0.09c-1.018,0-2.031,0-3.045,0c-0.02,0-0.035,0-0.07-0.004L3.527,21.398z"/>
</svg>
