<svg width="20" height="21" viewBox="0 0 20 21" fill="none" xmlns="http://www.w3.org/2000/svg">
<path d="M10.279 7.33299L9.99998 7.61199L9.72098 7.33299C9.46565 7.07448 9.16155 6.86923 8.8263 6.72915C8.49105 6.58906 8.13132 6.51693 7.76798 6.51693C7.40464 6.51693 7.04491 6.58906 6.70966 6.72915C6.37441 6.86923 6.0703 7.07448 5.81498 7.33299C5.55632 7.58833 5.35094 7.8925 5.21077 8.22784C5.07059 8.56318 4.99841 8.92303 4.99841 9.28649C4.99841 9.64995 5.07059 10.0098 5.21077 10.3451C5.35094 10.6805 5.55632 10.9846 5.81498 11.24L9.99998 15.426L14.186 11.24C14.4446 10.9846 14.65 10.6805 14.7902 10.3451C14.9304 10.0098 15.0025 9.64995 15.0025 9.28649C15.0025 8.92303 14.9304 8.56318 14.7902 8.22784C14.65 7.8925 14.4446 7.58833 14.186 7.33299C13.9306 7.07445 13.6264 6.86918 13.291 6.72908C12.9557 6.58899 12.5959 6.51685 12.2325 6.51685C11.8691 6.51685 11.5092 6.58899 11.1739 6.72908C10.8386 6.86918 10.5344 7.07445 10.279 7.33299Z" fill="white"/>
<path d="M10 0.5C4.486 0.5 0 4.986 0 10.5C0 16.014 4.486 20.5 10 20.5C15.514 20.5 20 16.014 20 10.5C20 4.986 15.514 0.5 10 0.5ZM10 18.5C5.589 18.5 2 14.911 2 10.5C2 6.089 5.589 2.5 10 2.5C14.411 2.5 18 6.089 18 10.5C18 14.911 14.411 18.5 10 18.5Z" fill="white"/>
</svg>
