<svg viewBox="0 0 32 32" xmlns="http://www.w3.org/2000/svg">
<path fill="currentColor" d="M27.992,4.544c-1.439-0.926-3.11-1.406-4.801-1.4c-0.839,0.004-1.687,0.128-2.515,0.383
  C19.852,3.774,19.05,4.156,18.3,4.667c-0.96,0.654-1.754,1.469-2.365,2.386c-0.052,0.075-0.098,0.147-0.14,0.226
  c-0.532,0.848-0.907,1.789-1.122,2.75c-0.067,0.313-0.119,0.63-0.156,0.97c-0.07,0.59-0.112,1.242-0.143,1.894
  c-0.005,0.133-0.012,0.274-0.016,0.408c-0.012,0.365-0.016,4.014-0.012,4.664c0.002,0.327-0.003,0.701-0.006,1.108
  c-0.001,0.09-0.003,0.188-0.005,0.283c-0.01,0.672-0.04,1.391-0.081,2.037c-0.021,0.32-0.051,0.632-0.079,0.89
  c-0.031,0.268-0.069,0.492-0.103,0.644c-0.144,0.656-0.407,1.286-0.782,1.851c-0.377,0.564-0.865,1.068-1.463,1.477
  c-0.413,0.281-0.849,0.494-1.293,0.648c-0.227,0.078-0.459,0.14-0.696,0.185c-1.036,0.211-2.113,0.109-3.083-0.28
  c-0.488-0.193-0.949-0.457-1.367-0.788c-0.413-0.336-0.792-0.729-1.11-1.199c-0.424-0.621-0.696-1.292-0.838-1.985
  c-0.207-1.038-0.102-2.11,0.284-3.085c0.195-0.49,0.461-0.944,0.793-1.363c0.331-0.418,0.726-0.794,1.194-1.114
  c0.603-0.403,1.246-0.676,1.91-0.82c0.666-0.139,1.348-0.156,2.007-0.051c0.155,0.025,0.382,0.076,0.639,0.14
  c0.453,0.124,1.011,0.299,1.582,0.494c0.226,0.078,0.452,0.157,0.68,0.243c0.003-0.962,0.006-2.65,0.013-3.526
  c-0.134-0.046-0.268-0.091-0.402-0.137c-0.351-0.111-0.694-0.213-1.024-0.296c-0.334-0.088-0.643-0.158-0.959-0.21
  c-1.061-0.169-2.162-0.146-3.233,0.083c-1.076,0.233-2.126,0.673-3.086,1.328c-0.997,0.679-1.815,1.531-2.434,2.495
  C0.471,18.445-0.005,20.112,0,21.802c0.004,0.841,0.132,1.693,0.379,2.519c0.255,0.827,0.633,1.625,1.143,2.374
  c0.68,0.999,1.531,1.815,2.487,2.435c1.443,0.93,3.109,1.407,4.794,1.402c0.845-0.007,1.693-0.131,2.523-0.381
  c0.823-0.252,1.625-0.635,2.375-1.144c0.959-0.655,1.754-1.471,2.365-2.386c0.606-0.912,1.027-1.926,1.261-2.97l0.002-0.008
  c0.07-0.309,0.115-0.628,0.153-0.97c0.072-0.59,0.115-1.242,0.145-1.895c0.003-0.132,0.016-0.271,0.019-0.404
  c0.01-0.368,0.013-5.367,0.016-5.774c0.002-0.09,0.004-0.187,0.005-0.284c0.013-0.667,0.041-1.391,0.083-2.037
  c0.02-0.322,0.049-0.63,0.078-0.89c0.031-0.268,0.068-0.493,0.102-0.646c0.146-0.653,0.41-1.28,0.782-1.849
  c0.093-0.138,0.19-0.266,0.292-0.397c0.329-0.402,0.721-0.765,1.173-1.079c0.625-0.419,1.298-0.7,1.988-0.833
  c1.035-0.211,2.113-0.11,3.082,0.279c0.49,0.195,0.949,0.458,1.366,0.79c0.42,0.332,0.793,0.729,1.112,1.197
  c0.426,0.624,0.699,1.3,0.837,1.986c0.207,1.038,0.105,2.116-0.283,3.087c-0.193,0.489-0.458,0.948-0.792,1.362
  c-0.328,0.415-0.728,0.796-1.195,1.115c-0.599,0.407-1.245,0.676-1.909,0.82c-0.662,0.144-1.347,0.155-2.008,0.051
  c-0.153-0.025-0.381-0.077-0.638-0.141c-0.452-0.119-1.012-0.299-1.582-0.493c-0.229-0.076-0.459-0.161-0.688-0.246
  c0.002,0.082,0.002,0.165,0.002,0.253c-0.002,1.659-0.001,2.707-0.003,3.278c0.134,0.048,0.266,0.087,0.398,0.135
  c0.35,0.109,0.694,0.212,1.024,0.295c0.329,0.092,0.648,0.164,0.96,0.21c1.06,0.17,2.163,0.146,3.233-0.083
  c1.075-0.233,2.126-0.674,3.085-1.327c0.997-0.68,1.817-1.529,2.435-2.486c0.93-1.441,1.404-3.108,1.399-4.799
  c-0.004-0.84-0.124-1.691-0.379-2.519c-0.251-0.822-0.633-1.625-1.144-2.375C29.798,5.98,28.948,5.163,27.992,4.544z"/>
</svg>
