<svg width="68" height="68" viewBox="0 0 68 68" fill="none" xmlns="http://www.w3.org/2000/svg">
<path d="M8.5 8.5V56.6667C8.5 57.4181 8.79851 58.1388 9.32986 58.6701C9.86122 59.2015 10.5819 59.5 11.3333 59.5H59.5V53.8333H14.1667V8.5H8.5Z" fill="#D9D9D9"/>
<path d="M8.5 8.5V56.6667C8.5 57.4181 8.79851 58.1388 9.32986 58.6701C9.86122 59.2015 10.5819 59.5 11.3333 59.5H59.5V53.8333H14.1667V8.5H8.5Z" fill="#23D7BC"/>
<path d="M43.3303 41.6697C43.5931 41.9331 43.9054 42.142 44.2491 42.2846C44.5928 42.4271 44.9613 42.5005 45.3334 42.5005C45.7055 42.5005 46.074 42.4271 46.4177 42.2846C46.7614 42.142 47.0737 41.9331 47.3366 41.6697L61.5033 27.5031L57.4969 23.4967L45.3334 35.6602L38.8366 29.1634C38.5737 28.9001 38.2614 28.6911 37.9177 28.5486C37.574 28.406 37.2055 28.3327 36.8334 28.3327C36.4613 28.3327 36.0928 28.406 35.7491 28.5486C35.4054 28.6911 35.0931 28.9001 34.8303 29.1634L20.6636 43.3301L24.6699 47.3364L36.8334 35.1729L43.3303 41.6697Z" fill="#D9D9D9"/>
<path d="M43.3303 41.6697C43.5931 41.9331 43.9054 42.142 44.2491 42.2846C44.5928 42.4271 44.9613 42.5005 45.3334 42.5005C45.7055 42.5005 46.074 42.4271 46.4177 42.2846C46.7614 42.142 47.0737 41.9331 47.3366 41.6697L61.5033 27.5031L57.4969 23.4967L45.3334 35.6602L38.8366 29.1634C38.5737 28.9001 38.2614 28.6911 37.9177 28.5486C37.574 28.406 37.2055 28.3327 36.8334 28.3327C36.4613 28.3327 36.0928 28.406 35.7491 28.5486C35.4054 28.6911 35.0931 28.9001 34.8303 29.1634L20.6636 43.3301L24.6699 47.3364L36.8334 35.1729L43.3303 41.6697Z" fill="#23D7BC"/>
</svg>
