<svg viewBox="0 0 28 29" fill="none" xmlns="http://www.w3.org/2000/svg">
<path d="M12.0837 24.2501C14.6722 24.2495 17.1861 23.383 19.2251 21.7884L25.636 28.1992L27.698 26.1372L21.2872 19.7263C22.8826 17.6871 23.7497 15.1726 23.7503 12.5834C23.7503 6.15071 18.5164 0.916748 12.0837 0.916748C5.65095 0.916748 0.416992 6.15071 0.416992 12.5834C0.416992 19.0161 5.65095 24.2501 12.0837 24.2501ZM12.0837 3.83341C16.9093 3.83341 20.8337 7.75779 20.8337 12.5834C20.8337 17.409 16.9093 21.3334 12.0837 21.3334C7.25803 21.3334 3.33366 17.409 3.33366 12.5834C3.33366 7.75779 7.25803 3.83341 12.0837 3.83341Z" fill="currentColor"/>
</svg>
