<svg viewBox="0 0 49 48" fill="none" xmlns="http://www.w3.org/2000/svg">
<path d="M24.3361 28C28.7481 28 32.3361 24.412 32.3361 20C32.3361 15.588 28.7481 12 24.3361 12C19.9241 12 16.3361 15.588 16.3361 20C16.3361 24.412 19.9241 28 24.3361 28ZM24.3361 16C26.5421 16 28.3361 17.794 28.3361 20C28.3361 22.206 26.5421 24 24.3361 24C22.1301 24 20.3361 22.206 20.3361 20C20.3361 17.794 22.1301 16 24.3361 16Z" fill="#BCBCCB"/>
<path d="M23.1761 43.628C23.5146 43.8697 23.9202 43.9997 24.3361 43.9997C24.7521 43.9997 25.1576 43.8697 25.4961 43.628C26.1041 43.198 40.3941 32.88 40.3361 20C40.3361 11.178 33.1581 4 24.3361 4C15.5141 4 8.33611 11.178 8.33611 19.99C8.27811 32.88 22.5681 43.198 23.1761 43.628ZM24.3361 8C30.9541 8 36.3361 13.382 36.3361 20.01C36.3781 28.886 27.5601 36.856 24.3361 39.47C21.1141 36.854 12.2941 28.882 12.3361 20C12.3361 13.382 17.7181 8 24.3361 8Z" fill="#BCBCCB"/>
</svg>
