<svg viewBox="0 0 32 32" xmlns="http://www.w3.org/2000/svg" fill="currentColor">
<path d="M0,28.799h32v3.202H0V28.799z M3.2,1.6v22.399c0,0.426,0.168,0.832,0.469,1.132C3.968,25.432,4.375,25.6,4.8,25.6h8 c0.425,0,0.831-0.168,1.131-0.469c0.3-0.3,0.469-0.706,0.469-1.132V1.6c0-0.424-0.169-0.831-0.469-1.131 C13.631,0.168,13.225,0,12.8,0h-8C4.375,0,3.968,0.168,3.668,0.468C3.368,0.769,3.2,1.176,3.2,1.6z M6.4,3.2h4.8v19.2H6.4V3.2z M17.6,23.999c0,0.426,0.169,0.832,0.469,1.132c0.3,0.301,0.707,0.469,1.131,0.469H27.2c0.425,0,0.83-0.168,1.131-0.469	c0.3-0.3,0.469-0.706,0.469-1.132V8c0-0.424-0.169-0.832-0.469-1.131C28.03,6.568,27.625,6.4,27.2,6.4h-8.001 c-0.424,0-0.831,0.168-1.131,0.469C17.769,7.168,17.6,7.576,17.6,8V23.999z M20.8,9.6h4.801V22.4H20.8V9.6z"/>
</svg>
