<svg viewBox="0 0 49 48" fill="none" xmlns="http://www.w3.org/2000/svg">
<path d="M27.2987 4.1921C24.001 3.74072 20.6428 4.11288 17.5239 5.27535C14.405 6.43781 11.6225 8.35443 9.4247 10.8541C7.5437 13.0205 6.14806 15.5643 5.33154 18.3146C4.51502 21.065 4.29651 23.9583 4.6907 26.8001C5.7507 34.5881 11.6067 41.2141 19.2607 43.2921C20.967 43.759 22.7277 43.9971 24.4967 44.0001L24.7807 43.9981C25.7918 43.9851 26.7832 43.7168 27.6629 43.2182C28.5426 42.7196 29.2821 42.0069 29.8127 41.1461C30.3451 40.29 30.6523 39.3131 30.7058 38.3064C30.7593 37.2997 30.5573 36.2958 30.1187 35.3881L29.7207 34.5561C29.4146 33.958 29.2708 33.29 29.3038 32.619C29.3368 31.9479 29.5454 31.2973 29.9087 30.7321C30.4285 29.8877 31.2429 29.2659 32.1945 28.987C33.1461 28.7081 34.1673 28.7919 35.0607 29.2221L35.8847 29.6161C36.7087 30.0121 37.5847 30.2141 38.4867 30.2141C40.0652 30.206 41.578 29.5806 42.7015 28.4717C43.8249 27.3628 44.47 25.8584 44.4987 24.2801C44.5235 22.4161 44.2858 20.5579 43.7927 18.7601C41.7127 11.1081 35.0867 5.2521 27.2987 4.1921ZM37.6147 26.0101L36.7907 25.6161C33.1347 23.8601 28.6507 25.2201 26.5207 28.6041C25.0447 30.9561 24.8947 33.7561 26.1127 36.2881L26.5107 37.1201C26.6599 37.4223 26.7288 37.7579 26.711 38.0944C26.6931 38.431 26.589 38.7573 26.4087 39.0421C26.2329 39.333 25.9854 39.5739 25.6898 39.7416C25.3943 39.9093 25.0606 39.9984 24.7207 40.0001H24.4967C23.0812 39.9962 21.6725 39.8059 20.3067 39.4341C14.1807 37.7721 9.5007 32.4761 8.6547 26.2621C8.0127 21.5521 9.3587 17.0161 12.4407 13.4841C14.1942 11.4726 16.4228 9.9314 18.9238 9.00085C21.4248 8.07031 24.1188 7.77992 26.7607 8.1561C32.9747 9.0021 38.2707 13.6841 39.9327 19.8081C40.3287 21.2681 40.5187 22.7561 40.4967 24.2221C40.4727 25.8361 38.8067 26.5881 37.6147 26.0101Z" fill="currentColor"/>
<path d="M15.4987 32C17.1555 32 18.4987 30.6569 18.4987 29C18.4987 27.3431 17.1555 26 15.4987 26C13.8418 26 12.4987 27.3431 12.4987 29C12.4987 30.6569 13.8418 32 15.4987 32Z" fill="currentColor"/>
<path d="M15.4987 24C17.1555 24 18.4987 22.6569 18.4987 21C18.4987 19.3431 17.1555 18 15.4987 18C13.8418 18 12.4987 19.3431 12.4987 21C12.4987 22.6569 13.8418 24 15.4987 24Z" fill="currentColor"/>
<path d="M21.4987 18C23.1555 18 24.4987 16.6569 24.4987 15C24.4987 13.3431 23.1555 12 21.4987 12C19.8418 12 18.4987 13.3431 18.4987 15C18.4987 16.6569 19.8418 18 21.4987 18Z" fill="currentColor"/>
<path d="M29.4987 18C31.1555 18 32.4987 16.6569 32.4987 15C32.4987 13.3431 31.1555 12 29.4987 12C27.8418 12 26.4987 13.3431 26.4987 15C26.4987 16.6569 27.8418 18 29.4987 18Z" fill="currentColor"/>
</svg>
