<svg viewBox="0 0 24 24" fill="currentColor" xmlns="http://www.w3.org/2000/svg">
  <path d="M18.4041 2.99796C17.6471 2.24396 16.3271 2.24696 15.5761 3.00296L13.7921 4.79396L11.5861 6.99996H7.00008C6.79491 6.99981 6.59468 7.06291 6.42665 7.18065C6.25863 7.29839 6.13098 7.46506 6.06108 7.65796L2.06108 18.658C1.92808 19.023 2.01908 19.432 2.29308 19.707L4.29308 21.707C4.42753 21.8418 4.59776 21.9352 4.78366 21.9763C4.96955 22.0175 5.16332 22.0045 5.34208 21.939L16.3421 17.939C16.535 17.8691 16.7016 17.7414 16.8194 17.5734C16.9371 17.4054 17.0002 17.2051 17.0001 17V12.414L19.2081 10.206L21.0001 8.40896C21.3781 8.03096 21.5861 7.52796 21.5851 6.99396C21.5851 6.45896 21.3761 5.95596 20.9971 5.57896L18.4041 2.99796ZM15.2931 11.293C15.2 11.3857 15.1262 11.4959 15.076 11.6172C15.0257 11.7385 14.9999 11.8686 15.0001 12V16.3L5.75108 19.663L10.4221 14.992C10.4481 14.993 10.4741 15 10.5001 15C10.7968 15 11.0868 14.912 11.3334 14.7472C11.5801 14.5823 11.7724 14.3481 11.8859 14.074C11.9994 13.7999 12.0291 13.4983 11.9713 13.2073C11.9134 12.9164 11.7705 12.6491 11.5607 12.4393C11.351 12.2295 11.0837 12.0867 10.7927 12.0288C10.5017 11.9709 10.2001 12.0006 9.92605 12.1141C9.65196 12.2277 9.4177 12.4199 9.25287 12.6666C9.08805 12.9133 9.00008 13.2033 9.00008 13.5C9.00008 13.526 9.00708 13.552 9.00808 13.578L4.33708 18.249L7.70008 8.99996H12.0001C12.2661 8.99996 12.5201 8.89496 12.7071 8.70696L14.5001 6.91396L17.0861 9.49996L15.2931 11.293ZM18.4991 8.08496L15.9131 5.49896L16.9921 4.41496L19.5851 6.99596L18.4991 8.08496Z" />
</svg>
