<svg viewBox="0 0 48 48" fill="none" xmlns="http://www.w3.org/2000/svg">
<path d="M35.4127 24.5859C35.2271 24.4 35.0067 24.2525 34.7641 24.1519C34.5215 24.0513 34.2614 23.9995 33.9987 23.9995C33.736 23.9995 33.476 24.0513 33.2333 24.1519C32.9907 24.2525 32.7703 24.4 32.5847 24.5859L29.3967 27.7739C27.9187 27.3339 25.1607 26.3339 23.4127 24.5859C21.6647 22.8379 20.6647 20.0799 20.2247 18.6019L23.4127 15.4139C23.5986 15.2283 23.7461 15.0079 23.8467 14.7653C23.9473 14.5227 23.9991 14.2626 23.9991 13.9999C23.9991 13.7372 23.9473 13.4772 23.8467 13.2345C23.7461 12.9919 23.5986 12.7715 23.4127 12.5859L15.4127 4.58591C15.2271 4.40002 15.0067 4.25255 14.7641 4.15193C14.5215 4.0513 14.2614 3.99951 13.9987 3.99951C13.736 3.99951 13.476 4.0513 13.2333 4.15193C12.9907 4.25255 12.7703 4.40002 12.5847 4.58591L7.16071 10.0099C6.40071 10.7699 5.97271 11.8139 5.98871 12.8799C6.03471 15.7279 6.78871 25.6199 14.5847 33.4159C22.3807 41.2119 32.2727 41.9639 35.1227 42.0119H35.1787C36.2347 42.0119 37.2327 41.5959 37.9887 40.8399L43.4127 35.4159C43.5986 35.2303 43.7461 35.0099 43.8467 34.7673C43.9473 34.5247 43.9991 34.2646 43.9991 34.0019C43.9991 33.7392 43.9473 33.4792 43.8467 33.2365C43.7461 32.9939 43.5986 32.7735 43.4127 32.5879L35.4127 24.5859ZM35.1587 38.0099C32.6627 37.9679 24.1227 37.2979 17.4127 30.5859C10.6807 23.8539 10.0287 15.2839 9.98871 12.8379L13.9987 8.82791L19.1707 13.9999L16.5847 16.5859C16.3496 16.8208 16.1768 17.1106 16.0818 17.4291C15.9868 17.7475 15.9727 18.0846 16.0407 18.4099C16.0887 18.6399 17.2627 24.0939 20.5827 27.4139C23.9027 30.7339 29.3567 31.9079 29.5867 31.9559C29.9118 32.0258 30.2493 32.0128 30.568 31.9181C30.8868 31.8234 31.1766 31.65 31.4107 31.4139L33.9987 28.8279L39.1707 33.9999L35.1587 38.0099Z" fill="#BCBCCB"/>
</svg>
