<svg viewBox="0 0 30 14" fill="currentColor" xmlns="http://www.w3.org/2000/svg">
<path d="M26.834 0.333008H3.16732C1.60465 0.333008 0.333984 1.52901 0.333984 2.99967V10.9997C0.333984 12.4703 1.60465 13.6663 3.16732 13.6663H26.834C28.3967 13.6663 29.6673 12.4703 29.6673 10.9997V2.99967C29.6673 1.52901 28.3967 0.333008 26.834 0.333008ZM26.834 10.9997H3.16732C3.09132 10.9997 3.03932 10.9783 3.01665 10.9783C3.00732 10.9783 3.00198 10.981 3.00065 10.989L2.98465 3.06101C2.99398 3.04767 3.05398 2.99967 3.16732 2.99967H5.66732V6.99967H8.33398V2.99967H11.0007V8.33301H13.6673V2.99967H16.334V6.99967H19.0007V2.99967H21.6673V8.33301H24.334V2.99967H26.834C26.9393 3.00101 26.9966 3.03701 27.0006 3.01034L27.0166 10.9383C27.0073 10.9517 26.9473 10.9997 26.834 10.9997Z" />
</svg>
