<svg viewBox="0 0 49 48" fill="none" xmlns="http://www.w3.org/2000/svg">
<path d="M38.5 28H34.5V34H28.5V38H34.5V44H38.5V38H44.5V34H38.5V28ZM8.5 38H14.5V34H10.5V30H6.5V36C6.5 36.5304 6.71071 37.0391 7.08579 37.4142C7.46086 37.7893 7.96957 38 8.5 38ZM38.5 8C38.5 7.46957 38.2893 6.96086 37.9142 6.58579C37.5391 6.21071 37.0304 6 36.5 6H30.5V10H34.5V14H38.5V8ZM10.5 10H14.5V6H8.5C7.96957 6 7.46086 6.21071 7.08579 6.58579C6.71071 6.96086 6.5 7.46957 6.5 8V14H10.5V10ZM6.5 18H10.5V26H6.5V18ZM34.5 18H38.5V24H34.5V18ZM18.5 6H26.5V10H18.5V6ZM18.5 34H24.5V38H18.5V34Z" fill="currentColor"/>
</svg>
