<svg viewBox="0 0 29 32" fill="currentColor" xmlns="http://www.w3.org/2000/svg">
<path d="M28.898,7.846c-0.023-0.27-0.119-0.528-0.271-0.751c-0.152-0.223-0.361-0.403-0.604-0.524L15.27,0.17 C15.047,0.059,14.801,0,14.553,0c-0.248-0.001-0.493,0.057-0.716,0.168L0.995,6.567c-0.476,0.24-0.803,0.699-0.87,1.227 C0.104,7.95-1.707,23.38,13.788,31.805c0.238,0.13,0.507,0.197,0.776,0.195c0.271-0.003,0.539-0.075,0.773-0.208 C30.229,23.377,28.961,8.477,28.898,7.846z M14.537,28.555C3.563,22.138,3.115,11.993,3.237,9.028l11.312-5.636l11.197,5.617 C25.756,12.001,24.977,22.195,14.537,28.555z"/>
</svg>
