<svg xmlns="http://www.w3.org/2000/svg" viewBox="0 0 120 120">
<path fill="currentColor" d="M120,13.333C120,5.98,114.02,0,106.666,0H13.333C5.98,0,0,5.98,0,13.333v93.333
	C0,114.02,5.98,120,13.333,120h93.333c7.354,0,13.334-5.98,13.334-13.334V13.333z M13.333,106.666V13.333h93.333l0.014,93.333
	H13.333z"/>
<path fill="currentColor" d="M26.667,26.667h13.319V40H26.667V26.667z M53.333,26.667h40V40h-40V26.667z M26.667,53.333h13.319v13.333
	H26.667V53.333z M53.333,53.333h40v13.333h-40V53.333z M26.667,80h13.319v13.333H26.667V80z M53.333,80h40v13.333h-40V80z"/>
</svg>
