<svg viewBox="0 0 32 28" fill="none" xmlns="http://www.w3.org/2000/svg">
<path fill="currentColor" d="M29.032,8.831l2.501-2.5l-2.262-2.262l-2.734,2.731c-1.681-1.007-3.638-1.6-5.737-1.6 c-6.174,0-11.2,5.024-11.2,11.199c0,6.177,5.026,11.202,11.2,11.202S32,22.575,32,16.398C31.999,13.593,30.938,10.89,29.032,8.831z M20.8,24.399c-4.411,0-8-3.59-8-8.001c0-4.41,3.588-7.999,8-7.999s8.001,3.589,8.001,7.999C28.801,20.81,25.211,24.399,20.8,24.399 z"/>
<path fill="currentColor" d="M19.201,11.599H22.4v6.402h-3.199V11.599z M17.601,0.399h6.4v3.2h-6.4V0.399z M1.6,8.4H8v3.199H1.6V8.4z M1.6,21.198H8v3.201H1.6V21.198z M0,14.8h6.385v3.201H0V14.8z"/>
</svg>
