<svg viewBox="0 0 32 32" xmlns="http://www.w3.org/2000/svg" fill="currentColor">
<path d="M10.105,17.99c3.84,0,6.736-2.897,6.736-6.737c0-3.84-2.896-6.736-6.736-6.736s-6.737,2.896-6.737,6.736	C3.368,15.093,6.266,17.99,10.105,17.99z M10.105,7.885c1.984,0,3.368,1.385,3.368,3.368c0,1.984-1.384,3.369-3.368,3.369 s-3.368-1.385-3.368-3.369C6.737,9.27,8.121,7.885,10.105,7.885z M11.79,19.676H8.421C3.777,19.676,0,23.453,0,28.096v1.686h3.368 v-1.686c0-2.785,2.268-5.053,5.053-5.053h3.369c2.785,0,5.052,2.268,5.052,5.053v1.686h3.368v-1.686 C20.21,23.453,16.433,19.676,11.79,19.676z M27.561,2.219l-2.382,2.381c2.226,2.229,3.453,5.189,3.453,8.337 c0,3.148-1.228,6.109-3.453,8.336l2.382,2.383C30.424,20.791,32,16.984,32,12.938S30.424,5.084,27.561,2.219z"/>
<path d="M22.796,6.983l-2.381,2.384c0.954,0.952,1.48,2.22,1.48,3.57c0,1.351-0.526,2.619-1.48,3.57l2.381,2.385	c1.59-1.59,2.467-3.703,2.467-5.955C25.263,10.686,24.386,8.572,22.796,6.983z"/>
</svg>
