<svg viewBox="0 0 49 48" fill="none" xmlns="http://www.w3.org/2000/svg">
<path d="M10.3359 36V43.532L22.8899 36H32.3359C34.5419 36 36.3359 34.206 36.3359 32V16C36.3359 13.794 34.5419 12 32.3359 12H8.33594C6.12994 12 4.33594 13.794 4.33594 16V32C4.33594 34.206 6.12994 36 8.33594 36H10.3359ZM8.33594 16H32.3359V32H21.7819L14.3359 36.468V32H8.33594V16Z" fill="#BCBCCB"/>
<path d="M40.3359 4H16.3359C14.1299 4 12.3359 5.794 12.3359 8H36.3359C38.5419 8 40.3359 9.794 40.3359 12V28C42.5419 28 44.3359 26.206 44.3359 24V8C44.3359 5.794 42.5419 4 40.3359 4Z" fill="#BCBCCB"/>
</svg>
