<svg viewBox="0 0 40 40" fill="none" xmlns="http://www.w3.org/2000/svg">
<path d="M20 8C13.382 8 8 13.382 8 20C8 26.618 13.382 32 20 32C26.618 32 32 26.618 32 20C32 13.382 26.618 8 20 8ZM20 28C15.588 28 12 24.412 12 20C12 15.588 15.588 12 20 12C24.412 12 28 15.588 28 20C28 24.412 24.412 28 20 28Z" fill="#BCBCCB"/>
<path d="M20 0C9.158 0 0 9.158 0 20C0 30.842 9.158 40 20 40C30.842 40 40 30.842 40 20C40 9.158 30.842 0 20 0ZM20 36C11.326 36 4 28.674 4 20C4 11.326 11.326 4 20 4C28.674 4 36 11.326 36 20C36 28.674 28.674 36 20 36Z" fill="#BCBCCB"/>
<path d="M20 16C17.838 16 16 17.838 16 20C16 22.162 17.838 24 20 24C22.162 24 24 22.162 24 20C24 17.838 22.162 16 20 16Z" fill="#BCBCCB"/>
</svg>
