<?xml version="1.0" encoding="UTF-8"?>
<svg id="Layer_1" xmlns="http://www.w3.org/2000/svg" version="1.1" viewBox="0 0 218.4 225.89">
  <!-- Generator: Adobe Illustrator 30.4.0, SVG Export Plug-In . SVG Version: 2.1.4 Build 226)  -->
  <defs>
    <style>
      .st0 {
        fill: #ceb07e;
      }

      .st1 {
        isolation: isolate;
      }
    </style>
  </defs>
  <g>
    <path class="st0" d="M131.49,29.89v.31c3.38.95,6.7,2.12,9.96,3.51,9.74,4.16,18.48,10.1,25.98,17.65,7.5,7.55,13.37,16.33,17.46,26.11,4.23,10.12,6.36,20.85,6.32,31.91-.04,11.03-2.24,21.73-6.53,31.8-4.14,9.72-10.06,18.45-17.58,25.94-7.52,7.49-16.27,13.37-26.01,17.48-10.08,4.25-20.78,6.41-31.8,6.41h-.31c-11.06-.04-21.78-2.25-31.87-6.56-9.74-4.16-18.48-10.1-25.98-17.65-7.5-7.55-13.37-16.33-17.46-26.11-4.23-10.12-6.36-20.85-6.32-31.91.04-11.03,2.24-21.73,6.53-31.8,4.14-9.72,10.06-18.45,17.58-25.94,7.52-7.49,16.27-13.37,26.01-17.48,3.14-1.33,6.35-2.45,9.6-3.36v-.3c-34.51,9.66-59.88,41.28-60.02,78.89-.17,45.41,36.51,82.36,81.92,82.53.11,0,.2,0,.31,0,45.27,0,82.05-36.62,82.22-81.92.14-37.82-25.28-69.77-60.02-79.49Z"/>
    <path class="st0" d="M25.8,108.35c1.34,1.25,1.8,2.53,1.35,2.78s-1.54-.4-2.66-1.94c-1.12-1.54-1.33-2.73-1.33-2.73,0,0,1.27.6,2.64,1.89Z"/>
    <path class="st0" d="M28.43,108.5c-1.28,1.16-1.7,2.37-1.25,2.62.44.25,1.5-.34,2.56-1.78,1.06-1.44,1.24-2.57,1.24-2.57,0,0-1.23.54-2.55,1.73Z"/>
    <path class="st0" d="M25.87,112.72c1.4,1.18,1.93,2.43,1.5,2.71s-1.56-.32-2.76-1.8c-1.2-1.48-1.48-2.65-1.48-2.65,0,0,1.3.54,2.74,1.75Z"/>
    <path class="st0" d="M28.51,112.74c-1.22,1.23-1.57,2.45-1.11,2.68.46.23,1.48-.42,2.47-1.92s1.1-2.63,1.1-2.63c0,0-1.2.61-2.45,1.87Z"/>
    <path class="st0" d="M26.18,117.08c1.46,1.11,2.05,2.32,1.63,2.62s-1.57-.24-2.85-1.65c-1.28-1.41-1.61-2.57-1.61-2.57,0,0,1.33.47,2.83,1.6Z"/>
    <path class="st0" d="M28.81,116.96c-1.15,1.29-1.44,2.53-.97,2.74.47.21,1.46-.5,2.36-2.04.91-1.54.96-2.69.96-2.69,0,0-1.17.67-2.35,1.99Z"/>
    <path class="st0" d="M26.71,121.42c1.52,1.03,2.17,2.21,1.77,2.53-.4.32-1.58-.16-2.93-1.5-1.35-1.34-1.74-2.49-1.74-2.49,0,0,1.35.4,2.91,1.45Z"/>
    <path class="st0" d="M29.34,121.16c-1.08,1.35-1.31,2.6-.83,2.79.48.18,1.43-.57,2.25-2.16.82-1.59.82-2.73.82-2.73,0,0-1.13.73-2.24,2.11Z"/>
    <path class="st0" d="M27.47,125.72c1.57.95,2.28,2.1,1.9,2.44-.38.34-1.59-.07-3.01-1.35-1.42-1.27-1.87-2.39-1.87-2.39,0,0,1.37.33,2.98,1.3Z"/>
    <path class="st0" d="M30.08,125.33c-1.01,1.4-1.17,2.67-.68,2.83.49.16,1.4-.65,2.14-2.28.74-1.63.67-2.77.67-2.77,0,0-1.09.79-2.13,2.23Z"/>
    <path class="st0" d="M28.45,129.98c1.62.87,2.39,1.97,2.02,2.34-.36.36-1.59,0-3.07-1.19-1.48-1.2-1.99-2.29-1.99-2.29,0,0,1.38.25,3.04,1.14Z"/>
    <path class="st0" d="M31.04,129.45c-.94,1.46-1.03,2.73-.53,2.86.5.13,1.36-.72,2.01-2.39.65-1.67.53-2.81.53-2.81,0,0-1.05.84-2.01,2.33Z"/>
    <path class="st0" d="M29.66,134.18c1.66.78,2.49,1.85,2.14,2.23-.35.38-1.59.09-3.13-1.02-1.54-1.12-2.11-2.18-2.11-2.18,0,0,1.4.18,3.1.98Z"/>
    <path class="st0" d="M32.21,133.52c-.86,1.5-.88,2.78-.38,2.88.5.11,1.32-.79,1.89-2.49.57-1.7.38-2.83.38-2.83,0,0-1.01.9-1.89,2.44Z"/>
    <path class="st0" d="M31.08,138.31c1.7.69,2.58,1.71,2.26,2.11-.32.4-1.58.18-3.18-.86-1.6-1.03-2.22-2.07-2.22-2.07,0,0,1.4.11,3.15.82Z"/>
    <path class="st0" d="M33.6,137.52c-.78,1.55-.74,2.82-.23,2.9s1.28-.86,1.75-2.58c.48-1.73.23-2.85.23-2.85,0,0-.96.95-1.76,2.53Z"/>
    <path class="st0" d="M32.72,142.37c1.73.6,2.67,1.58,2.37,1.99-.3.41-1.57.26-3.22-.69-1.65-.95-2.33-1.95-2.33-1.95,0,0,1.41.03,3.18.65Z"/>
    <path class="st0" d="M35.19,141.44c-.7,1.58-.59,2.85-.08,2.9.51.05,1.23-.92,1.61-2.67.38-1.75.08-2.85.08-2.85,0,0-.91,1-1.62,2.62Z"/>
    <path class="st0" d="M34.56,146.33c1.76.51,2.75,1.43,2.47,1.86-.28.43-1.55.34-3.25-.52-1.7-.86-2.43-1.82-2.43-1.82,0,0,1.41-.04,3.21.48Z"/>
    <path class="st0" d="M36.98,145.27c-.61,1.62-.44,2.88.07,2.9s1.18-.99,1.47-2.75c.29-1.77-.07-2.85-.07-2.85,0,0-.85,1.04-1.48,2.7Z"/>
    <path class="st0" d="M36.62,150.19c1.79.42,2.82,1.29,2.56,1.73-.26.44-1.53.42-3.28-.35-1.74-.77-2.52-1.7-2.52-1.7,0,0,1.4-.11,3.23.31Z"/>
    <path class="st0" d="M38.98,149.01c-.53,1.65-.29,2.9.23,2.9.51,0,1.13-1.05,1.33-2.83.2-1.78-.22-2.85-.22-2.85,0,0-.8,1.09-1.34,2.78Z"/>
    <path class="st0" d="M38.87,153.93c1.81.32,2.88,1.14,2.65,1.6s-1.51.5-3.29-.18c-1.78-.68-2.6-1.56-2.6-1.56,0,0,1.4-.19,3.25.14Z"/>
    <path class="st0" d="M41.16,152.63c-.44,1.67-.13,2.91.38,2.88.51-.03,1.07-1.1,1.18-2.89s-.36-2.83-.36-2.83c0,0-.74,1.13-1.19,2.84Z"/>
    <path class="st0" d="M41.31,157.56c1.82.23,2.94.99,2.73,1.45-.21.47-1.48.58-3.29,0s-2.68-1.42-2.68-1.42c0,0,1.38-.26,3.25-.03Z"/>
    <path class="st0" d="M43.54,156.14c-.35,1.69.02,2.91.53,2.86.51-.06,1.01-1.16,1.02-2.95.01-1.79-.51-2.81-.51-2.81,0,0-.68,1.16-1.04,2.9Z"/>
    <path class="st0" d="M43.94,161.05c1.83.13,2.99.83,2.8,1.31-.19.48-1.45.65-3.29.17-1.84-.49-2.75-1.28-2.75-1.28,0,0,1.37-.33,3.24-.2Z"/>
    <path class="st0" d="M46.09,159.51c-.26,1.71.17,2.91.68,2.83.51-.08.95-1.21.87-3-.08-1.79-.66-2.78-.66-2.78,0,0-.62,1.2-.89,2.95Z"/>
    <path class="st0" d="M46.75,164.4c1.84.04,3.03.67,2.86,1.16s-1.41.73-3.28.34c-1.87-.39-2.82-1.13-2.82-1.13,0,0,1.35-.4,3.23-.37Z"/>
    <path class="st0" d="M48.81,162.75c-.17,1.72.32,2.89.82,2.79s.88-1.26.71-3.04c-.17-1.78-.8-2.74-.8-2.74,0,0-.55,1.23-.73,2.99Z"/>
    <path class="st0" d="M49.73,167.59c1.83-.06,3.06.52,2.92,1.01-.14.49-1.37.8-3.25.51s-2.87-.99-2.87-.99c0,0,1.33-.47,3.21-.53Z"/>
    <path class="st0" d="M51.71,165.84c-.08,1.73.47,2.87.97,2.74.49-.13.82-1.3.55-3.07-.27-1.77-.94-2.69-.94-2.69,0,0-.49,1.26-.57,3.03Z"/>
    <path class="st0" d="M52.88,170.63c1.83-.16,3.08.35,2.97.86-.11.5-1.33.87-3.22.68-1.9-.19-2.92-.83-2.92-.83,0,0,1.3-.54,3.17-.7Z"/>
    <path class="st0" d="M54.76,168.78c0,1.73.62,2.84,1.11,2.68.49-.16.75-1.34.39-3.1-.36-1.75-1.08-2.64-1.08-2.64,0,0-.42,1.28-.41,3.05Z"/>
    <path class="st0" d="M56.17,173.5c1.82-.25,3.09.19,3.01.7-.08.51-1.28.94-3.18.85-1.9-.09-2.96-.68-2.96-.68,0,0,1.27-.61,3.13-.87Z"/>
    <path class="st0" d="M57.96,171.55c.1,1.73.77,2.81,1.25,2.62.48-.19.68-1.38.23-3.11-.45-1.73-1.22-2.58-1.22-2.58,0,0-.35,1.3-.25,3.07Z"/>
    <path class="st0" d="M59.62,176.19c1.8-.35,3.1.03,3.04.54-.06.51-1.23,1.01-3.13,1.01-1.91,0-2.99-.52-2.99-.52,0,0,1.24-.67,3.08-1.03Z"/>
    <path class="st0" d="M61.3,174.15c.19,1.72.92,2.76,1.39,2.55.47-.21.6-1.41.06-3.12-.54-1.71-1.35-2.51-1.35-2.51,0,0-.29,1.32-.09,3.08Z"/>
    <path class="st0" d="M63.2,178.7c1.78-.44,3.1-.13,3.07.38-.03.51-1.17,1.07-3.08,1.17-1.9.1-3.01-.37-3.01-.37,0,0,1.2-.74,3.02-1.19Z"/>
    <path class="st0" d="M64.77,176.57c.28,1.71,1.06,2.71,1.52,2.48.46-.23.53-1.44-.1-3.12-.63-1.68-1.48-2.44-1.48-2.44,0,0-.22,1.33.07,3.08Z"/>
    <path class="st0" d="M66.91,181.01c1.76-.53,3.09-.29,3.08.22s-1.12,1.13-3.01,1.33c-1.89.2-3.03-.21-3.03-.21,0,0,1.16-.8,2.96-1.35Z"/>
    <path class="st0" d="M68.36,178.81c.37,1.69,1.2,2.65,1.64,2.4.44-.26.45-1.47-.26-3.11-.72-1.64-1.61-2.36-1.61-2.36,0,0-.15,1.34.23,3.07Z"/>
    <path class="st0" d="M70.73,183.13c1.73-.62,3.07-.45,3.09.06s-1.06,1.19-2.94,1.49c-1.88.3-3.04-.05-3.04-.05,0,0,1.12-.86,2.88-1.5Z"/>
    <path class="st0" d="M72.07,180.86c.45,1.67,1.34,2.59,1.77,2.31.43-.28.38-1.49-.43-3.09-.8-1.6-1.73-2.27-1.73-2.27,0,0-.08,1.34.39,3.06Z"/>
    <path class="st0" d="M74.66,185.05c1.69-.71,3.04-.61,3.09-.1.05.51-.99,1.24-2.86,1.64-1.86.4-3.03.11-3.03.11,0,0,1.07-.92,2.8-1.65Z"/>
    <path class="st0" d="M75.87,182.71c.54,1.64,1.47,2.51,1.89,2.21s.3-1.51-.59-3.07c-.88-1.56-1.85-2.18-1.85-2.18,0,0,0,1.35.55,3.03Z"/>
    <path class="st0" d="M78.68,186.76c1.65-.8,3-.77,3.08-.27.08.51-.93,1.29-2.77,1.79-1.84.5-3.02.27-3.02.27,0,0,1.02-.97,2.71-1.79Z"/>
    <path class="st0" d="M79.77,184.35c.63,1.61,1.6,2.43,2,2.11.4-.32.22-1.52-.75-3.03-.96-1.51-1.96-2.08-1.96-2.08,0,0,.06,1.35.71,3Z"/>
    <path class="st0" d="M82.79,188.25c1.61-.89,2.96-.93,3.06-.43.1.5-.86,1.34-2.67,1.93-1.81.59-3.01.43-3.01.43,0,0,.97-1.02,2.61-1.93Z"/>
    <path class="st0" d="M83.75,185.79c.71,1.58,1.73,2.35,2.11,2s.14-1.53-.9-2.99c-1.04-1.46-2.06-1.97-2.06-1.97,0,0,.13,1.34.86,2.96Z"/>
    <path class="st0" d="M86.97,189.53c1.56-.97,2.91-1.08,3.03-.59.13.5-.79,1.38-2.56,2.07-1.78.69-2.98.58-2.98.58,0,0,.91-1.07,2.51-2.06Z"/>
    <path class="st0" d="M87.8,187.03c.79,1.54,1.85,2.25,2.21,1.89.36-.36.06-1.54-1.06-2.94-1.12-1.4-2.17-1.86-2.17-1.86,0,0,.2,1.33,1.02,2.91Z"/>
    <path class="st0" d="M91.21,190.59c1.51-1.05,2.84-1.23,3-.74.16.49-.71,1.42-2.45,2.2-1.74.78-2.95.74-2.95.74,0,0,.85-1.12,2.4-2.19Z"/>
    <path class="st0" d="M91.91,188.04c.87,1.5,1.96,2.15,2.3,1.77s-.02-1.54-1.21-2.88c-1.19-1.34-2.26-1.74-2.26-1.74,0,0,.27,1.32,1.17,2.85Z"/>
    <path class="st0" d="M95.5,191.42c1.45-1.13,2.78-1.38,2.96-.9.18.48-.64,1.46-2.33,2.32-1.7.87-2.9.89-2.9.89,0,0,.8-1.16,2.28-2.32Z"/>
    <path class="st0" d="M96.07,188.84c.95,1.45,2.07,2.05,2.39,1.65.32-.4-.1-1.53-1.36-2.81-1.26-1.28-2.35-1.62-2.35-1.62,0,0,.34,1.3,1.31,2.79Z"/>
    <path class="st0" d="M99.83,192.03c1.39-1.2,2.7-1.52,2.91-1.05.21.47-.56,1.49-2.21,2.44-1.65.96-2.85,1.04-2.85,1.04,0,0,.73-1.2,2.15-2.43Z"/>
    <path class="st0" d="M100.26,189.43c1.02,1.4,2.18,1.93,2.48,1.52.3-.42-.18-1.53-1.51-2.73s-2.43-1.5-2.43-1.5c0,0,.41,1.28,1.46,2.71Z"/>
    <path class="st0" d="M104.18,192.41c1.32-1.27,2.62-1.66,2.85-1.2.23.46-.48,1.51-2.08,2.56s-2.79,1.19-2.79,1.19c0,0,.67-1.24,2.02-2.54Z"/>
    <path class="st0" d="M104.48,189.79c1.09,1.34,2.28,1.82,2.55,1.39.28-.43-.26-1.52-1.65-2.65-1.38-1.14-2.5-1.37-2.5-1.37,0,0,.48,1.26,1.6,2.63Z"/>
    <path class="st0" d="M88.38,28.25c-.87,1.62-1.97,2.39-2.34,2.02-.36-.36,0-1.59,1.19-3.07,1.2-1.48,2.29-1.99,2.29-1.99,0,0-.25,1.38-1.14,3.04Z"/>
    <path class="st0" d="M88.91,30.83c-1.46-.94-2.73-1.03-2.86-.53-.13.5.72,1.36,2.39,2.01,1.67.65,2.81.53,2.81.53,0,0-.84-1.05-2.33-2.01Z"/>
    <path class="st0" d="M84.18,29.45c-.78,1.66-1.85,2.49-2.23,2.14-.38-.35-.09-1.59,1.02-3.13,1.12-1.54,2.18-2.11,2.18-2.11,0,0-.18,1.4-.98,3.1Z"/>
    <path class="st0" d="M84.84,32.01c-1.5-.86-2.78-.88-2.88-.38-.11.5.79,1.32,2.49,1.89,1.7.57,2.83.38,2.83.38,0,0-.9-1.01-2.44-1.89Z"/>
    <path class="st0" d="M80.05,30.88c-.69,1.7-1.71,2.58-2.11,2.26-.4-.32-.18-1.58.86-3.18,1.03-1.6,2.07-2.22,2.07-2.22,0,0-.11,1.4-.82,3.15Z"/>
    <path class="st0" d="M80.84,33.39c-1.55-.78-2.82-.74-2.9-.23-.08.51.86,1.28,2.58,1.75,1.73.48,2.85.23,2.85.23,0,0-.95-.96-2.53-1.76Z"/>
    <path class="st0" d="M75.99,32.51c-.6,1.73-1.58,2.67-1.99,2.37-.41-.3-.26-1.57.69-3.22.95-1.65,1.95-2.33,1.95-2.33,0,0-.03,1.41-.65,3.18Z"/>
    <path class="st0" d="M76.92,34.98c-1.58-.7-2.85-.59-2.9-.08-.05.51.92,1.23,2.67,1.61,1.75.38,2.85.08,2.85.08,0,0-1-.91-2.62-1.62Z"/>
    <path class="st0" d="M72.03,34.36c-.51,1.76-1.43,2.75-1.86,2.47-.43-.28-.34-1.55.52-3.25.86-1.7,1.82-2.43,1.82-2.43,0,0,.04,1.41-.48,3.21Z"/>
    <path class="st0" d="M73.09,36.78c-1.62-.61-2.88-.44-2.9.07-.03.51.99,1.18,2.75,1.47,1.77.29,2.85-.07,2.85-.07,0,0-1.04-.85-2.7-1.48Z"/>
    <path class="st0" d="M68.17,36.41c-.42,1.79-1.29,2.82-1.73,2.56-.44-.26-.42-1.53.35-3.28.77-1.74,1.7-2.52,1.7-2.52,0,0,.11,1.4-.31,3.23Z"/>
    <path class="st0" d="M69.35,38.77c-1.65-.53-2.9-.29-2.9.23,0,.51,1.05,1.13,2.83,1.33,1.78.2,2.85-.22,2.85-.22,0,0-1.09-.8-2.78-1.34Z"/>
    <path class="st0" d="M64.43,38.66c-.32,1.81-1.14,2.88-1.6,2.65s-.5-1.51.18-3.29c.68-1.78,1.56-2.6,1.56-2.6,0,0,.19,1.4-.14,3.25Z"/>
    <path class="st0" d="M65.73,40.96c-1.67-.44-2.91-.13-2.88.38.03.51,1.1,1.07,2.89,1.18,1.79.11,2.83-.36,2.83-.36,0,0-1.13-.74-2.84-1.19Z"/>
    <path class="st0" d="M60.8,41.11c-.23,1.82-.99,2.94-1.45,2.73-.47-.21-.58-1.48,0-3.29.58-1.81,1.42-2.68,1.42-2.68,0,0,.26,1.38.03,3.25Z"/>
    <path class="st0" d="M62.22,43.33c-1.69-.35-2.91.02-2.86.53s1.16,1.01,2.95,1.02,2.81-.51,2.81-.51c0,0-1.16-.68-2.9-1.04Z"/>
    <path class="st0" d="M57.31,43.74c-.13,1.83-.83,2.99-1.31,2.8-.48-.19-.65-1.45-.17-3.29.49-1.84,1.28-2.75,1.28-2.75,0,0,.33,1.37.2,3.24Z"/>
    <path class="st0" d="M58.85,45.89c-1.71-.26-2.91.17-2.83.68.08.51,1.21.95,3,.87s2.78-.66,2.78-.66c0,0-1.2-.62-2.95-.89Z"/>
    <path class="st0" d="M53.96,46.55c-.04,1.84-.67,3.03-1.16,2.86-.49-.16-.73-1.41-.34-3.28.39-1.87,1.13-2.82,1.13-2.82,0,0,.4,1.35.37,3.23Z"/>
    <path class="st0" d="M55.61,48.61c-1.72-.17-2.89.32-2.79.82s1.26.88,3.04.71c1.78-.17,2.74-.8,2.74-.8,0,0-1.23-.55-2.99-.73Z"/>
    <path class="st0" d="M50.77,49.53c.06,1.83-.52,3.06-1.01,2.92s-.8-1.37-.51-3.25c.29-1.88.99-2.87.99-2.87,0,0,.47,1.33.53,3.21Z"/>
    <path class="st0" d="M52.52,51.5c-1.73-.08-2.87.47-2.74.97s1.3.82,3.07.55c1.77-.27,2.69-.94,2.69-.94,0,0-1.26-.49-3.03-.57Z"/>
    <path class="st0" d="M47.73,52.67c.16,1.83-.35,3.08-.86,2.97-.5-.11-.87-1.33-.68-3.22.19-1.9.83-2.92.83-2.92,0,0,.54,1.3.7,3.17Z"/>
    <path class="st0" d="M49.58,54.55c-1.73,0-2.84.62-2.68,1.11.16.49,1.34.75,3.1.39s2.64-1.08,2.64-1.08c0,0-1.28-.42-3.05-.41Z"/>
    <path class="st0" d="M44.86,55.97c.25,1.82-.19,3.09-.7,3.01-.51-.08-.94-1.28-.85-3.18.09-1.9.68-2.96.68-2.96,0,0,.61,1.27.87,3.13Z"/>
    <path class="st0" d="M46.81,57.75c-1.73.1-2.81.77-2.62,1.25.19.48,1.38.68,3.11.23,1.73-.45,2.58-1.22,2.58-1.22,0,0-1.3-.35-3.07-.25Z"/>
    <path class="st0" d="M42.17,59.41c.35,1.8-.03,3.1-.54,3.04-.51-.06-1.01-1.23-1.01-3.13s.52-2.99.52-2.99c0,0,.67,1.24,1.03,3.08Z"/>
    <path class="st0" d="M44.21,61.09c-1.72.19-2.76.92-2.55,1.39.21.47,1.41.6,3.12.06,1.71-.54,2.51-1.35,2.51-1.35,0,0-1.32-.29-3.08-.09Z"/>
    <path class="st0" d="M39.66,63c.44,1.78.13,3.1-.38,3.07s-1.07-1.17-1.17-3.08c-.1-1.9.37-3.01.37-3.01,0,0,.74,1.2,1.19,3.02Z"/>
    <path class="st0" d="M41.79,64.56c-1.71.28-2.71,1.06-2.48,1.52.23.46,1.44.53,3.12-.1,1.68-.63,2.44-1.48,2.44-1.48,0,0-1.33-.22-3.08.07Z"/>
    <path class="st0" d="M37.35,66.7c.53,1.76.29,3.09-.22,3.08-.51,0-1.13-1.12-1.33-3.01-.2-1.89.21-3.03.21-3.03,0,0,.8,1.16,1.35,2.96Z"/>
    <path class="st0" d="M39.55,68.16c-1.69.37-2.65,1.2-2.4,1.64s1.47.45,3.11-.26c1.64-.72,2.36-1.61,2.36-1.61,0,0-1.34-.15-3.07.23Z"/>
    <path class="st0" d="M35.23,70.52c.62,1.73.45,3.07-.06,3.09-.51.02-1.19-1.06-1.49-2.94-.3-1.88.05-3.04.05-3.04,0,0,.86,1.12,1.5,2.88Z"/>
    <path class="st0" d="M37.5,71.86c-1.67.45-2.59,1.34-2.31,1.77.28.43,1.49.38,3.09-.43,1.6-.8,2.27-1.73,2.27-1.73,0,0-1.34-.08-3.06.39Z"/>
    <path class="st0" d="M33.31,74.45c.71,1.69.61,3.04.1,3.09-.51.05-1.24-.99-1.64-2.86-.4-1.86-.11-3.03-.11-3.03,0,0,.92,1.07,1.65,2.8Z"/>
    <path class="st0" d="M35.66,75.67c-1.64.54-2.51,1.47-2.21,1.89s1.51.3,3.07-.59c1.56-.88,2.18-1.85,2.18-1.85,0,0-1.35,0-3.03.55Z"/>
    <path class="st0" d="M31.6,78.48c.8,1.65.77,3,.27,3.08s-1.29-.93-1.79-2.77c-.5-1.84-.27-3.02-.27-3.02,0,0,.97,1.02,1.79,2.71Z"/>
    <path class="st0" d="M34.01,79.57c-1.61.63-2.43,1.6-2.11,2,.32.4,1.52.22,3.03-.75,1.51-.96,2.08-1.96,2.08-1.96,0,0-1.35.06-3,.71Z"/>
    <path class="st0" d="M30.11,82.58c.89,1.61.93,2.96.43,3.06-.5.1-1.34-.86-1.93-2.67-.59-1.81-.43-3.01-.43-3.01,0,0,1.02.97,1.93,2.61Z"/>
    <path class="st0" d="M32.57,83.55c-1.58.71-2.35,1.73-2,2.11.34.38,1.53.14,2.99-.9,1.46-1.04,1.97-2.06,1.97-2.06,0,0-1.34.13-2.96.86Z"/>
    <path class="st0" d="M28.83,86.76c.97,1.56,1.08,2.91.59,3.03-.5.13-1.38-.79-2.07-2.56-.69-1.78-.58-2.98-.58-2.98,0,0,1.07.91,2.06,2.51Z"/>
    <path class="st0" d="M31.34,87.6c-1.54.79-2.25,1.85-1.89,2.21.36.36,1.54.06,2.94-1.06,1.4-1.12,1.86-2.17,1.86-2.17,0,0-1.33.2-2.91,1.02Z"/>
    <path class="st0" d="M27.77,91.01c1.05,1.51,1.23,2.84.74,3-.49.16-1.42-.71-2.2-2.45-.78-1.74-.74-2.95-.74-2.95,0,0,1.12.85,2.19,2.4Z"/>
    <path class="st0" d="M30.32,91.71c-1.5.87-2.15,1.96-1.77,2.3.38.34,1.54-.02,2.88-1.21,1.34-1.19,1.74-2.26,1.74-2.26,0,0-1.32.27-2.85,1.17Z"/>
    <path class="st0" d="M26.94,95.3c1.13,1.45,1.38,2.78.9,2.96-.48.18-1.46-.64-2.32-2.33-.87-1.7-.89-2.9-.89-2.9,0,0,1.16.8,2.32,2.28Z"/>
    <path class="st0" d="M29.52,95.86c-1.45.95-2.05,2.07-1.65,2.39.4.32,1.53-.1,2.81-1.36,1.28-1.26,1.62-2.35,1.62-2.35,0,0-1.3.34-2.79,1.31Z"/>
    <path class="st0" d="M26.33,99.62c1.2,1.39,1.52,2.7,1.05,2.91-.47.21-1.49-.56-2.44-2.21-.96-1.65-1.04-2.85-1.04-2.85,0,0,1.2.73,2.43,2.15Z"/>
    <path class="st0" d="M28.93,100.06c-1.4,1.02-1.93,2.18-1.52,2.48.42.3,1.53-.18,2.73-1.51,1.21-1.32,1.5-2.43,1.5-2.43,0,0-1.28.41-2.71,1.46Z"/>
    <path class="st0" d="M25.95,103.98c1.27,1.32,1.66,2.62,1.2,2.85-.46.23-1.51-.48-2.56-2.08-1.04-1.6-1.19-2.79-1.19-2.79,0,0,1.24.67,2.54,2.02Z"/>
    <path class="st0" d="M28.57,104.27c-1.34,1.09-1.82,2.28-1.39,2.55.43.28,1.52-.26,2.65-1.65,1.14-1.38,1.37-2.5,1.37-2.5,0,0-1.26.48-2.63,1.6Z"/>
    <path class="st0" d="M192.67,108.35c-1.34,1.25-1.8,2.53-1.35,2.78s1.54-.4,2.66-1.94c1.12-1.54,1.33-2.73,1.33-2.73,0,0-1.27.6-2.64,1.89Z"/>
    <path class="st0" d="M190.03,108.5c1.28,1.16,1.7,2.37,1.25,2.62-.44.25-1.5-.34-2.56-1.78-1.06-1.44-1.24-2.57-1.24-2.57,0,0,1.23.54,2.55,1.73Z"/>
    <path class="st0" d="M192.59,112.72c-1.4,1.18-1.93,2.43-1.5,2.71.43.28,1.56-.32,2.76-1.8,1.2-1.48,1.48-2.65,1.48-2.65,0,0-1.3.54-2.74,1.75Z"/>
    <path class="st0" d="M189.95,112.74c1.22,1.23,1.57,2.45,1.11,2.68-.46.23-1.48-.42-2.47-1.92-.99-1.49-1.1-2.63-1.1-2.63,0,0,1.2.61,2.45,1.87Z"/>
    <path class="st0" d="M192.29,117.08c-1.46,1.11-2.05,2.32-1.63,2.62s1.57-.24,2.85-1.65c1.28-1.41,1.61-2.57,1.61-2.57,0,0-1.33.47-2.83,1.6Z"/>
    <path class="st0" d="M189.65,116.96c1.15,1.29,1.44,2.53.97,2.74-.47.21-1.46-.5-2.36-2.04-.91-1.54-.96-2.69-.96-2.69,0,0,1.17.67,2.35,1.99Z"/>
    <path class="st0" d="M191.75,121.42c-1.52,1.03-2.17,2.21-1.77,2.53.4.32,1.58-.16,2.93-1.5,1.35-1.34,1.74-2.49,1.74-2.49,0,0-1.35.4-2.91,1.45Z"/>
    <path class="st0" d="M189.12,121.16c1.08,1.35,1.31,2.6.83,2.79s-1.43-.57-2.25-2.16c-.82-1.59-.82-2.73-.82-2.73,0,0,1.13.73,2.24,2.11Z"/>
    <path class="st0" d="M190.99,125.72c-1.57.95-2.28,2.1-1.9,2.44.38.34,1.59-.07,3.01-1.35,1.42-1.27,1.87-2.39,1.87-2.39,0,0-1.37.33-2.98,1.3Z"/>
    <path class="st0" d="M188.38,125.33c1.01,1.4,1.17,2.67.68,2.83-.49.16-1.4-.65-2.14-2.28-.74-1.63-.67-2.77-.67-2.77,0,0,1.09.79,2.13,2.23Z"/>
    <path class="st0" d="M190.01,129.98c-1.62.87-2.39,1.97-2.02,2.34s1.59,0,3.07-1.19c1.48-1.2,1.99-2.29,1.99-2.29,0,0-1.38.25-3.04,1.14Z"/>
    <path class="st0" d="M187.42,129.45c.94,1.46,1.03,2.73.53,2.86-.5.13-1.36-.72-2.01-2.39-.65-1.67-.53-2.81-.53-2.81,0,0,1.05.84,2.01,2.33Z"/>
    <path class="st0" d="M188.81,134.18c-1.66.78-2.49,1.85-2.14,2.23.35.38,1.59.09,3.13-1.02,1.54-1.12,2.11-2.18,2.11-2.18,0,0-1.4.18-3.1.98Z"/>
    <path class="st0" d="M186.25,133.52c.86,1.5.88,2.78.38,2.88-.5.11-1.32-.79-1.89-2.49-.57-1.7-.38-2.83-.38-2.83,0,0,1.01.9,1.89,2.44Z"/>
    <path class="st0" d="M187.38,138.31c-1.7.69-2.58,1.71-2.26,2.11.32.4,1.58.18,3.18-.86,1.6-1.03,2.22-2.07,2.22-2.07,0,0-1.4.11-3.15.82Z"/>
    <path class="st0" d="M184.87,137.52c.78,1.55.74,2.82.23,2.9s-1.28-.86-1.75-2.58c-.48-1.73-.23-2.85-.23-2.85,0,0,.96.95,1.76,2.53Z"/>
    <path class="st0" d="M185.75,142.37c-1.73.6-2.67,1.58-2.37,1.99.3.41,1.57.26,3.22-.69,1.65-.95,2.33-1.95,2.33-1.95,0,0-1.41.03-3.18.65Z"/>
    <path class="st0" d="M183.27,141.44c.7,1.58.59,2.85.08,2.9-.51.05-1.23-.92-1.61-2.67-.38-1.75-.08-2.85-.08-2.85,0,0,.91,1,1.62,2.62Z"/>
    <path class="st0" d="M183.9,146.33c-1.76.51-2.75,1.43-2.47,1.86.28.43,1.55.34,3.25-.52,1.7-.86,2.43-1.82,2.43-1.82,0,0-1.41-.04-3.21.48Z"/>
    <path class="st0" d="M181.48,145.27c.61,1.62.44,2.88-.07,2.9-.51.03-1.18-.99-1.47-2.75-.29-1.77.07-2.85.07-2.85,0,0,.85,1.04,1.48,2.7Z"/>
    <path class="st0" d="M181.85,150.19c-1.79.42-2.82,1.29-2.56,1.73.26.44,1.53.42,3.28-.35,1.74-.77,2.52-1.7,2.52-1.7,0,0-1.4-.11-3.23.31Z"/>
    <path class="st0" d="M179.49,149.01c.53,1.65.29,2.9-.23,2.9-.51,0-1.13-1.05-1.33-2.83-.2-1.78.22-2.85.22-2.85,0,0,.8,1.09,1.34,2.78Z"/>
    <path class="st0" d="M179.6,153.93c-1.81.32-2.88,1.14-2.65,1.6s1.51.5,3.29-.18c1.78-.68,2.6-1.56,2.6-1.56,0,0-1.4-.19-3.25.14Z"/>
    <path class="st0" d="M177.3,152.63c.44,1.67.13,2.91-.38,2.88-.51-.03-1.07-1.1-1.18-2.89-.11-1.79.36-2.83.36-2.83,0,0,.74,1.13,1.19,2.84Z"/>
    <path class="st0" d="M177.15,157.56c-1.82.23-2.94.99-2.73,1.45.21.47,1.48.58,3.29,0,1.81-.58,2.68-1.42,2.68-1.42,0,0-1.38-.26-3.25-.03Z"/>
    <path class="st0" d="M174.93,156.14c.35,1.69-.02,2.91-.53,2.86-.51-.06-1.01-1.16-1.02-2.95-.01-1.79.51-2.81.51-2.81,0,0,.68,1.16,1.04,2.9Z"/>
    <path class="st0" d="M174.52,161.05c-1.83.13-2.99.83-2.8,1.31.19.48,1.45.65,3.29.17,1.84-.49,2.75-1.28,2.75-1.28,0,0-1.37-.33-3.24-.2Z"/>
    <path class="st0" d="M172.37,159.51c.26,1.71-.17,2.91-.68,2.83-.51-.08-.95-1.21-.87-3,.08-1.79.66-2.78.66-2.78,0,0,.62,1.2.89,2.95Z"/>
    <path class="st0" d="M171.71,164.4c-1.84.04-3.03.67-2.86,1.16.16.49,1.41.73,3.28.34,1.87-.39,2.82-1.13,2.82-1.13,0,0-1.35-.4-3.23-.37Z"/>
    <path class="st0" d="M169.65,162.75c.17,1.72-.32,2.89-.82,2.79s-.88-1.26-.71-3.04c.17-1.78.8-2.74.8-2.74,0,0,.55,1.23.73,2.99Z"/>
    <path class="st0" d="M168.73,167.59c-1.83-.06-3.06.52-2.92,1.01.14.49,1.37.8,3.25.51s2.87-.99,2.87-.99c0,0-1.33-.47-3.21-.53Z"/>
    <path class="st0" d="M166.76,165.84c.08,1.73-.47,2.87-.97,2.74-.49-.13-.82-1.3-.55-3.07.27-1.77.94-2.69.94-2.69,0,0,.49,1.26.57,3.03Z"/>
    <path class="st0" d="M165.59,170.63c-1.83-.16-3.08.35-2.97.86.11.5,1.33.87,3.22.68,1.9-.19,2.92-.83,2.92-.83,0,0-1.3-.54-3.17-.7Z"/>
    <path class="st0" d="M163.71,168.78c0,1.73-.62,2.84-1.11,2.68-.49-.16-.75-1.34-.39-3.1.36-1.75,1.08-2.64,1.08-2.64,0,0,.42,1.28.41,3.05Z"/>
    <path class="st0" d="M162.29,173.5c-1.82-.25-3.09.19-3.01.7.08.51,1.28.94,3.18.85,1.9-.09,2.96-.68,2.96-.68,0,0-1.27-.61-3.13-.87Z"/>
    <path class="st0" d="M160.51,171.55c-.1,1.73-.77,2.81-1.25,2.62-.48-.19-.68-1.38-.23-3.11.45-1.73,1.22-2.58,1.22-2.58,0,0,.35,1.3.25,3.07Z"/>
    <path class="st0" d="M158.84,176.19c-1.8-.35-3.1.03-3.04.54.06.51,1.23,1.01,3.13,1.01,1.91,0,2.99-.52,2.99-.52,0,0-1.24-.67-3.08-1.03Z"/>
    <path class="st0" d="M157.17,174.15c-.19,1.72-.92,2.76-1.39,2.55-.47-.21-.6-1.41-.06-3.12.54-1.71,1.35-2.51,1.35-2.51,0,0,.29,1.32.09,3.08Z"/>
    <path class="st0" d="M155.26,178.7c-1.78-.44-3.1-.13-3.07.38s1.17,1.07,3.08,1.17c1.9.1,3.01-.37,3.01-.37,0,0-1.2-.74-3.02-1.19Z"/>
    <path class="st0" d="M153.7,176.57c-.28,1.71-1.06,2.71-1.52,2.48-.46-.23-.53-1.44.1-3.12.63-1.68,1.48-2.44,1.48-2.44,0,0,.22,1.33-.07,3.08Z"/>
    <path class="st0" d="M151.56,181.01c-1.76-.53-3.09-.29-3.08.22s1.12,1.13,3.01,1.33c1.89.2,3.03-.21,3.03-.21,0,0-1.16-.8-2.96-1.35Z"/>
    <path class="st0" d="M150.1,178.81c-.37,1.69-1.2,2.65-1.64,2.4-.44-.26-.45-1.47.26-3.11.72-1.64,1.61-2.36,1.61-2.36,0,0,.15,1.34-.23,3.07Z"/>
    <path class="st0" d="M147.73,183.13c-1.73-.62-3.07-.45-3.09.06-.02.51,1.06,1.19,2.94,1.49,1.88.3,3.04-.05,3.04-.05,0,0-1.12-.86-2.88-1.5Z"/>
    <path class="st0" d="M146.4,180.86c-.45,1.67-1.34,2.59-1.77,2.31-.43-.28-.38-1.49.43-3.09.8-1.6,1.73-2.27,1.73-2.27,0,0,.08,1.34-.39,3.06Z"/>
    <path class="st0" d="M143.81,185.05c-1.69-.71-3.04-.61-3.09-.1s.99,1.24,2.86,1.64c1.86.4,3.03.11,3.03.11,0,0-1.07-.92-2.8-1.65Z"/>
    <path class="st0" d="M142.59,182.71c-.54,1.64-1.47,2.51-1.89,2.21-.41-.3-.3-1.51.59-3.07.88-1.56,1.85-2.18,1.85-2.18,0,0,0,1.35-.55,3.03Z"/>
    <path class="st0" d="M139.78,186.76c-1.65-.8-3-.77-3.08-.27-.08.51.93,1.29,2.77,1.79s3.02.27,3.02.27c0,0-1.02-.97-2.71-1.79Z"/>
    <path class="st0" d="M138.69,184.35c-.63,1.61-1.6,2.43-2,2.11s-.22-1.52.75-3.03c.96-1.51,1.96-2.08,1.96-2.08,0,0-.06,1.35-.71,3Z"/>
    <path class="st0" d="M135.67,188.25c-1.61-.89-2.96-.93-3.06-.43s.86,1.34,2.67,1.93c1.81.59,3.01.43,3.01.43,0,0-.97-1.02-2.61-1.93Z"/>
    <path class="st0" d="M134.71,185.79c-.71,1.58-1.73,2.35-2.11,2s-.14-1.53.9-2.99c1.04-1.46,2.06-1.97,2.06-1.97,0,0-.13,1.34-.86,2.96Z"/>
    <path class="st0" d="M131.49,189.53c-1.56-.97-2.91-1.08-3.03-.59-.13.5.79,1.38,2.56,2.07,1.78.69,2.98.58,2.98.58,0,0-.91-1.07-2.51-2.06Z"/>
    <path class="st0" d="M130.66,187.03c-.79,1.54-1.85,2.25-2.21,1.89-.36-.36-.06-1.54,1.06-2.94,1.12-1.4,2.17-1.86,2.17-1.86,0,0-.2,1.33-1.02,2.91Z"/>
    <path class="st0" d="M127.25,190.59c-1.51-1.05-2.84-1.23-3-.74-.16.49.71,1.42,2.45,2.2,1.74.78,2.95.74,2.95.74,0,0-.85-1.12-2.4-2.19Z"/>
    <path class="st0" d="M126.55,188.04c-.87,1.5-1.96,2.15-2.3,1.77-.34-.38.02-1.54,1.21-2.88,1.19-1.34,2.26-1.74,2.26-1.74,0,0-.27,1.32-1.17,2.85Z"/>
    <path class="st0" d="M122.96,191.42c-1.45-1.13-2.78-1.38-2.96-.9-.18.48.64,1.46,2.33,2.32s2.9.89,2.9.89c0,0-.8-1.16-2.28-2.32Z"/>
    <path class="st0" d="M122.39,188.84c-.95,1.45-2.07,2.05-2.39,1.65-.32-.4.1-1.53,1.36-2.81,1.26-1.28,2.35-1.62,2.35-1.62,0,0-.34,1.3-1.31,2.79Z"/>
    <path class="st0" d="M118.63,192.03c-1.39-1.2-2.7-1.52-2.91-1.05-.21.47.56,1.49,2.21,2.44,1.65.96,2.85,1.04,2.85,1.04,0,0-.73-1.2-2.15-2.43Z"/>
    <path class="st0" d="M118.2,189.43c-1.02,1.4-2.18,1.93-2.48,1.52-.3-.42.18-1.53,1.51-2.73,1.32-1.21,2.43-1.5,2.43-1.5,0,0-.41,1.28-1.46,2.71Z"/>
    <path class="st0" d="M114.28,192.41c-1.32-1.27-2.62-1.66-2.85-1.2-.23.46.48,1.51,2.08,2.56,1.6,1.04,2.79,1.19,2.79,1.19,0,0-.67-1.24-2.02-2.54Z"/>
    <path class="st0" d="M113.98,189.79c-1.09,1.34-2.28,1.82-2.55,1.39-.28-.43.26-1.52,1.65-2.65,1.38-1.14,2.5-1.37,2.5-1.37,0,0-.48,1.26-1.6,2.63Z"/>
    <path class="st0" d="M130.08,28.25c.87,1.62,1.97,2.39,2.34,2.02.36-.36,0-1.59-1.19-3.07-1.2-1.48-2.29-1.99-2.29-1.99,0,0,.25,1.38,1.14,3.04Z"/>
    <path class="st0" d="M129.55,30.83c1.46-.94,2.73-1.03,2.86-.53.13.5-.72,1.36-2.39,2.01-1.67.65-2.81.53-2.81.53,0,0,.84-1.05,2.33-2.01Z"/>
    <path class="st0" d="M134.28,29.45c.78,1.66,1.85,2.49,2.23,2.14.38-.35.09-1.59-1.02-3.13-1.12-1.54-2.18-2.11-2.18-2.11,0,0,.18,1.4.98,3.1Z"/>
    <path class="st0" d="M133.62,32.01c1.5-.86,2.78-.88,2.88-.38s-.79,1.32-2.49,1.89c-1.7.57-2.83.38-2.83.38,0,0,.9-1.01,2.44-1.89Z"/>
    <path class="st0" d="M138.42,30.88c.69,1.7,1.71,2.58,2.11,2.26.4-.32.18-1.58-.86-3.18-1.03-1.6-2.07-2.22-2.07-2.22,0,0,.11,1.4.82,3.15Z"/>
    <path class="st0" d="M137.62,33.39c1.55-.78,2.82-.74,2.9-.23.08.51-.86,1.28-2.58,1.75-1.73.48-2.85.23-2.85.23,0,0,.95-.96,2.53-1.76Z"/>
    <path class="st0" d="M142.47,32.51c.6,1.73,1.58,2.67,1.99,2.37.41-.3.26-1.57-.69-3.22-.95-1.65-1.95-2.33-1.95-2.33,0,0,.03,1.41.65,3.18Z"/>
    <path class="st0" d="M141.54,34.98c1.58-.7,2.85-.59,2.9-.08.05.51-.92,1.23-2.67,1.61-1.75.38-2.85.08-2.85.08,0,0,1-.91,2.62-1.62Z"/>
    <path class="st0" d="M146.43,34.36c.51,1.76,1.43,2.75,1.86,2.47.43-.28.34-1.55-.52-3.25-.86-1.7-1.82-2.43-1.82-2.43,0,0-.04,1.41.48,3.21Z"/>
    <path class="st0" d="M145.37,36.78c1.62-.61,2.88-.44,2.9.07.03.51-.99,1.18-2.75,1.47-1.77.29-2.85-.07-2.85-.07,0,0,1.04-.85,2.7-1.48Z"/>
    <path class="st0" d="M150.29,36.41c.42,1.79,1.29,2.82,1.73,2.56.44-.26.42-1.53-.35-3.28-.77-1.74-1.7-2.52-1.7-2.52,0,0-.11,1.4.31,3.23Z"/>
    <path class="st0" d="M149.11,38.77c1.65-.53,2.9-.29,2.9.23,0,.51-1.05,1.13-2.83,1.33-1.78.2-2.85-.22-2.85-.22,0,0,1.09-.8,2.78-1.34Z"/>
    <path class="st0" d="M154.04,38.66c.32,1.81,1.14,2.88,1.6,2.65.46-.24.5-1.51-.18-3.29-.68-1.78-1.56-2.6-1.56-2.6,0,0-.19,1.4.14,3.25Z"/>
    <path class="st0" d="M152.73,40.96c1.67-.44,2.91-.13,2.88.38-.03.51-1.1,1.07-2.89,1.18-1.79.11-2.83-.36-2.83-.36,0,0,1.13-.74,2.84-1.19Z"/>
    <path class="st0" d="M157.66,41.11c.23,1.82.99,2.94,1.45,2.73s.58-1.48,0-3.29-1.42-2.68-1.42-2.68c0,0-.26,1.38-.03,3.25Z"/>
    <path class="st0" d="M156.24,43.33c1.69-.35,2.91.02,2.86.53s-1.16,1.01-2.95,1.02-2.81-.51-2.81-.51c0,0,1.16-.68,2.9-1.04Z"/>
    <path class="st0" d="M161.15,43.74c.13,1.83.83,2.99,1.31,2.8.48-.19.65-1.45.17-3.29-.49-1.84-1.28-2.75-1.28-2.75,0,0-.33,1.37-.2,3.24Z"/>
    <path class="st0" d="M159.62,45.89c1.71-.26,2.91.17,2.83.68-.08.51-1.21.95-3,.87s-2.78-.66-2.78-.66c0,0,1.2-.62,2.95-.89Z"/>
    <path class="st0" d="M164.5,46.55c.04,1.84.67,3.03,1.16,2.86s.73-1.41.34-3.28c-.39-1.87-1.13-2.82-1.13-2.82,0,0-.4,1.35-.37,3.23Z"/>
    <path class="st0" d="M162.85,48.61c1.72-.17,2.89.32,2.79.82s-1.26.88-3.04.71c-1.78-.17-2.74-.8-2.74-.8,0,0,1.23-.55,2.99-.73Z"/>
    <path class="st0" d="M167.7,49.53c-.06,1.83.52,3.06,1.01,2.92.49-.14.8-1.37.51-3.25-.29-1.88-.99-2.87-.99-2.87,0,0-.47,1.33-.53,3.21Z"/>
    <path class="st0" d="M165.94,51.5c1.73-.08,2.87.47,2.74.97-.13.49-1.3.82-3.07.55-1.77-.27-2.69-.94-2.69-.94,0,0,1.26-.49,3.03-.57Z"/>
    <path class="st0" d="M170.73,52.67c-.16,1.83.35,3.08.86,2.97.5-.11.87-1.33.68-3.22-.19-1.9-.83-2.92-.83-2.92,0,0-.54,1.3-.7,3.17Z"/>
    <path class="st0" d="M168.88,54.55c1.73,0,2.84.62,2.68,1.11-.16.49-1.34.75-3.1.39s-2.64-1.08-2.64-1.08c0,0,1.28-.42,3.05-.41Z"/>
    <path class="st0" d="M173.6,55.97c-.25,1.82.19,3.09.7,3.01s.94-1.28.85-3.18c-.09-1.9-.68-2.96-.68-2.96,0,0-.61,1.27-.87,3.13Z"/>
    <path class="st0" d="M171.65,57.75c1.73.1,2.81.77,2.62,1.25-.19.48-1.38.68-3.11.23s-2.58-1.22-2.58-1.22c0,0,1.3-.35,3.07-.25Z"/>
    <path class="st0" d="M176.29,59.41c-.35,1.8.03,3.1.54,3.04s1.01-1.23,1.01-3.13-.52-2.99-.52-2.99c0,0-.67,1.24-1.03,3.08Z"/>
    <path class="st0" d="M174.25,61.09c1.72.19,2.76.92,2.55,1.39-.21.47-1.41.6-3.12.06-1.71-.54-2.51-1.35-2.51-1.35,0,0,1.32-.29,3.08-.09Z"/>
    <path class="st0" d="M178.8,63c-.44,1.78-.13,3.1.38,3.07s1.07-1.17,1.17-3.08c.1-1.9-.37-3.01-.37-3.01,0,0-.74,1.2-1.19,3.02Z"/>
    <path class="st0" d="M176.67,64.56c1.71.28,2.71,1.06,2.48,1.52-.23.46-1.44.53-3.12-.1-1.68-.63-2.44-1.48-2.44-1.48,0,0,1.33-.22,3.08.07Z"/>
    <path class="st0" d="M181.12,66.7c-.53,1.76-.29,3.09.22,3.08.51,0,1.13-1.12,1.33-3.01.2-1.89-.21-3.03-.21-3.03,0,0-.8,1.16-1.35,2.96Z"/>
    <path class="st0" d="M178.91,68.16c1.69.37,2.65,1.2,2.4,1.64s-1.47.45-3.11-.26c-1.64-.72-2.36-1.61-2.36-1.61,0,0,1.34-.15,3.07.23Z"/>
    <path class="st0" d="M183.23,70.52c-.62,1.73-.45,3.07.06,3.09s1.19-1.06,1.49-2.94c.3-1.88-.05-3.04-.05-3.04,0,0-.86,1.12-1.5,2.88Z"/>
    <path class="st0" d="M180.96,71.86c1.67.45,2.59,1.34,2.31,1.77-.28.43-1.49.38-3.09-.43-1.6-.8-2.27-1.73-2.27-1.73,0,0,1.34-.08,3.06.39Z"/>
    <path class="st0" d="M185.15,74.45c-.71,1.69-.61,3.04-.1,3.09.51.05,1.24-.99,1.64-2.86.4-1.86.11-3.03.11-3.03,0,0-.92,1.07-1.65,2.8Z"/>
    <path class="st0" d="M182.81,75.67c1.64.54,2.51,1.47,2.21,1.89-.3.41-1.51.3-3.07-.59s-2.18-1.85-2.18-1.85c0,0,1.35,0,3.03.55Z"/>
    <path class="st0" d="M186.86,78.48c-.8,1.65-.77,3-.27,3.08.51.08,1.29-.93,1.79-2.77.5-1.84.27-3.02.27-3.02,0,0-.97,1.02-1.79,2.71Z"/>
    <path class="st0" d="M184.45,79.57c1.61.63,2.43,1.6,2.11,2-.32.4-1.52.22-3.03-.75-1.51-.96-2.08-1.96-2.08-1.96,0,0,1.35.06,3,.71Z"/>
    <path class="st0" d="M188.35,82.58c-.89,1.61-.93,2.96-.43,3.06.5.1,1.34-.86,1.93-2.67.59-1.81.43-3.01.43-3.01,0,0-1.02.97-1.93,2.61Z"/>
    <path class="st0" d="M185.9,83.55c1.58.71,2.35,1.73,2,2.11-.34.38-1.53.14-2.99-.9-1.46-1.04-1.97-2.06-1.97-2.06,0,0,1.34.13,2.96.86Z"/>
    <path class="st0" d="M189.63,86.76c-.97,1.56-1.08,2.91-.59,3.03s1.38-.79,2.07-2.56c.69-1.78.58-2.98.58-2.98,0,0-1.07.91-2.06,2.51Z"/>
    <path class="st0" d="M187.13,87.6c1.54.79,2.25,1.85,1.89,2.21-.36.36-1.54.06-2.94-1.06-1.4-1.12-1.86-2.17-1.86-2.17,0,0,1.33.2,2.91,1.02Z"/>
    <path class="st0" d="M190.69,91.01c-1.05,1.51-1.23,2.84-.74,3,.49.16,1.42-.71,2.2-2.45.78-1.74.74-2.95.74-2.95,0,0-1.12.85-2.19,2.4Z"/>
    <path class="st0" d="M188.14,91.71c1.5.87,2.15,1.96,1.77,2.3s-1.54-.02-2.88-1.21c-1.34-1.19-1.74-2.26-1.74-2.26,0,0,1.32.27,2.85,1.17Z"/>
    <path class="st0" d="M191.52,95.3c-1.13,1.45-1.38,2.78-.9,2.96.48.18,1.46-.64,2.32-2.33.87-1.7.89-2.9.89-2.9,0,0-1.16.8-2.32,2.28Z"/>
    <path class="st0" d="M188.95,95.86c1.45.95,2.05,2.07,1.65,2.39-.4.32-1.53-.1-2.81-1.36-1.28-1.26-1.62-2.35-1.62-2.35,0,0,1.3.34,2.79,1.31Z"/>
    <path class="st0" d="M192.13,99.62c-1.2,1.39-1.52,2.7-1.05,2.91.47.21,1.49-.56,2.44-2.21.96-1.65,1.04-2.85,1.04-2.85,0,0-1.2.73-2.43,2.15Z"/>
    <path class="st0" d="M189.53,100.06c1.4,1.02,1.93,2.18,1.52,2.48s-1.53-.18-2.73-1.51c-1.21-1.32-1.5-2.43-1.5-2.43,0,0,1.28.41,2.71,1.46Z"/>
    <path class="st0" d="M192.51,103.98c-1.27,1.32-1.66,2.62-1.2,2.85.46.23,1.51-.48,2.56-2.08,1.04-1.6,1.19-2.79,1.19-2.79,0,0-1.24.67-2.54,2.02Z"/>
    <path class="st0" d="M189.89,104.27c1.34,1.09,1.82,2.28,1.39,2.55-.43.28-1.52-.26-2.65-1.65-1.14-1.38-1.37-2.5-1.37-2.5,0,0,1.26.48,2.63,1.6Z"/>
  </g>
  <path class="st0" d="M118.46,223.69l-1.9-1.9c.8-1.3,1.2-2.8,1.2-4.5,0-4.8-3.8-8.6-8.6-8.6s-8.6,3.9-8.6,8.6,3.8,8.6,8.6,8.6c1.9,0,3.6-.6,5-1.7l1.8,1.7,2.5-2.2ZM109.26,222.49c-2.9,0-5.3-2.3-5.3-5.3s2.3-5.3,5.3-5.3,5.3,2.3,5.3,5.3c0,.7-.1,1.3-.4,2l-.1-.1h-4.9l2.7,2.7c-.9.4-1.6.7-2.6.7Z"/>
  <g>
    <path class="st0" d="M33.23,187.53l-1.34-1.32,6.53-6.62,1.34,1.32-6.53,6.62Z"/>
    <path class="st0" d="M26.56,180.57l-1.2-1.49,2.09-5.67c.21-.55.6-1.32.6-1.32l-.02-.02s-.72.64-1.22,1.05l-3.79,3.06-1.17-1.45,7.23-5.84,1.14,1.42-2,5.7c-.2.54-.58,1.32-.58,1.32l.02.02s.73-.65,1.23-1.06l3.73-3.01,1.17,1.45-7.23,5.84Z"/>
    <path class="st0" d="M17.59,168.66l-3.87-6.4,1.36-.82,1.45,2.39,6.6-3.99.97,1.61-6.6,3.99,1.45,2.39-1.36.82Z"/>
    <path class="st0" d="M10.35,155.66l-2.73-6.27,1.46-.63,1.98,4.54,1.91-.83-1.73-3.98,1.42-.62,1.73,3.98,2.3-1-1.99-4.58,1.44-.63,2.74,6.31-8.53,3.71Z"/>
    <path class="st0" d="M5.04,142.14l-1.15-4.1c-.49-1.73.19-3.16,1.68-3.58,1.05-.3,1.99-.03,2.63,1.03h.04c0-.9.36-1.46,1.42-1.88,1.23-.48,2.21-.7,2.26-1.05l.09-.02.49,1.74c-.04.25-1.03.56-1.97.91-.95.35-1.35,1.05-1.03,2.18l.41,1.47,3.59-1.01.51,1.81-8.95,2.52ZM8.48,139.21l-.54-1.93c-.28-.99-.93-1.33-1.64-1.13-.73.2-1.13.82-.86,1.78l.56,1.98,2.49-.7Z"/>
    <path class="st0" d="M1.5,127.6l-.26-1.89,4.73-3.76c.46-.36,1.2-.82,1.2-.82v-.03s-.95.18-1.59.27l-4.83.65-.25-1.84,9.21-1.25.24,1.8-4.67,3.83c-.45.36-1.19.83-1.19.83v.03s.96-.18,1.61-.27l4.75-.64.25,1.84-9.21,1.25Z"/>
    <path class="st0" d="M0,109.73v-1.95s9.31-3.25,9.31-3.25v1.96s-1.98.62-1.98.62v3.36s1.96.62,1.96.62v1.91s-9.29-3.27-9.29-3.27ZM5.88,110.02v-2.46s-2.67.82-2.67.82c-.5.15-1.43.37-1.43.37v.03s.94.24,1.43.39l2.68.84Z"/>
    <path class="st0" d="M.39,98.99l.94-7.42,1.58.2-.35,2.77,7.65.97-.24,1.87-7.65-.97-.35,2.77-1.57-.2Z"/>
    <path class="st0" d="M2.79,84.44l.44-1.83,9.04,2.17-.44,1.83-9.04-2.17Z"/>
    <path class="st0" d="M9.55,77.12c-2.61-.96-3.94-3.31-3-5.88.95-2.57,3.49-3.48,6.1-2.52,2.61.96,3.94,3.29,2.99,5.87-.95,2.57-3.48,3.5-6.09,2.53ZM11.99,70.52c-1.74-.64-3.38-.36-3.97,1.23-.59,1.6.46,2.91,2.21,3.56,1.73.64,3.39.32,3.98-1.28.59-1.6-.48-2.88-2.21-3.52Z"/>
    <path class="st0" d="M11.46,60.2l.92-1.68,6.04-.23c.59-.02,1.45.05,1.45.05v-.02s-.86-.41-1.43-.73l-4.28-2.34.89-1.63,8.17,4.45-.87,1.6-6.03.33c-.58.03-1.45-.03-1.45-.03v.02s.87.42,1.44.73l4.21,2.3-.89,1.63-8.17-4.45Z"/>
    <path class="st0" d="M20.84,44.9l1.16-1.57,9.42,2.9-1.17,1.58-1.96-.68-2,2.7,1.22,1.67-1.14,1.54-5.54-8.14ZM25.4,48.62l1.46-1.98-2.65-.93c-.49-.17-1.37-.55-1.37-.55l-.02.02s.61.75.92,1.17l1.66,2.26Z"/>
    <path class="st0" d="M28.69,35.25l1.31-1.36,5.55,5.37,3.04-3.14,1.13,1.09-4.35,4.5-6.68-6.46Z"/>
    <path class="st0" d="M45.04,20.65l5.65-3.85.89,1.31-4.09,2.79,1.17,1.72,3.59-2.45.87,1.28-3.59,2.45,1.41,2.07,4.13-2.81.89,1.3-5.68,3.88-5.24-7.68Z"/>
    <path class="st0" d="M57.27,12.96l1.68-.85,3.49,6.88,3.89-1.98.71,1.4-5.57,2.83-4.2-8.29Z"/>
    <path class="st0" d="M69.57,7.31l1.76-.67,3.3,8.69-1.76.67-3.3-8.69Z"/>
    <path class="st0" d="M78.22,4.28l7.24-1.87.4,1.54-2.71.7,1.93,7.47-1.83.47-1.93-7.47-2.71.7-.4-1.54Z"/>
    <path class="st0" d="M92.73,1.08l6.79-.82.19,1.57-4.92.59.25,2.06,4.31-.52.19,1.54-4.31.52.3,2.49,4.96-.6.19,1.56-6.83.83-1.12-9.23Z"/>
    <path class="st0" d="M115.41,0l3.61.32c2.47.22,3.89,2.36,3.65,5.09-.13,1.5-.75,2.78-1.8,3.51-.74.51-1.66.75-2.83.65l-3.46-.31.82-9.26ZM118.06,7.94c1.76.16,2.54-.86,2.71-2.7s-.53-3.19-2.12-3.34l-1.5-.13-.54,6.04,1.45.13Z"/>
    <path class="st0" d="M130.51,1.92l6.67,1.53-.36,1.55-4.83-1.11-.47,2.03,4.23.97-.35,1.51-4.23-.97-.56,2.45,4.87,1.12-.35,1.53-6.7-1.54,2.08-9.06Z"/>
    <path class="st0" d="M141.8,11.52l1.73.65c-.27,1.09.17,1.73,1.41,2.2.9.34,1.81.32,2.11-.48.32-.85-.44-1.33-1.65-2.14-1.42-.94-2.69-1.89-2-3.7.65-1.72,2.38-2.07,4.31-1.34,1.96.74,2.86,2.18,2.33,3.98l-1.69-.64c.23-.91-.28-1.61-1.18-1.95-.95-.36-1.72-.19-1.96.43-.27.71.26,1.14,1.45,1.91,1.64,1.06,2.94,2.04,2.23,3.91-.67,1.76-2.46,2.21-4.42,1.47-2.36-.89-3.3-2.44-2.67-4.3Z"/>
    <path class="st0" d="M157.96,11.35l1.68.86-4.23,8.28-1.68-.86,4.23-8.28Z"/>
    <path class="st0" d="M167.59,26.45h-.02c-1.12.52-2.06.35-2.97-.27-1.17-.78-1.79-1.81-1.96-2.94-.16-1.14.14-2.38.92-3.55.86-1.29,2.07-2.11,3.38-2.31,1.01-.15,2.04.08,3.08.78,1.94,1.3,2.34,3.12,1.58,4.8l-1.53-1.03c.33-.86.11-1.78-.88-2.45-1.46-.98-2.99-.25-4.02,1.28-1.06,1.58-1,3.29.33,4.18,1.2.8,2.59.43,3.16-.42l.03-.04-1.86-1.24.81-1.21,3.25,2.18-2.75,4.1-1.18-.79.64-1.07Z"/>
    <path class="st0" d="M179.47,25.43l1.42,1.28-1.17,5.92c-.12.58-.38,1.4-.38,1.4l.02.02s.6-.75,1.04-1.23l3.26-3.62,1.38,1.24-6.21,6.91-1.35-1.22,1.08-5.94c.11-.57.37-1.4.37-1.4l-.02-.02s-.61.76-1.05,1.24l-3.21,3.57-1.38-1.24,6.21-6.91Z"/>
    <path class="st0" d="M195.79,42.47l2.39,3.31c.63.87.85,1.71.72,2.48-.13.73-.53,1.41-1.23,1.92-1.42,1.03-3.06.78-4.2-.8l-1.34-1.86-2.73,1.97-1.14-1.58,7.54-5.44ZM193.37,46.62l1.14,1.58c.58.8,1.33.9,2.01.41.71-.51.79-1.24.24-2l-1.16-1.6-2.23,1.61Z"/>
    <path class="st0" d="M203.99,54.74l2,3.76c.84,1.58.49,3.13-.88,3.85-.96.51-1.94.46-2.79-.45l-.04.02c.19.87-.04,1.5-.99,2.13-1.1.73-2.01,1.16-1.98,1.51l-.08.04-.85-1.6c-.02-.26.89-.77,1.73-1.31.86-.54,1.09-1.32.55-2.35l-.72-1.34-3.29,1.75-.89-1.66,8.21-4.37ZM201.25,58.33l.94,1.77c.48.91,1.19,1.1,1.84.76.67-.35.93-1.04.46-1.93l-.97-1.81-2.28,1.22Z"/>
    <path class="st0" d="M206.03,69.4c2.62-.94,5.15,0,6.08,2.57.93,2.58-.43,4.91-3.04,5.85-2.62.94-5.14.02-6.07-2.56-.93-2.58.41-4.92,3.03-5.86ZM208.42,76.02c1.75-.63,2.82-1.9,2.25-3.51s-2.23-1.93-3.98-1.3c-1.74.63-2.8,1.94-2.22,3.54.58,1.6,2.22,1.9,3.96,1.27Z"/>
    <path class="st0" d="M215.43,83.54l1.36,6.52-1.57.33-.97-4.67-2.19.46.83,3.96-1.58.33-.83-3.96-3.77.79-.39-1.85,9.1-1.9Z"/>
    <path class="st0" d="M217.83,97.47l.52,6.82-1.58.12-.38-4.94-2.07.16.33,4.33-1.54.12-.33-4.33-2.5.19.38,4.98-1.57.12-.52-6.86,9.27-.7Z"/>
    <path class="st0" d="M212.02,111.11l-.1,1.84c-1.12.07-1.6.68-1.67,2-.05.96.24,1.82,1.09,1.87.91.05,1.14-.82,1.54-2.22.47-1.64,1-3.13,2.93-3.02,1.83.1,2.69,1.65,2.58,3.71-.12,2.09-1.22,3.38-3.1,3.42l.1-1.8c.94-.05,1.45-.75,1.5-1.71.06-1.01-.33-1.7-1-1.74-.75-.04-1.01.59-1.38,1.95-.52,1.88-1.06,3.42-3.06,3.3-1.88-.11-2.85-1.68-2.73-3.77.14-2.52,1.34-3.88,3.3-3.84Z"/>
    <path class="st0" d="M210.81,125.07l-.35,1.81c-1.12-.09-1.68.45-1.93,1.75-.18.94-.01,1.84.83,2,.89.17,1.24-.66,1.83-1.99.69-1.56,1.41-2.97,3.31-2.6,1.8.35,2.44,2,2.05,4.03-.4,2.05-1.67,3.18-3.53,2.97l.34-1.77c.94.08,1.54-.55,1.72-1.49.19-1-.1-1.73-.75-1.85-.74-.14-1.08.45-1.64,1.75-.77,1.8-1.52,3.24-3.48,2.86-1.85-.36-2.59-2.05-2.19-4.11.48-2.47,1.85-3.67,3.79-3.35Z"/>
    <path class="st0" d="M213.66,141l-.57,1.8-8.87-2.79.57-1.8,8.87,2.79Z"/>
    <path class="st0" d="M206.41,147.84c2.54,1.14,3.71,3.58,2.58,6.08-1.12,2.5-3.72,3.23-6.26,2.09s-3.7-3.56-2.58-6.06c1.12-2.5,3.71-3.25,6.25-2.11ZM203.53,154.25c1.69.76,3.35.59,4.05-.96.7-1.55-.26-2.94-1.96-3.7-1.68-.76-3.36-.55-4.06,1-.7,1.55.28,2.91,1.96,3.66Z"/>
    <path class="st0" d="M203.34,164.56l-1.03,1.61-6.04-.18c-.59-.02-1.45-.15-1.45-.15v.02s.83.47,1.37.82l4.11,2.62-1,1.57-7.84-5,.98-1.53,6.03.08c.58.01,1.44.13,1.44.13v-.02s-.84-.48-1.38-.83l-4.05-2.58,1-1.57,7.84,5Z"/>
    <path class="st0" d="M192.92,179.2l-1.27,1.48-9.19-3.55,1.27-1.49,1.91.81,2.18-2.55-1.11-1.75,1.24-1.45,4.97,8.5ZM188.63,175.18l-1.6,1.87,2.58,1.11c.48.2,1.33.64,1.33.64l.02-.02s-.56-.79-.83-1.23l-1.5-2.37Z"/>
    <path class="st0" d="M184.42,188.3l-1.4,1.26-5.17-5.74-3.25,2.93-1.05-1.17,4.65-4.19,6.22,6.91Z"/>
  </g>
  <g class="st1">
    <path class="st0" d="M70.38,90.94c-1.13.06-1.95.19-2.47.38-.52.19-.87.55-1.06,1.08-.19.53-.28,1.39-.28,2.58v23.31c0,1.19.09,2.05.28,2.58.19.53.54.89,1.06,1.08.52.19,1.34.31,2.47.38v.94c-1.44-.09-3.43-.14-5.97-.14-2.7,0-4.7.05-6.02.14v-.94c1.13-.06,1.95-.19,2.47-.38.52-.19.87-.55,1.06-1.08.19-.53.28-1.39.28-2.58v-23.31c0-1.19-.09-2.05-.28-2.58-.19-.53-.54-.89-1.06-1.08-.52-.19-1.34-.31-2.47-.38v-.94c1.32.09,3.32.14,6.02.14,2.51,0,4.5-.05,5.97-.14v.94Z"/>
    <path class="st0" d="M98.73,123.28c-2.13-.09-5.72-.14-10.76-.14-6.02,0-10.56.05-13.63.14v-.94c1.13-.06,1.95-.19,2.47-.38.52-.19.87-.55,1.06-1.08.19-.53.28-1.39.28-2.58v-23.31c0-1.19-.09-2.05-.28-2.58-.19-.53-.54-.89-1.06-1.08-.52-.19-1.34-.31-2.47-.38v-.94c3.07.09,7.61.14,13.63.14,4.61,0,7.88-.05,9.82-.14-.22,2.07-.33,3.92-.33,5.55,0,1.22.05,2.19.14,2.91h-1.08c-.22-2.04-.5-3.55-.85-4.54-.34-.99-.92-1.71-1.74-2.16-.81-.45-2.05-.68-3.71-.68h-3.9c-1.13,0-1.95.09-2.47.26-.52.17-.87.53-1.06,1.06-.19.53-.28,1.39-.28,2.58v11.09h3.1c1.1,0,1.94-.26,2.54-.78.6-.52,1-1.13,1.2-1.83.2-.71.37-1.59.49-2.66l.14-.94h1.08c-.09,1.32-.14,2.79-.14,4.42v2.26c0,1.6.09,3.82.28,6.67h-1.08c-.03-.22-.13-.98-.28-2.28-.16-1.3-.59-2.28-1.29-2.94-.71-.66-1.69-.99-2.94-.99h-3.1v11.28c0,1.19.09,2.05.28,2.58.19.53.54.89,1.06,1.06.52.17,1.34.26,2.47.26h3.43c1.94,0,3.42-.26,4.44-.78,1.02-.52,1.76-1.35,2.23-2.49.47-1.14.81-2.83,1.03-5.05h1.08c-.09.85-.14,1.97-.14,3.38,0,1.79.11,3.79.33,6.02Z"/>
    <path class="st0" d="M128.24,94.16c2.76,2.77,4.14,6.81,4.14,12.1,0,3.42-.67,6.41-2.02,8.98-1.35,2.57-3.3,4.55-5.85,5.95-2.55,1.39-5.6,2.09-9.14,2.09l-2.73-.05c-1.75-.06-3.04-.09-3.85-.09-2.57,0-4.51.05-5.83.14v-.94c1.13-.06,1.95-.19,2.47-.38.52-.19.87-.55,1.06-1.08.19-.53.28-1.39.28-2.58v-23.31c0-1.19-.09-2.05-.28-2.58-.19-.53-.54-.89-1.06-1.08-.52-.19-1.34-.31-2.47-.38v-.94c1.1.09,2.62.14,4.56.14l4-.05c2.13-.06,3.56-.09,4.28-.09,5.55,0,9.7,1.39,12.46,4.16ZM112.43,91.18c-.49.22-.82.61-1.01,1.18-.19.56-.28,1.41-.28,2.54v23.5c0,1.13.09,1.97.28,2.54.19.56.52.96,1.01,1.17.49.22,1.23.33,2.23.33,3.32,0,5.94-.6,7.85-1.81s3.25-2.97,4.02-5.29c.77-2.32,1.15-5.28,1.15-8.88s-.42-6.54-1.27-8.81c-.85-2.27-2.22-3.97-4.11-5.1-1.9-1.13-4.46-1.69-7.69-1.69-.97,0-1.7.11-2.19.33Z"/>
    <path class="st0" d="M144.69,109.84v8.46c0,1.19.12,2.05.38,2.58.25.53.69.89,1.32,1.08.63.19,1.64.31,3.05.38v.94c-1.63-.09-3.93-.14-6.91-.14-2.7,0-4.7.05-6.02.14v-.94c1.13-.06,1.95-.19,2.47-.38.52-.19.87-.55,1.06-1.08.19-.53.28-1.39.28-2.58v-23.31c0-1.19-.09-2.05-.28-2.58-.19-.53-.54-.89-1.06-1.08-.52-.19-1.34-.31-2.47-.38v-.94c1.32.09,3.23.14,5.73.14l5.08-.05c.59-.03,1.27-.05,2.02-.05,3.67,0,6.47.84,8.41,2.51,1.94,1.68,2.91,3.92,2.91,6.74,0,1.72-.38,3.38-1.15,4.96-.77,1.58-2.07,2.91-3.9,3.97s-4.27,1.6-7.31,1.6h-3.62ZM145.99,91.27c-.49.22-.82.61-1.01,1.17-.19.56-.28,1.41-.28,2.54v13.91h3.15c3.07,0,5.19-.82,6.37-2.47,1.17-1.65,1.76-3.85,1.76-6.6,0-3.04-.6-5.28-1.81-6.72-1.21-1.44-3.2-2.16-5.99-2.16-.97,0-1.7.11-2.19.33Z"/>
  </g>
</svg>